<svg width="30" height="38" viewBox="0 0 30 38" fill="none" xmlns="http://www.w3.org/2000/svg">
<g id="analytics">
<g id="Group">
<path id="Vector" d="M13.7886 4.62363L14.8864 4.48893V3.38294V1.50952H15C20.121 1.50952 24.9313 4.22198 28.1377 9.06764C28.1382 9.06844 28.1387 9.06924 28.1393 9.07004L28.3531 9.39656L27.0037 10.5556L26.2733 11.183L26.6935 12.0494C27.9892 14.7203 28.75 17.5017 28.75 20.5617C28.75 29.5624 22.474 36.4905 15 36.4905C7.52602 36.4905 1.25 29.5624 1.25 20.5617C1.25 12.1793 6.88438 5.47082 13.7886 4.62363ZM14.8864 6.66252V5.24338L13.4786 5.42252C6.6045 6.29725 1.47727 12.8699 1.47727 20.5617C1.47727 28.896 7.33762 35.8671 15 35.8671C22.6624 35.8671 28.5227 28.896 28.5227 20.5617C28.5227 17.8864 27.9396 15.1942 26.7549 12.8198L26.0387 11.3845L24.8219 12.4296L14.8864 20.9637V6.66252ZM16.5214 2.14294L15.1136 1.96379V3.38294V17.4383V20.1598L17.1781 18.3865L26.9963 9.95331L27.9284 9.15272L27.1439 8.20703C24.3712 4.86447 20.5483 2.65535 16.5214 2.14294Z" fill="#D80073" stroke="#D80073" stroke-width="2.5"/>
</g>
</g>
</svg>
