<svg width="107" height="121" viewBox="0 0 107 121" fill="none" xmlns="http://www.w3.org/2000/svg">
<g id="Group 94568">
<path id="Vector" d="M8.86139 93.4469L54.3188 116.578L98.0502 93.4469V2.99219H8.86139V93.4469Z" fill="white"/>
<path id="Vector_2" d="M98.9703 3.3374L7.94067 95.0575L55.1244 118.419L98.9703 95.9784V3.3374Z" fill="#F2F3F2"/>
<path id="Vector_3" d="M5.86926 33.1435V95.403L7.48041 96.2087L52.9378 119.34L54.3188 120.031L55.6997 119.34L99.5463 96.2087L101.157 95.403V0H5.86926V33.1435ZM8.86137 93.6765V2.9921H98.1646V93.6765L54.3188 116.808L8.86137 93.6765Z" fill="#DCDEDC"/>
<path id="Vector_4" d="M53.5131 4.48819C53.9731 4.48819 54.4339 4.48819 54.894 4.60325L53.5131 7.25011C51.4416 7.13506 49.6006 8.7462 49.4854 10.8177C49.3702 12.8892 50.9816 14.7305 53.053 14.8455H53.5131C54.4339 14.8455 55.3541 14.5003 56.0446 13.9249L57.5408 16.4567C56.3902 17.2623 55.0092 17.7226 53.5131 17.7226C49.8303 17.8377 46.7235 15.0757 46.6083 11.3931C46.4931 7.71048 49.255 4.60325 52.9378 4.48819H53.5131ZM58.2312 10.1272L59.9578 13.0042L58.2312 15.7662L56.6206 13.0042H53.2827L55.0092 10.1272H58.2312ZM55.4693 9.09144C55.4693 8.63114 55.5845 8.17078 55.8149 7.82554C56.0446 7.4803 56.5054 7.13506 56.8503 6.90487L57.0807 6.78982C57.5407 6.55963 57.6559 6.44458 57.6559 6.21439C57.6559 5.98421 57.3111 5.75409 57.0807 5.75409C56.6206 5.75409 56.275 5.98421 56.0446 6.44458L55.4693 5.86915C55.5845 5.63897 55.8149 5.40886 56.0446 5.17867C56.3902 4.94849 56.7358 4.94849 57.0807 4.94849C57.4263 4.94849 57.8863 5.06355 58.1167 5.29373C58.3464 5.52391 58.5768 5.86915 58.5768 6.21439C58.5768 6.78982 58.2312 7.25011 57.5408 7.4803L57.1959 7.71048C56.8503 7.94059 56.6206 8.05572 56.5054 8.40096H58.5768V9.2065L55.4693 9.09144ZM53.5131 23.4767L64.4463 17.2623V0H42.4654V17.1472L53.5131 23.4767Z" fill="#FF492C"/>
<path id="Vector_5" d="M103.344 64.2156H3.68266L0 72.2717L3.68266 80.327H103.344L106.911 72.2717L103.344 64.2156Z" fill="#5A39A2"/>
<path id="Vector_6" d="M31.8548 59.0372C31.7396 59.0372 31.659 58.9832 31.6129 58.8759L29.4608 54.1002C29.4378 54.0541 29.4032 54.031 29.3578 54.031H27.7465C27.6925 54.031 27.6658 54.062 27.6658 54.1232V58.8298C27.6658 58.8911 27.6464 58.9415 27.6082 58.9796C27.5622 59.0178 27.5125 59.0372 27.4585 59.0372H25.4331C25.3798 59.0372 25.3338 59.0178 25.2949 58.9796C25.2488 58.9415 25.2258 58.8911 25.2258 58.8298V47.1608C25.2258 47.1068 25.2488 47.0571 25.2949 47.011C25.3338 46.9729 25.3798 46.9535 25.4331 46.9535H30.3702C31.1067 46.9535 31.7547 47.1032 32.3149 47.402C32.875 47.7015 33.3085 48.127 33.6152 48.68C33.9147 49.2323 34.0645 49.8723 34.0645 50.6017C34.0645 51.3843 33.8686 52.0518 33.4777 52.604C33.086 53.1642 32.5417 53.5595 31.8433 53.7891C31.7821 53.8122 31.7626 53.8503 31.7857 53.9043L34.1336 58.7953C34.1638 58.8414 34.1797 58.8759 34.1797 58.899C34.1797 58.9911 34.1142 59.0372 33.9838 59.0372H31.8548ZM27.7465 49.0364C27.6925 49.0364 27.6658 49.0674 27.6658 49.1286V52.0863C27.6658 52.1396 27.6925 52.167 27.7465 52.167H30.0138C30.4969 52.167 30.8922 52.0244 31.1989 51.7407C31.5056 51.4491 31.659 51.0733 31.659 50.6132C31.659 50.1524 31.5056 49.7766 31.1989 49.485C30.8922 49.1862 30.4969 49.0364 30.0138 49.0364H27.7465ZM43.4094 53.6855C43.4778 54.1232 43.5008 54.6099 43.4778 55.1471C43.4626 55.2932 43.3863 55.3659 43.2481 55.3659H37.9194C37.8502 55.3659 37.8272 55.3926 37.8502 55.4466C37.8812 55.677 37.9424 55.9067 38.0346 56.1371C38.3341 56.7815 38.9439 57.104 39.8648 57.104C40.6014 57.0961 41.1839 56.7966 41.6137 56.2062C41.6598 56.1371 41.7094 56.1025 41.7634 56.1025C41.8016 56.1025 41.8441 56.1255 41.8902 56.1716L43.1329 57.3913C43.1862 57.4525 43.2135 57.5065 43.2135 57.5526C43.2135 57.5756 43.1905 57.6217 43.1444 57.6908C42.7686 58.166 42.2811 58.5303 41.6828 58.7838C41.0845 59.0444 40.4286 59.1755 39.715 59.1755C38.725 59.1755 37.8891 58.953 37.2058 58.508C36.5154 58.0551 36.0207 57.4258 35.7212 56.6202C35.4836 56.0449 35.3648 55.2932 35.3648 54.3644C35.3648 53.7279 35.449 53.1678 35.6182 52.6847C35.8868 51.8711 36.3505 51.223 37.0107 50.7399C37.6702 50.2561 38.4565 50.0149 39.3694 50.0149C40.5207 50.0149 41.4452 50.3483 42.1429 51.0157C42.8413 51.6831 43.2632 52.5731 43.4094 53.6855ZM39.381 52.1209C38.6603 52.1209 38.1843 52.4579 37.9539 53.1332C37.9078 53.2866 37.8661 53.4709 37.8272 53.6855C37.8272 53.7395 37.8582 53.7661 37.9194 53.7661H40.9002C40.9693 53.7661 40.9923 53.7395 40.9693 53.6855C40.9153 53.3557 40.8886 53.1944 40.8886 53.2023C40.7814 52.8574 40.6014 52.5889 40.3479 52.3967C40.0873 52.2123 39.7647 52.1209 39.381 52.1209ZM48.3918 59.1524C47.625 59.1524 46.9532 59.0444 46.3779 58.8298C45.8026 58.6153 45.3577 58.3122 45.0431 57.9205C44.7212 57.5295 44.5599 57.0846 44.5599 56.5856V56.4128C44.5599 56.3595 44.583 56.3099 44.629 56.2638C44.6672 56.2249 44.7133 56.2062 44.7673 56.2062H46.689C46.7422 56.2062 46.7926 56.2249 46.8387 56.2638C46.8769 56.3099 46.8963 56.3595 46.8963 56.4128V56.4243C46.8963 56.6857 47.0382 56.9038 47.3218 57.081C47.5983 57.2574 47.9511 57.3452 48.3802 57.3452C48.7719 57.3452 49.0866 57.2689 49.3242 57.1148C49.5697 56.9543 49.6928 56.762 49.6928 56.5395C49.6928 56.3329 49.5891 56.1752 49.3818 56.0679C49.1744 55.9679 48.8331 55.8606 48.3572 55.7454C47.8208 55.6079 47.3946 55.4732 47.0799 55.3429C46.3434 55.0895 45.7566 54.7791 45.3195 54.4105C44.8818 54.0426 44.6636 53.5134 44.6636 52.8229C44.6636 51.9711 44.997 51.2958 45.6644 50.7968C46.3246 50.2986 47.1987 50.0494 48.2888 50.0494C49.0254 50.0494 49.6698 50.1639 50.222 50.3943C50.7742 50.6319 51.2041 50.966 51.5108 51.3959C51.8175 51.8178 51.9709 52.3009 51.9709 52.8459C51.9709 52.8992 51.9522 52.9453 51.9133 52.9835C51.8672 53.0223 51.8175 53.041 51.7642 53.041H49.911C49.8577 53.041 49.8116 53.0223 49.7727 52.9835C49.7274 52.9453 49.7043 52.8992 49.7043 52.8459C49.7043 52.5925 49.5776 52.3779 49.3242 52.2008C49.0635 52.0244 48.7179 51.9366 48.2888 51.9366C47.9122 51.9366 47.6019 52.0093 47.3564 52.1555C47.1188 52.293 46.9993 52.4809 46.9993 52.7192C46.9993 52.9489 47.1188 53.1217 47.3564 53.2369C47.5868 53.3521 47.9778 53.4745 48.53 53.6048L48.9678 53.7085C49.1283 53.7474 49.3011 53.7971 49.4855 53.8582C50.2983 54.1038 50.9427 54.4148 51.4186 54.7906C51.8866 55.1744 52.1207 55.7267 52.1207 56.4474C52.1207 57.2991 51.7873 57.963 51.1199 58.4389C50.4445 58.9141 49.5351 59.1524 48.3918 59.1524ZM58.7036 50.3713C58.7036 50.318 58.7223 50.2676 58.7612 50.2215C58.7994 50.1834 58.849 50.1639 58.9102 50.1639H60.9248C60.986 50.1639 61.0357 50.1834 61.0739 50.2215C61.1127 50.2676 61.1315 50.318 61.1315 50.3713V58.8298C61.1315 58.8911 61.1127 58.9415 61.0739 58.9796C61.0357 59.0178 60.986 59.0372 60.9248 59.0372H58.9102C58.849 59.0372 58.7994 59.0178 58.7612 58.9796C58.7223 58.9415 58.7036 58.8911 58.7036 58.8298V58.2431C58.7036 58.2121 58.6921 58.1934 58.669 58.1855C58.646 58.1775 58.623 58.1934 58.5999 58.2315C58.1398 58.845 57.4263 59.1524 56.4594 59.1524C55.5846 59.1524 54.8638 58.8911 54.2958 58.3698C53.7356 57.8398 53.4555 57.0961 53.4555 56.1371V50.3713C53.4555 50.318 53.475 50.2676 53.5131 50.2215C53.5513 50.1834 53.6017 50.1639 53.6629 50.1639H55.6652C55.7192 50.1639 55.7689 50.1834 55.815 50.2215C55.8531 50.2676 55.8726 50.318 55.8726 50.3713V55.5387C55.8726 55.9988 55.995 56.3711 56.2405 56.6547C56.486 56.9463 56.8273 57.0925 57.265 57.0925C57.6639 57.0925 57.9858 56.973 58.2313 56.7354C58.4847 56.4978 58.6417 56.1903 58.7036 55.8145V50.3713ZM63.1338 59.0372C63.0805 59.0372 63.0344 59.0178 62.9963 58.9796C62.9502 58.9415 62.9271 58.8911 62.9271 58.8298V47.1608C62.9271 47.1068 62.9502 47.0571 62.9963 47.011C63.0344 46.9729 63.0805 46.9535 63.1338 46.9535H65.1599C65.2131 46.9535 65.2628 46.9729 65.3089 47.011C65.3478 47.0571 65.3665 47.1068 65.3665 47.1608V58.8298C65.3665 58.8911 65.3478 58.9415 65.3089 58.9796C65.2628 59.0178 65.2131 59.0372 65.1599 59.0372H63.1338ZM72.2367 51.9135C72.2367 51.9668 72.218 52.0129 72.1799 52.0518C72.1338 52.0978 72.0834 52.1209 72.0301 52.1209H70.3726C70.3114 52.1209 70.2805 52.1475 70.2805 52.2008V55.8606C70.2805 56.2364 70.3611 56.5208 70.5224 56.7123C70.6758 56.8966 70.9249 56.9888 71.2705 56.9888H71.8342C71.8954 56.9888 71.9459 57.0075 71.984 57.0464C72.0222 57.0846 72.0416 57.1343 72.0416 57.1955V58.8298C72.0416 58.9602 71.9725 59.0329 71.8342 59.0487C71.3511 59.0718 71.0055 59.0833 70.7982 59.0833C69.847 59.0833 69.1335 58.9256 68.6583 58.611C68.1903 58.2963 67.9484 57.7023 67.9333 56.8275V52.2008C67.9333 52.1475 67.9059 52.1209 67.8526 52.1209H66.8626C66.8094 52.1209 66.7633 52.0978 66.7244 52.0518C66.6783 52.0129 66.6553 51.9668 66.6553 51.9135V50.3713C66.6553 50.318 66.6783 50.2676 66.7244 50.2215C66.7633 50.1834 66.8094 50.1639 66.8626 50.1639H67.8526C67.9059 50.1639 67.9333 50.1337 67.9333 50.0725V48.0234C67.9333 47.9701 67.9563 47.9204 68.0017 47.8743C68.0406 47.8355 68.0866 47.8167 68.1399 47.8167H70.0739C70.1351 47.8167 70.1847 47.8355 70.2229 47.8743C70.2618 47.9204 70.2805 47.9701 70.2805 48.0234V50.0725C70.2805 50.1337 70.3114 50.1639 70.3726 50.1639H72.0301C72.0834 50.1639 72.1338 50.1834 72.1799 50.2215C72.218 50.2676 72.2367 50.318 72.2367 50.3713V51.9135ZM77.2429 59.1524C76.4682 59.1524 75.7928 59.0444 75.2175 58.8298C74.6423 58.6153 74.1973 58.3122 73.8826 57.9205C73.568 57.5295 73.411 57.0846 73.411 56.5856V56.4128C73.411 56.3595 73.4298 56.3099 73.4687 56.2638C73.5068 56.2249 73.5565 56.2062 73.6177 56.2062H75.5286C75.5898 56.2062 75.6395 56.2249 75.6783 56.2638C75.7165 56.3099 75.7352 56.3595 75.7352 56.4128V56.4243C75.7352 56.6857 75.8778 56.9038 76.1615 57.081C76.4451 57.2574 76.7979 57.3452 77.2199 57.3452C77.6115 57.3452 77.9298 57.2689 78.1753 57.1148C78.4129 56.9543 78.5317 56.762 78.5317 56.5395C78.5317 56.3329 78.4287 56.1752 78.2214 56.0679C78.014 55.9679 77.6763 55.8606 77.2083 55.7454C76.664 55.6079 76.2378 55.4732 75.931 55.3429C75.1945 55.0895 74.6077 54.7791 74.1707 54.4105C73.7329 54.0426 73.5147 53.5134 73.5147 52.8229C73.5147 51.9711 73.8445 51.2958 74.504 50.7968C75.1643 50.2986 76.0426 50.0494 77.1392 50.0494C77.8758 50.0494 78.5202 50.1639 79.0731 50.3943C79.6254 50.6319 80.0552 50.966 80.3619 51.3959C80.6607 51.8178 80.8105 52.3009 80.8105 52.8459C80.8105 52.8992 80.7918 52.9453 80.7529 52.9835C80.7147 53.0223 80.6651 53.041 80.6039 53.041H78.7621C78.7009 53.041 78.6512 53.0223 78.6123 52.9835C78.5742 52.9453 78.5547 52.8992 78.5547 52.8459C78.5547 52.5925 78.4244 52.3779 78.1638 52.2008C77.9031 52.0244 77.5618 51.9366 77.1392 51.9366C76.7562 51.9366 76.4451 52.0093 76.2075 52.1555C75.962 52.293 75.8389 52.4809 75.8389 52.7192C75.8389 52.9489 75.9577 53.1217 76.196 53.2369C76.4336 53.3521 76.8289 53.4745 77.3811 53.6048C77.5043 53.6358 77.6461 53.6703 77.8074 53.7085C77.9679 53.7474 78.1407 53.7971 78.325 53.8582C79.1458 54.1038 79.7902 54.4148 80.2582 54.7906C80.7342 55.1744 80.9718 55.7267 80.9718 56.4474C80.9718 57.2991 80.6341 57.963 79.9587 58.4389C79.2841 58.9141 78.3783 59.1524 77.2429 59.1524ZM43.4662 35.4797C43.3979 35.5104 43.3979 35.545 43.4662 35.5834C44.5563 36.1434 45.1007 37.0794 45.1007 38.3914C45.1007 39.5115 44.7212 40.3554 43.9616 40.9232C43.202 41.4909 42.2084 41.7747 40.9808 41.7747H36.5038C36.4506 41.7747 36.4045 41.7556 36.3663 41.7172C36.3202 41.6788 36.2972 41.629 36.2972 41.5676V29.8983C36.2972 29.8446 36.3202 29.7947 36.3663 29.7487C36.4045 29.7103 36.4506 29.6912 36.5038 29.6912H40.8426C43.5663 29.6912 44.9278 30.7959 44.9278 33.0055C44.9278 34.1563 44.4411 34.9811 43.4662 35.4797ZM38.8172 31.7741C38.7632 31.7741 38.7366 31.8048 38.7366 31.8662V34.5591C38.7366 34.6205 38.7632 34.6512 38.8172 34.6512H40.8426C41.3797 34.6512 41.8016 34.5246 42.1083 34.2714C42.3999 34.0182 42.5461 33.673 42.5461 33.2356C42.5461 32.783 42.3999 32.4262 42.1083 32.1654C41.8016 31.9045 41.3797 31.7741 40.8426 31.7741H38.8172ZM40.9808 39.6687C41.51 39.6687 41.9247 39.5345 42.2235 39.2659C42.5231 38.9975 42.6728 38.6254 42.6728 38.1497C42.6728 37.6817 42.5231 37.3096 42.2235 37.0334C41.9247 36.7648 41.5028 36.6306 40.9578 36.6306H38.8172C38.7632 36.6306 38.7366 36.6613 38.7366 36.7226V39.5767C38.7366 39.638 38.7632 39.6687 38.8172 39.6687H40.9808ZM54.6982 36.4235C54.7674 36.8607 54.7904 37.3479 54.7674 37.885C54.7602 38.0307 54.6867 38.1036 54.5492 38.1036H49.209C49.1398 38.1036 49.1168 38.1305 49.1399 38.1842C49.1787 38.4143 49.2435 38.6445 49.3357 38.8747C49.6352 39.5192 50.245 39.8414 51.1652 39.8414C51.9018 39.8337 52.4814 39.5345 52.9033 38.9437C52.9494 38.8747 53.0034 38.8401 53.0646 38.8401C53.0948 38.8401 53.1337 38.8632 53.1798 38.9092L54.4225 40.1291C54.4837 40.1904 54.5147 40.2441 54.5147 40.2902C54.5147 40.3132 54.4916 40.3593 54.4455 40.4283C54.0618 40.9039 53.5707 41.2684 52.9724 41.5216C52.3813 41.7824 51.7254 41.9128 51.0047 41.9128C50.0147 41.9128 49.1787 41.6903 48.4955 41.2454C47.8129 40.7927 47.3218 40.1636 47.0223 39.358C46.7768 38.7826 46.6544 38.0307 46.6544 37.1024C46.6544 36.4656 46.7422 35.9056 46.9194 35.4222C47.18 34.609 47.6437 33.9607 48.3118 33.4774C48.9714 32.994 49.754 32.7523 50.659 32.7523C51.8103 32.7523 52.7348 33.086 53.4325 33.7535C54.1309 34.421 54.5528 35.311 54.6982 36.4235ZM50.6821 34.8583C49.9535 34.8583 49.4739 35.1958 49.2435 35.871C49.1975 36.0245 49.1593 36.2086 49.1283 36.4235C49.1283 36.4772 49.1557 36.5039 49.209 36.5039H52.2013C52.2704 36.5039 52.2934 36.4772 52.2704 36.4235C52.2092 36.0935 52.1782 35.9324 52.1782 35.9401C52.0782 35.5948 51.8982 35.3263 51.6375 35.1345C51.3762 34.9504 51.0579 34.8583 50.6821 34.8583ZM59.6929 41.8898C58.9182 41.8898 58.2428 41.7824 57.6675 41.5676C57.0922 41.3528 56.6473 41.0497 56.3326 40.6584C56.018 40.2672 55.861 39.8222 55.861 39.3235V39.1509C55.861 39.0972 55.8798 39.0473 55.9186 39.0013C55.9568 38.9629 56.0065 38.9437 56.0677 38.9437H57.9786C58.0398 38.9437 58.0895 38.9629 58.1283 39.0013C58.1665 39.0473 58.1852 39.0972 58.1852 39.1509V39.1624C58.1852 39.4233 58.3278 39.6418 58.6115 39.8183C58.8951 39.9948 59.2479 40.083 59.6699 40.083C60.0615 40.083 60.3798 40.0063 60.6253 39.8529C60.8629 39.6917 60.9817 39.4999 60.9817 39.2775C60.9817 39.0703 60.8787 38.913 60.6714 38.8056C60.464 38.7058 60.1263 38.5985 59.6583 38.4834C59.114 38.3453 58.6878 38.2111 58.381 38.0806C57.6445 37.8275 57.0577 37.5167 56.6207 37.1484C56.1829 36.7802 55.9647 36.2508 55.9647 35.5603C55.9647 34.7087 56.2945 34.0336 56.954 33.5349C57.6143 33.0362 58.4926 32.7868 59.5892 32.7868C60.3258 32.7868 60.9702 32.9019 61.5231 33.1321C62.0754 33.3699 62.5052 33.7037 62.8119 34.1333C63.1107 34.5553 63.2605 35.0386 63.2605 35.5834C63.2605 35.637 63.2418 35.6831 63.2029 35.7214C63.1647 35.7598 63.1151 35.779 63.0539 35.779H61.2121C61.1509 35.779 61.1012 35.7598 61.0623 35.7214C61.0242 35.6831 61.0047 35.637 61.0047 35.5834C61.0047 35.3301 60.8744 35.1154 60.6138 34.9389C60.3531 34.7624 60.0118 34.6742 59.5892 34.6742C59.2062 34.6742 58.8951 34.7471 58.6575 34.8928C58.412 35.0309 58.2889 35.2189 58.2889 35.4567C58.2889 35.6869 58.4077 35.8595 58.646 35.9746C58.8836 36.0897 59.2789 36.2124 59.8311 36.3429C59.9543 36.3736 60.0961 36.4081 60.2574 36.4464C60.4179 36.4848 60.5907 36.5347 60.775 36.596C61.5958 36.8416 62.2402 37.1523 62.7082 37.5282C63.1842 37.9118 63.4218 38.4642 63.4218 39.1854C63.4218 40.037 63.0841 40.7006 62.4087 41.1763C61.7341 41.6519 60.8283 41.8898 59.6929 41.8898ZM69.8895 34.6512C69.8895 34.7049 69.8701 34.7509 69.8319 34.7893C69.7938 34.8353 69.7434 34.8583 69.6822 34.8583H68.0247C67.9714 34.8583 67.9448 34.8852 67.9448 34.9389V38.5985C67.9448 38.9744 68.0211 39.2583 68.1745 39.4501C68.3279 39.6342 68.5813 39.7263 68.9341 39.7263H69.4978C69.5518 39.7263 69.6015 39.7455 69.6476 39.7838C69.6858 39.8222 69.7052 39.872 69.7052 39.9335V41.5676C69.7052 41.698 69.6361 41.7709 69.4978 41.7862C69.0147 41.8093 68.6698 41.8208 68.4625 41.8208C67.5034 41.8208 66.7899 41.6635 66.3219 41.3489C65.846 41.0344 65.6048 40.4398 65.5969 39.5652V34.9389C65.5969 34.8852 65.5659 34.8583 65.5047 34.8583H64.5262C64.465 34.8583 64.4154 34.8353 64.3772 34.7893C64.3383 34.7509 64.3196 34.7049 64.3196 34.6512V33.1091C64.3196 33.0554 64.3383 33.0055 64.3772 32.9595C64.4154 32.9211 64.465 32.9019 64.5262 32.9019H65.5047C65.5659 32.9019 65.5969 32.8713 65.5969 32.8098V30.7614C65.5969 30.7077 65.6163 30.6578 65.6545 30.6118C65.6926 30.5735 65.7423 30.5542 65.8042 30.5542H67.7374C67.7907 30.5542 67.8411 30.5735 67.8872 30.6118C67.9254 30.6578 67.9448 30.7077 67.9448 30.7614V32.8098C67.9448 32.8713 67.9714 32.9019 68.0247 32.9019H69.6822C69.7434 32.9019 69.7938 32.9211 69.8319 32.9595C69.8701 33.0055 69.8895 33.0554 69.8895 33.1091V34.6512Z" fill="#252530"/>
<path id="Vector_7" d="M32.6144 69.7162C32.6144 69.7551 32.6029 69.7854 32.5798 69.8084C32.5489 69.8394 32.5143 69.8545 32.4761 69.8545H28.5521C28.5133 69.8545 28.4945 69.8739 28.4945 69.9121V72.0642C28.4945 72.1023 28.5133 72.1218 28.5521 72.1218H31.1873C31.2255 72.1218 31.2601 72.1333 31.291 72.1563C31.3141 72.1873 31.3256 72.2211 31.3256 72.26V73.1348C31.3256 73.173 31.3141 73.2075 31.291 73.2378C31.2601 73.2608 31.2255 73.2723 31.1873 73.2723H28.5521C28.5133 73.2723 28.4945 73.2918 28.4945 73.3299V75.5511C28.4945 75.5893 28.5133 75.6087 28.5521 75.6087H32.4761C32.5143 75.6087 32.5489 75.6238 32.5798 75.6548C32.6029 75.6778 32.6144 75.7088 32.6144 75.747V76.6218C32.6144 76.6599 32.6029 76.6902 32.5798 76.7132C32.5489 76.7442 32.5143 76.7593 32.4761 76.7593H27.2972C27.259 76.7593 27.2288 76.7442 27.2058 76.7132C27.1748 76.6902 27.1597 76.6599 27.1597 76.6218V68.8422C27.1597 68.8033 27.1748 68.773 27.2058 68.75C27.2288 68.719 27.259 68.7039 27.2972 68.7039H32.4761C32.5143 68.7039 32.5489 68.719 32.5798 68.75C32.6029 68.773 32.6144 68.8033 32.6144 68.8422V69.7162ZM36.6651 70.7869C37.2865 70.7869 37.7854 70.9712 38.1613 71.3391C38.5292 71.7078 38.7135 72.2103 38.7135 72.8468V76.6218C38.7135 76.6599 38.6984 76.6902 38.6674 76.7132C38.6444 76.7442 38.6142 76.7593 38.5753 76.7593H37.5169C37.4787 76.7593 37.4441 76.7442 37.4132 76.7132C37.3901 76.6902 37.3786 76.6599 37.3786 76.6218V73.1233C37.3786 72.7698 37.2793 72.4825 37.0798 72.26C36.8797 72.0447 36.6154 71.9374 36.2857 71.9374C35.9552 71.9374 35.6873 72.0447 35.48 72.26C35.2805 72.4746 35.1805 72.7582 35.1805 73.1118V76.6218C35.1805 76.6599 35.169 76.6902 35.1459 76.7132C35.1157 76.7442 35.0811 76.7593 35.0422 76.7593H33.9838C33.9457 76.7593 33.9147 76.7442 33.8917 76.7132C33.8607 76.6902 33.8456 76.6599 33.8456 76.6218V71.0173C33.8456 70.9784 33.8607 70.9438 33.8917 70.9136C33.9147 70.8906 33.9457 70.879 33.9838 70.879H35.0422C35.0811 70.879 35.1157 70.8906 35.1459 70.9136C35.169 70.9438 35.1805 70.9784 35.1805 71.0173V71.3852C35.1805 71.4082 35.1884 71.4234 35.2035 71.4313C35.2193 71.4392 35.2301 71.4313 35.2381 71.4082C35.5527 70.9942 36.0286 70.7869 36.6651 70.7869ZM43.225 71.8222C43.225 71.8611 43.2092 71.8914 43.1789 71.9144C43.1559 71.9454 43.1249 71.9605 43.0868 71.9605H41.9132C41.8743 71.9605 41.8556 71.9799 41.8556 72.0181V74.7915C41.8556 75.0831 41.9168 75.2941 42.0392 75.4244C42.1702 75.5547 42.3733 75.6202 42.6497 75.6202H42.9946C43.0328 75.6202 43.0637 75.6318 43.0868 75.6548C43.1177 75.6858 43.1329 75.7203 43.1329 75.7585V76.6218C43.1329 76.706 43.0868 76.7557 42.9946 76.7708L42.3963 76.7823C41.7901 76.7823 41.3372 76.6786 41.0384 76.472C40.7389 76.2646 40.5855 75.8737 40.5783 75.2977V72.0181C40.5783 71.9799 40.5589 71.9605 40.5207 71.9605H39.8648C39.8259 71.9605 39.7914 71.9454 39.7611 71.9144C39.7381 71.8914 39.7265 71.8611 39.7265 71.8222V71.0173C39.7265 70.9784 39.7381 70.9438 39.7611 70.9136C39.7914 70.8906 39.8259 70.879 39.8648 70.879H40.5207C40.5589 70.879 40.5783 70.8596 40.5783 70.8214V69.475C40.5783 69.4362 40.5898 69.4023 40.6121 69.3714C40.6431 69.3483 40.6777 69.3368 40.7158 69.3368H41.7173C41.7555 69.3368 41.7865 69.3483 41.8095 69.3714C41.8397 69.4023 41.8556 69.4362 41.8556 69.475V70.8214C41.8556 70.8596 41.8743 70.879 41.9132 70.879H43.0868C43.1249 70.879 43.1559 70.8906 43.1789 70.9136C43.2092 70.9438 43.225 70.9784 43.225 71.0173V71.8222ZM49.255 73.1571C49.286 73.3494 49.3011 73.5639 49.3011 73.8022L49.2896 74.1586C49.2896 74.2508 49.2435 74.2969 49.1513 74.2969H45.5492C45.511 74.2969 45.4923 74.3156 45.4923 74.3545C45.5153 74.6072 45.5492 74.78 45.5953 74.8722C45.7796 75.4244 46.2281 75.7045 46.9417 75.7124C47.4637 75.7124 47.8777 75.4971 48.1851 75.068C48.2153 75.0219 48.2542 74.9989 48.3003 74.9989C48.3306 74.9989 48.3572 75.0104 48.3802 75.0334L49.0937 75.6202C49.1629 75.6742 49.1744 75.7354 49.1283 75.8046C48.8907 76.1422 48.5761 76.4029 48.1851 76.5872C47.7862 76.7708 47.3449 76.863 46.8618 76.863C46.2627 76.863 45.7529 76.729 45.331 76.4605C44.9163 76.1919 44.6132 75.8161 44.4217 75.3322C44.2453 74.9182 44.1567 74.343 44.1567 73.6064C44.1567 73.1614 44.2028 72.8007 44.295 72.5242C44.4483 71.9871 44.7399 71.5616 45.1697 71.247C45.5917 70.9402 46.1022 70.7869 46.7005 70.7869C48.2118 70.7869 49.0635 71.5767 49.255 73.1571ZM46.7005 71.9374C46.4168 71.9374 46.1785 72.0102 45.9869 72.1563C45.8026 72.2946 45.6723 72.4897 45.5953 72.7431C45.5492 72.8734 45.5189 73.0426 45.5038 73.2493C45.488 73.2882 45.5038 73.3069 45.5492 73.3069H47.8856C47.9237 73.3069 47.9432 73.2882 47.9432 73.2493C47.9281 73.0578 47.905 72.9123 47.8741 72.8122C47.8049 72.5358 47.671 72.3212 47.4716 72.1678C47.2642 72.0145 47.0072 71.9374 46.7005 71.9374ZM53.2597 70.8099C53.5052 70.8099 53.7205 70.8596 53.9048 70.9597C53.966 70.9899 53.989 71.0475 53.9732 71.1318L53.7781 72.1678C53.7701 72.26 53.7161 72.2866 53.6168 72.2485C53.5016 72.2103 53.3677 72.1909 53.2143 72.1909C53.1142 72.1909 53.0372 72.1945 52.9839 72.2024C52.6613 72.2175 52.3928 72.3291 52.1782 72.5358C51.9637 72.751 51.8557 73.0268 51.8557 73.3645V76.6218C51.8557 76.6599 51.8441 76.6902 51.8218 76.7132C51.7909 76.7442 51.7563 76.7593 51.7181 76.7593H50.659C50.6209 76.7593 50.5899 76.7442 50.5669 76.7132C50.5366 76.6902 50.5208 76.6599 50.5208 76.6218V71.0173C50.5208 70.9784 50.5366 70.9438 50.5669 70.9136C50.5899 70.8906 50.6209 70.879 50.659 70.879H51.7181C51.7563 70.879 51.7909 70.8906 51.8218 70.9136C51.8441 70.9438 51.8557 70.9784 51.8557 71.0173V71.535C51.8557 71.5652 51.86 71.581 51.8672 71.581C51.883 71.5882 51.8981 71.581 51.9133 71.558C52.2358 71.059 52.6844 70.8099 53.2597 70.8099ZM59.8311 72.3982C59.9694 72.7892 60.0385 73.2687 60.0385 73.8368C60.0385 74.3811 59.9729 74.8491 59.8426 75.2408C59.6741 75.747 59.4056 76.1422 59.0369 76.4259C58.6611 76.7096 58.1895 76.8514 57.6214 76.8514C57.0771 76.8514 56.6393 76.6563 56.3096 76.2646C56.2945 76.2495 56.2794 76.2452 56.2635 76.2531C56.2484 76.261 56.2405 76.2762 56.2405 76.2992V78.7962C56.2405 78.835 56.2289 78.8653 56.2059 78.8883C56.1757 78.9193 56.1411 78.9344 56.1022 78.9344H55.0438C55.0057 78.9344 54.9747 78.9193 54.9517 78.8883C54.9207 78.8653 54.9056 78.835 54.9056 78.7962V71.0173C54.9056 70.9784 54.9207 70.9438 54.9517 70.9136C54.9747 70.8906 55.0057 70.879 55.0438 70.879H56.1022C56.1411 70.879 56.1757 70.8906 56.2059 70.9136C56.2289 70.9438 56.2405 70.9784 56.2405 71.0173V71.3622C56.2405 71.3852 56.2484 71.4003 56.2635 71.4082C56.2794 71.4162 56.2945 71.4082 56.3096 71.3852C56.6473 70.9863 57.0886 70.7869 57.6329 70.7869C58.178 70.7869 58.6381 70.9287 59.0139 71.2124C59.3897 71.4968 59.6626 71.8914 59.8311 72.3982ZM58.3349 75.2178C58.5653 74.8642 58.6805 74.3962 58.6805 73.8138C58.6805 73.2536 58.5884 72.8122 58.4041 72.4897C58.1895 72.1138 57.8633 71.9259 57.4263 71.9259C57.0267 71.9259 56.7279 72.1102 56.5285 72.4782C56.3521 72.7777 56.2635 73.2226 56.2635 73.8138C56.2635 74.4193 56.3593 74.8801 56.5515 75.1947C56.7509 75.5317 57.0382 75.7009 57.4148 75.7009C57.8209 75.7009 58.1283 75.5396 58.3349 75.2178ZM64.0661 70.8099C64.3117 70.8099 64.5262 70.8596 64.7105 70.9597C64.7717 70.9899 64.7948 71.0475 64.7797 71.1318L64.5838 72.1678C64.5766 72.26 64.5226 72.2866 64.4233 72.2485C64.3081 72.2103 64.1734 72.1909 64.0201 72.1909C63.9207 72.1909 63.8437 72.1945 63.7897 72.2024C63.4678 72.2175 63.1993 72.3291 62.9847 72.5358C62.7694 72.751 62.6621 73.0268 62.6621 73.3645V76.6218C62.6621 76.6599 62.6506 76.6902 62.6276 76.7132C62.5973 76.7442 62.5628 76.7593 62.5239 76.7593H61.4655C61.4273 76.7593 61.3964 76.7442 61.3733 76.7132C61.3424 76.6902 61.3273 76.6599 61.3273 76.6218V71.0173C61.3273 70.9784 61.3424 70.9438 61.3733 70.9136C61.3964 70.8906 61.4273 70.879 61.4655 70.879H62.5239C62.5628 70.879 62.5973 70.8906 62.6276 70.9136C62.6506 70.9438 62.6621 70.9784 62.6621 71.0173V71.535C62.6621 71.5652 62.6657 71.581 62.6737 71.581C62.6888 71.5882 62.7046 71.581 62.7197 71.558C63.0423 71.059 63.4909 70.8099 64.0661 70.8099ZM66.4141 70.0734C66.1757 70.0734 65.9806 69.9963 65.8273 69.843C65.6732 69.6896 65.5969 69.4938 65.5969 69.2562C65.5969 69.0186 65.6732 68.8227 65.8273 68.6694C65.9806 68.516 66.1757 68.439 66.4141 68.439C66.6517 68.439 66.8475 68.516 67.0009 68.6694C67.1542 68.8227 67.2313 69.0186 67.2313 69.2562C67.2313 69.4938 67.1542 69.6896 67.0009 69.843C66.8475 69.9963 66.6517 70.0734 66.4141 70.0734ZM65.8618 76.7593C65.8229 76.7593 65.7927 76.7442 65.7697 76.7132C65.7387 76.6902 65.7236 76.6599 65.7236 76.6218V71.0058C65.7236 70.9669 65.7387 70.9366 65.7697 70.9136C65.7927 70.8826 65.8229 70.8675 65.8618 70.8675H66.9202C66.9584 70.8675 66.9929 70.8826 67.0239 70.9136C67.0469 70.9366 67.0585 70.9669 67.0585 71.0058V76.6218C67.0585 76.6599 67.0469 76.6902 67.0239 76.7132C66.9929 76.7442 66.9584 76.7593 66.9202 76.7593H65.8618ZM70.7758 76.8284C70.292 76.8284 69.8665 76.7557 69.4978 76.6102C69.1378 76.472 68.8577 76.2762 68.6583 76.0227C68.4581 75.7772 68.3588 75.5014 68.3588 75.1947V75.091C68.3588 75.0522 68.3703 75.0183 68.3933 74.9874C68.4243 74.9643 68.4581 74.9528 68.497 74.9528H69.5093C69.5482 74.9528 69.5828 74.9643 69.613 74.9874C69.6361 75.0183 69.6476 75.0522 69.6476 75.091V75.1141C69.6476 75.3056 69.7513 75.4748 69.9586 75.6202C70.1732 75.7585 70.4417 75.8276 70.7643 75.8276C71.071 75.8276 71.3201 75.7657 71.5117 75.6433C71.7039 75.513 71.7997 75.3517 71.7997 75.1602C71.7997 74.9838 71.719 74.8491 71.5577 74.757C71.4044 74.6727 71.1517 74.5806 70.7981 74.4812L70.3611 74.343C69.9701 74.2278 69.6397 74.1046 69.3718 73.9743C69.1033 73.844 68.8765 73.664 68.6921 73.4336C68.5085 73.2111 68.4164 72.9231 68.4164 72.5703C68.4164 72.0332 68.6273 71.6077 69.0493 71.293C69.4712 70.9712 70.0277 70.8099 70.7182 70.8099C71.1862 70.8099 71.5966 70.8826 71.9494 71.0288C72.3022 71.1822 72.5744 71.3888 72.7666 71.6502C72.9581 71.9187 73.0539 72.2211 73.0539 72.5588C73.0539 72.5977 73.0424 72.6322 73.0193 72.6625C72.9891 72.6855 72.9545 72.697 72.9157 72.697H71.9379C71.8997 72.697 71.8652 72.6855 71.8342 72.6625C71.8112 72.6322 71.7997 72.5977 71.7997 72.5588C71.7997 72.3594 71.7039 72.1945 71.5117 72.0642C71.3122 71.9259 71.0437 71.8568 70.7067 71.8568C70.4072 71.8568 70.1653 71.9108 69.9817 72.0181C69.7894 72.1333 69.6937 72.2902 69.6937 72.4897C69.6937 72.674 69.7822 72.8122 69.9586 72.9044C70.1422 73.0038 70.4453 73.1118 70.8673 73.2262L71.1207 73.2954C71.5275 73.4185 71.8688 73.5409 72.1453 73.664C72.421 73.7943 72.655 73.9707 72.8473 74.1932C73.0388 74.4236 73.1345 74.7188 73.1345 75.0795C73.1345 75.6238 72.92 76.0501 72.4902 76.3568C72.0603 76.6714 71.4893 76.8284 70.7758 76.8284ZM79.2221 73.1571C79.2531 73.3494 79.2682 73.5639 79.2682 73.8022L79.2567 74.1586C79.2567 74.2508 79.2113 74.2969 79.1192 74.2969H75.517C75.4781 74.2969 75.4594 74.3156 75.4594 74.3545C75.4825 74.6072 75.517 74.78 75.5631 74.8722C75.7467 75.4244 76.196 75.7045 76.9095 75.7124C77.4308 75.7124 77.8455 75.4971 78.1522 75.068C78.1832 75.0219 78.2213 74.9989 78.2674 74.9989C78.2977 74.9989 78.325 75.0104 78.3481 75.0334L79.0616 75.6202C79.1307 75.6742 79.1422 75.7354 79.0961 75.8046C78.8578 76.1422 78.5396 76.4029 78.1407 76.5872C77.7497 76.7708 77.312 76.863 76.8289 76.863C76.2305 76.863 75.7201 76.729 75.2981 76.4605C74.8841 76.1919 74.581 75.8161 74.3888 75.3322C74.2124 74.9182 74.1245 74.343 74.1245 73.6064C74.1245 73.1614 74.1706 72.8007 74.2628 72.5242C74.4161 71.9871 74.7034 71.5616 75.1253 71.247C75.5552 70.9402 76.0693 70.7869 76.6676 70.7869C78.1789 70.7869 79.0306 71.5767 79.2221 73.1571ZM76.6676 71.9374C76.3839 71.9374 76.1463 72.0102 75.9541 72.1563C75.7697 72.2946 75.6394 72.4897 75.5631 72.7431C75.517 72.8734 75.4861 73.0426 75.471 73.2493C75.4558 73.2882 75.4709 73.3069 75.517 73.3069H77.8527C77.8916 73.3069 77.9103 73.2882 77.9103 73.2493C77.8952 73.0578 77.8721 72.9123 77.8412 72.8122C77.7728 72.5358 77.6345 72.3212 77.4272 72.1678C77.2277 72.0145 76.9743 71.9374 76.6676 71.9374Z" fill="white"/>
<path id="Vector_8" d="M35.3993 92.986C35.3151 92.986 35.2611 92.9479 35.238 92.8708L33.2012 85.0804L33.1896 85.0343C33.1896 84.9652 33.2321 84.9307 33.3164 84.9307H34.7434C34.8197 84.9307 34.8701 84.9688 34.8932 85.0459L35.9861 89.7295C35.994 89.7604 36.0056 89.7755 36.0207 89.7755C36.0358 89.7755 36.0473 89.7604 36.0552 89.7295L37.1136 85.0574C37.1367 84.9724 37.1871 84.9307 37.2634 84.9307H38.6559C38.7408 84.9307 38.7941 84.9688 38.8172 85.0459L39.9677 89.7295C39.9756 89.7525 39.9872 89.7676 40.0023 89.7755C40.0181 89.7755 40.0296 89.7604 40.0368 89.7295L41.096 85.0574C41.119 84.9724 41.1687 84.9307 41.2457 84.9307H42.6036C42.7109 84.9307 42.7527 84.9803 42.7296 85.0804L40.8425 92.8708C40.8195 92.9479 40.7662 92.986 40.6812 92.986H39.3118C39.2355 92.986 39.1858 92.9479 39.1628 92.8708L37.9884 87.8884C37.9812 87.8575 37.9697 87.8423 37.9539 87.8423C37.9388 87.8423 37.9272 87.8575 37.9193 87.8884L36.8264 92.8593C36.8112 92.9443 36.7608 92.986 36.6766 92.986H35.3993ZM43.8464 92.986C43.8082 92.986 43.7736 92.9709 43.7427 92.9399C43.7196 92.9169 43.7081 92.8867 43.7081 92.8478V85.0689C43.7081 85.03 43.7196 84.9998 43.7427 84.9767C43.7736 84.9458 43.8082 84.9307 43.8464 84.9307H45.1928C45.2309 84.9307 45.2619 84.9458 45.2849 84.9767C45.3152 84.9998 45.331 85.03 45.331 85.0689V92.8478C45.331 92.8867 45.3152 92.9169 45.2849 92.9399C45.2619 92.9709 45.2309 92.986 45.1928 92.986H43.8464ZM51.361 85.0689C51.361 85.03 51.3725 84.9998 51.3956 84.9767C51.4265 84.9458 51.4611 84.9307 51.4992 84.9307H52.8456C52.8838 84.9307 52.9148 84.9458 52.9378 84.9767C52.9688 84.9998 52.9839 85.03 52.9839 85.0689V92.8478C52.9839 92.8867 52.9688 92.9169 52.9378 92.9399C52.9148 92.9709 52.8838 92.986 52.8456 92.986H51.5453C51.4683 92.986 51.415 92.9558 51.384 92.8939L48.4032 87.9683C48.3881 87.9453 48.373 87.9381 48.3572 87.9453C48.342 87.9453 48.3348 87.9611 48.3348 87.9914L48.3572 92.8478C48.3572 92.8867 48.342 92.9169 48.3118 92.9399C48.2888 92.9709 48.2578 92.986 48.2196 92.986H46.8732C46.8344 92.986 46.7998 92.9709 46.7696 92.9399C46.7465 92.9169 46.735 92.8867 46.735 92.8478V85.0689C46.735 85.03 46.7465 84.9998 46.7696 84.9767C46.7998 84.9458 46.8344 84.9307 46.8732 84.9307H48.1736C48.2499 84.9307 48.3039 84.9609 48.3348 85.0228L51.3034 89.9253C51.3192 89.9483 51.3344 89.9555 51.3495 89.9483C51.3653 89.9483 51.3725 89.9325 51.3725 89.9023L51.361 85.0689ZM59.9463 84.9307C59.9844 84.9307 60.0154 84.9458 60.0384 84.9767C60.0687 84.9998 60.0845 85.03 60.0845 85.0689V86.1964C60.0845 86.2346 60.0687 86.2655 60.0384 86.2886C60.0154 86.3188 59.9844 86.3347 59.9463 86.3347H57.8864C57.8482 86.3347 57.8288 86.3534 57.8288 86.3923V92.8478C57.8288 92.8867 57.8136 92.9169 57.7827 92.9399C57.7596 92.9709 57.7287 92.986 57.6905 92.986H56.3441C56.306 92.986 56.2714 92.9709 56.2404 92.9399C56.2174 92.9169 56.2059 92.8867 56.2059 92.8478V86.3923C56.2059 86.3534 56.1872 86.3347 56.1483 86.3347H54.146C54.1078 86.3347 54.0732 86.3188 54.0423 86.2886C54.0192 86.2655 54.0077 86.2346 54.0077 86.1964V85.0689C54.0077 85.03 54.0192 84.9998 54.0423 84.9767C54.0732 84.9458 54.1078 84.9307 54.146 84.9307H59.9463ZM66.7128 86.1849C66.7128 86.2231 66.7013 86.254 66.6783 86.2771C66.648 86.3073 66.6135 86.3231 66.5753 86.3231H62.8004C62.7622 86.3231 62.7428 86.3419 62.7428 86.3807V88.1642C62.7428 88.2023 62.7622 88.2218 62.8004 88.2218H65.2743C65.3132 88.2218 65.3434 88.2333 65.3664 88.2563C65.3974 88.2873 65.4125 88.3219 65.4125 88.36V89.476C65.4125 89.5149 65.3974 89.5495 65.3664 89.5797C65.3434 89.6027 65.3132 89.6143 65.2743 89.6143H62.8004C62.7622 89.6143 62.7428 89.6337 62.7428 89.6719V91.5359C62.7428 91.5748 62.7622 91.5935 62.8004 91.5935H66.5753C66.6135 91.5935 66.648 91.6051 66.6783 91.6281C66.7013 91.6591 66.7128 91.6936 66.7128 91.7318V92.8478C66.7128 92.8867 66.7013 92.9169 66.6783 92.9399C66.648 92.9709 66.6135 92.986 66.5753 92.986H61.2581C61.22 92.986 61.1854 92.9709 61.1544 92.9399C61.1314 92.9169 61.1199 92.8867 61.1199 92.8478V85.0689C61.1199 85.03 61.1314 84.9998 61.1544 84.9767C61.1854 84.9458 61.22 84.9307 61.2581 84.9307H66.5753C66.6135 84.9307 66.648 84.9458 66.6783 84.9767C66.7013 84.9998 66.7128 85.03 66.7128 85.0689V86.1849ZM72.2597 92.986C72.1834 92.986 72.1294 92.9515 72.0992 92.8823L70.6606 89.6949C70.6448 89.6639 70.6217 89.6488 70.5915 89.6488H69.5208C69.4827 89.6488 69.4632 89.6683 69.4632 89.7064V92.8478C69.4632 92.8867 69.4481 92.9169 69.4172 92.9399C69.3948 92.9709 69.3639 92.986 69.3257 92.986H67.9793C67.9404 92.986 67.9059 92.9709 67.8756 92.9399C67.8526 92.9169 67.8411 92.8867 67.8411 92.8478V85.0689C67.8411 85.03 67.8526 84.9998 67.8756 84.9767C67.9059 84.9458 67.9404 84.9307 67.9793 84.9307H71.2704C71.7615 84.9307 72.1913 85.03 72.5592 85.2295C72.9351 85.4289 73.2231 85.7133 73.4225 86.0812C73.6292 86.4499 73.7328 86.8754 73.7328 87.3585C73.7328 87.8805 73.6025 88.3255 73.3419 88.6934C73.0812 89.0699 72.7162 89.3342 72.2482 89.4875C72.21 89.5034 72.1985 89.53 72.2136 89.5682L73.7789 92.8255C73.7948 92.8557 73.802 92.8787 73.802 92.8939C73.802 92.9558 73.7602 92.986 73.6752 92.986H72.2597ZM69.5208 86.3231C69.4827 86.3231 69.4632 86.3419 69.4632 86.3807V88.3485C69.4632 88.3867 69.4827 88.4061 69.5208 88.4061H71.0285C71.3511 88.4061 71.6117 88.3103 71.8112 88.1181C72.0185 87.9266 72.1222 87.6775 72.1222 87.37C72.1222 87.0633 72.0185 86.8099 71.8112 86.6104C71.6117 86.4189 71.3511 86.3231 71.0285 86.3231H69.5208ZM42.9024 102.342C42.8873 102.358 42.8837 102.373 42.8909 102.388C42.8988 102.404 42.914 102.412 42.937 102.412H46.056C46.0942 102.412 46.1288 102.423 46.1597 102.446C46.1828 102.476 46.1943 102.511 46.1943 102.55V103.666C46.1943 103.704 46.1828 103.735 46.1597 103.758C46.1288 103.789 46.0942 103.804 46.056 103.804H40.8771C40.8389 103.804 40.8044 103.789 40.7734 103.758C40.7504 103.735 40.7388 103.704 40.7388 103.666V102.607C40.7388 102.538 40.7619 102.481 40.808 102.435C41.1838 102.066 41.5676 101.667 41.9592 101.238C42.3502 100.8 42.5957 100.528 42.6958 100.421C42.9104 100.167 43.1292 99.9254 43.3517 99.6957C44.0494 98.9203 44.3986 98.345 44.3986 97.9691C44.3986 97.7006 44.3028 97.4781 44.1113 97.3017C43.9191 97.1332 43.67 97.0483 43.3632 97.0483C43.0558 97.0483 42.8067 97.1332 42.6152 97.3017C42.4229 97.4781 42.3272 97.7085 42.3272 97.9922V98.2802C42.3272 98.3183 42.312 98.3529 42.2811 98.3839C42.258 98.4069 42.2278 98.4184 42.1889 98.4184H40.831C40.7928 98.4184 40.7619 98.4069 40.7388 98.3839C40.7086 98.3529 40.6928 98.3183 40.6928 98.2802V97.7387C40.7158 97.3247 40.8468 96.9568 41.0844 96.6343C41.322 96.3196 41.6367 96.0784 42.0276 95.9092C42.4272 95.7407 42.8722 95.6558 43.3632 95.6558C43.9076 95.6558 44.3835 95.7559 44.7903 95.9553C45.1892 96.1627 45.4995 96.4384 45.722 96.784C45.9372 97.1289 46.0445 97.5127 46.0445 97.9346C46.0445 98.2571 45.9639 98.5869 45.8026 98.9246C45.6413 99.2623 45.4001 99.6266 45.0776 100.018C44.84 100.317 44.5829 100.612 44.3064 100.904C44.0307 101.195 43.6203 101.617 43.0752 102.17L42.9024 102.342ZM49.934 103.931C49.0901 103.931 48.4227 103.692 47.9316 103.217C47.4406 102.749 47.1951 102.108 47.1951 101.295V98.2571C47.1951 97.4594 47.4406 96.8258 47.9316 96.3578C48.4227 95.8898 49.0901 95.6558 49.934 95.6558C50.7778 95.6558 51.4496 95.8898 51.9478 96.3578C52.4388 96.8258 52.6844 97.4594 52.6844 98.2571V101.295C52.6844 102.108 52.4388 102.749 51.9478 103.217C51.4496 103.692 50.7778 103.931 49.934 103.931ZM49.934 102.538C50.2796 102.538 50.5553 102.43 50.7627 102.216C50.9621 102.008 51.0622 101.728 51.0622 101.375V98.2111C51.0622 97.8583 50.9621 97.5782 50.7627 97.3708C50.5553 97.1563 50.2796 97.0483 49.934 97.0483C49.5963 97.0483 49.3277 97.1563 49.1283 97.3708C48.9216 97.5782 48.818 97.8583 48.818 98.2111V101.375C48.818 101.728 48.9216 102.008 49.1283 102.216C49.3277 102.43 49.5963 102.538 49.934 102.538ZM55.9071 102.342C55.8912 102.358 55.8876 102.373 55.8956 102.388C55.9028 102.404 55.9186 102.412 55.9416 102.412H59.06C59.0988 102.412 59.1327 102.423 59.1636 102.446C59.1867 102.476 59.1982 102.511 59.1982 102.55V103.666C59.1982 103.704 59.1867 103.735 59.1636 103.758C59.1327 103.789 59.0988 103.804 59.06 103.804H53.8817C53.8428 103.804 53.8126 103.789 53.7896 103.758C53.7586 103.735 53.7435 103.704 53.7435 103.666V102.607C53.7435 102.538 53.7665 102.481 53.8126 102.435C54.1884 102.066 54.5722 101.667 54.9632 101.238C55.3548 100.8 55.5996 100.528 55.6997 100.421C55.9143 100.167 56.1332 99.9254 56.3556 99.6957C57.054 98.9203 57.4032 98.345 57.4032 97.9691C57.4032 97.7006 57.3068 97.4781 57.1152 97.3017C56.9237 97.1332 56.6739 97.0483 56.3672 97.0483C56.0604 97.0483 55.8113 97.1332 55.6191 97.3017C55.4276 97.4781 55.3318 97.7085 55.3318 97.9922V98.2802C55.3318 98.3183 55.3203 98.3529 55.2972 98.3839C55.2663 98.4069 55.2317 98.4184 55.1936 98.4184H53.8356C53.7968 98.4184 53.7665 98.4069 53.7435 98.3839C53.7125 98.3529 53.6974 98.3183 53.6974 98.2802V97.7387C53.7204 97.3247 53.8508 96.9568 54.0884 96.6343C54.3267 96.3196 54.6449 96.0784 55.0438 95.9092C55.4348 95.7407 55.8761 95.6558 56.3672 95.6558C56.9122 95.6558 57.3874 95.7559 57.7942 95.9553C58.1931 96.1627 58.5041 96.4384 58.7266 96.784C58.9412 97.1289 59.0484 97.5127 59.0484 97.9346C59.0484 98.2571 58.9678 98.5869 58.8072 98.9246C58.646 99.2623 58.404 99.6266 58.0822 100.018C57.8439 100.317 57.5868 100.612 57.3111 100.904C57.0346 101.195 56.6242 101.617 56.0792 102.17L55.9071 102.342ZM65.9532 100.294C65.9921 100.294 66.0267 100.306 66.0569 100.329C66.08 100.359 66.0915 100.393 66.0915 100.432V101.594C66.0915 101.633 66.08 101.667 66.0569 101.698C66.0267 101.721 65.9921 101.733 65.9532 101.733H65.4586C65.4204 101.733 65.401 101.751 65.401 101.79V103.666C65.401 103.704 65.3895 103.735 65.3664 103.758C65.3362 103.789 65.3016 103.804 65.2628 103.804H63.9164C63.8782 103.804 63.8472 103.789 63.8242 103.758C63.794 103.735 63.7788 103.704 63.7788 103.666V101.79C63.7788 101.751 63.7594 101.733 63.7212 101.733H60.1882C60.1493 101.733 60.1191 101.721 60.096 101.698C60.0651 101.667 60.05 101.633 60.05 101.594V100.673C60.05 100.627 60.0615 100.57 60.0845 100.501L62.156 95.8516C62.1862 95.7825 62.2402 95.7479 62.3172 95.7479H63.7558C63.8091 95.7479 63.8472 95.7638 63.8703 95.794C63.8861 95.8171 63.8818 95.8559 63.8588 95.9092L61.9371 100.225C61.9292 100.24 61.9292 100.256 61.9371 100.271C61.945 100.286 61.9565 100.294 61.9716 100.294H63.7212C63.7594 100.294 63.7788 100.275 63.7788 100.236V98.8094C63.7788 98.7712 63.794 98.7403 63.8242 98.7172C63.8472 98.6863 63.8782 98.6711 63.9164 98.6711H65.2628C65.3016 98.6711 65.3362 98.6863 65.3664 98.7172C65.3895 98.7403 65.401 98.7712 65.401 98.8094V100.236C65.401 100.275 65.4204 100.294 65.4586 100.294H65.9532Z" fill="#252530"/>
</g>
</svg>
