<svg width="32" height="32" viewBox="0 0 32 32" fill="none" xmlns="http://www.w3.org/2000/svg">
<g id="Vector">
<path d="M3.5295 21.8718V10.2259H2.15994C1.5264 10.184 1.03494 9.73443 1.03494 9.18707C1.03494 8.63971 1.5264 8.18551 2.15994 8.15058H3.5295V4.98054C3.5295 2.72822 5.36258 0.895142 7.61491 0.895142H26.9146C29.1693 0.895142 31 2.72822 31 4.98054V27.0147C31.0006 27.5516 30.8954 28.0833 30.6904 28.5796C30.4853 29.0758 30.1845 29.5267 29.8051 29.9065C29.4256 30.2864 28.9751 30.5877 28.4791 30.7933C27.9831 30.9989 27.4515 31.1048 26.9146 31.1048H7.61491C6.53158 31.1041 5.4928 30.6735 4.72677 29.9075C3.96074 29.1415 3.53012 28.1027 3.5295 27.0194V24.0473H2.15994C1.51242 24.024 1 23.5442 1 22.9596C1 22.3773 1.51242 21.8951 2.15994 21.8718H3.5295ZM5.53261 21.8718H6.6972C7.33307 21.9114 7.82453 22.3843 7.82453 22.9596C7.82453 23.5326 7.33307 24.0077 6.6972 24.0473H5.53261V27.1847C5.53261 28.2538 6.4014 29.1203 7.46584 29.1203H27.0637C28.1304 29.1203 28.9969 28.2538 28.9969 27.1847V4.81517C28.9951 4.30301 28.7908 3.81236 28.4286 3.45021C28.0665 3.08805 27.5758 2.88378 27.0637 2.88194H7.46817V2.87961C6.95582 2.88084 6.46481 3.08492 6.10253 3.4472C5.74024 3.80949 5.53617 4.3005 5.53494 4.81284V8.1529H6.6972C7.36335 8.1529 7.90373 8.61874 7.90373 9.1894C7.9014 9.76005 7.36102 10.2236 6.6972 10.2236H5.53261V21.8718ZM22.205 10.2259H11.9006C11.5896 10.214 11.2934 10.0899 11.0668 9.87651C10.9645 9.78135 10.8846 9.66477 10.8326 9.53512C10.7807 9.40547 10.758 9.26593 10.7663 9.12651C10.8036 8.60244 11.2904 8.18318 11.9006 8.1529H22.205C22.8688 8.1529 23.4161 8.61874 23.4161 9.1894C23.4092 9.76005 22.8711 10.2236 22.205 10.2236V10.2259ZM22.205 17.0877H11.9006C11.2601 17.0551 10.7593 16.5776 10.7593 16C10.7593 15.4223 11.2601 14.9448 11.9006 14.9122H22.205C22.8455 14.9448 23.3463 15.4223 23.3463 16C23.3463 16.5776 22.8455 17.0551 22.205 17.0877ZM22.205 24.0473H11.5559C11.243 24.0328 10.9466 23.9025 10.7244 23.6816C10.6212 23.5793 10.5411 23.4561 10.4893 23.3204C10.4375 23.1846 10.4152 23.0394 10.4239 22.8944C10.4589 22.3447 10.9457 21.9045 11.5559 21.8718H22.2026C22.5161 21.8849 22.8135 22.0145 23.0365 22.2352C23.1405 22.3375 23.2213 22.4609 23.2736 22.5971C23.3258 22.7334 23.3482 22.8792 23.3393 23.0248C23.3043 23.5745 22.8175 24.0147 22.205 24.0473Z" fill="#D80073"/>
<path d="M2.15167 10.4759L2.14343 10.4753C1.41366 10.427 0.784938 9.89863 0.784938 9.18707C0.784938 8.47692 1.41237 7.94142 2.14617 7.90095L2.15994 7.9002V7.90058H3.2795V4.98054C3.2795 2.59014 5.22451 0.645142 7.61491 0.645142H26.9146C29.3074 0.645142 31.25 2.59024 31.25 4.98054V27.0144V27.0147H31C31.0006 27.5516 30.8954 28.0833 30.6904 28.5796C30.4853 29.0758 30.1845 29.5267 29.8051 29.9065C29.4256 30.2864 28.9751 30.5877 28.4791 30.7933C27.9831 30.9989 27.4515 31.1048 26.9146 31.1048L2.15167 10.4759ZM2.15167 10.4759H2.15994H3.2795M2.15167 10.4759H3.2795M3.2795 10.4759V21.6218H2.15994V21.6217L2.15095 21.622C1.39248 21.6493 0.75 22.2203 0.75 22.9596C0.75 23.7015 1.39284 24.2699 2.15095 24.2971L2.15094 24.2973H2.15994H3.2795V10.4759ZM22.205 24.2977V24.2973H11.5559H11.5443L11.5443 24.297C11.1695 24.2797 10.8145 24.1236 10.5483 23.8591C10.5482 23.859 10.5482 23.859 10.5481 23.8589L10.7244 23.6816C10.6212 23.5793 10.5411 23.4561 10.4893 23.3204C10.4375 23.1846 10.4152 23.0394 10.4239 22.8944L22.205 24.2977ZM22.205 24.2977L22.2183 24.297M22.205 24.2977L22.2183 24.297M22.2183 24.297C22.9364 24.2587 23.5445 23.7369 23.5888 23.0407L23.5888 23.0401M22.2183 24.297L23.5888 23.0401M23.5888 23.0401C23.5999 22.8588 23.572 22.6772 23.507 22.5076C23.4419 22.338 23.3413 22.1844 23.2118 22.057L23.5888 23.0401ZM5.78261 27.1847V24.2973H6.6972H6.70498L6.71274 24.2968C7.45761 24.2504 8.07453 23.6863 8.07453 22.9596C8.07453 22.2302 7.45725 21.6687 6.71274 21.6223L6.70498 21.6218H6.6972H5.78261V10.4736H6.6972C7.46231 10.4736 8.1507 9.9325 8.15373 9.19042V9.1894C8.15373 8.44662 7.46471 7.9029 6.6972 7.9029H5.78494V4.81306C5.78611 4.36695 5.96384 3.93944 6.2793 3.62398C6.57482 3.32846 6.96867 3.15381 7.38403 3.13194H7.46817H27.0632C27.5092 3.13366 27.9365 3.3116 28.2519 3.62698C28.5672 3.94235 28.7452 4.36958 28.7469 4.81556C28.7469 4.81573 28.7469 4.8159 28.7469 4.81607L28.7469 27.1847C28.7469 28.116 27.9922 28.8703 27.0637 28.8703H7.46584C6.53947 28.8703 5.78261 28.1158 5.78261 27.1847ZM22.205 10.4759H22.455V10.4543C23.1158 10.3519 23.6581 9.85065 23.6661 9.19246H23.6661V9.1894C23.6661 8.4452 22.9685 7.9029 22.205 7.9029H11.9006V7.9026L11.8882 7.90321C11.1816 7.93827 10.5651 8.43083 10.5169 9.10878L10.5169 9.10877L10.5167 9.11172C10.5063 9.28792 10.5349 9.46424 10.6006 9.62809C10.666 9.79149 10.7667 9.93844 10.8954 10.0585C11.166 10.3133 11.5197 10.4615 11.8911 10.4757L11.8911 10.4759H11.9006H22.205ZM22.205 17.3377V17.338L22.2177 17.3374C22.9679 17.2992 23.5963 16.7328 23.5963 16C23.5963 15.2671 22.9679 14.7007 22.2177 14.6625L22.2177 14.6622H22.205H11.9006V14.6619L11.8879 14.6625C11.1377 14.7007 10.5093 15.2671 10.5093 16C10.5093 16.7328 11.1377 17.2992 11.8879 17.3374L11.8879 17.3377H11.9006H22.205Z" stroke="#F6D5DE" stroke-opacity="0.25" stroke-width="0.5"/>
</g>
</svg>
