<svg width="108" height="121" viewBox="0 0 108 121" fill="none" xmlns="http://www.w3.org/2000/svg">
<g id="Group 94571">
<path id="Vector" d="M9.68359 93.4469L55.141 116.578L98.8724 93.4469V2.99219H9.68359V93.4469Z" fill="white"/>
<path id="Vector_2" d="M99.7925 3.3374L8.76294 95.0575L55.9467 118.419L99.7925 95.9784V3.3374Z" fill="#F2F3F2"/>
<path id="Vector_3" d="M6.69153 33.1435V95.403L8.30267 96.2087L53.7601 119.34L55.141 120.031L56.522 119.34L100.369 96.2087L101.979 95.403V0H6.69153V33.1435ZM9.68363 93.6765V2.9921H98.9876V93.6765L55.141 116.808L9.68363 93.6765Z" fill="#DCDEDC"/>
<path id="Vector_4" d="M54.3353 4.48819C54.7954 4.48819 55.2562 4.48819 55.7163 4.60325L54.3353 7.25011C52.2639 7.13506 50.4229 8.7462 50.3077 10.8177C50.1925 12.8892 51.8038 14.7305 53.8753 14.8455H54.3353C55.2562 14.8455 56.1764 14.5003 56.8676 13.9249L58.363 16.4567C57.2125 17.2623 55.8315 17.7226 54.3353 17.7226C50.6525 17.8377 47.5457 15.0757 47.4305 11.3931C47.3153 7.71048 50.0773 4.60325 53.7601 4.48819H54.3353ZM59.0535 10.1272L60.7801 13.0042L59.0535 15.7662L57.4429 13.0042H54.1049L55.8315 10.1272H59.0535ZM56.2916 9.09144C56.2916 8.63114 56.4068 8.17078 56.6372 7.82554C56.8676 7.4803 57.3277 7.13506 57.6725 6.90487L57.9029 6.78982C58.363 6.55963 58.4782 6.44458 58.4782 6.21439C58.4782 5.98421 58.1333 5.75409 57.9029 5.75409C57.4429 5.75409 57.0973 5.98421 56.8676 6.44458L56.2916 5.86915C56.4068 5.63897 56.6372 5.40886 56.8676 5.17867C57.2125 4.94849 57.5581 4.94849 57.9029 4.94849C58.2485 4.94849 58.7086 5.06355 58.939 5.29373C59.1687 5.52391 59.3991 5.86915 59.3991 6.21439C59.3991 6.78982 59.0535 7.25011 58.363 7.4803L58.0181 7.71048C57.6725 7.94059 57.4429 8.05572 57.3277 8.40096H59.3991V9.2065L56.2916 9.09144ZM54.3353 23.4767L65.2685 17.2623V0H43.2877V17.1472L54.3353 23.4767Z" fill="#FF492C"/>
<path id="Vector_5" d="M104.166 64.2156H4.50492L0.822266 72.2717L4.50492 80.327H104.166L107.733 72.2717L104.166 64.2156Z" fill="#2690CE"/>
<path id="Vector_6" d="M14.4941 59.0373C14.4557 59.0373 14.425 59.0215 14.402 58.9913C14.3713 58.9682 14.356 58.9373 14.356 58.8991V51.1195C14.356 51.0813 14.3713 51.0504 14.402 51.0273C14.425 50.9964 14.4557 50.9813 14.4941 50.9813H15.8405C15.8788 50.9813 15.9134 50.9964 15.9441 51.0273C15.9671 51.0504 15.9786 51.0813 15.9786 51.1195V58.8991C15.9786 58.9373 15.9671 58.9682 15.9441 58.9913C15.9134 59.0215 15.8788 59.0373 15.8405 59.0373H14.4941ZM23.839 53.0297C24.4373 53.0297 24.9053 53.2104 25.243 53.5704C25.58 53.9311 25.7492 54.438 25.7492 55.0896V58.8991C25.7492 58.9373 25.734 58.9682 25.7031 58.9913C25.68 59.0215 25.6491 59.0373 25.6109 59.0373H24.2645C24.2264 59.0373 24.1918 59.0215 24.1608 58.9913C24.1378 58.9682 24.1263 58.9373 24.1263 58.8991V55.4467C24.1263 55.1321 24.0456 54.8829 23.8844 54.6986C23.7238 54.5143 23.5085 54.4221 23.24 54.4221C22.9714 54.4221 22.7532 54.5143 22.584 54.6986C22.4156 54.8829 22.3313 55.1285 22.3313 55.4352V58.8991C22.3313 58.9373 22.3155 58.9682 22.2852 58.9913C22.2622 59.0215 22.2312 59.0373 22.1931 59.0373H20.8582C20.82 59.0373 20.7855 59.0215 20.7545 58.9913C20.7315 58.9682 20.72 58.9373 20.72 58.8991V55.4467C20.72 55.14 20.6357 54.8901 20.4665 54.6986C20.298 54.5143 20.0792 54.4221 19.8106 54.4221C19.5651 54.4221 19.3584 54.4949 19.1892 54.641C19.028 54.7865 18.9322 54.9902 18.902 55.2509V58.8991C18.902 58.9373 18.8905 58.9682 18.8674 58.9913C18.8365 59.0215 18.8019 59.0373 18.7637 59.0373H17.4171C17.3787 59.0373 17.3481 59.0215 17.325 58.9913C17.2944 58.9682 17.279 58.9373 17.279 58.8991V53.2601C17.279 53.2219 17.2944 53.1873 17.325 53.1564C17.3481 53.1333 17.3787 53.1218 17.4171 53.1218H18.7637C18.8019 53.1218 18.8365 53.1333 18.8674 53.1564C18.8905 53.1873 18.902 53.2219 18.902 53.2601V53.7086C18.902 53.7317 18.9092 53.7468 18.925 53.7547C18.9401 53.7626 18.9552 53.7547 18.9704 53.7317C19.285 53.2637 19.7724 53.0297 20.432 53.0297C20.8157 53.0297 21.1498 53.1103 21.4335 53.2716C21.7251 53.4329 21.9476 53.6625 22.1009 53.9621C22.124 54.0081 22.1506 54.0081 22.1816 53.9621C22.35 53.6474 22.5768 53.4134 22.8605 53.2601C23.1521 53.1067 23.4783 53.0297 23.839 53.0297ZM32.1708 54.7101C32.3084 55.1011 32.3775 55.5619 32.3775 56.0911C32.3775 56.6203 32.3048 57.0998 32.1593 57.5297C31.9829 58.0207 31.7064 58.4117 31.3306 58.7033C30.9468 58.9869 30.4752 59.1288 29.9151 59.1288C29.3628 59.1288 28.933 58.9373 28.6263 58.5535C28.6104 58.5305 28.5953 58.5233 28.5802 58.5305C28.5644 58.5384 28.5572 58.5535 28.5572 58.5765V61.0397C28.5572 61.0778 28.5456 61.1088 28.5226 61.1318C28.4916 61.1621 28.4571 61.1779 28.4189 61.1779H27.0725C27.0344 61.1779 27.0034 61.1621 26.9804 61.1318C26.9494 61.1088 26.9343 61.0778 26.9343 61.0397V53.2601C26.9343 53.2219 26.9494 53.1873 26.9804 53.1564C27.0034 53.1333 27.0344 53.1218 27.0725 53.1218H28.4189C28.4571 53.1218 28.4916 53.1333 28.5226 53.1564C28.5456 53.1873 28.5572 53.2219 28.5572 53.2601V53.6395C28.5572 53.6625 28.5644 53.6741 28.5802 53.6741C28.5953 53.682 28.6104 53.6784 28.6263 53.6625C28.9481 53.2406 29.3931 53.0297 29.9612 53.0297C30.4904 53.0297 30.9504 53.1794 31.3421 53.4789C31.7259 53.7698 32.0016 54.1809 32.1708 54.7101ZM30.4097 57.2877C30.602 56.9889 30.6977 56.5821 30.6977 56.0681C30.6977 55.5849 30.6171 55.2012 30.4558 54.9168C30.2794 54.587 29.9957 54.4221 29.604 54.4221C29.2512 54.4221 28.987 54.587 28.8099 54.9168C28.6493 55.1933 28.5687 55.5806 28.5687 56.0796C28.5687 56.5937 28.6529 56.9925 28.8214 57.2762C28.9985 57.5829 29.2592 57.7363 29.604 57.7363C29.9496 57.7363 30.2182 57.5873 30.4097 57.2877ZM33.5633 59.0373C33.5244 59.0373 33.4899 59.0215 33.4596 58.9913C33.4366 58.9682 33.4251 58.9373 33.4251 58.8991V51.1195C33.4251 51.0813 33.4366 51.0504 33.4596 51.0273C33.4899 50.9964 33.5244 50.9813 33.5633 50.9813H34.9097C34.9479 50.9813 34.9788 50.9964 35.0019 51.0273C35.0321 51.0504 35.048 51.0813 35.048 51.1195V58.8991C35.048 58.9373 35.0321 58.9682 35.0019 58.9913C34.9788 59.0215 34.9479 59.0373 34.9097 59.0373H33.5633ZM41.4689 55.4697C41.515 55.7613 41.5308 56.0868 41.515 56.4475C41.5078 56.5397 41.4574 56.5857 41.366 56.5857H37.8099C37.7638 56.5857 37.748 56.6052 37.7638 56.6433C37.7868 56.7967 37.8286 56.9501 37.8905 57.1034C38.09 57.5333 38.496 57.7478 39.1102 57.7478C39.6012 57.7406 39.9886 57.5412 40.2723 57.1495C40.3032 57.1034 40.3378 57.0804 40.376 57.0804C40.399 57.0804 40.4256 57.0962 40.4566 57.1265L41.2853 57.9437C41.3235 57.9818 41.3429 58.0164 41.3429 58.0473C41.3429 58.0625 41.3271 58.0934 41.2969 58.1395C41.0434 58.4541 40.7172 58.6997 40.3184 58.8761C39.9195 59.0445 39.4825 59.1288 39.0065 59.1288C38.347 59.1288 37.7904 58.9797 37.3376 58.6802C36.8775 58.3814 36.5477 57.9631 36.3483 57.426C36.187 57.0422 36.1064 56.5397 36.1064 55.9183C36.1064 55.4964 36.164 55.1241 36.2792 54.8023C36.4556 54.2573 36.7623 53.8238 37.2 53.502C37.645 53.1794 38.1699 53.0181 38.7761 53.0181C39.5436 53.0181 40.1614 53.2406 40.6294 53.6856C41.0895 54.1305 41.3696 54.7253 41.4689 55.4697ZM38.7876 54.4221C38.3045 54.4221 37.9863 54.6489 37.8329 55.1011C37.802 55.2012 37.7753 55.3236 37.7523 55.4697C37.7523 55.5079 37.771 55.5273 37.8099 55.5273H39.8007C39.8468 55.5273 39.8619 55.5079 39.8468 55.4697C39.8079 55.2473 39.7892 55.14 39.7892 55.1472C39.72 54.9168 39.6013 54.7368 39.4321 54.6065C39.2557 54.4833 39.0411 54.4221 38.7876 54.4221ZM49.0764 53.0297C49.6748 53.0297 50.1428 53.2104 50.4804 53.5704C50.8174 53.9311 50.9866 54.438 50.9866 55.0896V58.8991C50.9866 58.9373 50.9751 58.9682 50.9521 58.9913C50.9211 59.0215 50.8865 59.0373 50.8484 59.0373H49.502C49.4638 59.0373 49.4328 59.0215 49.4098 58.9913C49.3796 58.9682 49.3637 58.9373 49.3637 58.8991V55.4467C49.3637 55.1321 49.2831 54.8829 49.1225 54.6986C48.9613 54.5143 48.746 54.4221 48.4774 54.4221C48.2096 54.4221 47.9907 54.5143 47.8215 54.6986C47.653 54.8829 47.5688 55.1285 47.5688 55.4352V58.8991C47.5688 58.9373 47.5572 58.9682 47.5342 58.9913C47.5032 59.0215 47.4687 59.0373 47.4305 59.0373H46.0956C46.0575 59.0373 46.0265 59.0215 46.0035 58.9913C45.9725 58.9682 45.9574 58.9373 45.9574 58.8991V55.4467C45.9574 55.14 45.8732 54.8901 45.704 54.6986C45.5355 54.5143 45.3166 54.4221 45.048 54.4221C44.8025 54.4221 44.5995 54.4949 44.4382 54.641C44.2697 54.7865 44.1696 54.9902 44.1394 55.2509V58.8991C44.1394 58.9373 44.1279 58.9682 44.1048 58.9913C44.0739 59.0215 44.0393 59.0373 44.0012 59.0373H42.6548C42.6159 59.0373 42.5856 59.0215 42.5626 58.9913C42.5316 58.9682 42.5165 58.9373 42.5165 58.8991V53.2601C42.5165 53.2219 42.5316 53.1873 42.5626 53.1564C42.5856 53.1333 42.6159 53.1218 42.6548 53.1218H44.0012C44.0393 53.1218 44.0739 53.1333 44.1048 53.1564C44.1279 53.1873 44.1394 53.2219 44.1394 53.2601V53.7086C44.1394 53.7317 44.1466 53.7468 44.1624 53.7547C44.1776 53.7626 44.1927 53.7547 44.2085 53.7317C44.5224 53.2637 45.0099 53.0297 45.6694 53.0297C46.0532 53.0297 46.3908 53.1103 46.6824 53.2716C46.9661 53.4329 47.185 53.6625 47.3384 53.9621C47.3614 54.0081 47.388 54.0081 47.419 53.9621C47.5875 53.6474 47.8179 53.4134 48.1095 53.2601C48.3932 53.1067 48.7157 53.0297 49.0764 53.0297ZM57.3276 55.4697C57.3737 55.7613 57.3888 56.0868 57.3737 56.4475C57.3658 56.5397 57.3161 56.5857 57.224 56.5857H53.6679C53.6218 56.5857 53.6067 56.6052 53.6218 56.6433C53.6448 56.7967 53.6873 56.9501 53.7485 57.1034C53.948 57.5333 54.3548 57.7478 54.9682 57.7478C55.4592 57.7406 55.8466 57.5412 56.131 57.1495C56.1612 57.1034 56.1958 57.0804 56.234 57.0804C56.257 57.0804 56.2844 57.0962 56.3146 57.1265L57.1433 57.9437C57.1815 57.9818 57.2009 58.0164 57.2009 58.0473C57.2009 58.0625 57.1858 58.0934 57.1548 58.1395C56.9014 58.4541 56.576 58.6997 56.1764 58.8761C55.7775 59.0445 55.3404 59.1288 54.8645 59.1288C54.205 59.1288 53.6484 58.9797 53.1963 58.6802C52.7355 58.3814 52.4057 57.9631 52.2063 57.426C52.045 57.0422 51.9644 56.5397 51.9644 55.9183C51.9644 55.4964 52.022 55.1241 52.1372 54.8023C52.3136 54.2573 52.6246 53.8238 53.0696 53.502C53.5066 53.1794 54.0286 53.0181 54.6348 53.0181C55.4016 53.0181 56.0194 53.2406 56.4874 53.6856C56.9475 54.1305 57.2276 54.7253 57.3276 55.4697ZM54.6464 54.4221C54.1625 54.4221 53.8443 54.6489 53.6909 55.1011C53.66 55.2012 53.6333 55.3236 53.6103 55.4697C53.6103 55.5079 53.6297 55.5273 53.6679 55.5273H55.6587C55.7048 55.5273 55.7199 55.5079 55.7048 55.4697C55.6666 55.2473 55.6472 55.14 55.6472 55.1472C55.578 54.9168 55.4592 54.7368 55.2908 54.6065C55.1144 54.4833 54.8991 54.4221 54.6464 54.4221ZM61.459 53.0297C62.0724 53.0297 62.5678 53.2176 62.9436 53.5934C63.3195 53.97 63.5074 54.4797 63.5074 55.1241V58.8991C63.5074 58.9373 63.4959 58.9682 63.4729 58.9913C63.4419 59.0215 63.408 59.0373 63.3692 59.0373H62.0228C61.9846 59.0373 61.9536 59.0215 61.9306 58.9913C61.9004 58.9682 61.8845 58.9373 61.8845 58.8991V55.4582C61.8845 55.1508 61.8003 54.9017 61.6318 54.7101C61.4554 54.5179 61.225 54.4221 60.9413 54.4221C60.6569 54.4221 60.4309 54.5179 60.2624 54.7101C60.086 54.9017 59.9974 55.1508 59.9974 55.4582V58.8991C59.9974 58.9373 59.9859 58.9682 59.9629 58.9913C59.9319 59.0215 59.898 59.0373 59.8592 59.0373H58.5128C58.4746 59.0373 58.4436 59.0215 58.4206 58.9913C58.3904 58.9682 58.3745 58.9373 58.3745 58.8991V53.2601C58.3745 53.2219 58.3904 53.1873 58.4206 53.1564C58.4436 53.1333 58.4746 53.1218 58.5128 53.1218H59.8592C59.898 53.1218 59.9319 53.1333 59.9629 53.1564C59.9859 53.1873 59.9974 53.2219 59.9974 53.2601V53.6625C59.9974 53.6856 60.0053 53.7014 60.0204 53.7086C60.0356 53.7165 60.0471 53.7129 60.055 53.6971C60.3696 53.2521 60.8376 53.0297 61.459 53.0297ZM68.065 54.2839C68.065 54.3228 68.0535 54.3573 68.0304 54.3876C67.9995 54.4106 67.9649 54.4221 67.9268 54.4221H66.8216C66.7834 54.4221 66.764 54.4416 66.764 54.4797V56.9198C66.764 57.1725 66.818 57.3605 66.9253 57.4836C67.0253 57.606 67.1902 57.6679 67.4199 57.6679H67.8C67.8382 57.6679 67.8728 57.6794 67.9037 57.7025C67.9268 57.7327 67.9383 57.7673 67.9383 57.8054V58.8991C67.9383 58.9833 67.8922 59.033 67.8 59.0489C67.4775 59.064 67.2478 59.0719 67.1096 59.0719C66.4724 59.0719 65.9972 58.9682 65.6825 58.7609C65.3679 58.5463 65.2066 58.1474 65.1994 57.5642V54.4797C65.1994 54.4416 65.18 54.4221 65.1418 54.4221H64.4859C64.447 54.4221 64.4168 54.4106 64.3937 54.3876C64.3628 54.3573 64.3476 54.3228 64.3476 54.2839V53.2601C64.3476 53.2219 64.3628 53.1873 64.3937 53.1564C64.4168 53.1333 64.447 53.1218 64.4859 53.1218H65.1418C65.18 53.1218 65.1994 53.1024 65.1994 53.0642V51.6948C65.1994 51.6566 65.2145 51.6257 65.2455 51.6026C65.2685 51.5724 65.2988 51.5565 65.3369 51.5565H66.6264C66.6646 51.5565 66.6992 51.5724 66.7294 51.6026C66.7524 51.6257 66.764 51.6566 66.764 51.6948V53.0642C66.764 53.1024 66.7834 53.1218 66.8216 53.1218H67.9268C67.9649 53.1218 67.9995 53.1333 68.0304 53.1564C68.0535 53.1873 68.065 53.2219 68.065 53.2601V54.2839ZM71.4022 53.0297C71.9005 53.0297 72.3454 53.1139 72.7371 53.2831C73.128 53.4595 73.4312 53.6971 73.6464 53.9966C73.8689 54.2954 73.9798 54.6295 73.9798 54.9974V58.8991C73.9798 58.9373 73.9647 58.9682 73.9337 58.9913C73.9107 59.0215 73.8804 59.0373 73.8416 59.0373H72.4952C72.457 59.0373 72.4261 59.0215 72.403 58.9913C72.3728 58.9682 72.3569 58.9373 72.3569 58.8991V58.5189C72.3569 58.4959 72.3497 58.4808 72.3339 58.4729C72.3188 58.4657 72.3036 58.4729 72.2885 58.4959C71.966 58.9178 71.4483 59.1288 70.7348 59.1288C70.1364 59.1288 69.6526 58.9833 69.2847 58.6917C68.916 58.4001 68.7324 57.9703 68.7324 57.4029C68.7324 56.8118 68.9391 56.3517 69.3538 56.022C69.7678 55.6994 70.3589 55.5389 71.1257 55.5389H72.3C72.3382 55.5389 72.3569 55.5194 72.3569 55.4813V55.2278C72.3569 54.9744 72.2806 54.7749 72.1272 54.6295C71.9739 54.4913 71.7435 54.4221 71.4368 54.4221C71.1984 54.4221 71.0033 54.4646 70.85 54.5489C70.6887 54.6331 70.585 54.7519 70.5389 54.906C70.5159 54.9902 70.4662 55.0284 70.3892 55.0205L68.9967 54.8369C68.9045 54.821 68.8628 54.7865 68.87 54.7332C68.9009 54.4106 69.0276 54.119 69.2501 53.8584C69.4805 53.5977 69.7793 53.394 70.148 53.2485C70.5238 53.1024 70.9414 53.0297 71.4022 53.0297ZM71.1718 57.9206C71.5016 57.9206 71.7817 57.8328 72.0121 57.6564C72.2425 57.48 72.3569 57.2532 72.3569 56.9774V56.5627C72.3569 56.5245 72.3382 56.5051 72.3 56.5051H71.4713C71.1257 56.5051 70.8536 56.5706 70.6541 56.7009C70.4619 56.8313 70.3661 57.0156 70.3661 57.2532C70.3661 57.4605 70.4396 57.6218 70.585 57.7363C70.7304 57.8594 70.9263 57.9206 71.1718 57.9206ZM78.3876 54.2839C78.3876 54.3228 78.3761 54.3573 78.3531 54.3876C78.3221 54.4106 78.2876 54.4221 78.2494 54.4221H77.1449C77.106 54.4221 77.0873 54.4416 77.0873 54.4797V56.9198C77.0873 57.1725 77.1406 57.3605 77.2479 57.4836C77.348 57.606 77.5128 57.6679 77.7432 57.6679H78.1227C78.1616 57.6679 78.1954 57.6794 78.2264 57.7025C78.2494 57.7327 78.2609 57.7673 78.2609 57.8054V58.8991C78.2609 58.9833 78.2149 59.033 78.1227 59.0489C77.8008 59.064 77.5704 59.0719 77.4322 59.0719C76.7957 59.0719 76.3198 58.9682 76.0052 58.7609C75.6905 58.5463 75.53 58.1474 75.522 57.5642V54.4797C75.522 54.4416 75.5026 54.4221 75.4645 54.4221H74.8085C74.7704 54.4221 74.7358 54.4106 74.7048 54.3876C74.6818 54.3573 74.6703 54.3228 74.6703 54.2839V53.2601C74.6703 53.2219 74.6818 53.1873 74.7048 53.1564C74.7358 53.1333 74.7704 53.1218 74.8085 53.1218H75.4645C75.5026 53.1218 75.522 53.1024 75.522 53.0642V51.6948C75.522 51.6566 75.5372 51.6257 75.5681 51.6026C75.5912 51.5724 75.6214 51.5565 75.6603 51.5565H76.9491C76.9872 51.5565 77.0218 51.5724 77.0528 51.6026C77.0758 51.6257 77.0873 51.6566 77.0873 51.6948V53.0642C77.0873 53.1024 77.106 53.1218 77.1449 53.1218H78.2494C78.2876 53.1218 78.3221 53.1333 78.3531 53.1564C78.3761 53.1873 78.3876 53.2219 78.3876 53.2601V54.2839ZM80.2402 52.4544C79.9796 52.4544 79.765 52.3658 79.5958 52.1894C79.4194 52.0209 79.3316 51.8064 79.3316 51.545C79.3316 51.2765 79.4158 51.0583 79.5843 50.8891C79.7535 50.7206 79.9716 50.6364 80.2402 50.6364C80.5088 50.6364 80.7276 50.7206 80.8961 50.8891C81.0653 51.0583 81.1496 51.2765 81.1496 51.545C81.1496 51.8064 81.061 52.0209 80.8846 52.1894C80.7161 52.3658 80.5016 52.4544 80.2402 52.4544ZM79.5497 59.0373C79.5116 59.0373 79.477 59.0215 79.446 58.9913C79.423 58.9682 79.4115 58.9373 79.4115 58.8991V53.2485C79.4115 53.2104 79.423 53.1758 79.446 53.1449C79.477 53.1218 79.5116 53.1103 79.5497 53.1103H80.8961C80.935 53.1103 80.9696 53.1218 80.9998 53.1449C81.0228 53.1758 81.0344 53.2104 81.0344 53.2485V58.8991C81.0344 58.9373 81.0228 58.9682 80.9998 58.9913C80.9696 59.0215 80.935 59.0373 80.8961 59.0373H79.5497ZM84.913 59.1288C84.2679 59.1288 83.7156 58.9603 83.2556 58.6226C82.7955 58.2849 82.4808 57.8249 82.3116 57.2417C82.2044 56.8809 82.1504 56.49 82.1504 56.0681C82.1504 55.6152 82.2044 55.2084 82.3116 54.8484C82.488 54.2803 82.807 53.8353 83.2671 53.5128C83.7272 53.1909 84.2794 53.0297 84.9245 53.0297C85.5531 53.0297 86.0902 53.1909 86.5352 53.5128C86.9801 53.8274 87.2948 54.2688 87.4791 54.8369C87.6015 55.2199 87.6634 55.6231 87.6634 56.045C87.6634 56.459 87.6094 56.8464 87.5021 57.2071C87.3329 57.8054 87.019 58.2777 86.5582 58.6226C86.106 58.9603 85.5574 59.1288 84.913 59.1288ZM84.913 57.7363C85.1657 57.7363 85.381 57.66 85.5574 57.5066C85.7338 57.3533 85.8605 57.1423 85.9368 56.8737C85.998 56.6282 86.029 56.3597 86.029 56.0681C86.029 55.7455 85.998 55.4733 85.9368 55.2509C85.8526 54.9902 85.7223 54.7865 85.5459 54.641C85.3695 54.4949 85.1542 54.4221 84.9015 54.4221C84.6401 54.4221 84.422 54.4949 84.2456 54.641C84.0764 54.7865 83.954 54.9902 83.8769 55.2509C83.8157 55.4352 83.7848 55.7073 83.7848 56.0681C83.7848 56.4129 83.8114 56.6815 83.8654 56.8737C83.9425 57.1423 84.0685 57.3533 84.2456 57.5066C84.4292 57.66 84.6516 57.7363 84.913 57.7363ZM91.7948 53.0297C92.4082 53.0297 92.9036 53.2176 93.2794 53.5934C93.6552 53.97 93.8432 54.4797 93.8432 55.1241V58.8991C93.8432 58.9373 93.828 58.9682 93.7971 58.9913C93.774 59.0215 93.7431 59.0373 93.7049 59.0373H92.3585C92.3204 59.0373 92.2858 59.0215 92.2548 58.9913C92.2318 58.9682 92.2203 58.9373 92.2203 58.8991V55.4582C92.2203 55.1508 92.1324 54.9017 91.956 54.7101C91.7868 54.5179 91.5608 54.4221 91.2764 54.4221C90.9927 54.4221 90.763 54.5179 90.5859 54.7101C90.4174 54.9017 90.3332 55.1508 90.3332 55.4582V58.8991C90.3332 58.9373 90.318 58.9682 90.2871 58.9913C90.264 59.0215 90.2331 59.0373 90.1949 59.0373H88.8485C88.8104 59.0373 88.7758 59.0215 88.7448 58.9913C88.7218 58.9682 88.7103 58.9373 88.7103 58.8991V53.2601C88.7103 53.2219 88.7218 53.1873 88.7448 53.1564C88.7758 53.1333 88.8104 53.1218 88.8485 53.1218H90.1949C90.2331 53.1218 90.264 53.1333 90.2871 53.1564C90.318 53.1873 90.3332 53.2219 90.3332 53.2601V53.6625C90.3332 53.6856 90.3404 53.7014 90.3562 53.7086C90.3713 53.7165 90.3828 53.7129 90.3908 53.6971C90.7054 53.2521 91.1734 53.0297 91.7948 53.0297ZM41.0434 40.7275C41.0434 40.7659 41.0283 40.7966 40.9973 40.8196C40.9743 40.8503 40.944 40.8656 40.9052 40.8656H37.1424C37.1036 40.8656 37.0848 40.8848 37.0848 40.9232V42.707C37.0848 42.7452 37.1036 42.7646 37.1424 42.7646H39.6164C39.6545 42.7646 39.6855 42.7761 39.7085 42.7992C39.7395 42.8294 39.7546 42.864 39.7546 42.9029V44.0189C39.7546 44.057 39.7395 44.0916 39.7085 44.1225C39.6855 44.1456 39.6545 44.1571 39.6164 44.1571H37.1424C37.1036 44.1571 37.0848 44.1758 37.0848 44.2147V47.3906C37.0848 47.4288 37.0733 47.4597 37.0503 47.4828C37.0193 47.5137 36.9848 47.5289 36.9466 47.5289H35.6002C35.562 47.5289 35.5311 47.5137 35.508 47.4828C35.4771 47.4597 35.462 47.4288 35.462 47.3906V39.6112C35.462 39.5729 35.4771 39.5422 35.508 39.5192C35.5311 39.4885 35.562 39.4731 35.6002 39.4731H40.9052C40.944 39.4731 40.9743 39.4885 40.9973 39.5192C41.0283 39.5422 41.0434 39.5729 41.0434 39.6112V40.7275ZM43.598 41.5216C44.0969 41.5216 44.5419 41.606 44.9336 41.7748C45.3245 41.9512 45.6312 42.1891 45.8537 42.4883C46.069 42.7877 46.1763 43.121 46.1763 43.4897V47.3906C46.1763 47.4288 46.1648 47.4597 46.1417 47.4828C46.1108 47.5137 46.0762 47.5289 46.038 47.5289H44.6916C44.6535 47.5289 44.6189 47.5137 44.588 47.4828C44.5649 47.4597 44.5534 47.4288 44.5534 47.3906V47.0112C44.5534 46.9881 44.5455 46.9723 44.5304 46.9651C44.5152 46.9572 44.4994 46.9651 44.4843 46.9881C44.1625 47.4101 43.644 47.621 42.9305 47.621C42.3322 47.621 41.8491 47.4749 41.4804 47.184C41.1125 46.8924 40.9282 46.4625 40.9282 45.8945C40.9282 45.3041 41.1356 44.844 41.5496 44.5135C41.9643 44.1917 42.5547 44.0304 43.3222 44.0304H44.4958C44.534 44.0304 44.5534 44.0109 44.5534 43.9728V43.7193C44.5534 43.4666 44.4764 43.2672 44.323 43.121C44.1697 42.9828 43.94 42.9144 43.6325 42.9144C43.3949 42.9144 43.1991 42.9561 43.0457 43.0404C42.8845 43.1253 42.7815 43.2441 42.7354 43.3975C42.7124 43.4817 42.662 43.5199 42.5856 43.5127L41.1932 43.3284C41.101 43.3133 41.0585 43.2787 41.0664 43.2247C41.0974 42.9029 41.2277 42.6113 41.4574 42.3502C41.6799 42.0893 41.9794 41.886 42.3552 41.7403C42.7239 41.5945 43.1379 41.5216 43.598 41.5216ZM43.3683 46.4129C43.698 46.4129 43.9781 46.3243 44.2085 46.1479C44.4382 45.9715 44.5534 45.7454 44.5534 45.4689V45.0549C44.5534 45.0161 44.534 44.9973 44.4958 44.9973H43.6671C43.3222 44.9973 43.0536 45.0621 42.8614 45.1925C42.662 45.3228 42.5626 45.5071 42.5626 45.7454C42.5626 45.9521 42.6353 46.1133 42.7815 46.2285C42.9269 46.3509 43.1228 46.4129 43.3683 46.4129ZM49.6748 47.6095C49.1607 47.6095 48.7114 47.5368 48.3284 47.3906C47.9446 47.2452 47.6494 47.0414 47.4421 46.7808C47.2275 46.5201 47.1195 46.2249 47.1195 45.8945V45.78C47.1195 45.7411 47.1353 45.7109 47.1656 45.6878C47.1886 45.6569 47.2196 45.6417 47.2577 45.6417H48.535C48.5739 45.6417 48.6041 45.6569 48.6272 45.6878C48.6581 45.7109 48.6732 45.7411 48.6732 45.78V45.7908C48.6732 45.96 48.769 46.1018 48.9612 46.217C49.1456 46.3394 49.3796 46.4013 49.6632 46.4013C49.9239 46.4013 50.1348 46.3509 50.2961 46.2516C50.4574 46.1443 50.538 46.014 50.538 45.8599C50.538 45.7224 50.4689 45.6187 50.3307 45.5496C50.1924 45.4805 49.9664 45.4077 49.6517 45.3307C49.291 45.2385 49.0073 45.1507 48.8 45.0665C48.3089 44.8973 47.918 44.6899 47.6264 44.4444C47.3348 44.1989 47.1886 43.8461 47.1886 43.386C47.1886 42.8179 47.4111 42.3655 47.856 42.028C48.2938 41.6981 48.877 41.5331 49.6056 41.5331C50.0967 41.5331 50.5265 41.6136 50.8945 41.7748C51.2624 41.9282 51.5504 42.1469 51.7577 42.4308C51.9572 42.7149 52.0565 43.0368 52.0565 43.3975C52.0565 43.4357 52.045 43.4702 52.022 43.5012C51.9917 43.5242 51.9572 43.5357 51.919 43.5357H50.6871C50.6489 43.5357 50.618 43.5242 50.5949 43.5012C50.5647 43.4702 50.5496 43.4357 50.5496 43.3975C50.5496 43.2283 50.4646 43.0865 50.2961 42.972C50.1197 42.8568 49.8893 42.7992 49.6056 42.7992C49.3522 42.7992 49.1456 42.8453 48.9843 42.9374C48.823 43.0289 48.7424 43.1556 48.7424 43.3169C48.7424 43.4702 48.823 43.5854 48.9843 43.6625C49.1376 43.7388 49.3983 43.8194 49.7669 43.9037L50.0542 43.9843C50.1615 44.0073 50.2767 44.0383 50.3998 44.0765C50.9441 44.2377 51.374 44.4444 51.6886 44.6978C52.0032 44.9513 52.1602 45.3192 52.1602 45.8023C52.1602 46.3704 51.9377 46.8117 51.4928 47.1264C51.0399 47.4482 50.4344 47.6095 49.6748 47.6095ZM56.4759 42.7761C56.4759 42.8143 56.4644 42.8489 56.4413 42.8798C56.4104 42.9029 56.3765 42.9144 56.3376 42.9144H55.2332C55.195 42.9144 55.1756 42.9331 55.1756 42.972V45.4113C55.1756 45.6648 55.2296 45.8527 55.3368 45.9751C55.4362 46.0982 55.6011 46.1594 55.8315 46.1594H56.2109C56.2498 46.1594 56.2844 46.1709 56.3146 46.194C56.3377 46.2249 56.3492 46.2588 56.3492 46.2977V47.3906C56.3492 47.4749 56.3031 47.5253 56.2109 47.5404C55.8891 47.5555 55.6587 47.5634 55.5204 47.5634C54.884 47.5634 54.408 47.4597 54.0934 47.2524C53.7795 47.0378 53.6182 46.6389 53.6103 46.0557V42.972C53.6103 42.9331 53.5916 42.9144 53.5527 42.9144H52.8968C52.8586 42.9144 52.8277 42.9029 52.8046 42.8798C52.7744 42.8489 52.7585 42.8143 52.7585 42.7761V41.7517C52.7585 41.7134 52.7744 41.6789 52.8046 41.6482C52.8277 41.6252 52.8586 41.6136 52.8968 41.6136H53.5527C53.5916 41.6136 53.6103 41.5945 53.6103 41.5561V40.1867C53.6103 40.1483 53.6218 40.1176 53.6448 40.0946C53.6758 40.0639 53.7104 40.0486 53.7485 40.0486H55.0373C55.0755 40.0486 55.11 40.0639 55.141 40.0946C55.164 40.1176 55.1756 40.1483 55.1756 40.1867V41.5561C55.1756 41.5945 55.195 41.6136 55.2332 41.6136H56.3376C56.3765 41.6136 56.4104 41.6252 56.4413 41.6482C56.4644 41.6789 56.4759 41.7134 56.4759 41.7517V42.7761ZM62.6096 43.9613C62.6556 44.2529 62.6715 44.579 62.6556 44.9397C62.6484 45.0319 62.598 45.078 62.5059 45.078H58.9505C58.9044 45.078 58.8886 45.0967 58.9044 45.1349C58.9275 45.2889 58.9692 45.4423 59.0304 45.5957C59.2299 46.0248 59.6367 46.2401 60.2508 46.2401C60.7419 46.2321 61.1292 46.0327 61.4129 45.6417C61.4439 45.5957 61.4784 45.5726 61.5166 45.5726C61.5396 45.5726 61.5663 45.5877 61.5972 45.6187L62.426 46.4359C62.4641 46.4741 62.4836 46.5086 62.4836 46.5389C62.4836 46.5547 62.4677 46.5849 62.4375 46.631C62.184 46.9457 61.8579 47.1912 61.459 47.3676C61.0601 47.5368 60.6224 47.621 60.1472 47.621C59.4869 47.621 58.9311 47.4713 58.4782 47.1725C58.0181 46.8729 57.6884 46.4546 57.4889 45.9175C57.3276 45.5345 57.247 45.0319 57.247 44.4098C57.247 43.9879 57.3046 43.6164 57.4198 43.2938C57.5962 42.7488 57.9029 42.3156 58.34 41.9934C58.7849 41.6712 59.3105 41.5101 59.9168 41.5101C60.6843 41.5101 61.2977 41.7326 61.7585 42.1775C62.2265 42.6228 62.5102 43.2168 62.6096 43.9613ZM59.9283 42.9144C59.4452 42.9144 59.1269 43.1405 58.9736 43.5933C58.9426 43.6927 58.916 43.8158 58.8929 43.9613C58.8929 43.9994 58.9116 44.0189 58.9505 44.0189H60.9413C60.9874 44.0189 61.0025 43.9994 60.9874 43.9613C60.9485 43.7388 60.9298 43.6315 60.9298 43.6394C60.8607 43.409 60.7376 43.2283 60.5612 43.098C60.3927 42.9756 60.1817 42.9144 59.9283 42.9144ZM65.936 47.6095C65.4219 47.6095 64.9726 47.5368 64.5896 47.3906C64.2058 47.2452 63.9063 47.0414 63.6917 46.7808C63.4844 46.5201 63.3807 46.2249 63.3807 45.8945V45.78C63.3807 45.7411 63.3965 45.7109 63.4268 45.6878C63.4498 45.6569 63.4808 45.6417 63.5189 45.6417H64.7962C64.8344 45.6417 64.8653 45.6569 64.8884 45.6878C64.9193 45.7109 64.9344 45.7411 64.9344 45.78V45.7908C64.9344 45.96 65.0266 46.1018 65.2109 46.217C65.4024 46.3394 65.64 46.4013 65.9244 46.4013C66.1851 46.4013 66.396 46.3509 66.5573 46.2516C66.7179 46.1443 66.7985 46.014 66.7985 45.8599C66.7985 45.7224 66.7294 45.6187 66.5919 45.5496C66.4536 45.4805 66.2276 45.4077 65.9129 45.3307C65.5522 45.2385 65.2685 45.1507 65.0612 45.0665C64.5701 44.8973 64.1784 44.6899 63.8876 44.4444C63.596 44.1989 63.4498 43.8461 63.4498 43.386C63.4498 42.8179 63.6687 42.3655 64.1057 42.028C64.5507 41.6981 65.1375 41.5331 65.8668 41.5331C66.3579 41.5331 66.787 41.6136 67.1556 41.7748C67.5236 41.9282 67.808 42.1469 68.0074 42.4308C68.214 42.7149 68.3177 43.0368 68.3177 43.3975C68.3177 43.4357 68.3062 43.4702 68.2832 43.5012C68.2529 43.5242 68.2184 43.5357 68.1795 43.5357H66.9483C66.9101 43.5357 66.8756 43.5242 66.8446 43.5012C66.8216 43.4702 66.81 43.4357 66.81 43.3975C66.81 43.2283 66.7258 43.0865 66.5573 42.972C66.3809 42.8568 66.1505 42.7992 65.8668 42.7992C65.6134 42.7992 65.406 42.8453 65.2455 42.9374C65.0842 43.0289 65.0036 43.1556 65.0036 43.3169C65.0036 43.4702 65.0799 43.5854 65.234 43.6625C65.3945 43.7388 65.6595 43.8194 66.0274 43.9037L66.3154 43.9843C66.4227 44.0073 66.5379 44.0383 66.661 44.0765C67.2053 44.2377 67.6352 44.4444 67.9498 44.6978C68.2644 44.9513 68.4214 45.3192 68.4214 45.8023C68.4214 46.3704 68.1953 46.8117 67.7424 47.1264C67.2975 47.4482 66.6956 47.6095 65.936 47.6095ZM72.7371 42.7761C72.7371 42.8143 72.722 42.8489 72.691 42.8798C72.668 42.9029 72.637 42.9144 72.5988 42.9144H71.4944C71.4555 42.9144 71.4368 42.9331 71.4368 42.972V45.4113C71.4368 45.6648 71.4865 45.8527 71.5865 45.9751C71.6938 46.0982 71.8623 46.1594 72.0927 46.1594H72.4721C72.511 46.1594 72.5412 46.1709 72.5643 46.194C72.5952 46.2249 72.6104 46.2588 72.6104 46.2977V47.3906C72.6104 47.4749 72.5643 47.5253 72.4721 47.5404C72.1503 47.5555 71.9199 47.5634 71.7816 47.5634C71.1452 47.5634 70.6693 47.4597 70.3546 47.2524C70.04 47.0378 69.8794 46.6389 69.8715 46.0557V42.972C69.8715 42.9331 69.852 42.9144 69.8139 42.9144H69.158C69.1198 42.9144 69.0853 42.9029 69.0543 42.8798C69.0312 42.8489 69.0197 42.8143 69.0197 42.7761V41.7517C69.0197 41.7134 69.0312 41.6789 69.0543 41.6482C69.0853 41.6252 69.1198 41.6136 69.158 41.6136H69.8139C69.852 41.6136 69.8715 41.5945 69.8715 41.5561V40.1867C69.8715 40.1483 69.883 40.1176 69.906 40.0946C69.937 40.0639 69.9716 40.0486 70.0097 40.0486H71.2985C71.3367 40.0486 71.3676 40.0639 71.3907 40.0946C71.4209 40.1176 71.4368 40.1483 71.4368 40.1867V41.5561C71.4368 41.5945 71.4555 41.6136 71.4944 41.6136H72.5988C72.637 41.6136 72.668 41.6252 72.691 41.6482C72.722 41.6789 72.7371 41.7134 72.7371 41.7517V42.7761Z" fill="#252530"/>
<path id="Vector_7" d="M33.4366 69.7162C33.4366 69.7551 33.4251 69.7854 33.402 69.8084C33.3711 69.8394 33.3365 69.8545 33.2984 69.8545H29.3744C29.3355 69.8545 29.3167 69.8739 29.3167 69.9121V72.0642C29.3167 72.1023 29.3355 72.1218 29.3744 72.1218H32.0096C32.0477 72.1218 32.0823 72.1333 32.1132 72.1563C32.1363 72.1873 32.1478 72.2211 32.1478 72.26V73.1348C32.1478 73.173 32.1363 73.2075 32.1132 73.2378C32.0823 73.2608 32.0477 73.2723 32.0096 73.2723H29.3744C29.3355 73.2723 29.3167 73.2918 29.3167 73.3299V75.5511C29.3167 75.5893 29.3355 75.6087 29.3744 75.6087H33.2984C33.3365 75.6087 33.3711 75.6238 33.402 75.6548C33.4251 75.6778 33.4366 75.7088 33.4366 75.747V76.6218C33.4366 76.6599 33.4251 76.6902 33.402 76.7132C33.3711 76.7442 33.3365 76.7593 33.2984 76.7593H28.1194C28.0812 76.7593 28.051 76.7442 28.028 76.7132C27.997 76.6902 27.9819 76.6599 27.9819 76.6218V68.8422C27.9819 68.8033 27.997 68.773 28.028 68.75C28.051 68.719 28.0812 68.7039 28.1194 68.7039H33.2984C33.3365 68.7039 33.3711 68.719 33.402 68.75C33.4251 68.773 33.4366 68.8033 33.4366 68.8422V69.7162ZM37.4873 70.7869C38.1087 70.7869 38.6076 70.9712 38.9835 71.3391C39.3514 71.7078 39.5357 72.2103 39.5357 72.8468V76.6218C39.5357 76.6599 39.5206 76.6902 39.4896 76.7132C39.4666 76.7442 39.4364 76.7593 39.3975 76.7593H38.3391C38.3009 76.7593 38.2663 76.7442 38.2354 76.7132C38.2123 76.6902 38.2008 76.6599 38.2008 76.6218V73.1233C38.2008 72.7698 38.1015 72.4825 37.902 72.26C37.7019 72.0447 37.4376 71.9374 37.1079 71.9374C36.7774 71.9374 36.5096 72.0447 36.3022 72.26C36.1028 72.4746 36.0027 72.7582 36.0027 73.1118V76.6218C36.0027 76.6599 35.9912 76.6902 35.9681 76.7132C35.9379 76.7442 35.9033 76.7593 35.8644 76.7593H34.806C34.7679 76.7593 34.7369 76.7442 34.7139 76.7132C34.6829 76.6902 34.6678 76.6599 34.6678 76.6218V71.0173C34.6678 70.9784 34.6829 70.9438 34.7139 70.9136C34.7369 70.8906 34.7679 70.879 34.806 70.879H35.8644C35.9033 70.879 35.9379 70.8906 35.9681 70.9136C35.9912 70.9438 36.0027 70.9784 36.0027 71.0173V71.3852C36.0027 71.4082 36.0106 71.4234 36.0257 71.4313C36.0415 71.4392 36.0524 71.4313 36.0603 71.4082C36.3749 70.9942 36.8508 70.7869 37.4873 70.7869ZM44.0472 71.8222C44.0472 71.8611 44.0314 71.8914 44.0012 71.9144C43.9781 71.9454 43.9471 71.9605 43.909 71.9605H42.7354C42.6965 71.9605 42.6778 71.9799 42.6778 72.0181V74.7915C42.6778 75.0831 42.739 75.2941 42.8614 75.4244C42.9924 75.5547 43.1955 75.6202 43.472 75.6202H43.8168C43.855 75.6202 43.8859 75.6318 43.909 75.6548C43.9399 75.6858 43.9551 75.7203 43.9551 75.7585V76.6218C43.9551 76.706 43.909 76.7557 43.8168 76.7708L43.2185 76.7823C42.6123 76.7823 42.1594 76.6786 41.8606 76.472C41.5611 76.2646 41.4077 75.8737 41.4005 75.2977V72.0181C41.4005 71.9799 41.3811 71.9605 41.3429 71.9605H40.687C40.6481 71.9605 40.6136 71.9454 40.5833 71.9144C40.5603 71.8914 40.5488 71.8611 40.5488 71.8222V71.0173C40.5488 70.9784 40.5603 70.9438 40.5833 70.9136C40.6136 70.8906 40.6481 70.879 40.687 70.879H41.3429C41.3811 70.879 41.4005 70.8596 41.4005 70.8214V69.475C41.4005 69.4362 41.412 69.4023 41.4344 69.3714C41.4653 69.3483 41.4999 69.3368 41.538 69.3368H42.5396C42.5777 69.3368 42.6087 69.3483 42.6317 69.3714C42.6619 69.4023 42.6778 69.4362 42.6778 69.475V70.8214C42.6778 70.8596 42.6965 70.879 42.7354 70.879H43.909C43.9471 70.879 43.9781 70.8906 44.0012 70.9136C44.0314 70.9438 44.0472 70.9784 44.0472 71.0173V71.8222ZM50.0772 73.1571C50.1082 73.3494 50.1233 73.5639 50.1233 73.8022L50.1118 74.1586C50.1118 74.2508 50.0657 74.2969 49.9736 74.2969H46.3714C46.3332 74.2969 46.3145 74.3156 46.3145 74.3545C46.3376 74.6072 46.3714 74.78 46.4175 74.8722C46.6018 75.4244 47.0504 75.7045 47.7639 75.7124C48.2859 75.7124 48.6999 75.4971 49.0073 75.068C49.0376 75.0219 49.0764 74.9989 49.1225 74.9989C49.1528 74.9989 49.1794 75.0104 49.2024 75.0334L49.9159 75.6202C49.9851 75.6742 49.9966 75.7354 49.9505 75.8046C49.7129 76.1422 49.3983 76.4029 49.0073 76.5872C48.6084 76.7708 48.1671 76.863 47.684 76.863C47.0849 76.863 46.5752 76.729 46.1532 76.4605C45.7385 76.1919 45.4354 75.8161 45.2439 75.3322C45.0675 74.9182 44.9789 74.343 44.9789 73.6064C44.9789 73.1614 45.025 72.8007 45.1172 72.5242C45.2705 71.9871 45.5621 71.5616 45.992 71.247C46.4139 70.9402 46.9244 70.7869 47.5227 70.7869C49.034 70.7869 49.8857 71.5767 50.0772 73.1571ZM47.5227 71.9374C47.239 71.9374 47.0007 72.0102 46.8091 72.1563C46.6248 72.2946 46.4945 72.4897 46.4175 72.7431C46.3714 72.8734 46.3412 73.0426 46.326 73.2493C46.3102 73.2882 46.326 73.3069 46.3714 73.3069H48.7078C48.746 73.3069 48.7654 73.2882 48.7654 73.2493C48.7503 73.0578 48.7272 72.9123 48.6963 72.8122C48.6271 72.5358 48.4932 72.3212 48.2938 72.1678C48.0864 72.0145 47.8294 71.9374 47.5227 71.9374ZM54.0819 70.8099C54.3274 70.8099 54.5427 70.8596 54.727 70.9597C54.7882 70.9899 54.8112 71.0475 54.7954 71.1318L54.6003 72.1678C54.5923 72.26 54.5383 72.2866 54.439 72.2485C54.3238 72.2103 54.1899 72.1909 54.0365 72.1909C53.9364 72.1909 53.8594 72.1945 53.8061 72.2024C53.4835 72.2175 53.215 72.3291 53.0004 72.5358C52.7859 72.751 52.6779 73.0268 52.6779 73.3645V76.6218C52.6779 76.6599 52.6663 76.6902 52.644 76.7132C52.6131 76.7442 52.5785 76.7593 52.5404 76.7593H51.4812C51.4431 76.7593 51.4121 76.7442 51.3891 76.7132C51.3588 76.6902 51.343 76.6599 51.343 76.6218V71.0173C51.343 70.9784 51.3588 70.9438 51.3891 70.9136C51.4121 70.8906 51.4431 70.879 51.4812 70.879H52.5404C52.5785 70.879 52.6131 70.8906 52.644 70.9136C52.6663 70.9438 52.6779 70.9784 52.6779 71.0173V71.535C52.6779 71.5652 52.6822 71.581 52.6894 71.581C52.7052 71.5882 52.7204 71.581 52.7355 71.558C53.058 71.059 53.5066 70.8099 54.0819 70.8099ZM60.6533 72.3982C60.7916 72.7892 60.8607 73.2687 60.8607 73.8368C60.8607 74.3811 60.7952 74.8491 60.6648 75.2408C60.4963 75.747 60.2278 76.1422 59.8591 76.4259C59.4833 76.7096 59.0117 76.8514 58.4436 76.8514C57.8993 76.8514 57.4616 76.6563 57.1318 76.2646C57.1167 76.2495 57.1016 76.2452 57.0857 76.2531C57.0706 76.261 57.0627 76.2762 57.0627 76.2992V78.7962C57.0627 78.835 57.0512 78.8653 57.0281 78.8883C56.9979 78.9193 56.9633 78.9344 56.9244 78.9344H55.866C55.8279 78.9344 55.7969 78.9193 55.7739 78.8883C55.7429 78.8653 55.7278 78.835 55.7278 78.7962V71.0173C55.7278 70.9784 55.7429 70.9438 55.7739 70.9136C55.7969 70.8906 55.8279 70.879 55.866 70.879H56.9244C56.9633 70.879 56.9979 70.8906 57.0281 70.9136C57.0512 70.9438 57.0627 70.9784 57.0627 71.0173V71.3622C57.0627 71.3852 57.0706 71.4003 57.0857 71.4082C57.1016 71.4162 57.1167 71.4082 57.1318 71.3852C57.4695 70.9863 57.9108 70.7869 58.4551 70.7869C59.0002 70.7869 59.4603 70.9287 59.8361 71.2124C60.2119 71.4968 60.4848 71.8914 60.6533 72.3982ZM59.1572 75.2178C59.3876 74.8642 59.5028 74.3962 59.5028 73.8138C59.5028 73.2536 59.4106 72.8122 59.2263 72.4897C59.0117 72.1138 58.6855 71.9259 58.2485 71.9259C57.8489 71.9259 57.5501 72.1102 57.3507 72.4782C57.1743 72.7777 57.0857 73.2226 57.0857 73.8138C57.0857 74.4193 57.1815 74.8801 57.3737 75.1947C57.5732 75.5317 57.8604 75.7009 58.237 75.7009C58.6431 75.7009 58.9505 75.5396 59.1572 75.2178ZM64.8883 70.8099C65.1339 70.8099 65.3484 70.8596 65.5327 70.9597C65.594 70.9899 65.617 71.0475 65.6019 71.1318L65.406 72.1678C65.3988 72.26 65.3448 72.2866 65.2455 72.2485C65.1303 72.2103 64.9956 72.1909 64.8423 72.1909C64.7429 72.1909 64.6659 72.1945 64.6119 72.2024C64.29 72.2175 64.0215 72.3291 63.8069 72.5358C63.5916 72.751 63.4843 73.0268 63.4843 73.3645V76.6218C63.4843 76.6599 63.4728 76.6902 63.4498 76.7132C63.4195 76.7442 63.385 76.7593 63.3461 76.7593H62.2877C62.2495 76.7593 62.2186 76.7442 62.1956 76.7132C62.1646 76.6902 62.1495 76.6599 62.1495 76.6218V71.0173C62.1495 70.9784 62.1646 70.9438 62.1956 70.9136C62.2186 70.8906 62.2495 70.879 62.2877 70.879H63.3461C63.385 70.879 63.4195 70.8906 63.4498 70.9136C63.4728 70.9438 63.4843 70.9784 63.4843 71.0173V71.535C63.4843 71.5652 63.488 71.581 63.4959 71.581C63.511 71.5882 63.5268 71.581 63.542 71.558C63.8645 71.059 64.3131 70.8099 64.8883 70.8099ZM67.2363 70.0734C66.9979 70.0734 66.8028 69.9963 66.6495 69.843C66.4954 69.6896 66.4191 69.4938 66.4191 69.2562C66.4191 69.0186 66.4954 68.8227 66.6495 68.6694C66.8028 68.516 66.9979 68.439 67.2363 68.439C67.4739 68.439 67.6697 68.516 67.8231 68.6694C67.9764 68.8227 68.0535 69.0186 68.0535 69.2562C68.0535 69.4938 67.9764 69.6896 67.8231 69.843C67.6697 69.9963 67.4739 70.0734 67.2363 70.0734ZM66.684 76.7593C66.6451 76.7593 66.6149 76.7442 66.5919 76.7132C66.5609 76.6902 66.5458 76.6599 66.5458 76.6218V71.0058C66.5458 70.9669 66.5609 70.9366 66.5919 70.9136C66.6149 70.8826 66.6451 70.8675 66.684 70.8675H67.7424C67.7806 70.8675 67.8151 70.8826 67.8461 70.9136C67.8691 70.9366 67.8807 70.9669 67.8807 71.0058V76.6218C67.8807 76.6599 67.8691 76.6902 67.8461 76.7132C67.8151 76.7442 67.7806 76.7593 67.7424 76.7593H66.684ZM71.598 76.8284C71.1142 76.8284 70.6887 76.7557 70.32 76.6102C69.96 76.472 69.68 76.2762 69.4805 76.0227C69.2803 75.7772 69.181 75.5014 69.181 75.1947V75.091C69.181 75.0522 69.1925 75.0183 69.2156 74.9874C69.2465 74.9643 69.2804 74.9528 69.3192 74.9528H70.3315C70.3704 74.9528 70.405 74.9643 70.4352 74.9874C70.4583 75.0183 70.4698 75.0522 70.4698 75.091V75.1141C70.4698 75.3056 70.5735 75.4748 70.7808 75.6202C70.9954 75.7585 71.264 75.8276 71.5865 75.8276C71.8932 75.8276 72.1423 75.7657 72.3339 75.6433C72.5261 75.513 72.6219 75.3517 72.6219 75.1602C72.6219 74.9838 72.5412 74.8491 72.3799 74.757C72.2266 74.6727 71.9739 74.5806 71.6203 74.4812L71.1833 74.343C70.7924 74.2278 70.4619 74.1046 70.194 73.9743C69.9255 73.844 69.6987 73.664 69.5144 73.4336C69.3307 73.2111 69.2386 72.9231 69.2386 72.5703C69.2386 72.0332 69.4496 71.6077 69.8715 71.293C70.2934 70.9712 70.8499 70.8099 71.5404 70.8099C72.0084 70.8099 72.4188 70.8826 72.7716 71.0288C73.1244 71.1822 73.3966 71.3888 73.5888 71.6502C73.7803 71.9187 73.8761 72.2211 73.8761 72.5588C73.8761 72.5977 73.8646 72.6322 73.8415 72.6625C73.8113 72.6855 73.7767 72.697 73.7379 72.697H72.7601C72.7219 72.697 72.6874 72.6855 72.6564 72.6625C72.6334 72.6322 72.6219 72.5977 72.6219 72.5588C72.6219 72.3594 72.5261 72.1945 72.3339 72.0642C72.1344 71.9259 71.8659 71.8568 71.5289 71.8568C71.2294 71.8568 70.9875 71.9108 70.8039 72.0181C70.6116 72.1333 70.5159 72.2902 70.5159 72.4897C70.5159 72.674 70.6044 72.8122 70.7808 72.9044C70.9644 73.0038 71.2675 73.1118 71.6895 73.2262L71.9429 73.2954C72.3497 73.4185 72.691 73.5409 72.9675 73.664C73.2432 73.7943 73.4772 73.9707 73.6695 74.1932C73.861 74.4236 73.9567 74.7188 73.9567 75.0795C73.9567 75.6238 73.7422 76.0501 73.3124 76.3568C72.8825 76.6714 72.3115 76.8284 71.598 76.8284ZM80.0443 73.1571C80.0753 73.3494 80.0904 73.5639 80.0904 73.8022L80.0789 74.1586C80.0789 74.2508 80.0335 74.2969 79.9414 74.2969H76.3392C76.3004 74.2969 76.2816 74.3156 76.2816 74.3545C76.3047 74.6072 76.3392 74.78 76.3853 74.8722C76.5689 75.4244 77.0182 75.7045 77.7317 75.7124C78.253 75.7124 78.6677 75.4971 78.9744 75.068C79.0054 75.0219 79.0435 74.9989 79.0896 74.9989C79.1199 74.9989 79.1472 75.0104 79.1703 75.0334L79.8838 75.6202C79.9529 75.6742 79.9644 75.7354 79.9183 75.8046C79.68 76.1422 79.3618 76.4029 78.9629 76.5872C78.5719 76.7708 78.1342 76.863 77.6511 76.863C77.0527 76.863 76.5423 76.729 76.1203 76.4605C75.7064 76.1919 75.4032 75.8161 75.211 75.3322C75.0346 74.9182 74.9467 74.343 74.9467 73.6064C74.9467 73.1614 74.9928 72.8007 75.085 72.5242C75.2383 71.9871 75.5256 71.5616 75.9475 71.247C76.3774 70.9402 76.8915 70.7869 77.4898 70.7869C79.0011 70.7869 79.8528 71.5767 80.0443 73.1571ZM77.4898 71.9374C77.2061 71.9374 76.9685 72.0102 76.7763 72.1563C76.5919 72.2946 76.4616 72.4897 76.3853 72.7431C76.3392 72.8734 76.3083 73.0426 76.2932 73.2493C76.278 73.2882 76.2932 73.3069 76.3392 73.3069H78.6749C78.7138 73.3069 78.7325 73.2882 78.7325 73.2493C78.7174 73.0578 78.6944 72.9123 78.6634 72.8122C78.595 72.5358 78.4568 72.3212 78.2494 72.1678C78.05 72.0145 77.7965 71.9374 77.4898 71.9374Z" fill="white"/>
<path id="Vector_8" d="M36.2216 92.986C36.1373 92.986 36.0833 92.9479 36.0603 92.8708L34.0234 85.0804L34.0119 85.0343C34.0119 84.9652 34.0544 84.9307 34.1386 84.9307H35.5657C35.642 84.9307 35.6924 84.9688 35.7154 85.0459L36.8084 89.7295C36.8163 89.7604 36.8278 89.7755 36.8429 89.7755C36.8581 89.7755 36.8696 89.7604 36.8775 89.7295L37.9359 85.0574C37.9589 84.9724 38.0093 84.9307 38.0857 84.9307H39.4781C39.5624 84.9307 39.6164 84.9688 39.6394 85.0459L40.79 89.7295C40.7979 89.7525 40.8094 89.7676 40.8245 89.7755C40.8404 89.7755 40.8519 89.7604 40.8591 89.7295L41.9182 85.0574C41.9413 84.9724 41.9909 84.9307 42.068 84.9307H43.4259C43.5332 84.9307 43.5749 84.9803 43.5519 85.0804L41.6648 92.8708C41.6417 92.9479 41.5885 92.986 41.5035 92.986H40.1341C40.0577 92.986 40.0081 92.9479 39.985 92.8708L38.8107 87.8884C38.8035 87.8575 38.792 87.8423 38.7761 87.8423C38.761 87.8423 38.7495 87.8575 38.7416 87.8884L37.6486 92.8593C37.6335 92.9443 37.5831 92.986 37.4989 92.986H36.2216ZM44.6686 92.986C44.6305 92.986 44.5959 92.9709 44.5649 92.9399C44.5419 92.9169 44.5304 92.8867 44.5304 92.8478V85.0689C44.5304 85.03 44.5419 84.9998 44.5649 84.9767C44.5959 84.9458 44.6305 84.9307 44.6686 84.9307H46.015C46.0532 84.9307 46.0841 84.9458 46.1072 84.9767C46.1374 84.9998 46.1533 85.03 46.1533 85.0689V92.8478C46.1533 92.8867 46.1374 92.9169 46.1072 92.9399C46.0841 92.9709 46.0532 92.986 46.015 92.986H44.6686ZM52.1833 85.0689C52.1833 85.03 52.1948 84.9998 52.2178 84.9767C52.2488 84.9458 52.2833 84.9307 52.3215 84.9307H53.6679C53.7061 84.9307 53.737 84.9458 53.7601 84.9767C53.791 84.9998 53.8061 85.03 53.8061 85.0689V92.8478C53.8061 92.8867 53.791 92.9169 53.7601 92.9399C53.737 92.9709 53.7061 92.986 53.6679 92.986H52.3676C52.2905 92.986 52.2373 92.9558 52.2063 92.8939L49.2255 87.9683C49.2104 87.9453 49.1953 87.9381 49.1794 87.9453C49.1643 87.9453 49.1564 87.9611 49.1564 87.9914L49.1794 92.8478C49.1794 92.8867 49.1643 92.9169 49.1341 92.9399C49.111 92.9709 49.0801 92.986 49.0419 92.986H47.6955C47.6566 92.986 47.6221 92.9709 47.5918 92.9399C47.5688 92.9169 47.5573 92.8867 47.5573 92.8478V85.0689C47.5573 85.03 47.5688 84.9998 47.5918 84.9767C47.6221 84.9458 47.6566 84.9307 47.6955 84.9307H48.9958C49.0721 84.9307 49.1261 84.9609 49.1564 85.0228L52.1257 89.9253C52.1415 89.9483 52.1566 89.9555 52.1717 89.9483C52.1876 89.9483 52.1948 89.9325 52.1948 89.9023L52.1833 85.0689ZM60.7685 84.9307C60.8067 84.9307 60.8377 84.9458 60.8607 84.9767C60.8909 84.9998 60.9068 85.03 60.9068 85.0689V86.1964C60.9068 86.2346 60.8909 86.2655 60.8607 86.2886C60.8377 86.3188 60.8067 86.3347 60.7685 86.3347H58.7086C58.6705 86.3347 58.651 86.3534 58.651 86.3923V92.8478C58.651 92.8867 58.6359 92.9169 58.6049 92.9399C58.5819 92.9709 58.5509 92.986 58.5128 92.986H57.1664C57.1282 92.986 57.0937 92.9709 57.0627 92.9399C57.0397 92.9169 57.0281 92.8867 57.0281 92.8478V86.3923C57.0281 86.3534 57.0094 86.3347 56.9705 86.3347H54.9682C54.9301 86.3347 54.8955 86.3188 54.8645 86.2886C54.8415 86.2655 54.83 86.2346 54.83 86.1964V85.0689C54.83 85.03 54.8415 84.9998 54.8645 84.9767C54.8955 84.9458 54.9301 84.9307 54.9682 84.9307H60.7685ZM67.5351 86.1849C67.5351 86.2231 67.5236 86.254 67.5005 86.2771C67.4703 86.3073 67.4357 86.3231 67.3976 86.3231H63.6226C63.5845 86.3231 63.565 86.3419 63.565 86.3807V88.1642C63.565 88.2023 63.5845 88.2218 63.6226 88.2218H66.0965C66.1354 88.2218 66.1657 88.2333 66.1887 88.2563C66.2197 88.2873 66.2348 88.3219 66.2348 88.36V89.476C66.2348 89.5149 66.2197 89.5495 66.1887 89.5797C66.1657 89.6027 66.1354 89.6143 66.0965 89.6143H63.6226C63.5845 89.6143 63.565 89.6337 63.565 89.6719V91.5359C63.565 91.5748 63.5845 91.5935 63.6226 91.5935H67.3976C67.4357 91.5935 67.4703 91.6051 67.5005 91.6281C67.5236 91.6591 67.5351 91.6936 67.5351 91.7318V92.8478C67.5351 92.8867 67.5236 92.9169 67.5005 92.9399C67.4703 92.9709 67.4357 92.986 67.3976 92.986H62.0804C62.0422 92.986 62.0077 92.9709 61.9767 92.9399C61.9537 92.9169 61.9421 92.8867 61.9421 92.8478V85.0689C61.9421 85.03 61.9537 84.9998 61.9767 84.9767C62.0077 84.9458 62.0422 84.9307 62.0804 84.9307H67.3976C67.4357 84.9307 67.4703 84.9458 67.5005 84.9767C67.5236 84.9998 67.5351 85.03 67.5351 85.0689V86.1849ZM73.082 92.986C73.0057 92.986 72.9517 92.9515 72.9214 92.8823L71.4829 89.6949C71.467 89.6639 71.444 89.6488 71.4137 89.6488H70.3431C70.3049 89.6488 70.2855 89.6683 70.2855 89.7064V92.8478C70.2855 92.8867 70.2704 92.9169 70.2394 92.9399C70.2164 92.9709 70.1861 92.986 70.148 92.986H68.8016C68.7627 92.986 68.7281 92.9709 68.6979 92.9399C68.6749 92.9169 68.6633 92.8867 68.6633 92.8478V85.0689C68.6633 85.03 68.6749 84.9998 68.6979 84.9767C68.7281 84.9458 68.7627 84.9307 68.8016 84.9307H72.0927C72.5837 84.9307 73.0136 85.03 73.3815 85.2295C73.7573 85.4289 74.0453 85.7133 74.2448 86.0812C74.4514 86.4499 74.5551 86.8754 74.5551 87.3585C74.5551 87.8805 74.4248 88.3255 74.1641 88.6934C73.9035 89.0699 73.5385 89.3342 73.0705 89.4875C73.0323 89.5034 73.0208 89.53 73.0359 89.5682L74.6012 92.8255C74.617 92.8557 74.6242 92.8787 74.6242 92.8939C74.6242 92.9558 74.5825 92.986 74.4975 92.986H73.082ZM70.3431 86.3231C70.3049 86.3231 70.2855 86.3419 70.2855 86.3807V88.3485C70.2855 88.3867 70.3049 88.4061 70.3431 88.4061H71.8508C72.1733 88.4061 72.434 88.3103 72.6334 88.1181C72.8408 87.9266 72.9445 87.6775 72.9445 87.37C72.9445 87.0633 72.8408 86.8099 72.6334 86.6104C72.434 86.4189 72.1733 86.3231 71.8508 86.3231H70.3431ZM43.7247 102.342C43.7096 102.358 43.706 102.373 43.7132 102.388C43.7211 102.404 43.7362 102.412 43.7593 102.412H46.8783C46.9165 102.412 46.951 102.423 46.982 102.446C47.005 102.476 47.0165 102.511 47.0165 102.55V103.666C47.0165 103.704 47.005 103.735 46.982 103.758C46.951 103.789 46.9165 103.804 46.8783 103.804H41.6993C41.6612 103.804 41.6266 103.789 41.5957 103.758C41.5726 103.735 41.5611 103.704 41.5611 103.666V102.607C41.5611 102.538 41.5841 102.481 41.6302 102.435C42.0061 102.066 42.3898 101.667 42.7815 101.238C43.1725 100.8 43.418 100.528 43.5181 100.421C43.7326 100.167 43.9515 99.9254 44.174 99.6957C44.8717 98.9203 45.2209 98.345 45.2209 97.9691C45.2209 97.7006 45.1251 97.4781 44.9336 97.3017C44.7413 97.1332 44.4922 97.0483 44.1855 97.0483C43.8781 97.0483 43.6289 97.1332 43.4374 97.3017C43.2452 97.4781 43.1494 97.7085 43.1494 97.9922V98.2802C43.1494 98.3183 43.1343 98.3529 43.1033 98.3839C43.0803 98.4069 43.0501 98.4184 43.0112 98.4184H41.6533C41.6151 98.4184 41.5841 98.4069 41.5611 98.3839C41.5309 98.3529 41.515 98.3183 41.515 98.2802V97.7387C41.5381 97.3247 41.6684 96.9568 41.9067 96.6343C42.1443 96.3196 42.4589 96.0784 42.8499 95.9092C43.2495 95.7407 43.6945 95.6558 44.1855 95.6558C44.7298 95.6558 45.2057 95.7559 45.6125 95.9553C46.0114 96.1627 46.3217 96.4384 46.5442 96.784C46.7595 97.1289 46.8668 97.5127 46.8668 97.9346C46.8668 98.2571 46.7861 98.5869 46.6249 98.9246C46.4636 99.2623 46.2224 99.6266 45.8998 100.018C45.6622 100.317 45.4052 100.612 45.1287 100.904C44.8529 101.195 44.4425 101.617 43.8975 102.17L43.7247 102.342ZM50.7562 103.931C49.9124 103.931 49.2449 103.692 48.7539 103.217C48.2629 102.749 48.0173 102.108 48.0173 101.295V98.2571C48.0173 97.4594 48.2629 96.8258 48.7539 96.3578C49.2449 95.8898 49.9124 95.6558 50.7562 95.6558C51.6001 95.6558 52.2718 95.8898 52.7701 96.3578C53.2611 96.8258 53.5066 97.4594 53.5066 98.2571V101.295C53.5066 102.108 53.2611 102.749 52.7701 103.217C52.2718 103.692 51.6001 103.931 50.7562 103.931ZM50.7562 102.538C51.1018 102.538 51.3776 102.43 51.5849 102.216C51.7844 102.008 51.8845 101.728 51.8845 101.375V98.2111C51.8845 97.8583 51.7844 97.5782 51.5849 97.3708C51.3776 97.1563 51.1018 97.0483 50.7562 97.0483C50.4185 97.0483 50.15 97.1563 49.9505 97.3708C49.7439 97.5782 49.6402 97.8583 49.6402 98.2111V101.375C49.6402 101.728 49.7439 102.008 49.9505 102.216C50.15 102.43 50.4185 102.538 50.7562 102.538ZM56.7293 102.342C56.7135 102.358 56.7099 102.373 56.7178 102.388C56.725 102.404 56.7409 102.412 56.7639 102.412H59.8822C59.9204 102.412 59.9549 102.423 59.9859 102.446C60.0089 102.476 60.0205 102.511 60.0205 102.55V103.666C60.0205 103.704 60.0089 103.735 59.9859 103.758C59.9549 103.789 59.9204 103.804 59.8822 103.804H54.704C54.6651 103.804 54.6349 103.789 54.6118 103.758C54.5809 103.735 54.5657 103.704 54.5657 103.666V102.607C54.5657 102.538 54.5888 102.481 54.6349 102.435C55.0107 102.066 55.3945 101.667 55.7854 101.238C56.1764 100.8 56.4219 100.528 56.522 100.421C56.7365 100.167 56.9554 99.9254 57.1779 99.6957C57.8763 98.9203 58.2255 98.345 58.2255 97.9691C58.2255 97.7006 58.129 97.4781 57.9375 97.3017C57.746 97.1332 57.4961 97.0483 57.1894 97.0483C56.8827 97.0483 56.6336 97.1332 56.4413 97.3017C56.2498 97.4781 56.1541 97.7085 56.1541 97.9922V98.2802C56.1541 98.3183 56.1425 98.3529 56.1195 98.3839C56.0885 98.4069 56.054 98.4184 56.0158 98.4184H54.6579C54.619 98.4184 54.5888 98.4069 54.5657 98.3839C54.5348 98.3529 54.5197 98.3183 54.5197 98.2802V97.7387C54.5427 97.3247 54.673 96.9568 54.9106 96.6343C55.1489 96.3196 55.4672 96.0784 55.8661 95.9092C56.257 95.7407 56.6984 95.6558 57.1894 95.6558C57.7345 95.6558 58.2097 95.7559 58.6165 95.9553C59.0153 96.1627 59.3264 96.4384 59.5489 96.784C59.7634 97.1289 59.8707 97.5127 59.8707 97.9346C59.8707 98.2571 59.7901 98.5869 59.6295 98.9246C59.4682 99.2623 59.2263 99.6266 58.9045 100.018C58.6661 100.317 58.4091 100.612 58.1333 100.904C57.8569 101.195 57.4465 101.617 56.9014 102.17L56.7293 102.342ZM66.7755 100.294C66.8144 100.294 66.8489 100.306 66.8792 100.329C66.9022 100.359 66.9137 100.393 66.9137 100.432V101.594C66.9137 101.633 66.9022 101.667 66.8792 101.698C66.8489 101.721 66.8144 101.733 66.7755 101.733H66.2809C66.2427 101.733 66.2233 101.751 66.2233 101.79V103.666C66.2233 103.704 66.2117 103.735 66.1887 103.758C66.1585 103.789 66.1239 103.804 66.085 103.804H64.7386C64.7005 103.804 64.6695 103.789 64.6465 103.758C64.6162 103.735 64.6004 103.704 64.6004 103.666V101.79C64.6004 101.751 64.5817 101.733 64.5435 101.733H61.0105C60.9716 101.733 60.9413 101.721 60.9183 101.698C60.8873 101.667 60.8722 101.633 60.8722 101.594V100.673C60.8722 100.627 60.8837 100.57 60.9068 100.501L62.9782 95.8516C63.0085 95.7825 63.0625 95.7479 63.1395 95.7479H64.5781C64.6313 95.7479 64.6695 95.7638 64.6925 95.794C64.7084 95.8171 64.7041 95.8559 64.681 95.9092L62.7593 100.225C62.7514 100.24 62.7514 100.256 62.7593 100.271C62.7673 100.286 62.7788 100.294 62.7939 100.294H64.5435C64.5817 100.294 64.6004 100.275 64.6004 100.236V98.8094C64.6004 98.7712 64.6162 98.7403 64.6465 98.7172C64.6695 98.6863 64.7005 98.6711 64.7386 98.6711H66.085C66.1239 98.6711 66.1585 98.6863 66.1887 98.7172C66.2117 98.7403 66.2233 98.7712 66.2233 98.8094V100.236C66.2233 100.275 66.2427 100.294 66.2809 100.294H66.7755Z" fill="#252530"/>
</g>
</svg>
