<svg width="108" height="121" viewBox="0 0 108 121" fill="none" xmlns="http://www.w3.org/2000/svg">
<g id="Group 94569">
<path id="Vector" d="M9.77254 93.4469L55.23 116.578L98.9613 93.4469V2.99219H9.77254V93.4469Z" fill="white"/>
<path id="Vector_2" d="M99.8814 3.3374L8.85182 95.0575L56.0356 118.419L99.8814 95.9784V3.3374Z" fill="#F2F3F2"/>
<path id="Vector_3" d="M6.78041 33.1435V95.403L8.39156 96.2087L53.849 119.34L55.2299 120.031L56.6109 119.34L100.457 96.2087L102.068 95.403V0H6.78041V33.1435ZM9.77252 93.6765V2.9921H99.0758V93.6765L55.2299 116.808L9.77252 93.6765Z" fill="#DCDEDC"/>
<path id="Vector_4" d="M54.4242 4.48819C54.8843 4.48819 55.3451 4.48819 55.8052 4.60325L54.4242 7.25011C52.3528 7.13506 50.5117 8.7462 50.3965 10.8177C50.2813 12.8892 51.8927 14.7305 53.9641 14.8455H54.4242C55.3451 14.8455 56.2653 14.5003 56.9557 13.9249L58.4519 16.4567C57.3013 17.2623 55.9204 17.7226 54.4242 17.7226C50.7414 17.8377 47.6346 15.0757 47.5194 11.3931C47.4042 7.71048 50.1661 4.60325 53.8489 4.48819H54.4242ZM59.1424 10.1272L60.8689 13.0042L59.1424 15.7662L57.5317 13.0042H54.1938L55.9204 10.1272H59.1424ZM56.3805 9.09144C56.3805 8.63114 56.4957 8.17078 56.7261 7.82554C56.9565 7.4803 57.4165 7.13506 57.7614 6.90487L57.9918 6.78982C58.4519 6.55963 58.5671 6.44458 58.5671 6.21439C58.5671 5.98421 58.2222 5.7541 57.9918 5.7541C57.5317 5.7541 57.1861 5.98421 56.9557 6.44458L56.3805 5.86915C56.4957 5.63897 56.7261 5.40886 56.9557 5.17867C57.3013 4.94849 57.6469 4.94849 57.9918 4.94849C58.3374 4.94849 58.7975 5.06355 59.0279 5.29373C59.2576 5.52391 59.488 5.86915 59.488 6.21439C59.488 6.78982 59.1424 7.25011 58.4519 7.4803L58.107 7.71048C57.7614 7.94059 57.5317 8.05572 57.4165 8.40096H59.488V9.2065L56.3805 9.09144ZM54.4242 23.4767L65.3574 17.2623V0H43.3765V17.1472L54.4242 23.4767ZM104.255 64.2155H4.5938L0.911148 72.2716L4.5938 80.3269H104.255L107.822 72.2716L104.255 64.2155Z" fill="#FF492C"/>
<path id="Vector_5" d="M20.3603 46.9419C21.1199 46.9419 21.7873 47.0953 22.3626 47.402C22.9379 47.7087 23.3829 48.1501 23.6975 48.7253C24.0121 49.2934 24.1691 49.945 24.1691 50.6816C24.1691 51.4109 24.0078 52.051 23.686 52.604C23.3562 53.1483 22.8954 53.5745 22.305 53.8813C21.7139 54.188 21.0313 54.3413 20.2566 54.3413H17.8052C17.7515 54.3413 17.7247 54.3723 17.7247 54.4335V58.8298C17.7247 58.891 17.7016 58.9407 17.6556 58.9796C17.6172 59.0177 17.5673 59.0372 17.506 59.0372H15.492C15.4307 59.0372 15.3808 59.0177 15.3425 58.9796C15.3041 58.9407 15.2849 58.891 15.2849 58.8298V47.1485C15.2849 47.0873 15.3041 47.0377 15.3425 46.9995C15.3808 46.9606 15.4307 46.9419 15.492 46.9419H20.3603ZM19.9917 52.3966C20.5288 52.3966 20.9543 52.2433 21.2689 51.9365C21.5915 51.6291 21.7528 51.2302 21.7528 50.7392C21.7528 50.2251 21.5915 49.8147 21.2689 49.508C20.9543 49.1933 20.5288 49.0364 19.9917 49.0364H17.8052C17.7515 49.0364 17.7247 49.0666 17.7247 49.1285V52.3045C17.7247 52.3657 17.7515 52.3966 17.8052 52.3966H19.9917ZM32.8811 53.6854C32.9423 54.1232 32.9617 54.6099 32.9387 55.147C32.9308 55.2932 32.8581 55.3659 32.7198 55.3659H27.3918C27.3227 55.3659 27.2953 55.3925 27.3112 55.4465C27.3493 55.6762 27.4149 55.9066 27.5063 56.137C27.8058 56.7814 28.4157 57.1033 29.3365 57.1033C30.0731 57.0961 30.652 56.7965 31.0739 56.2061C31.1279 56.137 31.1819 56.1025 31.2352 56.1025C31.2661 56.1025 31.3043 56.1255 31.3504 56.1716L32.5931 57.3913C32.6543 57.4525 32.6852 57.5065 32.6852 57.5525C32.6852 57.5756 32.6622 57.6217 32.6161 57.6901C32.2324 58.166 31.7456 58.5303 31.1545 58.7837C30.5483 59.0444 29.8888 59.1747 29.1752 59.1747C28.1932 59.1747 27.3573 58.9522 26.6668 58.5073C25.9835 58.0551 25.4925 57.4258 25.1937 56.6201C24.9481 56.0449 24.825 55.2932 24.825 54.3644C24.825 53.7279 24.9136 53.1677 25.09 52.6846C25.3585 51.871 25.8222 51.223 26.4825 50.7392C27.142 50.2561 27.9246 50.0141 28.8304 50.0141C29.9809 50.0141 30.9054 50.3482 31.6038 51.0157C32.3015 51.6831 32.7277 52.573 32.8811 53.6854ZM28.8534 52.1201C28.1241 52.1201 27.6445 52.4578 27.4148 53.1332C27.3688 53.2865 27.3299 53.4709 27.2997 53.6854C27.2997 53.7394 27.3299 53.7661 27.3918 53.7661H30.3719C30.441 53.7661 30.4641 53.7394 30.441 53.6854C30.3798 53.3557 30.3489 53.1944 30.3489 53.2023C30.2495 52.8567 30.0688 52.5881 29.8081 52.3966C29.5554 52.2123 29.2365 52.1201 28.8534 52.1201ZM38.865 50.0487C39.2797 50.0487 39.6095 50.1293 39.855 50.2906C39.9393 50.3367 39.9702 50.4209 39.9472 50.5441L39.5901 52.5118C39.5829 52.6501 39.5022 52.6918 39.3488 52.6385C39.1717 52.5766 38.9723 52.5464 38.7498 52.5464C38.6584 52.5464 38.5273 52.5579 38.3589 52.5809C37.9521 52.6191 37.6029 52.7725 37.3113 53.041C37.0276 53.3096 36.8857 53.6703 36.8857 54.1232V58.8298C36.8857 58.891 36.8627 58.9407 36.8166 58.9796C36.7785 59.0177 36.7324 59.0372 36.6784 59.0372H34.653C34.5997 59.0372 34.5493 59.0177 34.5033 58.9796C34.4651 58.9407 34.4464 58.891 34.4464 58.8298V50.3713C34.4464 50.3173 34.4651 50.2676 34.5033 50.2215C34.5493 50.1833 34.5997 50.1639 34.653 50.1639H36.6784C36.7324 50.1639 36.7785 50.1833 36.8166 50.2215C36.8627 50.2676 36.8857 50.3173 36.8857 50.3713V51.0272C36.8857 51.0581 36.8973 51.0812 36.9203 51.0963C36.9354 51.1114 36.9513 51.1042 36.9664 51.0733C37.4423 50.3907 38.0752 50.0487 38.865 50.0487ZM46.2191 50.1524C46.2803 50.1524 46.33 50.1718 46.3688 50.21C46.407 50.2481 46.4257 50.2985 46.4257 50.3597V51.9941C46.4257 52.0553 46.407 52.105 46.3688 52.1432C46.33 52.1821 46.2803 52.2008 46.2191 52.2008H44.5501C44.4889 52.2008 44.458 52.2281 44.458 52.2814V58.8298C44.458 58.891 44.4393 58.9407 44.4004 58.9796C44.3622 59.0177 44.3125 59.0372 44.2513 59.0372H42.2368C42.1756 59.0372 42.1259 59.0177 42.0877 58.9796C42.0488 58.9407 42.0301 58.891 42.0301 58.8298V52.2814C42.0301 52.2281 41.9992 52.2008 41.938 52.2008H40.9249C40.8637 52.2008 40.8141 52.1821 40.7759 52.1432C40.737 52.105 40.7183 52.0553 40.7183 51.9941V50.3597C40.7183 50.2985 40.737 50.2481 40.7759 50.21C40.8141 50.1718 40.8637 50.1524 40.9249 50.1524H41.938C41.9992 50.1524 42.0301 50.1221 42.0301 50.0602V49.6808C42.0301 48.9673 42.1374 48.4107 42.352 48.0118C42.5745 47.6209 42.9273 47.3408 43.4111 47.1716C43.9021 47.0031 44.5811 46.9304 45.448 46.9534H46.1039C46.1579 46.9534 46.2033 46.9721 46.2421 47.011C46.2882 47.0571 46.3113 47.1068 46.3113 47.1601V48.5525C46.3113 48.6145 46.2882 48.6641 46.2421 48.7023C46.2033 48.7484 46.1579 48.7714 46.1039 48.7714H45.5286C45.1297 48.7793 44.8496 48.86 44.6884 49.0133C44.535 49.1746 44.458 49.4619 44.458 49.8766V50.0602C44.458 50.1221 44.4889 50.1524 44.5501 50.1524H46.2191ZM51.2253 59.1747C50.2583 59.1747 49.4296 58.922 48.7391 58.4151C48.0486 57.9089 47.577 57.2185 47.3236 56.3437C47.1623 55.8065 47.0824 55.2197 47.0824 54.5833C47.0824 53.9079 47.1623 53.2981 47.3236 52.753C47.5921 51.902 48.0717 51.2345 48.7621 50.7507C49.4526 50.2676 50.2813 50.0257 51.2483 50.0257C52.1843 50.0257 52.9893 50.264 53.6646 50.7392C54.3249 51.223 54.7929 51.8905 55.0686 52.7415C55.2609 53.3175 55.3566 53.9194 55.3566 54.5487C55.3566 55.1701 55.276 55.7533 55.1147 56.2976C54.8613 57.1954 54.3896 57.8974 53.6992 58.4036C53.0166 58.9177 52.1915 59.1747 51.2253 59.1747ZM51.2253 57.0917C51.6011 57.0917 51.9229 56.9765 52.1915 56.7469C52.4601 56.5165 52.6523 56.1982 52.7668 55.7914C52.8517 55.4235 52.8935 55.0203 52.8935 54.5833C52.8935 54.1001 52.8517 53.6933 52.7668 53.3636C52.6364 52.9719 52.4413 52.6652 52.18 52.4427C51.9114 52.2281 51.5853 52.1201 51.2022 52.1201C50.8185 52.1201 50.4959 52.2281 50.2353 52.4427C49.9746 52.6652 49.7867 52.9719 49.6715 53.3636C49.5793 53.6321 49.5333 54.0382 49.5333 54.5833C49.5333 55.1045 49.5757 55.5077 49.66 55.7914C49.7752 56.1982 49.9667 56.5165 50.2353 56.7469C50.5038 56.9765 50.8336 57.0917 51.2253 57.0917ZM61.3405 50.0487C61.7553 50.0487 62.085 50.1293 62.3305 50.2906C62.4227 50.3367 62.4529 50.4209 62.4227 50.5441L62.0656 52.5118C62.0584 52.6501 61.9777 52.6918 61.8244 52.6385C61.6473 52.5766 61.4478 52.5464 61.2253 52.5464C61.1339 52.5464 61.0072 52.5579 60.8459 52.5809C60.4319 52.6191 60.0784 52.7725 59.7868 53.041C59.5031 53.3096 59.3613 53.6703 59.3613 54.1232V58.8298C59.3613 58.891 59.3382 58.9407 59.2921 58.9796C59.254 59.0177 59.2043 59.0372 59.1424 59.0372H57.1285C57.0752 59.0372 57.0249 59.0177 56.9788 58.9796C56.9406 58.9407 56.9219 58.891 56.9219 58.8298V50.3713C56.9219 50.3173 56.9406 50.2676 56.9788 50.2215C57.0249 50.1833 57.0752 50.1639 57.1285 50.1639H59.1424C59.2043 50.1639 59.254 50.1833 59.2921 50.2215C59.3382 50.2676 59.3613 50.3173 59.3613 50.3713V51.0272C59.3613 51.0581 59.3692 51.0812 59.3843 51.0963C59.4153 51.1114 59.434 51.1042 59.4419 51.0733C59.9178 50.3907 60.5507 50.0487 61.3405 50.0487ZM73.3667 50.0257C74.2645 50.0257 74.9665 50.2942 75.4727 50.8313C75.9789 51.3764 76.2323 52.1396 76.2323 53.1217V58.8298C76.2323 58.891 76.2129 58.9407 76.1747 58.9796C76.1365 59.0177 76.0905 59.0372 76.0364 59.0372H74.0111C73.9578 59.0372 73.9074 59.0177 73.8613 58.9796C73.8232 58.9407 73.8037 58.891 73.8037 58.8298V53.6509C73.8037 53.1829 73.6849 52.8106 73.4473 52.5349C73.2018 52.2584 72.8756 52.1201 72.4688 52.1201C72.07 52.1201 71.7438 52.2584 71.4911 52.5349C71.2377 52.8106 71.1109 53.1793 71.1109 53.6393V58.8298C71.1109 58.891 71.0922 58.9407 71.0533 58.9796C71.0073 59.0177 70.9576 59.0372 70.9043 59.0372H68.9013C68.8401 59.0372 68.7904 59.0177 68.7522 58.9796C68.7133 58.9407 68.6946 58.891 68.6946 58.8298V53.6509C68.6946 53.1908 68.5679 52.8185 68.3145 52.5349C68.0617 52.2584 67.7313 52.1201 67.3252 52.1201C66.9645 52.1201 66.6577 52.2281 66.4043 52.4427C66.1588 52.6652 66.0133 52.9719 65.9673 53.3636V58.8298C65.9673 58.891 65.9478 58.9407 65.9096 58.9796C65.8636 59.0177 65.8139 59.0372 65.7599 59.0372H63.7461C63.6849 59.0372 63.6344 59.0177 63.5963 58.9796C63.5581 58.9407 63.5387 58.891 63.5387 58.8298V50.3713C63.5387 50.3173 63.5581 50.2676 63.5963 50.2215C63.6344 50.1833 63.6849 50.1639 63.7461 50.1639H65.7599C65.8139 50.1639 65.8636 50.1833 65.9096 50.2215C65.9478 50.2676 65.9673 50.3173 65.9673 50.3713V51.0502C65.9673 51.0812 65.9788 51.1035 66.0018 51.1193C66.0249 51.1265 66.0479 51.1114 66.0702 51.0733C66.5461 50.3749 67.2791 50.0257 68.2684 50.0257C68.8444 50.0257 69.3462 50.1488 69.7761 50.3943C70.2059 50.6319 70.5357 50.9775 70.7661 51.4297C70.7963 51.4988 70.8388 51.4988 70.8928 51.4297C71.1383 50.9545 71.4796 50.6017 71.9166 50.3713C72.3465 50.1409 72.8296 50.0257 73.3667 50.0257ZM85.7493 53.6854C85.8184 54.1232 85.8414 54.6099 85.8184 55.147C85.8033 55.2932 85.7262 55.3659 85.5887 55.3659H80.26C80.1908 55.3659 80.1678 55.3925 80.1909 55.4465C80.2218 55.6762 80.283 55.9066 80.3752 56.137C80.6747 56.7814 81.2845 57.1033 82.2054 57.1033C82.9413 57.0961 83.5245 56.7965 83.9543 56.2061C84.0004 56.137 84.05 56.1025 84.104 56.1025C84.1422 56.1025 84.1847 56.1255 84.2308 56.1716L85.4735 57.3913C85.5268 57.4525 85.5541 57.5065 85.5541 57.5525C85.5541 57.5756 85.5311 57.6217 85.485 57.6901C85.1092 58.166 84.6217 58.5303 84.0234 58.7837C83.4251 59.0444 82.7692 59.1747 82.0556 59.1747C81.0657 59.1747 80.2297 58.9522 79.5464 58.5073C78.856 58.0551 78.3613 57.4258 78.0618 56.6201C77.8242 56.0449 77.7054 55.2932 77.7054 54.3644C77.7054 53.7279 77.7896 53.1677 77.9589 52.6846C78.2274 51.871 78.6911 51.223 79.3513 50.7392C80.0109 50.2561 80.7971 50.0141 81.7101 50.0141C82.8613 50.0141 83.7858 50.3482 84.4835 51.0157C85.1819 51.6831 85.6038 52.573 85.7493 53.6854ZM81.7216 52.1201C81.0009 52.1201 80.5249 52.4578 80.2945 53.1332C80.2485 53.2865 80.2067 53.4709 80.1678 53.6854C80.1678 53.7394 80.1988 53.7661 80.26 53.7661H83.2408C83.3099 53.7661 83.3329 53.7394 83.3099 53.6854C83.2559 53.3557 83.2293 53.1944 83.2293 53.2023C83.122 52.8567 82.9413 52.5881 82.6885 52.3966C82.4279 52.2123 82.1053 52.1201 81.7216 52.1201ZM91.7339 50.0487C92.1479 50.0487 92.4784 50.1293 92.7239 50.2906C92.8153 50.3367 92.8499 50.4209 92.8269 50.5441L92.4705 52.5118C92.4553 52.6501 92.3704 52.6918 92.217 52.6385C92.0485 52.5766 91.8491 52.5464 91.6187 52.5464C91.5265 52.5464 91.3998 52.5579 91.2393 52.5809C90.8245 52.6191 90.4717 52.7725 90.1801 53.041C89.8964 53.3096 89.7546 53.6703 89.7546 54.1232V58.8298C89.7546 58.891 89.7352 58.9407 89.697 58.9796C89.6509 59.0177 89.6012 59.0372 89.5472 59.0372H87.5219C87.4679 59.0372 87.4218 59.0177 87.3837 58.9796C87.3376 58.9407 87.3145 58.891 87.3145 58.8298V50.3713C87.3145 50.3173 87.3376 50.2676 87.3837 50.2215C87.4218 50.1833 87.4679 50.1639 87.5219 50.1639H89.5472C89.6012 50.1639 89.6509 50.1833 89.697 50.2215C89.7352 50.2676 89.7546 50.3173 89.7546 50.3713V51.0272C89.7546 51.0581 89.7661 51.0812 89.7892 51.0963C89.8122 51.1114 89.8309 51.1042 89.8468 51.0733C90.3148 50.3907 90.9433 50.0487 91.7339 50.0487ZM44.2513 29.8981C44.2513 29.8444 44.27 29.7945 44.3082 29.7485C44.3471 29.7101 44.3932 29.6909 44.4464 29.6909H46.4718C46.5258 29.6909 46.5755 29.7101 46.6216 29.7485C46.6597 29.7945 46.6792 29.8444 46.6792 29.8981V41.5674C46.6792 41.6288 46.6597 41.6786 46.6216 41.717C46.5755 41.7554 46.5258 41.7745 46.4718 41.7745H44.4464C44.3932 41.7745 44.3471 41.7554 44.3082 41.717C44.27 41.6786 44.2513 41.6288 44.2513 41.5674V36.803C44.2513 36.7493 44.2204 36.7224 44.1592 36.7224H40.3381C40.2849 36.7224 40.2575 36.7493 40.2575 36.803V41.5674C40.2575 41.6288 40.2388 41.6786 40.1999 41.717C40.1538 41.7554 40.1041 41.7745 40.0509 41.7745H38.0248C37.9715 41.7745 37.9254 41.7554 37.8873 41.717C37.8412 41.6786 37.8181 41.6288 37.8181 41.5674V29.8981C37.8181 29.8444 37.8412 29.7945 37.8873 29.7485C37.9254 29.7101 37.9715 29.6909 38.0248 29.6909H40.0509C40.1041 29.6909 40.1538 29.7101 40.1999 29.7485C40.2388 29.7945 40.2575 29.8444 40.2575 29.8981V34.5359C40.2575 34.5973 40.2849 34.628 40.3381 34.628H44.1592C44.2204 34.628 44.2513 34.5973 44.2513 34.5359V29.8981ZM49.8213 31.9005C49.4296 31.9005 49.1034 31.7701 48.8428 31.5092C48.5821 31.2561 48.4518 30.9339 48.4518 30.5425C48.4518 30.136 48.5778 29.806 48.8313 29.5528C49.0847 29.2997 49.4145 29.1731 49.8213 29.1731C50.2273 29.1731 50.5578 29.2997 50.8105 29.5528C51.064 29.806 51.1907 30.136 51.1907 30.5425C51.1907 30.9339 51.0604 31.2561 50.799 31.5092C50.5384 31.7701 50.2122 31.9005 49.8213 31.9005ZM48.7852 41.7745C48.7319 41.7745 48.6815 41.7554 48.6354 41.717C48.5973 41.6786 48.5778 41.6288 48.5778 41.5674V33.0974C48.5778 33.036 48.5973 32.9861 48.6354 32.9478C48.6815 32.9094 48.7319 32.8902 48.7852 32.8902H50.8105C50.8645 32.8902 50.9106 32.9094 50.9488 32.9478C50.9949 32.9861 51.0179 33.036 51.0179 33.0974V41.5674C51.0179 41.6288 50.9949 41.6786 50.9488 41.717C50.9106 41.7554 50.8645 41.7745 50.8105 41.7745H48.7852ZM58.3259 33.1089C58.3259 33.0552 58.3482 33.0053 58.3943 32.9593C58.4332 32.9209 58.4793 32.9018 58.5325 32.9018H60.5579C60.6119 32.9018 60.6616 32.9209 60.7077 32.9593C60.7458 33.0053 60.7653 33.0552 60.7653 33.1089V40.9805C60.7653 42.4842 60.3318 43.5586 59.4649 44.203C58.5981 44.8546 57.4777 45.1808 56.1047 45.1808C55.6979 45.1808 55.2493 45.1505 54.7583 45.0886C54.6431 45.0735 54.5855 45.0008 54.5855 44.8705L54.6546 43.0863C54.6546 42.9329 54.7352 42.8681 54.8958 42.8912C55.3105 42.9596 55.69 42.9941 56.0356 42.9941C56.7721 42.9941 57.3395 42.8372 57.7384 42.5226C58.1301 42.1927 58.3259 41.6748 58.3259 40.969C58.3259 40.9306 58.3144 40.9076 58.2913 40.9C58.2683 40.8922 58.2453 40.9038 58.2222 40.9344C57.7845 41.4024 57.148 41.6364 56.3113 41.6364C55.5597 41.6364 54.8728 41.4562 54.2514 41.0956C53.6229 40.735 53.1736 40.1519 52.905 39.3463C52.7365 38.8169 52.6523 38.1303 52.6523 37.2863C52.6523 36.3887 52.7553 35.6599 52.9626 35.0998C53.2002 34.394 53.607 33.8301 54.1823 33.4081C54.7583 32.9784 55.4293 32.7637 56.1969 32.7637C57.0789 32.7637 57.7542 33.0283 58.2222 33.5577C58.2453 33.5807 58.2683 33.5884 58.2913 33.5807C58.3144 33.573 58.3259 33.5539 58.3259 33.5232V33.1089ZM58.1877 38.6788C58.2798 38.3413 58.3259 37.8695 58.3259 37.2634C58.3259 36.9104 58.3144 36.6381 58.2913 36.4462C58.2683 36.2468 58.2294 36.0588 58.1761 35.8823C58.0689 35.5755 57.896 35.3261 57.6577 35.1343C57.4201 34.9502 57.1213 34.8581 56.7606 34.8581C56.415 34.8581 56.1234 34.9502 55.8858 35.1343C55.6403 35.3261 55.4603 35.5755 55.3451 35.8823C55.1838 36.2276 55.1032 36.6956 55.1032 37.2863C55.1032 37.9308 55.1723 38.3911 55.3105 38.6673C55.4099 38.9819 55.5906 39.2312 55.8513 39.4154C56.1119 39.6072 56.4193 39.7031 56.7721 39.7031C57.1401 39.7031 57.4468 39.6072 57.6923 39.4154C57.9306 39.2312 58.0955 38.9858 58.1877 38.6788ZM67.1409 32.7637C68.0617 32.7637 68.8019 33.0475 69.3621 33.6152C69.9222 34.1753 70.2023 34.9387 70.2023 35.9054V41.5674C70.2023 41.6288 70.1828 41.6786 70.1447 41.717C70.1058 41.7554 70.0597 41.7745 70.0065 41.7745H67.9811C67.9271 41.7745 67.8774 41.7554 67.8313 41.717C67.7932 41.6786 67.7737 41.6288 67.7737 41.5674V36.4002C67.7737 35.9476 67.6434 35.5755 67.3828 35.2839C67.1293 35.0001 66.788 34.8581 66.3582 34.8581C65.9363 34.8581 65.595 35.0001 65.3344 35.2839C65.073 35.5755 64.9427 35.9476 64.9427 36.4002V41.5674C64.9427 41.6288 64.9233 41.6786 64.8851 41.717C64.8469 41.7554 64.7973 41.7745 64.7353 41.7745H62.7215C62.6603 41.7745 62.6106 41.7554 62.5717 41.717C62.5336 41.6786 62.5149 41.6288 62.5149 41.5674V29.8981C62.5149 29.8444 62.5336 29.7945 62.5717 29.7485C62.6106 29.7101 62.6603 29.6909 62.7215 29.6909H64.7353C64.7973 29.6909 64.8469 29.7101 64.8851 29.7485C64.9233 29.7945 64.9427 29.8444 64.9427 29.8981V33.7188C64.9427 33.7495 64.9542 33.7725 64.9772 33.7879C65.0003 33.7956 65.0154 33.7879 65.0233 33.7648C65.4993 33.0974 66.2049 32.7637 67.1409 32.7637Z" fill="#252530"/>
<path id="Vector_6" d="M33.5255 69.7162C33.5255 69.7551 33.514 69.7854 33.491 69.8084C33.46 69.8394 33.4255 69.8545 33.3873 69.8545H29.4633C29.4244 69.8545 29.4057 69.8739 29.4057 69.9121V72.0642C29.4057 72.1023 29.4244 72.1218 29.4633 72.1218H32.0985C32.1367 72.1218 32.1712 72.1333 32.2022 72.1563C32.2252 72.1873 32.2367 72.2211 32.2367 72.26V73.1348C32.2367 73.173 32.2252 73.2075 32.2022 73.2378C32.1712 73.2608 32.1367 73.2723 32.0985 73.2723H29.4633C29.4244 73.2723 29.4057 73.2918 29.4057 73.3299V75.5511C29.4057 75.5893 29.4244 75.6087 29.4633 75.6087H33.3873C33.4255 75.6087 33.46 75.6238 33.491 75.6548C33.514 75.6778 33.5255 75.7088 33.5255 75.747V76.6218C33.5255 76.6599 33.514 76.6902 33.491 76.7132C33.46 76.7442 33.4255 76.7593 33.3873 76.7593H28.2083C28.1702 76.7593 28.1399 76.7442 28.1169 76.7132C28.0859 76.6902 28.0708 76.6599 28.0708 76.6218V68.8422C28.0708 68.8033 28.0859 68.773 28.1169 68.75C28.1399 68.719 28.1702 68.7039 28.2083 68.7039H33.3873C33.4255 68.7039 33.46 68.719 33.491 68.75C33.514 68.773 33.5255 68.8033 33.5255 68.8422V69.7162ZM37.5763 70.7869C38.1976 70.7869 38.6966 70.9712 39.0724 71.3391C39.4403 71.7078 39.6247 72.2103 39.6247 72.8468V76.6218C39.6247 76.6599 39.6095 76.6902 39.5786 76.7132C39.5555 76.7442 39.5253 76.7593 39.4864 76.7593H38.428C38.3899 76.7593 38.3553 76.7442 38.3243 76.7132C38.3013 76.6902 38.2898 76.6599 38.2898 76.6218V73.1233C38.2898 72.7698 38.1904 72.4825 37.991 72.26C37.7908 72.0447 37.5266 71.9374 37.1968 71.9374C36.8663 71.9374 36.5985 72.0447 36.3911 72.26C36.1917 72.4746 36.0916 72.7582 36.0916 73.1118V76.6218C36.0916 76.6599 36.0801 76.6902 36.0571 76.7132C36.0268 76.7442 35.9923 76.7593 35.9534 76.7593H34.895C34.8568 76.7593 34.8259 76.7442 34.8028 76.7132C34.7719 76.6902 34.7567 76.6599 34.7567 76.6218V71.0173C34.7567 70.9784 34.7719 70.9438 34.8028 70.9136C34.8259 70.8906 34.8568 70.879 34.895 70.879H35.9534C35.9923 70.879 36.0268 70.8906 36.0571 70.9136C36.0801 70.9438 36.0916 70.9784 36.0916 71.0173V71.3852C36.0916 71.4082 36.0995 71.4234 36.1147 71.4313C36.1305 71.4392 36.1413 71.4313 36.1492 71.4082C36.4639 70.9942 36.9398 70.7869 37.5763 70.7869ZM44.1362 71.8222C44.1362 71.8611 44.1203 71.8914 44.0901 71.9144C44.0671 71.9454 44.0361 71.9605 43.9979 71.9605H42.8243C42.7855 71.9605 42.7667 71.9799 42.7667 72.0181V74.7915C42.7667 75.0831 42.8279 75.2941 42.9503 75.4244C43.0814 75.5547 43.2844 75.6202 43.5609 75.6202H43.9058C43.9439 75.6202 43.9749 75.6318 43.9979 75.6548C44.0289 75.6858 44.044 75.7203 44.044 75.7585V76.6218C44.044 76.706 43.9979 76.7557 43.9058 76.7708L43.3075 76.7823C42.7012 76.7823 42.2483 76.6786 41.9495 76.472C41.65 76.2646 41.4967 75.8737 41.4895 75.2977V72.0181C41.4895 71.9799 41.47 71.9605 41.4319 71.9605H40.7759C40.7371 71.9605 40.7025 71.9454 40.6723 71.9144C40.6492 71.8914 40.6377 71.8611 40.6377 71.8222V71.0173C40.6377 70.9784 40.6492 70.9438 40.6723 70.9136C40.7025 70.8906 40.7371 70.879 40.7759 70.879H41.4319C41.47 70.879 41.4895 70.8596 41.4895 70.8214V69.475C41.4895 69.4362 41.501 69.4023 41.5233 69.3714C41.5543 69.3483 41.5888 69.3368 41.627 69.3368H42.6285C42.6667 69.3368 42.6976 69.3483 42.7206 69.3714C42.7509 69.4023 42.7667 69.4362 42.7667 69.475V70.8214C42.7667 70.8596 42.7855 70.879 42.8243 70.879H43.9979C44.0361 70.879 44.0671 70.8906 44.0901 70.9136C44.1203 70.9438 44.1362 70.9784 44.1362 71.0173V71.8222ZM50.1662 73.1571C50.1971 73.3494 50.2123 73.5639 50.2123 73.8022L50.2007 74.1586C50.2007 74.2508 50.1547 74.2969 50.0625 74.2969H46.4603C46.4222 74.2969 46.4035 74.3156 46.4035 74.3545C46.4265 74.6072 46.4603 74.78 46.5064 74.8722C46.6907 75.4244 47.1393 75.7045 47.8528 75.7124C48.3748 75.7124 48.7888 75.4971 49.0963 75.068C49.1265 75.0219 49.1654 74.9989 49.2115 74.9989C49.2417 74.9989 49.2683 75.0104 49.2914 75.0334L50.0049 75.6202C50.074 75.6742 50.0855 75.7354 50.0395 75.8046C49.8019 76.1422 49.4872 76.4029 49.0963 76.5872C48.6974 76.7708 48.256 76.863 47.7729 76.863C47.1739 76.863 46.6641 76.729 46.2422 76.4605C45.8275 76.1919 45.5243 75.8161 45.3328 75.3322C45.1564 74.9182 45.0679 74.343 45.0679 73.6064C45.0679 73.1614 45.1139 72.8007 45.2061 72.5242C45.3595 71.9871 45.6511 71.5616 46.0809 71.247C46.5028 70.9402 47.0133 70.7869 47.6116 70.7869C49.1229 70.7869 49.9747 71.5767 50.1662 73.1571ZM47.6116 71.9374C47.3279 71.9374 47.0896 72.0102 46.8981 72.1563C46.7138 72.2946 46.5835 72.4897 46.5064 72.7431C46.4603 72.8734 46.4301 73.0426 46.415 73.2493C46.3991 73.2882 46.415 73.3069 46.4603 73.3069H48.7967C48.8349 73.3069 48.8543 73.2882 48.8543 73.2493C48.8392 73.0578 48.8162 72.9123 48.7852 72.8122C48.7161 72.5358 48.5822 72.3212 48.3827 72.1678C48.1754 72.0145 47.9183 71.9374 47.6116 71.9374ZM54.1708 70.8099C54.4163 70.8099 54.6316 70.8596 54.8159 70.9597C54.8771 70.9899 54.9002 71.0475 54.8843 71.1318L54.6892 72.1678C54.6813 72.26 54.6273 72.2866 54.5279 72.2485C54.4127 72.2103 54.2788 72.1909 54.1255 72.1909C54.0254 72.1909 53.9483 72.1945 53.8951 72.2024C53.5725 72.2175 53.3039 72.3291 53.0894 72.5358C52.8748 72.751 52.7668 73.0268 52.7668 73.3645V76.6218C52.7668 76.6599 52.7553 76.6902 52.733 76.7132C52.702 76.7442 52.6675 76.7593 52.6293 76.7593H51.5702C51.532 76.7593 51.5011 76.7442 51.478 76.7132C51.4478 76.6902 51.4319 76.6599 51.4319 76.6218V71.0173C51.4319 70.9784 51.4478 70.9438 51.478 70.9136C51.5011 70.8906 51.532 70.879 51.5702 70.879H52.6293C52.6675 70.879 52.702 70.8906 52.733 70.9136C52.7553 70.9438 52.7668 70.9784 52.7668 71.0173V71.535C52.7668 71.5652 52.7711 71.581 52.7783 71.581C52.7942 71.5882 52.8093 71.581 52.8244 71.558C53.147 71.059 53.5955 70.8099 54.1708 70.8099ZM60.7423 72.3982C60.8805 72.7892 60.9496 73.2687 60.9496 73.8368C60.9496 74.3811 60.8841 74.8491 60.7538 75.2408C60.5853 75.747 60.3167 76.1422 59.9481 76.4259C59.5723 76.7096 59.1007 76.8514 58.5326 76.8514C57.9883 76.8514 57.5505 76.6563 57.2207 76.2646C57.2056 76.2495 57.1905 76.2452 57.1747 76.2531C57.1595 76.261 57.1516 76.2762 57.1516 76.2992V78.7962C57.1516 78.835 57.1401 78.8653 57.1171 78.8883C57.0868 78.9193 57.0523 78.9344 57.0134 78.9344H55.955C55.9168 78.9344 55.8859 78.9193 55.8628 78.8883C55.8319 78.8653 55.8167 78.835 55.8167 78.7962V71.0173C55.8167 70.9784 55.8319 70.9438 55.8628 70.9136C55.8859 70.8906 55.9168 70.879 55.955 70.879H57.0134C57.0523 70.879 57.0868 70.8906 57.1171 70.9136C57.1401 70.9438 57.1516 70.9784 57.1516 71.0173V71.3622C57.1516 71.3852 57.1595 71.4003 57.1747 71.4082C57.1905 71.4162 57.2056 71.4082 57.2207 71.3852C57.5584 70.9863 57.9998 70.7869 58.5441 70.7869C59.0891 70.7869 59.5492 70.9287 59.9251 71.2124C60.3009 71.4968 60.5738 71.8914 60.7423 72.3982ZM59.2461 75.2178C59.4765 74.8642 59.5917 74.3962 59.5917 73.8138C59.5917 73.2536 59.4995 72.8122 59.3152 72.4897C59.1007 72.1138 58.7745 71.9259 58.3375 71.9259C57.9379 71.9259 57.6391 72.1102 57.4396 72.4782C57.2632 72.7777 57.1747 73.2226 57.1747 73.8138C57.1747 74.4193 57.2704 74.8801 57.4627 75.1947C57.6621 75.5317 57.9494 75.7009 58.3259 75.7009C58.732 75.7009 59.0395 75.5396 59.2461 75.2178ZM64.9773 70.8099C65.2228 70.8099 65.4374 70.8596 65.6217 70.9597C65.6829 70.9899 65.7059 71.0475 65.6908 71.1318L65.495 72.1678C65.4878 72.26 65.4338 72.2866 65.3344 72.2485C65.2192 72.2103 65.0846 72.1909 64.9312 72.1909C64.8319 72.1909 64.7548 72.1945 64.7008 72.2024C64.379 72.2175 64.1104 72.3291 63.8959 72.5358C63.6806 72.751 63.5733 73.0268 63.5733 73.3645V76.6218C63.5733 76.6599 63.5618 76.6902 63.5387 76.7132C63.5085 76.7442 63.4739 76.7593 63.4351 76.7593H62.3767C62.3385 76.7593 62.3075 76.7442 62.2845 76.7132C62.2535 76.6902 62.2384 76.6599 62.2384 76.6218V71.0173C62.2384 70.9784 62.2535 70.9438 62.2845 70.9136C62.3075 70.8906 62.3385 70.879 62.3767 70.879H63.4351C63.4739 70.879 63.5085 70.8906 63.5387 70.9136C63.5618 70.9438 63.5733 70.9784 63.5733 71.0173V71.535C63.5733 71.5652 63.5769 71.581 63.5848 71.581C63.5999 71.5882 63.6158 71.581 63.6309 71.558C63.9535 71.059 64.402 70.8099 64.9773 70.8099ZM67.3252 70.0734C67.0869 70.0734 66.8918 69.9963 66.7384 69.843C66.5843 69.6896 66.508 69.4938 66.508 69.2562C66.508 69.0186 66.5843 68.8227 66.7384 68.6694C66.8918 68.516 67.0869 68.439 67.3252 68.439C67.5628 68.439 67.7587 68.516 67.912 68.6694C68.0654 68.8227 68.1424 69.0186 68.1424 69.2562C68.1424 69.4938 68.0654 69.6896 67.912 69.843C67.7587 69.9963 67.5628 70.0734 67.3252 70.0734ZM66.773 76.7593C66.7341 76.7593 66.7038 76.7442 66.6808 76.7132C66.6498 76.6902 66.6347 76.6599 66.6347 76.6218V71.0058C66.6347 70.9669 66.6498 70.9366 66.6808 70.9136C66.7038 70.8826 66.7341 70.8675 66.773 70.8675H67.8314C67.8695 70.8675 67.9041 70.8826 67.9351 70.9136C67.9581 70.9366 67.9696 70.9669 67.9696 71.0058V76.6218C67.9696 76.6599 67.9581 76.6902 67.9351 76.7132C67.9041 76.7442 67.8695 76.7593 67.8314 76.7593H66.773ZM71.687 76.8284C71.2031 76.8284 70.7776 76.7557 70.409 76.6102C70.049 76.472 69.7689 76.2762 69.5695 76.0227C69.3693 75.7772 69.2699 75.5014 69.2699 75.1947V75.091C69.2699 75.0522 69.2815 75.0183 69.3045 74.9874C69.3355 74.9643 69.3693 74.9528 69.4082 74.9528H70.4205C70.4594 74.9528 70.4939 74.9643 70.5242 74.9874C70.5472 75.0183 70.5587 75.0522 70.5587 75.091V75.1141C70.5587 75.3056 70.6624 75.4748 70.8698 75.6202C71.0843 75.7585 71.3529 75.8276 71.6755 75.8276C71.9822 75.8276 72.2313 75.7657 72.4228 75.6433C72.6151 75.513 72.7108 75.3517 72.7108 75.1602C72.7108 74.9838 72.6302 74.8491 72.4689 74.757C72.3155 74.6727 72.0628 74.5806 71.7093 74.4812L71.2723 74.343C70.8813 74.2278 70.5508 74.1046 70.283 73.9743C70.0144 73.844 69.7876 73.664 69.6033 73.4336C69.4197 73.2111 69.3275 72.9231 69.3275 72.5703C69.3275 72.0332 69.5385 71.6077 69.9604 71.293C70.3823 70.9712 70.9389 70.8099 71.6294 70.8099C72.0974 70.8099 72.5078 70.8826 72.8606 71.0288C73.2134 71.1822 73.4855 71.3888 73.6778 71.6502C73.8693 71.9187 73.9651 72.2211 73.9651 72.5588C73.9651 72.5977 73.9535 72.6322 73.9305 72.6625C73.9002 72.6855 73.8657 72.697 73.8268 72.697H72.849C72.8109 72.697 72.7763 72.6855 72.7454 72.6625C72.7223 72.6322 72.7108 72.5977 72.7108 72.5588C72.7108 72.3594 72.6151 72.1945 72.4228 72.0642C72.2234 71.9259 71.9548 71.8568 71.6179 71.8568C71.3183 71.8568 71.0764 71.9108 70.8928 72.0181C70.7006 72.1333 70.6048 72.2902 70.6048 72.4897C70.6048 72.674 70.6934 72.8122 70.8698 72.9044C71.0534 73.0038 71.3565 73.1118 71.7784 73.2262L72.0319 73.2954C72.4387 73.4185 72.7799 73.5409 73.0564 73.664C73.3322 73.7943 73.5662 73.9707 73.7584 74.1932C73.9499 74.4236 74.0457 74.7188 74.0457 75.0795C74.0457 75.6238 73.8311 76.0501 73.4013 76.3568C72.9715 76.6714 72.4005 76.8284 71.687 76.8284ZM80.1333 73.1571C80.1643 73.3494 80.1794 73.5639 80.1794 73.8022L80.1679 74.1586C80.1679 74.2508 80.1225 74.2969 80.0303 74.2969H76.4282C76.3893 74.2969 76.3706 74.3156 76.3706 74.3545C76.3936 74.6072 76.4282 74.78 76.4743 74.8722C76.6579 75.4244 77.1071 75.7045 77.8206 75.7124C78.3419 75.7124 78.7567 75.4971 79.0634 75.068C79.0943 75.0219 79.1325 74.9989 79.1786 74.9989C79.2088 74.9989 79.2362 75.0104 79.2592 75.0334L79.9727 75.6202C80.0419 75.6742 80.0534 75.7354 80.0073 75.8046C79.769 76.1422 79.4507 76.4029 79.0519 76.5872C78.6609 76.7708 78.2231 76.863 77.74 76.863C77.1417 76.863 76.6312 76.729 76.2093 76.4605C75.7953 76.1919 75.4922 75.8161 75.2999 75.3322C75.1235 74.9182 75.0357 74.343 75.0357 73.6064C75.0357 73.1614 75.0818 72.8007 75.1739 72.5242C75.3273 71.9871 75.6146 71.5616 76.0365 71.247C76.4663 70.9402 76.9804 70.7869 77.5787 70.7869C79.09 70.7869 79.9418 71.5767 80.1333 73.1571ZM77.5787 71.9374C77.295 71.9374 77.0575 72.0102 76.8652 72.1563C76.6809 72.2946 76.5506 72.4897 76.4743 72.7431C76.4282 72.8734 76.3972 73.0426 76.3821 73.2493C76.367 73.2882 76.3821 73.3069 76.4282 73.3069H78.7639C78.8027 73.3069 78.8215 73.2882 78.8215 73.2493C78.8063 73.0578 78.7833 72.9123 78.7523 72.8122C78.6839 72.5358 78.5457 72.3212 78.3383 72.1678C78.1389 72.0145 77.8854 71.9374 77.5787 71.9374Z" fill="white"/>
<path id="Vector_7" d="M36.3105 92.986C36.2262 92.986 36.1722 92.9479 36.1492 92.8708L34.1123 85.0804L34.1008 85.0343C34.1008 84.9652 34.1433 84.9307 34.2275 84.9307H35.6545C35.7309 84.9307 35.7813 84.9688 35.8043 85.0459L36.8973 89.7295C36.9052 89.7604 36.9167 89.7755 36.9318 89.7755C36.9469 89.7755 36.9585 89.7604 36.9664 89.7295L38.0248 85.0574C38.0478 84.9724 38.0982 84.9307 38.1745 84.9307H39.567C39.652 84.9307 39.7053 84.9688 39.7283 85.0459L40.8789 89.7295C40.8868 89.7525 40.8983 89.7676 40.9134 89.7755C40.9293 89.7755 40.9408 89.7604 40.948 89.7295L42.0071 85.0574C42.0301 84.9724 42.0798 84.9307 42.1569 84.9307H43.5148C43.6221 84.9307 43.6638 84.9803 43.6408 85.0804L41.7537 92.8708C41.7306 92.9479 41.6773 92.986 41.5924 92.986H40.2229C40.1466 92.986 40.0969 92.9479 40.0739 92.8708L38.8996 87.8884C38.8924 87.8575 38.8809 87.8423 38.865 87.8423C38.8499 87.8423 38.8384 87.8575 38.8305 87.8884L37.7375 92.8593C37.7224 92.9443 37.672 92.986 37.5877 92.986H36.3105ZM44.7575 92.986C44.7193 92.986 44.6848 92.9709 44.6538 92.9399C44.6308 92.9169 44.6193 92.8867 44.6193 92.8478V85.0689C44.6193 85.03 44.6308 84.9998 44.6538 84.9767C44.6848 84.9458 44.7193 84.9307 44.7575 84.9307H46.1039C46.1421 84.9307 46.173 84.9458 46.1961 84.9767C46.2263 84.9998 46.2421 85.03 46.2421 85.0689V92.8478C46.2421 92.8867 46.2263 92.9169 46.1961 92.9399C46.173 92.9709 46.1421 92.986 46.1039 92.986H44.7575ZM52.2721 85.0689C52.2721 85.03 52.2837 84.9998 52.3067 84.9767C52.3377 84.9458 52.3722 84.9307 52.4104 84.9307H53.7568C53.7949 84.9307 53.8259 84.9458 53.8489 84.9767C53.8799 84.9998 53.895 85.03 53.895 85.0689V92.8478C53.895 92.8867 53.8799 92.9169 53.8489 92.9399C53.8259 92.9709 53.7949 92.986 53.7568 92.986H52.4565C52.3794 92.986 52.3261 92.9558 52.2952 92.8939L49.3144 87.9683C49.2993 87.9453 49.2841 87.9381 49.2683 87.9453C49.2532 87.9453 49.246 87.9611 49.246 87.9914L49.2683 92.8478C49.2683 92.8867 49.2532 92.9169 49.2229 92.9399C49.1999 92.9709 49.1689 92.986 49.1308 92.986H47.7844C47.7455 92.986 47.7109 92.9709 47.6807 92.9399C47.6577 92.9169 47.6461 92.8867 47.6461 92.8478V85.0689C47.6461 85.03 47.6577 84.9998 47.6807 84.9767C47.7109 84.9458 47.7455 84.9307 47.7844 84.9307H49.0847C49.161 84.9307 49.215 84.9609 49.246 85.0228L52.2145 89.9253C52.2304 89.9483 52.2455 89.9555 52.2606 89.9483C52.2765 89.9483 52.2837 89.9325 52.2837 89.9023L52.2721 85.0689ZM60.8574 84.9307C60.8956 84.9307 60.9265 84.9458 60.9496 84.9767C60.9798 84.9998 60.9957 85.03 60.9957 85.0689V86.1964C60.9957 86.2346 60.9798 86.2655 60.9496 86.2886C60.9265 86.3188 60.8956 86.3347 60.8574 86.3347H58.7975C58.7593 86.3347 58.7399 86.3534 58.7399 86.3923V92.8478C58.7399 92.8867 58.7248 92.9169 58.6938 92.9399C58.6708 92.9709 58.6398 92.986 58.6017 92.986H57.2553C57.2171 92.986 57.1826 92.9709 57.1516 92.9399C57.1285 92.9169 57.117 92.8867 57.117 92.8478V86.3923C57.117 86.3534 57.0983 86.3347 57.0594 86.3347H55.0571C55.0189 86.3347 54.9844 86.3188 54.9534 86.2886C54.9304 86.2655 54.9189 86.2346 54.9189 86.1964V85.0689C54.9189 85.03 54.9304 84.9998 54.9534 84.9767C54.9844 84.9458 55.0189 84.9307 55.0571 84.9307H60.8574ZM67.624 86.1849C67.624 86.2231 67.6125 86.254 67.5894 86.2771C67.5592 86.3073 67.5246 86.3231 67.4865 86.3231H63.7115C63.6733 86.3231 63.6539 86.3419 63.6539 86.3807V88.1642C63.6539 88.2023 63.6733 88.2218 63.7115 88.2218H66.1854C66.2243 88.2218 66.2545 88.2333 66.2776 88.2563C66.3085 88.2873 66.3237 88.3219 66.3237 88.36V89.476C66.3237 89.5149 66.3085 89.5495 66.2776 89.5797C66.2545 89.6027 66.2243 89.6143 66.1854 89.6143H63.7115C63.6733 89.6143 63.6539 89.6337 63.6539 89.6719V91.5359C63.6539 91.5748 63.6733 91.5935 63.7115 91.5935H67.4865C67.5246 91.5935 67.5592 91.6051 67.5894 91.6281C67.6125 91.6591 67.624 91.6936 67.624 91.7318V92.8478C67.624 92.8867 67.6125 92.9169 67.5894 92.9399C67.5592 92.9709 67.5246 92.986 67.4865 92.986H62.1693C62.1311 92.986 62.0965 92.9709 62.0656 92.9399C62.0425 92.9169 62.031 92.8867 62.031 92.8478V85.0689C62.031 85.03 62.0425 84.9998 62.0656 84.9767C62.0965 84.9458 62.1311 84.9307 62.1693 84.9307H67.4865C67.5246 84.9307 67.5592 84.9458 67.5894 84.9767C67.6125 84.9998 67.624 85.03 67.624 85.0689V86.1849ZM73.1709 92.986C73.0945 92.986 73.0405 92.9515 73.0103 92.8823L71.5718 89.6949C71.5559 89.6639 71.5329 89.6488 71.5026 89.6488H70.432C70.3938 89.6488 70.3744 89.6683 70.3744 89.7064V92.8478C70.3744 92.8867 70.3593 92.9169 70.3283 92.9399C70.306 92.9709 70.275 92.986 70.2369 92.986H68.8905C68.8516 92.986 68.817 92.9709 68.7868 92.9399C68.7637 92.9169 68.7522 92.8867 68.7522 92.8478V85.0689C68.7522 85.03 68.7637 84.9998 68.7868 84.9767C68.817 84.9458 68.8516 84.9307 68.8905 84.9307H72.1816C72.6726 84.9307 73.1025 85.03 73.4704 85.2295C73.8462 85.4289 74.1342 85.7133 74.3337 86.0812C74.5403 86.4499 74.644 86.8754 74.644 87.3585C74.644 87.8805 74.5137 88.3255 74.253 88.6934C73.9924 89.0699 73.6273 89.3342 73.1593 89.4875C73.1212 89.5034 73.1097 89.53 73.1248 89.5682L74.6901 92.8255C74.7059 92.8557 74.7131 92.8787 74.7131 92.8939C74.7131 92.9558 74.6713 92.986 74.5864 92.986H73.1709ZM70.432 86.3231C70.3938 86.3231 70.3744 86.3419 70.3744 86.3807V88.3485C70.3744 88.3867 70.3938 88.4061 70.432 88.4061H71.9397C72.2622 88.4061 72.5229 88.3103 72.7223 88.1181C72.9297 87.9266 73.0333 87.6775 73.0333 87.37C73.0333 87.0633 72.9297 86.8099 72.7223 86.6104C72.5229 86.4189 72.2622 86.3231 71.9397 86.3231H70.432ZM43.8136 102.342C43.7985 102.358 43.7949 102.373 43.8021 102.388C43.81 102.404 43.8251 102.412 43.8481 102.412H46.9672C47.0053 102.412 47.0399 102.423 47.0709 102.446C47.0939 102.476 47.1054 102.511 47.1054 102.55V103.666C47.1054 103.704 47.0939 103.735 47.0709 103.758C47.0399 103.789 47.0053 103.804 46.9672 103.804H41.7882C41.7501 103.804 41.7155 103.789 41.6845 103.758C41.6615 103.735 41.65 103.704 41.65 103.666V102.607C41.65 102.538 41.673 102.481 41.7191 102.435C42.0949 102.066 42.4787 101.667 42.8704 101.238C43.2613 100.8 43.5069 100.528 43.6069 100.421C43.8215 100.167 44.0404 99.9254 44.2629 99.6957C44.9605 98.9203 45.3097 98.345 45.3097 97.9691C45.3097 97.7006 45.214 97.4781 45.0225 97.3017C44.8302 97.1332 44.5811 97.0483 44.2744 97.0483C43.9669 97.0483 43.7178 97.1332 43.5263 97.3017C43.3341 97.4781 43.2383 97.7085 43.2383 97.9922V98.2802C43.2383 98.3183 43.2232 98.3529 43.1922 98.3839C43.1692 98.4069 43.1389 98.4184 43.1001 98.4184H41.7421C41.704 98.4184 41.673 98.4069 41.65 98.3839C41.6197 98.3529 41.6039 98.3183 41.6039 98.2802V97.7387C41.6269 97.3247 41.758 96.9568 41.9956 96.6343C42.2332 96.3196 42.5478 96.0784 42.9388 95.9092C43.3384 95.7407 43.7833 95.6558 44.2744 95.6558C44.8187 95.6558 45.2946 95.7559 45.7014 95.9553C46.1003 96.1627 46.4106 96.4384 46.6331 96.784C46.8484 97.1289 46.9557 97.5127 46.9557 97.9346C46.9557 98.2571 46.875 98.5869 46.7137 98.9246C46.5525 99.2623 46.3113 99.6266 45.9887 100.018C45.7511 100.317 45.4941 100.612 45.2176 100.904C44.9418 101.195 44.5314 101.617 43.9864 102.17L43.8136 102.342ZM50.8451 103.931C50.0013 103.931 49.3338 103.692 48.8428 103.217C48.3517 102.749 48.1062 102.108 48.1062 101.295V98.2571C48.1062 97.4594 48.3517 96.8258 48.8428 96.3578C49.3338 95.8898 50.0013 95.6558 50.8451 95.6558C51.6889 95.6558 52.3607 95.8898 52.8589 96.3578C53.35 96.8258 53.5955 97.4594 53.5955 98.2571V101.295C53.5955 102.108 53.35 102.749 52.8589 103.217C52.3607 103.692 51.6889 103.931 50.8451 103.931ZM50.8451 102.538C51.1907 102.538 51.4665 102.43 51.6738 102.216C51.8733 102.008 51.9733 101.728 51.9733 101.375V98.2111C51.9733 97.8583 51.8733 97.5782 51.6738 97.3708C51.4665 97.1563 51.1907 97.0483 50.8451 97.0483C50.5074 97.0483 50.2389 97.1563 50.0394 97.3708C49.8328 97.5782 49.7291 97.8583 49.7291 98.2111V101.375C49.7291 101.728 49.8328 102.008 50.0394 102.216C50.2389 102.43 50.5074 102.538 50.8451 102.538ZM56.8182 102.342C56.8024 102.358 56.7988 102.373 56.8067 102.388C56.8139 102.404 56.8297 102.412 56.8528 102.412H59.9711C60.01 102.412 60.0438 102.423 60.0748 102.446C60.0978 102.476 60.1093 102.511 60.1093 102.55V103.666C60.1093 103.704 60.0978 103.735 60.0748 103.758C60.0438 103.789 60.01 103.804 59.9711 103.804H54.7929C54.754 103.804 54.7237 103.789 54.7007 103.758C54.6697 103.735 54.6546 103.704 54.6546 103.666V102.607C54.6546 102.538 54.6777 102.481 54.7237 102.435C55.0996 102.066 55.4833 101.667 55.8743 101.238C56.266 100.8 56.5108 100.528 56.6109 100.421C56.8254 100.167 57.0443 99.9254 57.2668 99.6957C57.9652 98.9203 58.3144 98.345 58.3144 97.9691C58.3144 97.7006 58.2179 97.4781 58.0264 97.3017C57.8349 97.1332 57.585 97.0483 57.2783 97.0483C56.9716 97.0483 56.7225 97.1332 56.5302 97.3017C56.3387 97.4781 56.2429 97.7085 56.2429 97.9922V98.2802C56.2429 98.3183 56.2314 98.3529 56.2084 98.3839C56.1774 98.4069 56.1429 98.4184 56.1047 98.4184H54.7468C54.7079 98.4184 54.6777 98.4069 54.6546 98.3839C54.6237 98.3529 54.6085 98.3183 54.6085 98.2802V97.7387C54.6316 97.3247 54.7619 96.9568 54.9995 96.6343C55.2378 96.3196 55.5561 96.0784 55.9549 95.9092C56.3459 95.7407 56.7873 95.6558 57.2783 95.6558C57.8233 95.6558 58.2985 95.7559 58.7053 95.9553C59.1042 96.1627 59.4153 96.4384 59.6377 96.784C59.8523 97.1289 59.9596 97.5127 59.9596 97.9346C59.9596 98.2571 59.8789 98.5869 59.7184 98.9246C59.5571 99.2623 59.3152 99.6266 58.9933 100.018C58.755 100.317 58.498 100.612 58.2222 100.904C57.9457 101.195 57.5353 101.617 56.9903 102.17L56.8182 102.342ZM66.8644 100.294C66.9033 100.294 66.9378 100.306 66.9681 100.329C66.9911 100.359 67.0026 100.393 67.0026 100.432V101.594C67.0026 101.633 66.9911 101.667 66.9681 101.698C66.9378 101.721 66.9033 101.733 66.8644 101.733H66.3697C66.3316 101.733 66.3121 101.751 66.3121 101.79V103.666C66.3121 103.704 66.3006 103.735 66.2776 103.758C66.2473 103.789 66.2128 103.804 66.1739 103.804H64.8275C64.7893 103.804 64.7584 103.789 64.7353 103.758C64.7051 103.735 64.69 103.704 64.69 103.666V101.79C64.69 101.751 64.6705 101.733 64.6324 101.733H61.0993C61.0605 101.733 61.0302 101.721 61.0072 101.698C60.9762 101.667 60.9611 101.633 60.9611 101.594V100.673C60.9611 100.627 60.9726 100.57 60.9957 100.501L63.0671 95.8516C63.0973 95.7825 63.1513 95.7479 63.2284 95.7479H64.6669C64.7202 95.7479 64.7584 95.7638 64.7814 95.794C64.7973 95.8171 64.7929 95.8559 64.7699 95.9092L62.8482 100.225C62.8403 100.24 62.8403 100.256 62.8482 100.271C62.8561 100.286 62.8677 100.294 62.8828 100.294H64.6324C64.6705 100.294 64.69 100.275 64.69 100.236V98.8094C64.69 98.7712 64.7051 98.7403 64.7353 98.7172C64.7584 98.6863 64.7893 98.6711 64.8275 98.6711H66.1739C66.2128 98.6711 66.2473 98.6863 66.2776 98.7172C66.3006 98.7403 66.3121 98.7712 66.3121 98.8094V100.236C66.3121 100.275 66.3316 100.294 66.3697 100.294H66.8644Z" fill="#252530"/>
</g>
</svg>
