<svg width="34" height="30" viewBox="0 0 34 30" fill="none" xmlns="http://www.w3.org/2000/svg">
<path id="Vector" d="M20.3333 18.763H25.3333M20.3333 11.237H25.3333M12 10.2963V8.41479M12 10.2963H15.3335M12 10.2963C9.00193 10.2962 8.66975 11.1095 8.66683 12.8034C8.6639 14.4973 8.66682 15 12.0001 15C15.3335 15 15.3335 15.3866 15.3335 17.1951C15.3335 18.5541 15.3335 19.7037 12.0001 19.7037M12.0001 19.7037L12 21.5852M12.0001 19.7037H8.66683M7.33333 28.1704H26.6667C28.5335 28.1704 29.467 28.1704 30.18 27.7602C30.8072 27.3995 31.3172 26.8238 31.6367 26.1158C32 25.3109 32 24.2571 32 22.1496V7.85034C32 5.74289 32 4.68915 31.6367 3.88421C31.3172 3.17615 30.8072 2.60049 30.18 2.23973C29.467 1.82959 28.5335 1.82959 26.6667 1.82959H7.33333C5.4665 1.82959 4.53307 1.82959 3.82003 2.23973C3.19282 2.60049 2.68288 3.17615 2.36332 3.88421C2 4.68915 2 5.74287 2 7.85034V22.1496C2 24.2571 2 25.3109 2.36332 26.1158C2.68288 26.8238 3.19282 27.3995 3.82003 27.7602C4.53307 28.1704 5.46648 28.1704 7.33333 28.1704Z" stroke="#D80073" stroke-width="3" stroke-linecap="round" stroke-linejoin="round"/>
</svg>
