<svg width="27" height="48" viewBox="0 0 27 48" fill="none" xmlns="http://www.w3.org/2000/svg">
<g id="Group">
<g id="Group_2">
<g id="Vector">
<path d="M7.53048 18.8154L17.5465 21.2008L2.30859 41.6927L5.458 44.0891L24.8503 18.8154L13.0495 15.8293L18.5913 2.9948L15.8772 1.19916L7.53048 18.8154Z" fill="#D8D8D8"/>
<path d="M12.7429 17.0411L22.7024 19.5613L5.22416 42.3405L4.04936 41.4465L18.5496 21.9467L19.6816 20.4243L17.8361 19.9848L9.32052 17.9568L16.3896 3.03699L17.0289 3.45993L11.9019 15.3338L11.3202 16.6811L12.7429 17.0411Z" stroke="#F6D5DE" stroke-opacity="0.25" stroke-width="2.5"/>
</g>
<g id="Mask group">
<mask id="mask0_1_3711" style="mask-type:luminance" maskUnits="userSpaceOnUse" x="2" y="1" width="23" height="44">
<g id="Group_3">
<path id="Vector_2" d="M12.7429 17.0411L22.7024 19.5613L5.22416 42.3405L4.04936 41.4465L18.5496 21.9467L19.6816 20.4243L17.8361 19.9848L9.32052 17.9568L16.3896 3.03699L17.0289 3.45993L11.9019 15.3338L11.3202 16.6811L12.7429 17.0411Z" fill="white" stroke="#F6D5DE" stroke-width="2.5"/>
</g>
</mask>
<g mask="url(#mask0_1_3711)">
<g id="Group_4">
<g id="Vector_3">
<path d="M35.9641 -3.62671H-9.46008V49.3811H35.9641V-3.62671Z" fill="#FFC8EF"/>
<path d="M-8.21008 48.1311V-2.37671H34.7141V48.1311H-8.21008Z" stroke="#F6D5DE" stroke-opacity="0.25" stroke-width="2.5"/>
</g>
</g>
</g>
</g>
</g>
<g id="Vector_4">
<path d="M17.5248 13.7894L23.4122 15.0768C26.3016 15.7087 27.4981 19.7751 25.5507 22.3449L7.86577 45.6814C4.97791 49.4921 -0.232907 45.5246 1.59279 40.9051L7.41593 26.1711L3.0885 25.2211C0.522016 24.6576 -0.796173 21.3024 0.512994 18.6655L8.2938 2.99347C8.97073 1.63 10.2188 0.790588 11.5691 0.790588H17.4061C20.3216 0.790588 22.1426 4.47511 20.6826 7.41999L17.5248 13.7894ZM17.4061 5.20791H11.5691L3.78833 20.8799L12.8863 22.8772L5.03017 42.7551L22.7151 19.4186L11.5691 16.9813L17.4061 5.20791Z" fill="black"/>
<path d="M16.4049 13.2342L15.6937 14.6686L17.2578 15.0106L23.1452 16.298C24.0403 16.4937 24.775 17.2458 25.0961 18.337C25.4159 19.4238 25.2584 20.661 24.5544 21.5899L6.86952 44.9264C6.33015 45.6382 5.76139 45.8982 5.27888 45.9493C4.77514 46.0027 4.22155 45.8428 3.71893 45.4601C2.71485 44.6955 2.05468 43.1373 2.75529 41.3646L8.57843 26.6305L9.11811 25.265L7.68396 24.9501L3.35653 24.0001C2.56303 23.8259 1.87885 23.2005 1.51081 22.2637C1.14386 21.3297 1.14609 20.2012 1.6326 19.2213L9.4134 3.54933C9.91253 2.544 10.7641 2.04059 11.5691 2.04059H17.4061C18.2835 2.04059 19.0873 2.58912 19.5645 3.55481C20.0415 4.51996 20.1072 5.76637 19.5627 6.86476L16.4049 13.2342ZM18.526 5.76313L19.421 3.95791H17.4061H11.5691H10.7942L10.4495 4.65205L2.66873 20.324L1.95698 21.7576L3.5203 22.1008L11.1841 23.7833L3.86767 42.2957L6.02642 43.5101L23.7113 20.1736L24.8923 18.6152L22.9821 18.1975L13.4002 16.1022L18.526 5.76313Z" stroke="#F6D5DE" stroke-opacity="0.25" stroke-width="2.5"/>
</g>
<g id="Mask group_2">
<mask id="mask1_1_3711" style="mask-type:luminance" maskUnits="userSpaceOnUse" x="0" y="0" width="27" height="48">
<g id="Group_5">
<path id="Vector_5" d="M16.4049 13.2342L15.6937 14.6686L17.2578 15.0106L23.1452 16.298C24.0403 16.4937 24.775 17.2458 25.0961 18.337C25.4159 19.4238 25.2584 20.661 24.5544 21.5899L6.86952 44.9264C6.33015 45.6382 5.76139 45.8982 5.27888 45.9493C4.77514 46.0027 4.22155 45.8428 3.71893 45.4601C2.71485 44.6955 2.05468 43.1373 2.75529 41.3646L8.57843 26.6305L9.11811 25.265L7.68396 24.9501L3.35653 24.0001C2.56303 23.8259 1.87885 23.2005 1.51081 22.2637C1.14386 21.3297 1.14609 20.2012 1.6326 19.2213L9.4134 3.54933C9.91253 2.544 10.7641 2.04059 11.5691 2.04059H17.4061C18.2835 2.04059 19.0873 2.58912 19.5645 3.55481C20.0415 4.51996 20.1072 5.76637 19.5627 6.86476L16.4049 13.2342ZM18.526 5.76313L19.421 3.95791H17.4061H11.5691H10.7942L10.4495 4.65205L2.66873 20.324L1.95698 21.7576L3.5203 22.1008L11.1841 23.7833L3.86767 42.2957L6.02642 43.5101L23.7113 20.1736L24.8923 18.6152L22.9821 18.1975L13.4002 16.1022L18.526 5.76313Z" fill="white" stroke="#F6D5DE" stroke-width="2.5"/>
</g>
</mask>
<g mask="url(#mask1_1_3711)">
<g id="Group_6">
<path id="Vector_6" d="M-8.20996 48.131V-2.37677H34.7142V48.131H-8.20996Z" fill="#D80073" stroke="#D80073" stroke-width="2.5"/>
</g>
</g>
</g>
</g>
</svg>
