<svg width="176" height="177" viewBox="0 0 176 177" fill="none" xmlns="http://www.w3.org/2000/svg">
<path fill-rule="evenodd" clip-rule="evenodd" d="M36.8359 125.457L38.3508 119.795C36.6917 118.978 35.1178 117.998 33.6524 116.87C29.2442 113.464 25.9363 108.836 24.1412 103.563C22.3334 103.44 20.5908 102.839 19.0916 101.821C17.5923 100.804 16.3904 99.4059 15.6088 97.7711C14.8271 96.1364 14.4938 94.3234 14.6429 92.5175C14.792 90.7117 15.4182 88.9779 16.4574 87.4935C13.673 80.9853 12.7662 74.5922 13.7668 68.4735C13.7913 68.3231 13.8282 68.175 13.8772 68.0307C16.3309 60.8228 20.8396 54.4902 26.8478 49.813C32.856 45.1358 40.1012 42.3183 47.6907 41.7077C55.2803 41.0972 62.8827 42.7201 69.5614 46.3767C76.24 50.0333 81.7031 55.5637 85.2775 62.2867C88.5534 68.4556 88.0392 71.7494 87.1943 77.2082C87.1026 77.7923 87.0075 78.4124 86.9089 79.0685C86.5893 81.2544 86.1936 83.4067 85.7402 85.4678C85.7013 85.6233 85.6521 85.7761 85.5927 85.925C87.0789 87.3343 88.1082 89.1569 88.5476 91.1574C88.9869 93.1578 88.8161 95.2441 88.0573 97.1464C87.2984 99.0488 85.9864 100.68 84.2908 101.829C82.5952 102.977 80.594 103.591 78.5458 103.591H77.4837C75.1309 110.571 70.1264 116.345 63.5515 119.665L65.1049 125.457C67.6039 125.987 72.8393 127.293 84.7409 130.617C90.7283 132.288 94.7327 133.854 97.4796 136.918C100.227 139.973 101.519 144.205 101.938 151.52C101.941 151.593 101.941 151.667 101.941 151.743C101.763 159.031 101.68 166.435 101.691 173.743C101.692 174.105 101.622 174.463 101.484 174.798C101.346 175.132 101.144 175.436 100.888 175.691C100.633 175.947 100.329 176.15 99.9951 176.288C99.6609 176.426 99.3028 176.497 98.9412 176.496H2.99991C2.63835 176.497 2.28021 176.426 1.94606 176.288C1.61191 176.15 1.30834 175.947 1.05279 175.691C0.797244 175.436 0.59476 175.132 0.456975 174.798C0.319189 174.463 0.248818 174.105 0.249906 173.743C0.26125 166.435 0.178406 159.031 0 151.743C0 151.667 0 151.593 0.0034375 151.52C0.421438 144.206 1.71497 139.973 4.45809 136.918C7.20809 133.854 11.2124 132.288 17.1999 130.614C29.0971 127.293 34.3368 125.987 36.8359 125.458V125.457ZM59.9462 71.6078L59.8816 71.67L59.8349 71.7467C53.1183 82.834 41.9715 86.8431 29.3875 86.8431H28.5017L28.3556 87.3347C26.9452 92.1165 27.05 97.2177 28.6557 101.938C30.1444 106.345 32.9027 110.213 36.5839 113.057C40.6661 116.198 45.6723 117.902 50.8233 117.902C55.9742 117.903 60.9808 116.201 65.0637 113.06C69.1467 109.92 72.0767 105.518 73.3979 100.539C74.719 95.5604 74.357 90.2846 72.3683 85.5331C72.3384 85.4614 72.3123 85.3882 72.2903 85.3138C71.5362 82.6532 70.6205 80.0411 69.5482 77.4921C68.8855 75.8935 68.0748 74.3605 67.1265 72.913C66.3939 71.834 65.1351 70.272 63.7921 69.9317C62.3604 69.569 60.9132 70.6807 59.9503 71.6078H59.9462ZM58.8806 120.82L58.2123 121.006C53.4692 122.328 48.4582 122.352 43.7023 121.077L43.0382 120.899L41.4886 126.69L51.2115 133.161L60.5234 126.958L58.8806 120.82Z" fill="#E9D023"/>
<path fill-rule="evenodd" clip-rule="evenodd" d="M65.872 0.503906C65.1443 0.503902 64.4462 0.792359 63.9308 1.30608C63.4153 1.8198 63.1245 2.51689 63.122 3.24463V9.879H56.4983C56.1305 9.86812 55.7642 9.93116 55.4212 10.0644C55.0782 10.1977 54.7654 10.3984 54.5014 10.6547C54.2374 10.911 54.0275 11.2177 53.8842 11.5567C53.7408 11.8956 53.667 12.2598 53.667 12.6278C53.667 12.9958 53.7408 13.36 53.8842 13.6989C54.0275 14.0379 54.2374 14.3446 54.5014 14.6009C54.7654 14.8572 55.0782 15.0579 55.4212 15.1912C55.7642 15.3244 56.1305 15.3875 56.4983 15.3766H63.1214V21.9921C63.1214 22.7214 63.4111 23.4209 63.9268 23.9366C64.4425 24.4523 65.142 24.7421 65.8714 24.7421C66.6007 24.7421 67.3002 24.4523 67.8159 23.9366C68.3316 23.4209 68.6214 22.7214 68.6214 21.9921V15.3752H75.2434C75.6112 15.3861 75.9774 15.3231 76.3205 15.1898C76.6635 15.0566 76.9762 14.8558 77.2403 14.5995C77.5043 14.3432 77.7142 14.0365 77.8575 13.6976C78.0008 13.3586 78.0747 12.9944 78.0747 12.6264C78.0747 12.2584 78.0008 11.8942 77.8575 11.5553C77.7142 11.2164 77.5043 10.9097 77.2403 10.6533C76.9762 10.397 76.6635 10.1963 76.3205 10.063C75.9774 9.92979 75.6112 9.86674 75.2434 9.87762H68.6224V3.24463C68.6199 2.51683 68.3291 1.81969 67.8135 1.30596C67.298 0.792228 66.5998 0.503811 65.872 0.503906Z" fill="#E9D023"/>
<path fill-rule="evenodd" clip-rule="evenodd" d="M26.9531 14.1582C26.5923 14.157 26.2349 14.2269 25.9013 14.3641C25.5677 14.5013 25.2645 14.7029 25.009 14.9576C24.7535 15.2122 24.5508 15.5148 24.4125 15.8479C24.2742 16.1811 24.203 16.5382 24.2031 16.8989V23.5223H17.5811C16.8517 23.5223 16.1522 23.8121 15.6365 24.3278C15.1208 24.8435 14.8311 25.543 14.8311 26.2723C14.8311 27.0017 15.1208 27.7011 15.6365 28.2169C16.1522 28.7326 16.8517 29.0223 17.5811 29.0223H24.2027V35.6447C24.2027 36.374 24.4924 37.0735 25.0082 37.5892C25.5239 38.1049 26.2234 38.3947 26.9527 38.3947C27.6821 38.3947 28.3815 38.1049 28.8973 37.5892C29.413 37.0735 29.7027 36.374 29.7027 35.6447V29.0216H36.3275C37.0568 29.0216 37.7563 28.7319 38.272 28.2162C38.7877 27.7005 39.0775 27.001 39.0775 26.2716C39.0775 25.5423 38.7877 24.8428 38.272 24.3271C37.7563 23.8114 37.0568 23.5216 36.3275 23.5216H29.702V16.8989C29.7025 16.5382 29.6317 16.1809 29.4936 15.8476C29.3556 15.5143 29.153 15.2116 28.8975 14.9569C28.642 14.7022 28.3387 14.5005 28.005 14.3635C27.6713 14.2264 27.3138 14.1566 26.9531 14.1582Z" fill="#E9D023"/>
<path fill-rule="evenodd" clip-rule="evenodd" d="M173.252 94.0208H166.635V87.3995C166.635 86.6683 166.345 85.9671 165.828 85.45C165.311 84.933 164.61 84.6426 163.879 84.6426C163.147 84.6426 162.446 84.933 161.929 85.45C161.412 85.9671 161.122 86.6683 161.122 87.3995V94.0194H154.505C153.776 94.0194 153.076 94.3091 152.56 94.8249C152.045 95.3406 151.755 96.0401 151.755 96.7694C151.755 97.4987 152.045 98.1982 152.56 98.7139C153.076 99.2297 153.776 99.5194 154.505 99.5194H161.122V106.143C161.122 106.874 161.412 107.575 161.929 108.092C162.446 108.609 163.147 108.9 163.879 108.9C164.61 108.9 165.311 108.609 165.828 108.092C166.345 107.575 166.635 106.874 166.635 106.143V99.5215H173.252C173.982 99.5215 174.681 99.2317 175.197 98.716C175.713 98.2003 176.002 97.5008 176.002 96.7715C176.002 96.0421 175.713 95.3426 175.197 94.8269C174.681 94.3112 173.982 94.0215 173.252 94.0215V94.0208Z" fill="#E9D023"/>
<path fill-rule="evenodd" clip-rule="evenodd" d="M137.084 110.421C137.084 111.151 136.794 111.85 136.278 112.366C135.763 112.882 135.063 113.171 134.334 113.171H127.709V119.795C127.709 120.524 127.419 121.224 126.903 121.739C126.388 122.255 125.688 122.545 124.959 122.545C124.23 122.545 123.53 122.255 123.014 121.739C122.499 121.224 122.209 120.524 122.209 119.795V113.172H115.588C114.859 113.172 114.159 112.882 113.643 112.366C113.128 111.851 112.838 111.151 112.838 110.422C112.838 109.692 113.128 108.993 113.643 108.477C114.159 107.961 114.859 107.672 115.588 107.672H122.21V101.051C122.21 100.321 122.499 99.622 123.015 99.1062C123.531 98.5905 124.23 98.3008 124.96 98.3008C125.689 98.3008 126.388 98.5905 126.904 99.1062C127.42 99.622 127.71 100.321 127.71 101.051V107.671H134.334C135.063 107.671 135.763 107.961 136.278 108.477C136.794 108.993 137.084 109.692 137.084 110.421Z" fill="#E9D023"/>
<path fill-rule="evenodd" clip-rule="evenodd" d="M36.6592 131.129L41.9152 138.519L46.2464 135.639L38.787 130.675C38.3182 130.756 37.6338 130.902 36.6575 131.127L36.6592 131.129ZM50.8252 117.207C54.5593 117.208 58.2359 116.287 61.528 114.524C64.8201 112.762 67.6255 110.213 69.6946 107.105C71.7638 103.996 73.0327 100.425 73.3882 96.7075C73.7438 92.9904 73.1751 89.2429 71.7327 85.7986C71.6931 85.7031 71.6587 85.6056 71.6296 85.5064C67.8556 72.5976 64.5456 70.8314 63.6202 70.598C62.7636 70.3804 61.687 70.8864 60.4233 72.1029C54.2169 82.3467 43.781 87.5304 29.3879 87.5304H29.0146C26.3027 96.6477 29.4408 106.694 37.003 112.512C40.9653 115.561 45.8257 117.211 50.8252 117.207ZM27.1721 81.9868C26.7242 81.9693 26.279 82.0624 25.8757 82.2578C25.4724 82.4533 25.1234 82.7451 24.8597 83.1074H24.8514C23.5053 83.106 22.1724 83.3728 20.9306 83.8922C19.0544 78.949 18.4556 74.1455 19.1596 69.5884C21.3026 63.4291 25.1957 58.0287 30.3619 54.0487C35.528 50.0688 41.7429 47.6822 48.2451 47.1813C54.7473 46.6804 61.2544 48.087 66.9692 51.2288C72.6839 54.3705 77.3582 59.111 80.4193 64.8694C82.8372 69.42 82.544 71.3109 81.7599 76.3627C81.6674 76.9611 81.5667 77.5936 81.4681 78.2681C81.2164 79.9841 80.915 81.6736 80.5743 83.3102C79.9065 83.1766 79.2272 83.1087 78.5462 83.1074H76.6525C73.3425 72.1218 69.6204 66.4424 64.9694 65.2668C62.0407 64.5239 59.1212 65.6005 56.2897 68.4599C56.1318 68.6203 55.9941 68.7995 55.8797 68.9934C50.4628 78.1447 40.8038 82.5172 27.1731 81.9871L27.1721 81.9868ZM23.0302 88.9714C22.1874 89.3206 21.4633 89.9059 20.9452 90.6568C20.4271 91.4078 20.137 92.2924 20.1098 93.2043C20.0825 94.1163 20.3193 95.0167 20.7917 95.7972C21.2641 96.5777 21.9519 97.2051 22.7724 97.604C22.4238 94.7299 22.5107 91.8196 23.0302 88.9714ZM83.2868 93.3518C83.2864 92.0944 82.7869 90.8886 81.8981 89.9992C81.0094 89.1098 79.8039 88.6094 78.5465 88.6081H78.3537C79.0236 91.7199 79.1596 94.923 78.7559 98.0805C79.9745 98.0267 81.1255 97.5053 81.9694 96.6246C82.8133 95.7438 83.2852 94.5716 83.2868 93.3518ZM63.5233 130.744L56.1753 135.64L60.5021 138.521L65.6899 131.226C64.7446 131.002 64.0399 130.848 63.5243 130.745L63.5233 130.744ZM71.324 132.801C71.3515 132.759 71.3759 132.718 71.4003 132.676C74.3487 133.454 78.2083 134.502 83.2597 135.914C93.4979 138.772 95.7794 140.455 96.4398 151.723C96.284 158.111 96.2029 164.579 96.1916 170.997H61.4818L58.5705 146.175L59.1009 144.195L59.6767 144.578C60.272 144.974 60.9982 145.123 61.7013 144.992C62.4043 144.862 63.0288 144.462 63.4422 143.879L71.3243 132.801H71.324ZM51.2112 138.942L48.344 140.848L48.983 143.222H53.668L54.2699 140.978L51.2105 138.942H51.2112ZM59.7317 126.661L51.2112 132.337L42.2802 126.393L43.5243 121.742C48.3986 123.048 53.5342 123.023 58.3956 121.669L59.7317 126.661ZM55.9433 170.997L53.3325 148.722H49.3168L46.7043 170.997H55.9433ZM44.0787 146.175L41.1661 170.997H5.75059C5.73925 164.58 5.65641 158.111 5.50241 151.723C6.15931 140.455 8.44422 138.772 18.679 135.914C23.9611 134.44 27.9393 133.357 30.9361 132.571L38.9775 143.879C39.3912 144.462 40.016 144.862 40.7193 144.992C41.4226 145.123 42.1491 144.974 42.7446 144.577L43.515 144.065L44.0794 146.175L44.0787 146.175ZM36.8359 125.457L38.3508 119.796C36.6916 118.979 35.1178 117.999 33.6524 116.871C29.2442 113.465 25.9363 108.837 24.1412 103.564C22.3334 103.441 20.5908 102.84 19.0916 101.822C17.5923 100.804 16.3904 99.4067 15.6088 97.772C14.8271 96.1372 14.4938 94.3242 14.6429 92.5184C14.792 90.7125 15.4182 88.9787 16.4574 87.4943C13.673 80.9861 12.7662 74.593 13.7668 68.4743C13.7913 68.3239 13.8282 68.1758 13.8772 68.0315C16.3309 60.8237 20.8396 54.491 26.8478 49.8138C32.856 45.1366 40.1012 42.3191 47.6907 41.7086C55.2803 41.098 62.8827 42.721 69.5614 46.3775C76.24 50.0341 81.703 55.5646 85.2775 62.2875C88.5534 68.4564 88.0392 71.7502 87.1943 77.209C87.1026 77.7931 87.0075 78.4133 86.9089 79.0694C86.5892 81.2553 86.1936 83.4075 85.7402 85.4686C85.7013 85.6241 85.6521 85.7769 85.5927 85.9258C87.0789 87.3351 88.1082 89.1578 88.5476 91.1582C88.9869 93.1586 88.8161 95.2449 88.0573 97.1472C87.2984 99.0496 85.9864 100.681 84.2908 101.829C82.5952 102.978 80.594 103.592 78.5458 103.591H77.4837C75.1309 110.571 70.1264 116.346 63.5515 119.666L65.1049 125.457C67.6039 125.988 72.8392 127.293 84.7409 130.618C90.7283 132.288 94.7327 133.855 97.4796 136.918C100.227 139.974 101.519 144.206 101.938 151.521C101.941 151.593 101.941 151.668 101.941 151.744C101.763 159.032 101.68 166.436 101.691 173.744C101.692 174.106 101.622 174.464 101.484 174.798C101.346 175.133 101.144 175.436 100.888 175.692C100.633 175.948 100.329 176.151 99.9951 176.289C99.6609 176.427 99.3028 176.497 98.9412 176.497H2.99991C2.63835 176.497 2.28021 176.427 1.94606 176.289C1.61191 176.151 1.30834 175.948 1.05279 175.692C0.797244 175.436 0.59476 175.133 0.456975 174.798C0.319189 174.464 0.248818 174.106 0.249906 173.744C0.26125 166.435 0.178406 159.032 0 151.744C0 151.668 0 151.593 0.0034375 151.521C0.421437 144.207 1.71497 139.974 4.45809 136.918C7.20809 133.855 11.2124 132.288 17.1999 130.615C29.0971 127.293 34.3368 125.988 36.8359 125.458V125.457ZM141.552 34.8525L136.297 42.6353H141.552V34.8525ZM152.548 45.3856C152.548 46.115 152.258 46.8145 151.743 47.3302C151.227 47.8459 150.527 48.1356 149.798 48.1356H147.052V53.6284C147.052 54.3578 146.763 55.0572 146.247 55.573C145.731 56.0887 145.032 56.3784 144.302 56.3784C143.573 56.3784 142.874 56.0887 142.358 55.573C141.842 55.0572 141.552 54.3578 141.552 53.6284V48.1346H131.123C130.624 48.1356 130.134 48.0005 129.706 47.7438C129.277 47.4871 128.927 47.1185 128.693 46.6777C128.459 46.2369 128.349 45.7405 128.376 45.242C128.402 44.7435 128.564 44.2617 128.844 43.8484L142.023 24.3234C142.354 23.8376 142.831 23.4704 143.386 23.2757C143.941 23.0809 144.543 23.0687 145.105 23.2409C145.667 23.413 146.159 23.7605 146.509 24.2325C146.86 24.7046 147.05 25.2763 147.052 25.8641V42.6363H149.799C150.16 42.636 150.518 42.7069 150.852 42.845C151.186 42.9831 151.489 43.1857 151.744 43.4411C152 43.6965 152.202 43.9998 152.34 44.3336C152.478 44.6674 152.549 45.0251 152.549 45.3863L152.548 45.3856ZM125.961 50.2494C125.929 50.2494 125.898 50.2494 125.864 50.2525C121.453 50.3999 116.995 50.4374 112.564 50.3628C113.644 49.3443 114.959 48.214 116.002 47.3206C121.845 42.2977 128.47 36.6025 126.778 30.6522C126.107 28.2878 124.664 26.2161 122.678 24.7678C120.692 23.3195 118.279 22.5779 115.822 22.6613C113.366 22.7448 111.008 23.6484 109.126 25.2281C107.243 26.8079 105.943 28.9727 105.434 31.3771C105.352 31.733 105.342 32.1017 105.404 32.4616C105.466 32.8215 105.599 33.1655 105.795 33.4735C105.991 33.7815 106.247 34.0473 106.547 34.2554C106.847 34.4635 107.186 34.6097 107.543 34.6855C107.9 34.7613 108.269 34.7652 108.628 34.697C108.987 34.6287 109.328 34.4897 109.633 34.288C109.937 34.0863 110.198 33.8259 110.401 33.5222C110.604 33.2184 110.744 32.8773 110.814 32.5187C111.068 31.3166 111.718 30.2344 112.66 29.4446C113.601 28.6548 114.78 28.2029 116.008 28.1609C117.236 28.1189 118.443 28.4893 119.436 29.213C120.43 29.9367 121.152 30.9721 121.488 32.154C121.746 33.0684 121.013 34.619 119.419 36.5165C117.563 38.7238 114.829 41.0736 112.416 43.1509C110.392 44.8893 108.48 46.5324 107.174 47.9999C104.321 51.2077 104.919 53.4084 105.919 54.6927C106.167 55.0092 106.481 55.2678 106.839 55.4502C107.197 55.6327 107.59 55.7345 107.992 55.7487C110.989 55.8473 114.007 55.901 117.022 55.901C120.036 55.901 123.055 55.8473 126.053 55.7487C126.782 55.7364 127.477 55.4349 127.984 54.9105C128.491 54.3861 128.769 53.6818 128.757 52.9524C128.745 52.2231 128.443 51.5285 127.919 51.0214C127.394 50.5144 126.69 50.2364 125.961 50.2487L125.961 50.2494ZM162.338 39.5161C162.337 32.887 160.371 26.407 156.688 20.8953C153.004 15.3837 147.769 11.0881 141.645 8.55167C135.52 6.01525 128.781 5.35193 122.279 6.64562C115.778 7.9393 109.806 11.1319 105.119 15.8196C100.431 20.5074 97.2395 26.4798 95.9466 32.9815C94.6537 39.4833 95.3179 46.2225 97.8551 52.3468C100.392 58.4711 104.689 63.7056 110.201 67.3882C115.713 71.0708 122.193 73.0362 128.822 73.0359C137.709 73.0268 146.229 69.4922 152.513 63.2079C158.796 56.9235 162.33 48.4029 162.338 39.5161ZM128.822 78.5352C136.538 78.5346 144.081 76.246 150.497 71.9588C156.913 67.6715 161.913 61.5781 164.865 54.4491C167.818 47.32 168.591 39.4756 167.085 31.9076C165.58 24.3395 161.864 17.3879 156.408 11.9316C150.952 6.47528 144 2.75941 136.432 1.25382C128.864 -0.251776 121.019 0.520534 113.89 3.47309C106.761 6.42564 100.668 11.4258 96.3805 17.8414C92.0931 24.257 89.8043 31.7998 89.8037 39.5161C89.8138 49.8615 93.9279 59.7803 101.243 67.0956C108.559 74.4109 118.477 78.5251 128.823 78.5352H128.822ZM65.8718 0.503924C65.144 0.50392 64.446 0.792376 63.9305 1.3061C63.4151 1.81982 63.1242 2.51691 63.1218 3.24464V9.87902H56.4981C56.1302 9.86813 55.764 9.93118 55.421 10.0644C55.078 10.1977 54.7652 10.3984 54.5012 10.6547C54.2371 10.911 54.0272 11.2178 53.8839 11.5567C53.7406 11.8956 53.6667 12.2598 53.6667 12.6278C53.6667 12.9958 53.7406 13.36 53.8839 13.699C54.0272 14.0379 54.2371 14.3446 54.5012 14.6009C54.7652 14.8572 55.078 15.058 55.421 15.1912C55.764 15.3244 56.1302 15.3875 56.4981 15.3766H63.1211V21.9921C63.1211 22.7214 63.4108 23.4209 63.9265 23.9366C64.4423 24.4523 65.1417 24.7421 65.8711 24.7421C66.6004 24.7421 67.2999 24.4523 67.8156 23.9366C68.3314 23.4209 68.6211 22.7214 68.6211 21.9921V15.3752H75.2431C75.6109 15.3861 75.9772 15.3231 76.3202 15.1898C76.6632 15.0566 76.976 14.8559 77.24 14.5995C77.504 14.3432 77.7139 14.0365 77.8572 13.6976C78.0006 13.3587 78.0744 12.9944 78.0744 12.6264C78.0744 12.2585 78.0006 11.8942 77.8572 11.5553C77.7139 11.2164 77.504 10.9097 77.24 10.6533C76.976 10.397 76.6632 10.1963 76.3202 10.0631C75.9772 9.92981 75.6109 9.86676 75.2431 9.87764H68.6221V3.24464C68.6197 2.51691 68.3289 1.81982 67.8134 1.3061C67.2979 0.792376 66.5999 0.50392 65.8721 0.503924H65.8718ZM26.9531 14.159C26.5924 14.1578 26.235 14.2277 25.9014 14.3649C25.5678 14.5021 25.2645 14.7038 25.009 14.9584C24.7535 15.213 24.5508 15.5156 24.4125 15.8487C24.2742 16.1819 24.203 16.5391 24.2031 16.8998V23.5231H17.5811C16.8517 23.5231 16.1523 23.8129 15.6365 24.3286C15.1208 24.8443 14.8311 25.5438 14.8311 26.2731C14.8311 27.0025 15.1208 27.702 15.6365 28.2177C16.1523 28.7334 16.8517 29.0231 17.5811 29.0231H24.2027V35.6455C24.2027 36.3748 24.4925 37.0743 25.0082 37.59C25.5239 38.1058 26.2234 38.3955 26.9527 38.3955C27.6821 38.3955 28.3816 38.1058 28.8973 37.59C29.413 37.0743 29.7027 36.3748 29.7027 35.6455V29.0225H36.3275C37.0568 29.0225 37.7563 28.7327 38.272 28.217C38.7878 27.7013 39.0775 27.0018 39.0775 26.2725C39.0775 25.5431 38.7878 24.8436 38.272 24.3279C37.7563 23.8122 37.0568 23.5225 36.3275 23.5225H29.7021V16.8998C29.7026 16.5389 29.6317 16.1816 29.4936 15.8482C29.3554 15.5148 29.1527 15.2121 28.8972 14.9574C28.6416 14.7027 28.3381 14.501 28.0043 14.364C27.6705 14.227 27.3129 14.1573 26.9521 14.159H26.9531ZM173.253 94.0218H166.635V87.4005C166.635 86.6693 166.345 85.9681 165.828 85.4511C165.311 84.9341 164.61 84.6436 163.878 84.6436C163.147 84.6436 162.446 84.9341 161.929 85.4511C161.412 85.9681 161.121 86.6693 161.121 87.4005V94.0204H154.505C153.775 94.0204 153.076 94.3102 152.56 94.8259C152.044 95.3416 151.755 96.0411 151.755 96.7704C151.755 97.4998 152.044 98.1992 152.56 98.715C153.076 99.2307 153.775 99.5204 154.505 99.5204H161.121V106.144C161.121 106.875 161.412 107.576 161.929 108.093C162.446 108.61 163.147 108.901 163.878 108.901C164.61 108.901 165.311 108.61 165.828 108.093C166.345 107.576 166.635 106.875 166.635 106.144V99.5225H173.252C173.981 99.5225 174.681 99.2328 175.197 98.717C175.712 98.2013 176.002 97.5018 176.002 96.7725C176.002 96.0431 175.712 95.3437 175.197 94.8279C174.681 94.3122 173.981 94.0225 173.252 94.0225L173.253 94.0218ZM137.084 110.422C137.084 111.152 136.794 111.851 136.278 112.367C135.763 112.883 135.063 113.172 134.334 113.172H127.709V119.796C127.709 120.525 127.419 121.225 126.903 121.74C126.387 122.256 125.688 122.546 124.959 122.546C124.229 122.546 123.53 122.256 123.014 121.74C122.498 121.225 122.209 120.525 122.209 119.796V113.173H115.588C114.858 113.173 114.159 112.883 113.643 112.367C113.127 111.852 112.838 111.152 112.838 110.423C112.838 109.693 113.127 108.994 113.643 108.478C114.159 107.963 114.858 107.673 115.588 107.673H122.209V101.052C122.209 100.322 122.499 99.623 123.015 99.1073C123.53 98.5916 124.23 98.3018 124.959 98.3018C125.689 98.3018 126.388 98.5916 126.904 99.1073C127.42 99.623 127.709 100.322 127.709 101.052V107.672H134.334C135.063 107.672 135.762 107.962 136.278 108.478C136.794 108.994 137.083 109.693 137.084 110.422Z" fill="#D80073"/>
</svg>
