<svg width="111" height="111" viewBox="0 0 111 111" fill="none" xmlns="http://www.w3.org/2000/svg">
<g filter="url(#filter0_d_0_1)">
<circle cx="55.1759" cy="52.1759" r="49.1759" fill="white"/>
<circle cx="55.1759" cy="52.1759" r="48.8344" stroke="white" stroke-width="0.682999"/>
</g>
<path d="M78.668 55.4206L76.7586 54.7869C76.8799 53.8629 76.9396 52.9319 76.9374 52C76.9393 51.0654 76.8796 50.1317 76.7586 49.205L78.668 48.5794C79.0772 48.4455 79.4166 48.1547 79.6116 47.7708C79.8066 47.3869 79.8413 46.9413 79.708 46.5319L78.1967 41.9087C78.1323 41.7019 78.0271 41.5099 77.8875 41.3443C77.7478 41.1787 77.5763 41.0426 77.3833 40.9442C77.1902 40.8458 76.9795 40.787 76.7633 40.7712C76.5472 40.7555 76.3301 40.7831 76.1249 40.8525L74.2399 41.4375C73.3544 39.7988 72.2621 38.2805 70.9899 36.92L72.168 35.295C72.4006 34.9524 72.4936 34.5339 72.428 34.125C72.3951 33.9135 72.3207 33.7106 72.2092 33.528C72.0976 33.3453 71.9511 33.1865 71.778 33.0606L67.8374 30.1925C67.6637 30.0655 67.4665 29.9742 67.2573 29.924C67.0481 29.8738 66.831 29.8656 66.6186 29.9C66.1944 29.9685 65.8147 30.2022 65.5624 30.55L64.3761 32.175C62.689 31.3661 60.9022 30.7841 59.0624 30.4444V28.4375C59.0624 28.0065 58.8912 27.5932 58.5864 27.2885C58.2817 26.9837 57.8683 26.8125 57.4374 26.8125H52.5624C52.1314 26.8125 51.7181 26.9837 51.4133 27.2885C51.1086 27.5932 50.9374 28.0065 50.9374 28.4375V30.4444C49.0953 30.7859 47.3061 31.3678 45.6155 32.175L44.4374 30.5581C44.3132 30.3844 44.156 30.2369 43.9747 30.1239C43.7935 30.011 43.5918 29.9349 43.3811 29.9C43.1687 29.8656 42.9516 29.8738 42.7424 29.924C42.5332 29.9742 42.336 30.0655 42.1624 30.1925L38.2217 33.0525C38.0486 33.1784 37.9021 33.3372 37.7906 33.5198C37.679 33.7025 37.6046 33.9054 37.5717 34.1169C37.5385 34.328 37.5472 34.5436 37.5974 34.7513C37.6476 34.9591 37.7383 35.1549 37.8642 35.3275L39.0342 36.9525C37.7623 38.3162 36.6701 39.8371 35.7842 41.4781L33.8749 40.8525C33.6716 40.7867 33.4574 40.7616 33.2444 40.7787C33.0314 40.7957 32.8239 40.8546 32.6338 40.952C32.4436 41.0493 32.2745 41.1832 32.1361 41.346C31.9977 41.5088 31.8928 41.6973 31.8274 41.9006L30.2917 46.54C30.1609 46.9484 30.1968 47.3919 30.3917 47.7739C30.5865 48.1559 30.9244 48.4454 31.3317 48.5794L33.2411 49.2131C33.1199 50.1371 33.0601 51.0681 33.0624 52C33.0604 52.9346 33.1201 53.8683 33.2411 54.795L31.3317 55.4206C30.9225 55.5545 30.5831 55.8453 30.3881 56.2292C30.1931 56.6131 30.1584 57.0587 30.2917 57.4681L31.803 62.0912C31.8674 62.2981 31.9726 62.4901 32.1123 62.6557C32.252 62.8213 32.4234 62.9574 32.6164 63.0558C32.8095 63.1542 33.0203 63.213 33.2364 63.2288C33.4525 63.2445 33.6696 63.2169 33.8749 63.1475L35.7599 62.5625C36.6454 64.2012 37.7376 65.7195 39.0099 67.08L37.8317 68.705C37.5992 69.0476 37.5062 69.4661 37.5717 69.875C37.6046 70.0865 37.679 70.2894 37.7906 70.472C37.9021 70.6547 38.0486 70.8135 38.2217 70.9394L42.1624 73.7994C42.336 73.9264 42.5332 74.0176 42.7424 74.0679C42.9516 74.1181 43.1687 74.1262 43.3811 74.0919C43.8053 74.0234 44.1851 73.7897 44.4374 73.4419L45.6236 71.8169C47.3103 72.6286 49.0971 73.2133 50.9374 73.5556V75.5625C50.9374 75.9935 51.1086 76.4068 51.4133 76.7115C51.7181 77.0163 52.1314 77.1875 52.5624 77.1875H57.4374C57.8683 77.1875 58.2817 77.0163 58.5864 76.7115C58.8912 76.4068 59.0624 75.9935 59.0624 75.5625V73.8806C60.6523 75.6712 62.8455 76.8141 65.2239 77.0914C67.6024 77.3687 69.9997 76.7611 71.9589 75.3843C73.9181 74.0076 75.3021 71.958 75.8472 69.6263C76.3922 67.2946 76.0601 64.8438 74.9142 62.7412L76.1492 63.1475C76.3525 63.2133 76.5667 63.2384 76.7797 63.2213C76.9927 63.2043 77.2002 63.1454 77.3903 63.048C77.5805 62.9507 77.7496 62.8168 77.888 62.654C78.0264 62.4912 78.1313 62.3027 78.1967 62.0994L79.708 57.46C79.8388 57.0516 79.8029 56.6081 79.6081 56.2261C79.4132 55.8441 79.0753 55.5546 78.668 55.4206ZM69.6249 74.88C68.6005 75.3303 67.4938 75.5628 66.3749 75.5628C65.2559 75.5628 64.1492 75.3303 63.1249 74.88V70.6875C63.1249 70.2565 63.2961 69.8432 63.6008 69.5385C63.9056 69.2337 64.3189 69.0625 64.7499 69.0625H67.9999C68.4308 69.0625 68.8442 69.2337 69.1489 69.5385C69.4537 69.8432 69.6249 70.2565 69.6249 70.6875V74.88ZM64.7499 65C64.7499 64.6786 64.8452 64.3644 65.0237 64.0972C65.2023 63.83 65.4561 63.6217 65.753 63.4987C66.0499 63.3757 66.3767 63.3435 66.6919 63.4062C67.0071 63.4689 67.2966 63.6237 67.5239 63.851C67.7512 64.0782 67.9059 64.3678 67.9686 64.683C68.0313 64.9982 67.9992 65.3249 67.8762 65.6219C67.7532 65.9188 67.5449 66.1726 67.2777 66.3511C67.0104 66.5297 66.6963 66.625 66.3749 66.625C65.9439 66.625 65.5306 66.4538 65.2258 66.149C64.9211 65.8443 64.7499 65.431 64.7499 65ZM71.2499 73.9375V70.6875C71.2456 69.906 70.9598 69.1523 70.445 68.5644C69.9302 67.9764 69.2208 67.5937 68.4467 67.4863C68.9621 67.0598 69.3333 66.4848 69.5097 65.8396C69.6862 65.1945 69.6593 64.5106 69.4327 63.8812C69.2061 63.2519 68.7908 62.7078 68.2436 62.3233C67.6963 61.9387 67.0437 61.7323 66.3749 61.7323C65.706 61.7323 65.0534 61.9387 64.5062 62.3233C63.9589 62.7078 63.5437 63.2519 63.3171 63.8812C63.0904 64.5106 63.0635 65.1945 63.24 65.8396C63.4164 66.4848 63.7877 67.0598 64.303 67.4863C63.5289 67.5937 62.8195 67.9764 62.3047 68.5644C61.7899 69.1523 61.5042 69.906 61.4999 70.6875V73.9375C60.1356 72.9143 59.1279 71.4878 58.6194 69.8601C58.111 68.2324 58.1275 66.4859 58.6668 64.8681C59.2061 63.2504 60.2407 61.8433 61.6241 60.8462C63.0075 59.8491 64.6696 59.3125 66.3749 59.3125C68.0802 59.3125 69.7422 59.8491 71.1256 60.8462C72.509 61.8433 73.5436 63.2504 74.0829 64.8681C74.6222 66.4859 74.6387 68.2324 74.1303 69.8601C73.6218 71.4878 72.6141 72.9143 71.2499 73.9375ZM56.6249 68.1688C53.0774 68.5279 49.5104 67.7103 46.4735 65.842C43.4366 63.9737 41.0985 61.1585 39.8196 57.8302C38.5406 54.5019 38.3918 50.8454 39.3961 47.4242C40.4004 44.0031 42.5021 41.0072 45.3771 38.8983C48.2522 36.7895 51.741 35.6848 55.3059 35.7545C58.8708 35.8242 62.3137 37.0644 65.1041 39.2841C67.8946 41.5037 69.8775 44.5795 70.7473 48.0373C71.6171 51.4951 71.3254 55.143 69.9174 58.4188C68.4447 57.8444 66.8544 57.6367 65.2836 57.8136C63.7128 57.9905 62.2086 58.5466 60.9005 59.4341C59.5924 60.3216 58.5197 61.5139 57.7749 62.9081C57.0301 64.3024 56.6354 65.8568 56.6249 67.4375C56.6249 67.6813 56.6249 67.9169 56.6249 68.1525V68.1688ZM76.6205 61.62L74.703 60.9944C74.3607 60.8768 73.989 60.8768 73.6467 60.9944C72.9888 60.2494 72.2217 59.6083 71.3717 59.0931C72.3567 56.8578 72.8685 54.4428 72.8749 52C72.8749 48.4647 71.8265 45.0087 69.8624 42.0692C67.8982 39.1297 65.1066 36.8386 61.8403 35.4857C58.5741 34.1327 54.98 33.7788 51.5126 34.4685C48.0452 35.1582 44.8602 36.8606 42.3603 39.3605C39.8605 41.8603 38.158 45.0454 37.4683 48.5128C36.7786 51.9802 37.1326 55.5742 38.4855 58.8405C39.8384 62.1067 42.1295 64.8984 45.069 66.8625C48.0086 68.8266 51.4645 69.875 54.9999 69.875C55.6405 69.8695 56.2805 69.8315 56.9174 69.7612C57.1422 70.6743 57.498 71.5501 57.9736 72.3613C57.8063 72.5123 57.6722 72.6964 57.5799 72.902C57.4876 73.1077 57.439 73.3302 57.4374 73.5556V75.5625H52.5624V73.5556C52.5683 73.1697 52.4367 72.7942 52.191 72.4965C51.9454 72.1987 51.6018 71.9981 51.2217 71.9306C49.5198 71.604 47.8674 71.0578 46.3061 70.3056C45.9643 70.1442 45.5769 70.107 45.2106 70.2004C44.8442 70.2938 44.522 70.5121 44.2992 70.8175L43.1211 72.4425L39.1805 69.6313L40.3505 68.0063C40.5782 67.6986 40.69 67.3205 40.6662 66.9385C40.6424 66.5565 40.4846 66.1951 40.2205 65.9181C39.029 64.6682 38.0073 63.2667 37.1817 61.75C36.9985 61.42 36.7061 61.1641 36.3547 61.0262C36.0033 60.8883 35.6149 60.8771 35.2561 60.9944L33.3467 61.6119L31.8355 56.9806L33.7449 56.355C34.1093 56.2364 34.4201 55.9927 34.6223 55.6671C34.8245 55.3415 34.9051 54.9549 34.8499 54.5756C34.7421 53.7213 34.6878 52.8611 34.6874 52C34.6881 51.1362 34.7424 50.2733 34.8499 49.4163C34.899 49.0408 34.8155 48.66 34.6137 48.3396C34.412 48.0191 34.1047 47.7792 33.7449 47.6612L31.8355 47.0356L33.3467 42.3962L35.2561 43.0625C35.6225 43.1773 36.0177 43.1588 36.3716 43.01C36.7256 42.8613 37.0155 42.592 37.1899 42.25C38.0122 40.7308 39.0312 39.3267 40.2205 38.0737C40.4862 37.8002 40.6472 37.442 40.6754 37.0618C40.7036 36.6815 40.5972 36.3035 40.3749 35.9938L39.1967 34.3688L43.1374 31.5087L44.3236 33.1337C44.549 33.4383 44.8738 33.6546 45.2417 33.7451C45.6096 33.8356 45.9976 33.7946 46.3386 33.6294C47.887 32.8803 49.5255 32.3341 51.2136 32.0044C51.5937 31.9369 51.9373 31.7363 52.1829 31.4385C52.4285 31.1408 52.5602 30.7653 52.5542 30.3794V28.4375H57.4292V30.4444C57.4233 30.8303 57.5549 31.2058 57.8006 31.5035C58.0462 31.8013 58.3898 32.0019 58.7699 32.0694C60.4718 32.396 62.1242 32.9422 63.6855 33.6944C64.0273 33.8558 64.4147 33.893 64.781 33.7996C65.1473 33.7062 65.4696 33.4879 65.6924 33.1825L66.8705 31.5575L70.8111 34.4175L69.6411 36.0425C69.4134 36.3501 69.3016 36.7283 69.3254 37.1103C69.3491 37.4923 69.507 37.8536 69.7711 38.1306C70.962 39.365 71.9863 40.7499 72.818 42.25C72.9921 42.5903 73.2807 42.8583 73.6328 43.0069C73.985 43.1555 74.3783 43.1752 74.7436 43.0625L76.653 42.445L78.1642 47.0763L76.2549 47.7019C75.8935 47.8201 75.5851 48.0612 75.3832 48.3834C75.1813 48.7055 75.0987 49.0883 75.1499 49.465C75.2559 50.3059 75.3102 51.1525 75.3124 52C75.3116 52.8638 75.2574 53.7267 75.1499 54.5837C75.1007 54.9592 75.1842 55.34 75.386 55.6604C75.5877 55.9809 75.8951 56.2208 76.2549 56.3388L78.1642 56.9644L76.6205 61.62Z" fill="#D80073"/>
<path d="M47.6875 49.5625H49.3125V52.8125H50.9375V48.75C50.9375 48.5345 50.8519 48.3278 50.6995 48.1755C50.5472 48.0231 50.3405 47.9375 50.125 47.9375H46.875C46.6595 47.9375 46.4528 48.0231 46.3005 48.1755C46.1481 48.3278 46.0625 48.5345 46.0625 48.75V52.8125H47.6875V49.5625Z" fill="#D80073"/>
<path d="M54.1875 47.125H55.8125V52.8125H57.4375V46.3125C57.4375 46.097 57.3519 45.8903 57.1995 45.738C57.0472 45.5856 56.8405 45.5 56.625 45.5H53.375C53.1595 45.5 52.9528 45.5856 52.8005 45.738C52.6481 45.8903 52.5625 46.097 52.5625 46.3125V52.8125H54.1875V47.125Z" fill="#D80073"/>
<path d="M60.6875 43.875H62.3125V52.8125H63.9375V43.0625C63.9375 42.847 63.8519 42.6403 63.6995 42.488C63.5472 42.3356 63.3405 42.25 63.125 42.25H59.875C59.6595 42.25 59.4528 42.3356 59.3005 42.488C59.1481 42.6403 59.0625 42.847 59.0625 43.0625V52.8125H60.6875V43.875Z" fill="#D80073"/>
<path d="M65.5625 54.4375H44.4375V56.0625H65.5625V54.4375Z" fill="#D80073"/>
<defs>
<filter id="filter0_d_0_1" x="0" y="0" width="110.352" height="110.352" filterUnits="userSpaceOnUse" color-interpolation-filters="sRGB">
<feFlood flood-opacity="0" result="BackgroundImageFix"/>
<feColorMatrix in="SourceAlpha" type="matrix" values="0 0 0 0 0 0 0 0 0 0 0 0 0 0 0 0 0 0 127 0" result="hardAlpha"/>
<feOffset dy="3"/>
<feGaussianBlur stdDeviation="3"/>
<feColorMatrix type="matrix" values="0 0 0 0 0 0 0 0 0 0 0 0 0 0 0 0 0 0 0.161 0"/>
<feBlend mode="normal" in2="BackgroundImageFix" result="effect1_dropShadow_0_1"/>
<feBlend mode="normal" in="SourceGraphic" in2="effect1_dropShadow_0_1" result="shape"/>
</filter>
</defs>
</svg>
