<svg width="111" height="111" viewBox="0 0 111 111" fill="none" xmlns="http://www.w3.org/2000/svg">
<g id="Group 94805">
<g id="Ellipse 4900" filter="url(#filter0_d_46_3418)">
<circle cx="55.1759" cy="52.1759" r="49.1759" fill="white"/>
<circle cx="55.1759" cy="52.1759" r="48.8344" stroke="white" stroke-width="0.682999"/>
</g>
<g id="Group">
<path id="Vector" d="M61.2881 57.3672H63.2264V59.93H61.2881V57.3672Z" fill="#D80073"/>
<path id="Vector_2" d="M61.2881 61.582H63.2264V64.1449H61.2881V61.582Z" fill="#D80073"/>
<path id="Vector_3" d="M61.2881 65.7969H63.2264V68.3597H61.2881V65.7969Z" fill="#D80073"/>
<path id="Vector_4" d="M66.7393 55.6797H68.6776V69.007H66.7393V55.6797Z" fill="#D80073"/>
<path id="Vector_5" d="M71.0107 58.7168H72.949V66.8275H71.0107V58.7168Z" fill="#D80073"/>
<path id="Vector_6" d="M39.1621 64.5762H58.185V66.5145H39.1621V64.5762Z" fill="#D80073"/>
<path id="Vector_7" d="M43.8486 68.0371H53.0383V69.9754H43.8486V68.0371Z" fill="#D80073"/>
<path id="Vector_8" d="M42.4126 61.5817L43.6798 60.844L45.0059 61.4699L44.6959 60.0366L45.7008 58.969L44.2421 58.8209L43.5371 57.5352L42.9454 58.8768L41.5049 59.15L42.598 60.1273L42.4126 61.5817Z" fill="#D80073"/>
<path id="Vector_9" d="M47.2544 61.5817L48.5217 60.844L49.8476 61.4699L49.5377 60.0366L50.5426 58.969L49.0838 58.8209L48.3789 57.5352L47.7872 58.8768L46.3467 59.15L47.4398 60.1273L47.2544 61.5817Z" fill="#D80073"/>
<path id="Vector_10" d="M52.0962 61.5817L53.3634 60.844L54.6895 61.4699L54.3795 60.0366L55.3844 58.969L53.9256 58.8209L53.2207 57.5352L52.629 58.8768L51.1885 59.15L52.2816 60.1273L52.0962 61.5817Z" fill="#D80073"/>
<path id="Vector_11" d="M58.9395 41.0918L60.7485 40.3957L61.6687 42.7872L59.8597 43.4833L58.9395 41.0918Z" fill="#D80073"/>
<path id="Vector_12" d="M60.4766 45.0078L62.2863 44.3142L63.2037 46.7077L61.394 47.4013L60.4766 45.0078Z" fill="#D80073"/>
<path id="Vector_13" d="M61.9668 48.9453L63.7759 48.2492L64.6961 50.6407L62.887 51.3368L61.9668 48.9453Z" fill="#D80073"/>
<path id="Vector_14" d="M79.7351 47.2596L77.5773 41.6511L76.6725 41.9994C75.8037 42.3325 74.8308 41.8991 74.4976 41.0322C74.1645 40.1653 74.5979 39.1886 75.4649 38.8554L76.3696 38.5071L74.2137 32.9006C73.9298 32.1605 73.3752 31.5775 72.6521 31.2558C71.9291 30.9359 71.1227 30.9151 70.3883 31.199L33.8966 45.2267C32.3748 45.8134 31.612 47.5283 32.1969 49.052L33.9423 53.589C33.6392 54.0532 33.4594 54.6052 33.4594 55.1999V61.2077H34.4285C35.3579 61.2077 36.1131 61.963 36.1131 62.8923C36.1131 63.8217 35.3579 64.577 34.4285 64.577H33.4594V70.5867C33.4594 72.2183 34.7862 73.5451 36.4178 73.5451H75.5141C77.1457 73.5451 78.4725 72.2183 78.4725 70.5867V64.577H77.5034C76.5741 64.577 75.8188 63.8217 75.8188 62.8923C75.8188 61.963 76.5741 61.2077 77.5034 61.2077H78.4725V55.1999C78.4725 53.5683 77.1457 52.2414 75.5141 52.2414H75.0269L78.0334 51.0849C78.7716 50.801 79.3565 50.2483 79.6764 49.5252C79.9982 48.8022 80.019 47.9977 79.7351 47.2596ZM75.5141 54.1797C76.0762 54.1797 76.5343 54.6378 76.5343 55.1999V59.402C75.0049 59.826 73.8806 61.2305 73.8806 62.8924C73.8806 64.5542 75.0049 65.9587 76.5343 66.3827V70.5867C76.5343 71.1488 76.0762 71.6069 75.5141 71.6069H63.2259V70.0131H61.2876V71.6069H36.4179C35.8557 71.6069 35.3976 71.1488 35.3976 70.5867V66.3827C36.927 65.9587 38.0514 64.5542 38.0514 62.8924C38.0514 61.2305 36.927 59.826 35.3976 59.402V55.1999C35.3976 54.6378 35.8557 54.1797 36.4179 54.1797H61.2876V55.9268H63.2259V54.1797H75.5141ZM77.9047 48.7378C77.7949 48.9877 77.5943 49.177 77.3388 49.2754L69.6263 52.2415H55.4342L59.338 50.7405L58.6415 48.9309L50.1938 52.179L50.2178 52.2415H36.4179C36.1162 52.2415 35.8307 52.3001 35.5563 52.3844L34.0064 48.3574C33.8039 47.8312 34.0689 47.2387 34.5932 47.0362L57.8071 38.1126L58.4333 39.7432L60.2428 39.0466L59.6169 37.4169L71.0849 33.0085C71.3404 32.9063 71.6168 32.9177 71.8666 33.0274C72.1146 33.1391 72.3057 33.3398 72.4042 33.5953L73.9127 37.5172C72.637 38.4617 72.0919 40.1766 72.6881 41.7287C73.2862 43.2808 74.8364 44.1875 76.4169 44.0342L77.9255 47.9542C78.024 48.2097 78.0164 48.488 77.9047 48.7378Z" fill="#D80073"/>
<path id="Vector_15" d="M63.4189 37.5449L65.228 36.8488L70.0124 49.2828L68.2033 49.9789L63.4189 37.5449Z" fill="#D80073"/>
<path id="Vector_16" d="M68.4961 38.8457L70.3052 38.1496L73.2164 45.7155L71.4073 46.4116L68.4961 38.8457Z" fill="#D80073"/>
<path id="Vector_17" d="M44.9764 48.1772L43.5618 48.5624L42.4424 47.6152L42.3715 49.0798L41.125 49.8517L42.4959 50.3717L42.8449 51.7958L43.763 50.6526L45.2252 50.7607L44.4217 49.5343L44.9764 48.1772Z" fill="#D80073"/>
<path id="Vector_18" d="M49.4961 46.4407L48.0814 46.8259L46.9621 45.8789L46.8912 47.3435L45.6445 48.1154L47.0155 48.6352L47.3645 50.0594L48.2827 48.9162L49.7449 49.0244L48.9414 47.798L49.4961 46.4407Z" fill="#D80073"/>
<path id="Vector_19" d="M54.0146 44.7024L52.5999 45.0878L51.4805 44.1406L51.4097 45.6052L50.1631 46.3771L51.5341 46.897L51.8831 48.3212L52.8011 47.1779L54.2634 47.2861L53.4599 46.0597L54.0146 44.7024Z" fill="#D80073"/>
</g>
</g>
<defs>
<filter id="filter0_d_46_3418" x="0" y="0" width="110.352" height="110.352" filterUnits="userSpaceOnUse" color-interpolation-filters="sRGB">
<feFlood flood-opacity="0" result="BackgroundImageFix"/>
<feColorMatrix in="SourceAlpha" type="matrix" values="0 0 0 0 0 0 0 0 0 0 0 0 0 0 0 0 0 0 127 0" result="hardAlpha"/>
<feOffset dy="3"/>
<feGaussianBlur stdDeviation="3"/>
<feColorMatrix type="matrix" values="0 0 0 0 0 0 0 0 0 0 0 0 0 0 0 0 0 0 0.161 0"/>
<feBlend mode="normal" in2="BackgroundImageFix" result="effect1_dropShadow_46_3418"/>
<feBlend mode="normal" in="SourceGraphic" in2="effect1_dropShadow_46_3418" result="shape"/>
</filter>
</defs>
</svg>
