<svg width="111" height="111" viewBox="0 0 111 111" fill="none" xmlns="http://www.w3.org/2000/svg">
<g id="Group 94805">
<g id="Ellipse 4900" filter="url(#filter0_d_46_3465)">
<circle cx="55.1759" cy="52.1759" r="49.1759" fill="white"/>
<circle cx="55.1759" cy="52.1759" r="48.8344" stroke="white" stroke-width="0.682999"/>
</g>
<g id="Layer_x0020_1">
<path id="Vector" fill-rule="evenodd" clip-rule="evenodd" d="M64.6665 46.7739H60.937C60.1481 46.7739 60.1481 45.5762 60.937 45.5762H64.6665C65.4554 45.5762 65.4554 46.7739 64.6665 46.7739ZM48.0633 46.7739H44.3339C43.545 46.7739 43.545 45.5762 44.3339 45.5762H48.0633C48.8522 45.5762 48.8522 46.7739 48.0633 46.7739Z" fill="#D80073"/>
<path id="Vector_2" fill-rule="evenodd" clip-rule="evenodd" d="M42.6622 56.306H33.1378C31.8827 56.306 30.8643 55.2948 30.8643 54.0397V41.2735C30.8643 40.0184 31.8827 39 33.1378 39H42.6622C43.9101 39 44.9285 40.0184 44.9285 41.2735V54.0397C44.9285 55.2948 43.9101 56.306 42.6622 56.306ZM33.1378 40.1977C32.5425 40.1977 32.062 40.6782 32.062 41.2735V54.0397C32.062 54.6349 32.5425 55.1155 33.1378 55.1155H42.6622C43.2575 55.1155 43.738 54.6349 43.738 54.0397V41.2735C43.738 40.6782 43.2575 40.1977 42.6622 40.1977H33.1378Z" fill="#D80073"/>
<path id="Vector_3" fill-rule="evenodd" clip-rule="evenodd" d="M44.262 60.1858H31.5389C30.1403 60.1858 29 59.0527 29 57.6541C29 56.2484 30.1403 55.1152 31.5389 55.1152H44.262C45.6605 55.1152 46.8009 56.2484 46.8009 57.6541C46.8009 59.0527 45.6605 60.1858 44.262 60.1858ZM31.5389 56.3058C30.8002 56.3058 30.1977 56.9082 30.1977 57.6541C30.1977 58.3928 30.8002 58.9953 31.5389 58.9953H44.262C45.0007 58.9953 45.6032 58.3928 45.6032 57.6541C45.6032 56.9082 45.0007 56.3058 44.262 56.3058H31.5389Z" fill="#D80073"/>
<path id="Vector_4" fill-rule="evenodd" clip-rule="evenodd" d="M29.5953 58.2489C29.2654 58.2489 29 57.9835 29 57.6536V51.414C29 50.625 30.1977 50.625 30.1977 51.414V57.6536C30.1977 57.9835 29.9252 58.2489 29.5953 58.2489Z" fill="#D80073"/>
<path id="Vector_5" fill-rule="evenodd" clip-rule="evenodd" d="M46.1841 58.2489C45.8542 58.2489 45.5889 57.9835 45.5889 57.6536V51.414C45.5889 50.625 46.7794 50.625 46.7794 51.414V57.6536C46.7794 57.9835 46.5141 58.2489 46.1841 58.2489Z" fill="#D80073"/>
<path id="Vector_6" fill-rule="evenodd" clip-rule="evenodd" d="M59.2657 56.306H49.7341C48.4862 56.306 47.4678 55.2948 47.4678 54.0397V41.2735C47.4678 40.0184 48.4862 39 49.7341 39H59.2657C60.5136 39 61.532 40.0184 61.532 41.2735V54.0397C61.532 55.2948 60.5136 56.306 59.2657 56.306ZM49.7341 40.1977C49.146 40.1977 48.6655 40.6782 48.6655 41.2735V54.0397C48.6655 54.6349 49.146 55.1155 49.7341 55.1155H59.2657C59.8538 55.1155 60.3343 54.6349 60.3343 54.0397V41.2735C60.3343 40.6782 59.8538 40.1977 59.2657 40.1977H49.7341Z" fill="#D80073"/>
<path id="Vector_7" fill-rule="evenodd" clip-rule="evenodd" d="M60.8583 60.1858H48.1424C46.7439 60.1858 45.6035 59.0527 45.6035 57.6541C45.6035 56.2484 46.7439 55.1152 48.1424 55.1152H60.8583C62.264 55.1152 63.3972 56.2484 63.3972 57.6541C63.3972 59.0527 62.264 60.1858 60.8583 60.1858ZM48.1424 56.3058C47.3965 56.3058 46.8012 56.9082 46.8012 57.6541C46.8012 58.3928 47.3965 58.9953 48.1424 58.9953H60.8583C61.6042 58.9953 62.2067 58.3928 62.2067 57.6541C62.2067 56.9082 61.6042 56.3058 60.8583 56.3058H48.1424Z" fill="#D80073"/>
<path id="Vector_8" fill-rule="evenodd" clip-rule="evenodd" d="M62.8013 58.2489C62.4714 58.2489 62.2061 57.9835 62.2061 57.6536V51.414C62.2061 50.625 63.3966 50.625 63.3966 51.414V57.6536C63.3966 57.9835 63.1312 58.2489 62.8013 58.2489Z" fill="#D80073"/>
<path id="Vector_9" fill-rule="evenodd" clip-rule="evenodd" d="M75.8692 56.306H66.3376C65.0897 56.306 64.0713 55.2948 64.0713 54.0397V41.2735C64.0713 40.0184 65.0897 39 66.3376 39H75.8692C77.1171 39 78.1356 40.0184 78.1356 41.2735V54.0397C78.1356 55.2948 77.1171 56.306 75.8692 56.306ZM66.3376 40.1977C65.7495 40.1977 65.2618 40.6782 65.2618 41.2735V54.0397C65.2618 54.6349 65.7495 55.1155 66.3376 55.1155H75.8692C76.4573 55.1155 76.9378 54.6349 76.9378 54.0397V41.2735C76.9378 40.6782 76.4573 40.1977 75.8692 40.1977H66.3376Z" fill="#D80073"/>
<path id="Vector_10" fill-rule="evenodd" clip-rule="evenodd" d="M77.4609 60.1858H64.7378C63.3392 60.1858 62.2061 59.0527 62.2061 57.6541C62.2061 56.2484 63.3392 55.1152 64.7378 55.1152H77.4609C78.8594 55.1152 79.9998 56.2484 79.9998 57.6541C79.9998 59.0527 78.8594 60.1858 77.4609 60.1858ZM64.7378 56.3058C63.9991 56.3058 63.3966 56.9082 63.3966 57.6541C63.3966 58.3928 63.9991 58.9953 64.7378 58.9953H77.4609C78.1996 58.9953 78.802 58.3928 78.802 57.6541C78.802 56.9082 78.1996 56.3058 77.4609 56.3058H64.7378Z" fill="#D80073"/>
<path id="Vector_11" fill-rule="evenodd" clip-rule="evenodd" d="M79.4052 58.2489C79.0753 58.2489 78.8027 57.9835 78.8027 57.6536V51.414C78.8027 50.625 80.0005 50.625 80.0005 51.414V57.6536C80.0005 57.9835 79.7351 58.2489 79.4052 58.2489Z" fill="#D80073"/>
<path id="Vector_12" fill-rule="evenodd" clip-rule="evenodd" d="M38.8396 66.2326C38.5097 66.2326 38.2371 65.9601 38.2371 65.6302V60.1866H37.5558V65.6302C37.5558 66.4191 36.3652 66.4191 36.3652 65.6302V59.5914C36.3652 59.2615 36.6306 58.9961 36.9605 58.9961H38.8396C39.1695 58.9961 39.4348 59.2615 39.4348 59.5914V65.6302C39.4348 65.9601 39.1695 66.2326 38.8396 66.2326Z" fill="#D80073"/>
<path id="Vector_13" fill-rule="evenodd" clip-rule="evenodd" d="M72.0388 66.2326C71.7089 66.2326 71.4435 65.9601 71.4435 65.6302V60.1866H70.7622V65.6302C70.7622 66.4191 69.5645 66.4191 69.5645 65.6302V59.5914C69.5645 59.2615 69.8298 58.9961 70.1597 58.9961H72.0388C72.3687 58.9961 72.6412 59.2615 72.6412 59.5914V65.6302C72.6412 65.9601 72.3687 66.2326 72.0388 66.2326Z" fill="#D80073"/>
<path id="Vector_14" fill-rule="evenodd" clip-rule="evenodd" d="M55.4434 66.2326C55.1135 66.2326 54.841 65.9601 54.841 65.6302V60.1866H54.1596V65.6302C54.1596 66.4191 52.9619 66.4191 52.9619 65.6302V59.5914C52.9619 59.2615 53.2344 58.9961 53.5644 58.9961H55.4434C55.7733 58.9961 56.0387 59.2615 56.0387 59.5914V65.6302C56.0387 65.9601 55.7733 66.2326 55.4434 66.2326Z" fill="#D80073"/>
<path id="Vector_15" fill-rule="evenodd" clip-rule="evenodd" d="M41.3861 66.2329H34.4149C33.626 66.2329 33.626 65.0352 34.4149 65.0352H41.3861C42.175 65.0352 42.175 66.2329 41.3861 66.2329Z" fill="#D80073"/>
<path id="Vector_16" fill-rule="evenodd" clip-rule="evenodd" d="M74.5853 66.2329H67.6141C66.8252 66.2329 66.8252 65.0352 67.6141 65.0352H74.5925C75.3742 65.0352 75.3742 66.2329 74.5853 66.2329Z" fill="#D80073"/>
<path id="Vector_17" fill-rule="evenodd" clip-rule="evenodd" d="M57.9895 66.2329H51.0111C50.2294 66.2329 50.2294 65.0352 51.0111 65.0352H57.9895C58.7712 65.0352 58.7712 66.2329 57.9895 66.2329Z" fill="#D80073"/>
<path id="Vector_18" fill-rule="evenodd" clip-rule="evenodd" d="M40.4969 44.4301H35.2972C34.5155 44.4301 34.5155 43.2324 35.2972 43.2324H40.4969C41.2859 43.2324 41.2859 44.4301 40.4969 44.4301Z" fill="#D80073"/>
<path id="Vector_19" fill-rule="evenodd" clip-rule="evenodd" d="M40.4969 46.8813H35.2972C34.5155 46.8813 34.5155 45.6836 35.2972 45.6836H40.4969C41.2859 45.6836 41.2859 46.8813 40.4969 46.8813Z" fill="#D80073"/>
<path id="Vector_20" fill-rule="evenodd" clip-rule="evenodd" d="M40.4969 49.3273H35.2972C34.5155 49.3273 34.5155 48.1367 35.2972 48.1367H40.4969C41.2859 48.1367 41.2859 49.3273 40.4969 49.3273Z" fill="#D80073"/>
<path id="Vector_21" fill-rule="evenodd" clip-rule="evenodd" d="M73.7025 44.4301H68.5028C67.7139 44.4301 67.7139 43.2324 68.5028 43.2324H73.7025C74.4843 43.2324 74.4843 44.4301 73.7025 44.4301Z" fill="#D80073"/>
<path id="Vector_22" fill-rule="evenodd" clip-rule="evenodd" d="M73.7025 46.8813H68.5028C67.7139 46.8813 67.7139 45.6836 68.5028 45.6836H73.7025C74.4843 45.6836 74.4843 46.8813 73.7025 46.8813Z" fill="#D80073"/>
<path id="Vector_23" fill-rule="evenodd" clip-rule="evenodd" d="M73.7025 49.3273H68.5028C67.7139 49.3273 67.7139 48.1367 68.5028 48.1367H73.7025C74.4843 48.1367 74.4843 49.3273 73.7025 49.3273Z" fill="#D80073"/>
<path id="Vector_24" fill-rule="evenodd" clip-rule="evenodd" d="M57.1 44.4301H51.9003C51.1114 44.4301 51.1114 43.2324 51.9003 43.2324H57.1C57.8889 43.2324 57.8889 44.4301 57.1 44.4301Z" fill="#D80073"/>
<path id="Vector_25" fill-rule="evenodd" clip-rule="evenodd" d="M57.1 46.8813H51.9003C51.1114 46.8813 51.1114 45.6836 51.9003 45.6836H57.1C57.8889 45.6836 57.8889 46.8813 57.1 46.8813Z" fill="#D80073"/>
<path id="Vector_26" fill-rule="evenodd" clip-rule="evenodd" d="M57.1 49.3273H51.9003C51.1114 49.3273 51.1114 48.1367 51.9003 48.1367H57.1C57.8889 48.1367 57.8889 49.3273 57.1 49.3273Z" fill="#D80073"/>
</g>
</g>
<defs>
<filter id="filter0_d_46_3465" x="0" y="0" width="110.352" height="110.352" filterUnits="userSpaceOnUse" color-interpolation-filters="sRGB">
<feFlood flood-opacity="0" result="BackgroundImageFix"/>
<feColorMatrix in="SourceAlpha" type="matrix" values="0 0 0 0 0 0 0 0 0 0 0 0 0 0 0 0 0 0 127 0" result="hardAlpha"/>
<feOffset dy="3"/>
<feGaussianBlur stdDeviation="3"/>
<feColorMatrix type="matrix" values="0 0 0 0 0 0 0 0 0 0 0 0 0 0 0 0 0 0 0.161 0"/>
<feBlend mode="normal" in2="BackgroundImageFix" result="effect1_dropShadow_46_3465"/>
<feBlend mode="normal" in="SourceGraphic" in2="effect1_dropShadow_46_3465" result="shape"/>
</filter>
</defs>
</svg>
