<svg width="48" height="49" viewBox="0 0 48 49" fill="none" xmlns="http://www.w3.org/2000/svg">
<g id="statistics_10635284 1">
<path id="Vector" d="M44.7385 3.66016H3.26156C1.51481 3.66016 0.09375 5.08122 0.09375 6.82787V35.9326C0.09375 37.6793 1.51481 39.1004 3.26156 39.1004H13.9684L11.6734 43.0386C11.4678 43.3916 11.4652 43.8114 11.6665 44.1617C11.8684 44.5129 12.2438 44.7312 12.646 44.7312H35.3542C35.7564 44.7312 36.1318 44.5129 36.3337 44.1617C36.5349 43.8114 36.5324 43.3916 36.3268 43.0386L34.0319 39.1005H44.7386C46.4853 39.1005 47.9063 37.6794 47.9063 35.9327V6.82787C47.9062 5.08122 46.4852 3.66016 44.7385 3.66016ZM3.26156 5.16016H44.7385C45.6581 5.16016 46.4062 5.90828 46.4062 6.82787V33.5521H44.0989V19.5309C44.0989 19.1167 43.7631 18.7809 43.3489 18.7809H40.0328C39.6187 18.7809 39.2828 19.1167 39.2828 19.5309V33.5521H38.3081V24.8775C38.3081 24.4633 37.9723 24.1275 37.5581 24.1275H34.2421C33.8279 24.1275 33.4921 24.4633 33.4921 24.8775V33.5521H32.5174V22.1245C32.5174 21.7103 32.1816 21.3745 31.7674 21.3745H28.4513C28.0372 21.3745 27.7013 21.7103 27.7013 22.1245V33.5521H26.7266V28.5258C26.7266 28.1117 26.3908 27.7758 25.9766 27.7758H22.6606C22.2464 27.7758 21.9106 28.1117 21.9106 28.5258V33.5521H1.59375V6.82787C1.59375 5.90828 2.34188 5.16016 3.26156 5.16016ZM40.7828 33.552V20.2809H42.5989V33.5521L40.7828 33.552ZM34.992 33.552V25.6274H36.808V33.552H34.992ZM29.2012 33.552V22.8745H31.0172V33.5521L29.2012 33.552ZM23.4104 33.552V29.2757H25.2264V33.552H23.4104ZM34.7029 43.2311H13.2972L15.7045 39.1003H32.2957L34.7029 43.2311ZM44.7385 37.6004H3.26156C2.34188 37.6004 1.59375 36.8522 1.59375 35.9326V35.052H46.4062V35.9326C46.4062 36.8522 45.6581 37.6004 44.7385 37.6004ZM35.826 19.9457L40.0311 16.0632L39.4633 16.0365C39.0495 16.017 38.7299 15.6658 38.7494 15.2521C38.7689 14.8383 39.1193 14.5194 39.5338 14.5382L41.9749 14.6532C42.1909 14.6633 42.392 14.7662 42.5266 14.9355C42.6612 15.1047 42.7162 15.3238 42.6775 15.5364L42.2407 17.9408C42.1749 18.3031 41.8593 18.5568 41.5037 18.5568C41.4592 18.5568 41.4142 18.5529 41.3689 18.5447C40.9613 18.4706 40.691 18.0802 40.765 17.6727L40.8186 17.3777L36.4089 21.4491C36.1539 21.6845 35.7708 21.7142 35.4827 21.5211L30.2755 18.0316L24.913 25.0037C24.7654 25.1957 24.5429 25.2964 24.318 25.2964C24.1584 25.2964 23.9976 25.2457 23.8613 25.1409C23.5329 24.8884 23.4715 24.4175 23.7241 24.0892L29.5149 16.5602C29.7557 16.2468 30.1985 16.1743 30.5269 16.3943L35.826 19.9457ZM18.2972 25.1145C18.2972 25.5287 17.9614 25.8645 17.5472 25.8645H5.37319C4.959 25.8645 4.62319 25.5287 4.62319 25.1145C4.62319 24.7003 4.959 24.3645 5.37319 24.3645H17.5472C17.9614 24.3645 18.2972 24.7003 18.2972 25.1145ZM18.2972 28.2062C18.2972 28.6204 17.9614 28.9562 17.5472 28.9562L5.37328 28.9563C4.95909 28.9563 4.62328 28.6205 4.62328 28.2063C4.62328 27.7922 4.95909 27.4563 5.37328 27.4563L17.5472 27.4562C17.9614 27.4562 18.2972 27.7921 18.2972 28.2062ZM18.2972 31.298C18.2972 31.7122 17.9614 32.048 17.5472 32.048H5.37319C4.959 32.048 4.62319 31.7122 4.62319 31.298C4.62319 30.8838 4.959 30.548 5.37319 30.548H17.5472C17.9614 30.548 18.2972 30.8838 18.2972 31.298ZM21.9104 8.242C21.9104 7.82781 22.2462 7.492 22.6604 7.492H33.9739C34.3881 7.492 34.7239 7.82781 34.7239 8.242C34.7239 8.65619 34.3881 8.992 33.9739 8.992H22.6604C22.2462 8.992 21.9104 8.65619 21.9104 8.242ZM21.9104 11.3337C21.9104 10.9195 22.2462 10.5837 22.6604 10.5837H33.9739C34.3881 10.5837 34.7239 10.9195 34.7239 11.3337C34.7239 11.7479 34.3881 12.0837 33.9739 12.0837H22.6604C22.2462 12.0837 21.9104 11.7479 21.9104 11.3337ZM21.9104 14.4255C21.9104 14.0113 22.2462 13.6755 22.6604 13.6755H33.9739C34.3881 13.6755 34.7239 14.0113 34.7239 14.4255C34.7239 14.8397 34.3881 15.1755 33.9739 15.1755H22.6604C22.2462 15.1755 21.9104 14.8397 21.9104 14.4255ZM3.96019 16.4612H4.62844C4.77178 16.9528 4.96772 17.4254 5.21438 17.8749L4.7415 18.3477C4.44863 18.6407 4.44863 19.1154 4.7415 19.4084L6.5115 21.1784C6.80456 21.4712 7.27931 21.4711 7.57219 21.1784L8.04497 20.7055C8.49459 20.9522 8.96719 21.1481 9.45862 21.2915V21.9597C9.45862 22.3739 9.79444 22.7097 10.2086 22.7097H12.7117C13.1258 22.7097 13.4617 22.3739 13.4617 21.9597V21.2914C13.9533 21.148 14.4258 20.9522 14.8753 20.7055L15.348 21.1783C15.641 21.471 16.1158 21.4712 16.4086 21.1783L18.1787 19.4084C18.3194 19.2677 18.3984 19.077 18.3984 18.878C18.3984 18.6792 18.3194 18.4884 18.1788 18.3477L17.7058 17.8748C17.9526 17.4253 18.1484 16.9528 18.2918 16.4612H18.9601C19.3743 16.4612 19.7101 16.1254 19.7101 15.7112V13.2081C19.7101 12.7939 19.3743 12.4581 18.9601 12.4581H18.2917C18.1483 11.9666 17.9525 11.4941 17.7059 11.0447L18.1788 10.5718C18.4717 10.2788 18.4717 9.80406 18.1788 9.51109L16.4088 7.74109C16.1157 7.44822 15.641 7.44841 15.3481 7.74109L14.8752 8.21406C14.4256 7.96741 13.953 7.77147 13.4617 7.62803V6.95969C13.4617 6.5455 13.1258 6.20969 12.7117 6.20969H10.2086C9.79444 6.20969 9.45862 6.5455 9.45862 6.95969V7.62794C8.967 7.77147 8.49441 7.96731 8.04497 8.21387L7.57219 7.741C7.27941 7.44831 6.80456 7.44822 6.5115 7.741L4.7415 9.511C4.44863 9.80397 4.44863 10.2787 4.7415 10.5717L5.21438 11.0445C4.96772 11.4941 4.77178 11.9666 4.62834 12.458H3.96019C3.546 12.458 3.21019 12.7938 3.21019 13.208V15.7112C3.21019 16.1253 3.546 16.4612 3.96019 16.4612ZM4.71019 13.958H5.21606C5.57372 13.958 5.88169 13.7055 5.95162 13.3546C6.09506 12.6347 6.37528 11.9589 6.78422 11.3461C6.98269 11.0486 6.94359 10.6524 6.69075 10.3994L6.33253 10.0412L7.04184 9.33194L7.39997 9.69016C7.65291 9.94291 8.04909 9.98219 8.34675 9.78353C8.95903 9.37487 9.63478 9.09475 10.3553 8.95112C10.7061 8.88119 10.9587 8.57331 10.9587 8.21556V7.70969H11.9618V8.21566C11.9618 8.57331 12.2143 8.88128 12.5652 8.95122C13.285 9.09466 13.9608 9.37478 14.5739 9.78381C14.8712 9.98228 15.2675 9.94309 15.5205 9.69025L15.8786 9.33203L16.5879 10.0413L16.2297 10.3995C15.9769 10.6524 15.9378 11.0487 16.1362 11.3462C16.545 11.9586 16.8251 12.6345 16.9688 13.3547C17.0387 13.7055 17.3466 13.9581 17.7043 13.9581H18.2103V14.9612H17.7044C17.3468 14.9612 17.0388 15.2138 16.9688 15.5646C16.8253 16.2847 16.5451 16.9606 16.1362 17.5733C15.9378 17.8708 15.9769 18.267 16.2297 18.52L16.5879 18.8781L15.8785 19.5873L15.5205 19.2292C15.2676 18.9765 14.8714 18.9372 14.5737 19.1358C13.9613 19.5446 13.2855 19.8247 12.5651 19.9683C12.2144 20.0383 11.9618 20.3462 11.9618 20.7039V21.2098H10.9587V20.7039C10.9587 20.3462 10.7062 20.0383 10.3553 19.9683C9.63525 19.8249 8.9595 19.5447 8.34666 19.1357C8.04909 18.9371 7.65309 18.9764 7.39997 19.2292L7.04184 19.5874L6.33253 18.8781L6.69066 18.5201C6.9435 18.2672 6.98259 17.8709 6.78412 17.5734C6.37537 16.9607 6.09516 16.2849 5.95162 15.5646C5.88169 15.2139 5.57381 14.9612 5.21606 14.9612H4.71019V13.958ZM11.4602 19.1097C14.0243 19.1097 16.1102 17.0237 16.1102 14.4596C16.1102 11.8955 14.0243 9.80959 11.4602 9.80959C8.89612 9.80959 6.81009 11.8955 6.81009 14.4596C6.81009 17.0237 8.89622 19.1097 11.4602 19.1097ZM11.4602 11.3097C13.1971 11.3097 14.6102 12.7227 14.6102 14.4597C14.6102 16.1967 13.1972 17.6098 11.4602 17.6098C9.72319 17.6098 8.31009 16.1967 8.31009 14.4597C8.31009 12.7227 9.72328 11.3097 11.4602 11.3097Z" fill="#D80073"/>
</g>
</svg>
