<svg width="111" height="111" viewBox="0 0 111 111" fill="none" xmlns="http://www.w3.org/2000/svg">
<g filter="url(#filter0_d_0_1)">
<circle cx="55.1759" cy="52.6115" r="49.1759" fill="white"/>
<circle cx="55.1759" cy="52.6115" r="48.8344" stroke="white" stroke-width="0.682999"/>
</g>
<path d="M76.75 44.1855H59.5V38.9355H67.105C67.2875 39.6425 67.7217 40.2587 68.326 40.6685C68.9303 41.0783 69.6634 41.2536 70.3878 41.1616C71.1121 41.0696 71.778 40.7166 72.2607 40.1687C72.7434 39.6208 73.0097 38.9157 73.0097 38.1855C73.0097 37.4554 72.7434 36.7503 72.2607 36.2024C71.778 35.6545 71.1121 35.3015 70.3878 35.2095C69.6634 35.1175 68.9303 35.2928 68.326 35.7026C67.7217 36.1124 67.2875 36.7286 67.105 37.4355H59.5V30.6855C59.5 30.4866 59.421 30.2959 59.2803 30.1552C59.1397 30.0146 58.9489 29.9355 58.75 29.9355H34.75C34.5511 29.9355 34.3603 30.0146 34.2197 30.1552C34.079 30.2959 34 30.4866 34 30.6855V32.9355H33.25C33.0511 32.9355 32.8603 33.0146 32.7197 33.1552C32.579 33.2959 32.5 33.4866 32.5 33.6855V59.1855C32.5 59.3845 32.579 59.5752 32.7197 59.7159C32.8603 59.8565 33.0511 59.9355 33.25 59.9355H36.25V66.0405C35.543 66.2231 34.9269 66.6572 34.517 67.2616C34.1072 67.8659 33.9319 68.5989 34.0239 69.3233C34.1159 70.0477 34.4689 70.7136 35.0168 71.1963C35.5647 71.679 36.2698 71.9453 37 71.9453C37.7302 71.9453 38.4353 71.679 38.9832 71.1963C39.5311 70.7136 39.8841 70.0477 39.9761 69.3233C40.0681 68.5989 39.8928 67.8659 39.483 67.2616C39.0731 66.6572 38.457 66.2231 37.75 66.0405V59.9355H43V74.1855C43 74.3845 43.079 74.5752 43.2197 74.7159C43.3603 74.8565 43.5511 74.9355 43.75 74.9355H76.75C76.9489 74.9355 77.1397 74.8565 77.2803 74.7159C77.421 74.5752 77.5 74.3845 77.5 74.1855V44.9355C77.5 44.7366 77.421 44.5459 77.2803 44.4052C77.1397 44.2646 76.9489 44.1855 76.75 44.1855ZM70 36.6855C70.2967 36.6855 70.5867 36.7735 70.8334 36.9383C71.08 37.1032 71.2723 37.3374 71.3858 37.6115C71.4994 37.8856 71.5291 38.1872 71.4712 38.4782C71.4133 38.7692 71.2704 39.0364 71.0607 39.2462C70.8509 39.456 70.5836 39.5988 70.2926 39.6567C70.0017 39.7146 69.7001 39.6849 69.426 39.5714C69.1519 39.4578 68.9176 39.2656 68.7528 39.0189C68.588 38.7722 68.5 38.4822 68.5 38.1855C68.5012 37.7881 68.6596 37.4072 68.9407 37.1262C69.2217 36.8452 69.6025 36.6867 70 36.6855ZM35.5 31.4355H58V44.1855H56.5V39.708C56.4994 39.528 56.4327 39.3545 56.3125 39.2205L51.04 33.1905C50.9689 33.1096 50.8812 33.0449 50.7828 33.0009C50.6844 32.9569 50.5778 32.9346 50.47 32.9355H35.5V31.4355ZM54.0775 38.9355H51.25V35.7105L54.0775 38.9355ZM38.5 68.9355C38.5 69.2322 38.412 69.5222 38.2472 69.7689C38.0824 70.0156 37.8481 70.2078 37.574 70.3214C37.2999 70.4349 36.9983 70.4646 36.7074 70.4067C36.4164 70.3488 36.1491 70.206 35.9393 69.9962C35.7296 69.7864 35.5867 69.5192 35.5288 69.2282C35.4709 68.9372 35.5006 68.6356 35.6142 68.3615C35.7277 68.0874 35.92 67.8532 36.1666 67.6883C36.4133 67.5235 36.7033 67.4355 37 67.4355C37.3975 67.4367 37.7783 67.5951 38.0593 67.8762C38.3404 68.1572 38.4988 68.5381 38.5 68.9355ZM43 44.9355V58.4355H34V34.4355H49.75V39.6855C49.75 39.8845 49.829 40.0752 49.9697 40.2159C50.1103 40.3565 50.3011 40.4355 50.5 40.4355H55V44.1855H43.75C43.5511 44.1855 43.3603 44.2646 43.2197 44.4052C43.079 44.5459 43 44.7366 43 44.9355ZM76 73.4355H44.5V50.1855H76V73.4355ZM76 48.6855H44.5V45.6855H76V48.6855Z" fill="#D80073"/>
<path d="M46 46.4355H47.5V47.9355H46V46.4355Z" fill="#D80073"/>
<path d="M49 46.4355H50.5V47.9355H49V46.4355Z" fill="#D80073"/>
<path d="M52 46.4355H53.5V47.9355H52V46.4355Z" fill="#D80073"/>
<path d="M57.25 59.1855H52.75V54.6855C52.75 54.4866 52.671 54.2959 52.5303 54.1552C52.3897 54.0146 52.1989 53.9355 52 53.9355C50.8133 53.9355 49.6533 54.2874 48.6666 54.9467C47.6799 55.606 46.9109 56.5431 46.4567 57.6394C46.0026 58.7358 45.8838 59.9422 46.1153 61.1061C46.3468 62.27 46.9182 63.3391 47.7574 64.1782C48.5965 65.0173 49.6656 65.5887 50.8295 65.8203C51.9933 66.0518 53.1997 65.933 54.2961 65.4788C55.3925 65.0247 56.3295 64.2557 56.9888 63.269C57.6481 62.2823 58 61.1222 58 59.9355C58 59.7366 57.921 59.5459 57.7803 59.4052C57.6397 59.2646 57.4489 59.1855 57.25 59.1855ZM52 64.4355C50.871 64.4366 49.7828 64.0132 48.9514 63.2493C48.12 62.4854 47.6061 61.4369 47.5117 60.3118C47.4172 59.1867 47.7492 58.0673 48.4417 57.1755C49.1342 56.2838 50.1366 55.6849 51.25 55.4978V59.9355C51.25 60.1345 51.329 60.3252 51.4697 60.4659C51.6103 60.6065 51.8011 60.6855 52 60.6855H56.4378C56.2591 61.7336 55.7157 62.6847 54.9037 63.3709C54.0916 64.0571 53.0632 64.4342 52 64.4355Z" fill="#D80073"/>
<path d="M54.25 58.4355H59.5C59.6989 58.4355 59.8897 58.3565 60.0303 58.2159C60.171 58.0752 60.25 57.8845 60.25 57.6855C60.2482 56.0948 59.6155 54.5697 58.4907 53.4449C57.3658 52.32 55.8408 51.6873 54.25 51.6855C54.0511 51.6855 53.8603 51.7646 53.7197 51.9052C53.579 52.0459 53.5 52.2366 53.5 52.4355V57.6855C53.5 57.8845 53.579 58.0752 53.7197 58.2159C53.8603 58.3565 54.0511 58.4355 54.25 58.4355ZM55 53.2478C55.9208 53.4052 56.77 53.8445 57.4305 54.505C58.0911 55.1655 58.5303 56.0148 58.6877 56.9355H55V53.2478Z" fill="#D80073"/>
<path d="M73.0001 62.9355C72.6023 62.9355 72.2208 63.0936 71.9395 63.3749C71.6581 63.6562 71.5001 64.0377 71.5001 64.4355C71.5018 64.6037 71.5322 64.7704 71.5901 64.9283L68.7746 68.2133C68.4731 68.1531 68.1603 68.1913 67.8821 68.322L64.7359 66.072C64.7404 66.0255 64.7501 65.9805 64.7501 65.9325C64.752 65.7229 64.7098 65.5151 64.6264 65.3227C64.543 65.1304 64.4202 64.9576 64.2659 64.8156C64.1116 64.6736 63.9292 64.5656 63.7306 64.4984C63.5319 64.4313 63.3214 64.4065 63.1126 64.4257C62.9038 64.445 62.7013 64.5077 62.5183 64.6101C62.3353 64.7124 62.1757 64.8519 62.0499 65.0197C61.9242 65.1875 61.835 65.3798 61.7881 65.5842C61.7412 65.7885 61.7378 66.0005 61.7779 66.2063L58.4929 69.0225C58.3348 68.9657 58.1681 68.9363 58.0001 68.9355C57.6873 68.9323 57.3811 69.026 57.1236 69.2037C56.8661 69.3814 56.6699 69.6344 56.5619 69.9281C56.4539 70.2217 56.4394 70.5416 56.5205 70.8438C56.6015 71.1459 56.774 71.4157 57.0144 71.6159C57.2548 71.8161 57.5513 71.9371 57.8632 71.9621C58.175 71.9871 58.487 71.9151 58.7563 71.7558C59.0255 71.5965 59.2389 71.3578 59.3671 71.0724C59.4953 70.787 59.5321 70.4689 59.4724 70.1618L62.7574 67.3455C62.9153 67.4034 63.0819 67.4339 63.2501 67.4355C63.4635 67.4347 63.6742 67.3881 63.8681 67.299L67.0181 69.549C67.0136 69.5955 67.0039 69.6405 67.0039 69.6885C67.0039 70.0864 67.1619 70.4679 67.4432 70.7492C67.7245 71.0305 68.106 71.1885 68.5039 71.1885C68.9017 71.1885 69.2832 71.0305 69.5645 70.7492C69.8458 70.4679 70.0039 70.0864 70.0039 69.6885C70.0022 69.5204 69.9717 69.3537 69.9139 69.1958L72.7301 65.9108C72.9352 65.9485 73.1459 65.9431 73.3488 65.8948C73.5516 65.8465 73.7422 65.7565 73.9083 65.6304C74.0744 65.5043 74.2124 65.345 74.3135 65.1626C74.4145 64.9802 74.4765 64.7788 74.4953 64.5711C74.5142 64.3634 74.4895 64.1541 74.4229 63.9565C74.3563 63.7589 74.2493 63.5774 74.1086 63.4234C73.9679 63.2695 73.7966 63.1467 73.6058 63.0627C73.4149 62.9786 73.2086 62.9354 73.0001 62.9355Z" fill="#D80073"/>
<path d="M62.5 52.4355H65.5V53.9355H62.5V52.4355Z" fill="#D80073"/>
<path d="M67 52.4355H74.5V53.9355H67V52.4355Z" fill="#D80073"/>
<path d="M46 67.4355H47.5V68.9355H46V67.4355Z" fill="#D80073"/>
<path d="M49 67.4355H54.25V68.9355H49V67.4355Z" fill="#D80073"/>
<path d="M46 70.4355H49V71.9355H46V70.4355Z" fill="#D80073"/>
<path d="M50.5 70.4355H54.25V71.9355H50.5V70.4355Z" fill="#D80073"/>
<path d="M62.5 55.4355H65.5V56.9355H62.5V55.4355Z" fill="#D80073"/>
<path d="M67 55.4355H74.5V56.9355H67V55.4355Z" fill="#D80073"/>
<path d="M70 59.9355V58.4355H64H62.5V59.9355H64H70Z" fill="#D80073"/>
<path d="M71.5 58.4355H74.5V59.9355H71.5V58.4355Z" fill="#D80073"/>
<path d="M35.5 35.9355H38.5V37.4355H35.5V35.9355Z" fill="#D80073"/>
<path d="M40 35.9355H48.25V37.4355H40V35.9355Z" fill="#D80073"/>
<path d="M35.5 38.9355H40V40.4355H35.5V38.9355Z" fill="#D80073"/>
<path d="M41.5 38.9355H48.25V40.4355H41.5V38.9355Z" fill="#D80073"/>
<path d="M35.5 41.9355H37V43.4355H35.5V41.9355Z" fill="#D80073"/>
<path d="M38.5 41.9355H41.5V43.4355H38.5V41.9355Z" fill="#D80073"/>
<defs>
<filter id="filter0_d_0_1" x="0" y="0.435547" width="110.352" height="110.352" filterUnits="userSpaceOnUse" color-interpolation-filters="sRGB">
<feFlood flood-opacity="0" result="BackgroundImageFix"/>
<feColorMatrix in="SourceAlpha" type="matrix" values="0 0 0 0 0 0 0 0 0 0 0 0 0 0 0 0 0 0 127 0" result="hardAlpha"/>
<feOffset dy="3"/>
<feGaussianBlur stdDeviation="3"/>
<feColorMatrix type="matrix" values="0 0 0 0 0 0 0 0 0 0 0 0 0 0 0 0 0 0 0.161 0"/>
<feBlend mode="normal" in2="BackgroundImageFix" result="effect1_dropShadow_0_1"/>
<feBlend mode="normal" in="SourceGraphic" in2="effect1_dropShadow_0_1" result="shape"/>
</filter>
</defs>
</svg>
