<svg width="52" height="53" viewBox="0 0 52 53" fill="none" xmlns="http://www.w3.org/2000/svg">
<g id="online-research 1" clip-path="url(#clip0_46_4005)">
<g id="Group">
<path id="Vector" d="M37.375 22.9453V37.5703C37.375 38.4323 37.0326 39.2589 36.4231 39.8684C35.8136 40.4779 34.987 40.8203 34.125 40.8203H4.875C4.01305 40.8203 3.1864 40.4779 2.5769 39.8684C1.96741 39.2589 1.625 38.4323 1.625 37.5703V18.0703C1.625 17.2084 1.96741 16.3817 2.5769 15.7722C3.1864 15.1627 4.01305 14.8203 4.875 14.8203H26" stroke="#D80073" stroke-width="2" stroke-linejoin="round"/>
<path id="Vector_2" d="M1.625 34.3203H37.375" stroke="#D80073" stroke-width="2" stroke-linejoin="round"/>
<path id="Vector_3" d="M21.9375 40.8203H17.0625V47.3203H21.9375V40.8203Z" stroke="#D80073" stroke-width="2" stroke-linejoin="round"/>
<path id="Vector_4" d="M10.5625 47.3203H28.4375C28.8685 47.3203 29.2818 47.4915 29.5865 47.7963C29.8913 48.101 30.0625 48.5143 30.0625 48.9453V50.5703H8.9375V48.9453C8.9375 48.5143 9.10871 48.101 9.41345 47.7963C9.7182 47.4915 10.1315 47.3203 10.5625 47.3203Z" stroke="#D80073" stroke-width="2" stroke-linejoin="round"/>
<path id="Vector_5" d="M14.625 37.5703H24.375" stroke="#D80073" stroke-width="2" stroke-linejoin="round"/>
<path id="Vector_6" d="M34.125 23.7578C38.6123 23.7578 42.25 20.1201 42.25 15.6328C42.25 11.1455 38.6123 7.50781 34.125 7.50781C29.6377 7.50781 26 11.1455 26 15.6328C26 20.1201 29.6377 23.7578 34.125 23.7578Z" stroke="#D80073" stroke-width="2" stroke-linejoin="round"/>
<path id="Vector_7" d="M34.125 20.5078C36.8174 20.5078 39 18.3252 39 15.6328C39 12.9404 36.8174 10.7578 34.125 10.7578C31.4326 10.7578 29.25 12.9404 29.25 15.6328C29.25 18.3252 31.4326 20.5078 34.125 20.5078Z" stroke="#D80073" stroke-width="2" stroke-linejoin="round"/>
<path id="Vector_8" d="M39.8125 21.3203L43.0625 24.5703" stroke="#D80073" stroke-width="2" stroke-linejoin="round"/>
<path id="Vector_9" d="M50.375 35.1328L41.4375 26.1953L44.6875 22.9453L50.375 28.6328" stroke="#D80073" stroke-width="2" stroke-linejoin="round"/>
<path id="Vector_10" d="M5.6875 26.1953H7.3125L9.75 19.6953L13.8125 29.4453L16.25 24.5703L18.6875 28.6328L21.125 20.5078L23.5625 27.8203L26 22.9453L28.4375 28.6328H33.3125" stroke="#D80073" stroke-width="2" stroke-linejoin="round"/>
<path id="Vector_11" d="M29.25 16.4453H31.6875L33.3125 14.0078L34.9375 17.2578L36.5625 15.6328H39" stroke="#D80073" stroke-width="2" stroke-linejoin="round"/>
<path id="Vector_12" d="M4.0625 6.69531C5.40869 6.69531 6.5 5.60401 6.5 4.25781C6.5 2.91162 5.40869 1.82031 4.0625 1.82031C2.71631 1.82031 1.625 2.91162 1.625 4.25781C1.625 5.60401 2.71631 6.69531 4.0625 6.69531Z" stroke="#D80073" stroke-width="2" stroke-linejoin="round"/>
<path id="Vector_13" d="M21.125 6.69531C22.4712 6.69531 23.5625 5.60401 23.5625 4.25781C23.5625 2.91162 22.4712 1.82031 21.125 1.82031C19.7788 1.82031 18.6875 2.91162 18.6875 4.25781C18.6875 5.60401 19.7788 6.69531 21.125 6.69531Z" stroke="#D80073" stroke-width="2" stroke-linejoin="round"/>
<path id="Vector_14" d="M45.5 6.69531C46.8462 6.69531 47.9375 5.60401 47.9375 4.25781C47.9375 2.91162 46.8462 1.82031 45.5 1.82031C44.1538 1.82031 43.0625 2.91162 43.0625 4.25781C43.0625 5.60401 44.1538 6.69531 45.5 6.69531Z" stroke="#D80073" stroke-width="2" stroke-linejoin="round"/>
<path id="Vector_15" d="M47.9375 16.4453C49.2837 16.4453 50.375 15.354 50.375 14.0078C50.375 12.6616 49.2837 11.5703 47.9375 11.5703C46.5913 11.5703 45.5 12.6616 45.5 14.0078C45.5 15.354 46.5913 16.4453 47.9375 16.4453Z" stroke="#D80073" stroke-width="2" stroke-linejoin="round"/>
<path id="Vector_16" d="M4.0625 6.69531L7.3125 9.94531H13V14.8203V5.88281L18.6875 4.25781" stroke="#D80073" stroke-width="2" stroke-linejoin="round"/>
<path id="Vector_17" d="M43.0625 4.25781H23.5625" stroke="#D80073" stroke-width="2" stroke-linejoin="round"/>
<path id="Vector_18" d="M45.5 6.69531L47.9375 11.5703" stroke="#D80073" stroke-width="2" stroke-linejoin="round"/>
</g>
</g>
<defs>
<clipPath id="clip0_46_4005">
<rect width="52" height="52" fill="white" transform="translate(0 0.195312)"/>
</clipPath>
</defs>
</svg>
