<svg xmlns="http://www.w3.org/2000/svg" width="169" height="177" viewBox="0 0 169 177" fill="none">
  <path d="M99.6592 101.82C106.73 101.82 113.642 99.7236 119.521 95.7954C125.4 91.8671 129.982 86.2837 132.688 79.7513C135.394 73.2188 136.102 66.0307 134.722 59.0958C133.343 52.161 129.938 45.791 124.938 40.7913C119.939 35.7915 113.568 32.3867 106.634 31.0073C99.6988 29.6278 92.5107 30.3358 85.9782 33.0416C79.4458 35.7475 73.8624 40.3296 69.9341 46.2087C66.0059 52.0877 63.9092 58.9996 63.9092 66.0703C63.9201 75.5485 67.6901 84.6353 74.3922 91.3373C81.0942 98.0394 90.181 101.809 99.6592 101.82ZM79.4261 68.2806C79.4294 65.9616 80.1483 63.7 81.4845 61.8046C82.8207 59.9091 84.7092 58.4722 86.8923 57.6897V51.1585C86.8921 48.4789 87.7349 45.8672 89.3015 43.6933C90.868 41.5194 93.0789 39.8935 95.6209 39.0459C98.1628 38.1984 100.907 38.1721 103.465 38.9708C106.022 39.7695 108.264 41.3528 109.872 43.4963C110.419 44.2256 110.654 45.1424 110.525 46.0449C110.396 46.9474 109.914 47.7618 109.184 48.3088C108.823 48.5796 108.412 48.7767 107.975 48.8887C107.538 49.0008 107.083 49.0256 106.636 48.9617C105.733 48.8328 104.919 48.3506 104.372 47.6213C103.63 46.6309 102.596 45.8992 101.415 45.5297C100.235 45.1602 98.9674 45.1718 97.7936 45.5628C96.6199 45.9538 95.599 46.7044 94.8757 47.7081C94.1524 48.7119 93.7634 49.9178 93.7639 51.155V57.0469H108.985C109.129 57.0484 109.272 57.0587 109.415 57.0778C112.256 57.2761 114.916 58.5435 116.859 60.6248C118.803 62.7062 119.885 65.4467 119.889 68.2944V82.5325C119.885 85.5144 118.699 88.3732 116.591 90.4817C114.482 92.5902 111.623 93.7764 108.641 93.78H90.6735C87.6916 93.7764 84.8329 92.5902 82.7244 90.4817C80.6159 88.3732 79.4297 85.5144 79.4261 82.5325V68.2806Z" fill="#D80073"/>
  <path d="M45.25 146.603H154.071V15.3906H45.25V146.603ZM99.6588 23.4447C108.089 23.4447 116.33 25.9446 123.34 30.6283C130.35 35.312 135.813 41.9691 139.039 49.7578C142.265 57.5465 143.109 66.117 141.465 74.3854C139.82 82.6538 135.76 90.2489 129.799 96.2101C123.838 102.171 116.243 106.231 107.974 107.876C99.706 109.52 91.1356 108.676 83.3469 105.45C75.5582 102.224 68.9011 96.7605 64.2174 89.7509C59.5337 82.7412 57.0338 74.5001 57.0338 66.0697C57.0456 54.7685 61.5402 43.9335 69.5314 35.9423C77.5226 27.9511 88.3575 23.4565 99.6588 23.4447ZM56.7381 116.749H142.579C143.491 116.749 144.365 117.111 145.01 117.756C145.655 118.4 146.017 119.275 146.017 120.186C146.017 121.098 145.655 121.972 145.01 122.617C144.365 123.262 143.491 123.624 142.579 123.624H56.7381C55.8264 123.624 54.9521 123.262 54.3074 122.617C53.6628 121.972 53.3006 121.098 53.3006 120.186C53.3006 119.275 53.6628 118.4 54.3074 117.756C54.9521 117.111 55.8264 116.749 56.7381 116.749ZM56.7381 131.674H142.579C143.491 131.674 144.365 132.037 145.01 132.681C145.655 133.326 146.017 134.2 146.017 135.112C146.017 136.024 145.655 136.898 145.01 137.543C144.365 138.187 143.491 138.549 142.579 138.549H56.7381C55.8264 138.549 54.9521 138.187 54.3074 137.543C53.6628 136.898 53.3006 136.024 53.3006 135.112C53.3006 134.2 53.6628 133.326 54.3074 132.681C54.9521 132.037 55.8264 131.674 56.7381 131.674Z" fill="#474746"/>
  <path d="M90.6733 86.8894H108.645C109.804 86.8876 110.915 86.4263 111.734 85.6067C112.554 84.7871 113.015 83.676 113.017 82.5169V68.2787C113.015 67.1196 112.554 66.0085 111.734 65.1889C110.915 64.3693 109.804 63.9081 108.645 63.9062H90.6733C89.5142 63.9081 88.4031 64.3693 87.5835 65.1889C86.7639 66.0085 86.3026 67.1196 86.3008 68.2787V82.5169C86.3026 83.676 86.7639 84.7871 87.5835 85.6067C88.4031 86.4263 89.5142 86.8876 90.6733 86.8894ZM97.7923 71.9603H101.525C102.437 71.9603 103.311 72.3225 103.956 72.9671C104.601 73.6118 104.963 74.4861 104.963 75.3978C104.963 76.3095 104.601 77.1838 103.956 77.8285C103.311 78.4731 102.437 78.8353 101.525 78.8353H97.7923C96.8807 78.8353 96.0063 78.4731 95.3617 77.8285C94.717 77.1838 94.3548 76.3095 94.3548 75.3978C94.3548 74.4861 94.717 73.6118 95.3617 72.9671C96.0063 72.3225 96.8807 71.9603 97.7923 71.9603Z" fill="#D80073"/>
  <path d="M162.125 0.460938H37.1963C35.3729 0.460938 33.6242 1.18527 32.3349 2.47458C31.0456 3.76389 30.3213 5.51257 30.3213 7.33594V169.586C30.3213 171.409 31.0456 173.158 32.3349 174.447C33.6242 175.737 35.3729 176.461 37.1963 176.461H162.125C163.949 176.461 165.697 175.737 166.987 174.447C168.276 173.158 169 171.409 169 169.586V7.33594C169 5.51257 168.276 3.76389 166.987 2.47458C165.697 1.18527 163.949 0.460938 162.125 0.460938ZM112.722 168.407H82.8635C81.9518 168.407 81.0775 168.045 80.4328 167.4C79.7881 166.755 79.426 165.881 79.426 164.969C79.426 164.058 79.7881 163.183 80.4328 162.539C81.0775 161.894 81.9518 161.532 82.8635 161.532H112.722C113.633 161.532 114.508 161.894 115.152 162.539C115.797 163.183 116.159 164.058 116.159 164.969C116.159 165.881 115.797 166.755 115.152 167.4C114.508 168.045 113.633 168.407 112.722 168.407ZM160.946 150.04C160.946 150.952 160.584 151.826 159.939 152.471C159.295 153.116 158.42 153.478 157.509 153.478H41.8129C40.9012 153.478 40.0268 153.116 39.3822 152.471C38.7375 151.826 38.3754 150.952 38.3754 150.04V11.9525C38.3754 11.0408 38.7375 10.1665 39.3822 9.52182C40.0268 8.87716 40.9012 8.515 41.8129 8.515H157.509C158.42 8.515 159.295 8.87716 159.939 9.52182C160.584 10.1665 160.946 11.0408 160.946 11.9525V150.04Z" fill="#474746"/>
  <path d="M4.4882 10.5273C3.42059 10.5292 2.39727 10.9543 1.64267 11.7096C0.888076 12.4648 0.463799 13.4885 0.462891 14.5561L0.462891 29.7773H8.51695V14.5561C8.51514 13.4882 8.0901 12.4645 7.33495 11.7093C6.57981 10.9542 5.55614 10.5292 4.4882 10.5273Z" fill="#D80073"/>
  <path d="M0.462914 145.181C0.456344 151.317 1.83217 157.377 4.48823 162.908C7.14536 157.377 8.52236 151.318 8.51698 145.181V36.6523H0.462914V145.181Z" fill="#D80073"/>
</svg>