<svg width="53" height="53" viewBox="0 0 53 53" fill="none" xmlns="http://www.w3.org/2000/svg">
<g id="process 1" clip-path="url(#clip0_46_3400)">
<path id="Vector" d="M45.4035 43.8941C40.4774 49.7818 33.2858 52.9957 25.9117 52.9957C22.8571 52.9957 19.7725 52.4448 16.8023 51.3042C12.5855 49.6848 8.92707 47.0144 6.12573 43.5292L6.15637 45.4292C6.15812 45.5379 6.13844 45.6459 6.09845 45.747C6.05846 45.8482 5.99894 45.9404 5.92329 46.0186C5.84764 46.0967 5.75734 46.1592 5.65755 46.2024C5.55776 46.2456 5.45044 46.2688 5.3417 46.2705L5.32814 46.2706C5.11085 46.2706 4.90229 46.1851 4.74744 46.0327C4.59258 45.8803 4.50383 45.6731 4.50032 45.4559L4.42714 40.9215C4.42513 40.7958 4.45172 40.6714 4.50491 40.5576C4.5581 40.4438 4.63649 40.3435 4.73414 40.2645C4.8318 40.1854 4.94615 40.1296 5.06856 40.1013C5.19096 40.073 5.31821 40.0729 5.44066 40.101L9.86036 41.1167C10.0719 41.1683 10.2546 41.3011 10.3689 41.4865C10.4832 41.6718 10.52 41.8946 10.4712 42.1068C10.4224 42.319 10.2921 42.5035 10.1083 42.6203C9.92456 42.7371 9.7022 42.7768 9.48936 42.7309L7.18666 42.2016C9.83314 45.6008 13.3382 48.1995 17.396 49.758C26.8757 53.3987 37.6206 50.6151 44.1331 42.8312C44.2741 42.6628 44.4762 42.5572 44.695 42.5377C44.9138 42.5183 45.1313 42.5866 45.2998 42.7275C45.4682 42.8685 45.5738 43.0705 45.5932 43.2893C45.6127 43.5081 45.5444 43.7257 45.4035 43.8941ZM10.9665 9.12125C14.3452 6.38627 18.3482 4.65021 22.6151 4.05789L21.0055 5.78743C20.8598 5.94887 20.7835 6.16112 20.7929 6.37835C20.8024 6.59559 20.8969 6.80038 21.0561 6.94853C21.2153 7.09667 21.4263 7.17628 21.6437 7.17017C21.861 7.16405 22.0673 7.07271 22.2179 6.91585L25.3074 3.59611C25.393 3.50415 25.4566 3.3939 25.4933 3.27373C25.53 3.15355 25.5389 3.0266 25.5192 2.90248C25.4996 2.77837 25.4519 2.66036 25.3799 2.55739C25.3079 2.45442 25.2134 2.36919 25.1036 2.30817L21.14 0.104319C20.9483 0.000169789 20.7232 -0.0240867 20.5136 0.0368223C20.3041 0.0977313 20.1271 0.238883 20.021 0.429596C19.915 0.620309 19.8885 0.84517 19.9473 1.0553C20.0062 1.26543 20.1456 1.44385 20.3352 1.55178L21.996 2.47524C17.5771 3.15865 13.4353 4.99181 9.92423 7.83404C1.4815 14.6687 -1.6866 26.1117 2.041 36.3084C2.11643 36.5146 2.27069 36.6825 2.46986 36.775C2.66903 36.8676 2.89679 36.8772 3.10307 36.8018C3.30934 36.7264 3.47721 36.5722 3.56975 36.373C3.66229 36.1738 3.67192 35.9461 3.59653 35.7398C0.111986 26.2078 3.07367 15.5107 10.9665 9.12125ZM52.3806 36.0547C52.2678 35.8663 52.0847 35.7304 51.8716 35.677C51.6586 35.6236 51.4331 35.657 51.2447 35.7699L49.6145 36.7465C51.2321 32.5779 51.7156 28.0742 51.0096 23.6127C49.312 12.8836 40.9862 4.41844 30.2916 2.54832C30.1844 2.52954 30.0746 2.53205 29.9685 2.55572C29.8623 2.57939 29.7619 2.62374 29.6729 2.68625C29.5839 2.74875 29.5081 2.82819 29.4498 2.92001C29.3915 3.01183 29.3519 3.11424 29.3332 3.22138C29.2954 3.43772 29.345 3.66022 29.4713 3.83994C29.5975 4.01966 29.7899 4.14189 30.0063 4.17973C40.0036 5.92801 47.7867 13.8415 49.3736 23.8715C50.053 28.1649 49.5549 32.4997 47.9344 36.4911L47.2414 34.2324C47.2095 34.1284 47.1575 34.0317 47.0882 33.9478C47.019 33.864 46.9339 33.7946 46.8378 33.7436C46.7417 33.6927 46.6365 33.6611 46.5282 33.6508C46.42 33.6406 46.3107 33.6517 46.2068 33.6837C46.1028 33.7156 46.0061 33.7676 45.9223 33.8369C45.8385 33.9061 45.7691 33.9912 45.7181 34.0873C45.6672 34.1834 45.6356 34.2886 45.6253 34.3968C45.615 34.5051 45.6261 34.6143 45.658 34.7183L46.9883 39.0537C47.0252 39.1739 47.0888 39.284 47.1746 39.3759C47.2603 39.4678 47.3658 39.5389 47.4831 39.584C47.6004 39.629 47.7264 39.6468 47.8516 39.636C47.9768 39.6251 48.0979 39.5859 48.2057 39.5213L52.096 37.1908C52.2844 37.0778 52.4202 36.8947 52.4736 36.6817C52.527 36.4686 52.4935 36.2431 52.3806 36.0547ZM23.2205 19.9943C23.2205 22.6635 21.049 24.835 18.3798 24.835C15.7107 24.835 13.5391 22.6635 13.5391 19.9943C13.5391 17.3252 15.7107 15.1536 18.3798 15.1536C21.049 15.1536 23.2205 17.3252 23.2205 19.9943ZM21.5643 19.9943C21.5643 18.2385 20.1357 16.8099 18.3798 16.8099C16.624 16.8099 15.1954 18.2384 15.1954 19.9943C15.1954 21.7503 16.6239 23.1788 18.3798 23.1788C20.1357 23.1788 21.5643 21.7503 21.5643 19.9943ZM25.1084 11.3455L27.0287 13.2658C27.168 13.4051 27.253 13.5894 27.2687 13.7857C27.2843 13.982 27.2294 14.1775 27.1139 14.337L25.6832 16.3129C25.8658 16.6743 26.0211 17.0488 26.1478 17.4334L28.5561 17.8188C28.7506 17.85 28.9276 17.9494 29.0554 18.0992C29.1832 18.2491 29.2534 18.4396 29.2534 18.6365V21.3522C29.2534 21.5492 29.1832 21.7397 29.0554 21.8895C28.9277 22.0394 28.7507 22.1388 28.5562 22.1699L26.1481 22.5554C26.0213 22.9399 25.866 23.3145 25.6835 23.6759L27.114 25.6518C27.2295 25.8113 27.2844 26.0067 27.2688 26.2031C27.2532 26.3994 27.1681 26.5837 27.0288 26.7229L25.1085 28.6433C24.9693 28.7825 24.7849 28.8676 24.5886 28.8832C24.3922 28.8988 24.1968 28.844 24.0372 28.7285L22.0614 27.2978C21.7001 27.4803 21.3255 27.6356 20.941 27.7624L20.5555 30.1706C20.5244 30.3651 20.4249 30.5421 20.2751 30.6699C20.1252 30.7976 19.9348 30.8678 19.7378 30.8678H17.0222C16.8253 30.8678 16.6348 30.7976 16.4849 30.6699C16.3351 30.5421 16.2356 30.3651 16.2045 30.1706L15.819 27.7626C15.4345 27.6357 15.06 27.4804 14.6986 27.2979L12.7227 28.7285C12.5632 28.8439 12.3677 28.8988 12.1714 28.8832C11.9751 28.8676 11.7908 28.7825 11.6515 28.6433L9.73118 26.7229C9.59193 26.5837 9.50686 26.3994 9.49125 26.2031C9.47564 26.0067 9.5305 25.8113 9.64598 25.6518L11.0766 23.6759C10.8941 23.3144 10.7388 22.9399 10.612 22.5554L8.2038 22.1699C8.00933 22.1388 7.83232 22.0394 7.70453 21.8895C7.57674 21.7397 7.50653 21.5492 7.50652 21.3522V18.6365C7.50653 18.4396 7.57672 18.2491 7.70449 18.0993C7.83226 17.9494 8.00925 17.85 8.2037 17.8188L10.612 17.4334C10.7387 17.0488 10.894 16.6743 11.0766 16.3129L9.64598 14.337C9.5305 14.1775 9.47564 13.982 9.49125 13.7857C9.50686 13.5894 9.59193 13.4051 9.73118 13.2658L11.6515 11.3455C11.7907 11.2062 11.9751 11.1211 12.1714 11.1055C12.3677 11.0899 12.5632 11.1448 12.7227 11.2603L14.6984 12.6908C15.0598 12.5082 15.4344 12.3529 15.819 12.2261L16.2045 9.81802C16.2357 9.62357 16.3351 9.44658 16.4849 9.31881C16.6348 9.19104 16.8253 9.12085 17.0222 9.12084H19.7378C19.9348 9.12085 20.1252 9.19104 20.2751 9.31881C20.4249 9.44658 20.5244 9.62357 20.5555 9.81802L20.941 12.2261C21.3255 12.3529 21.7001 12.5082 22.0615 12.6908L24.0373 11.2602C24.1969 11.1448 24.3923 11.0899 24.5886 11.1056C24.7849 11.1212 24.9692 11.2063 25.1084 11.3455ZM24.0348 15.7655L25.3583 13.9375L24.4366 13.0158L22.6087 14.3393C22.4779 14.434 22.3223 14.4884 22.1609 14.4958C21.9996 14.5031 21.8396 14.4632 21.7007 14.3808C21.1705 14.0661 20.5981 13.8287 20.0008 13.6757C19.8443 13.6357 19.703 13.5509 19.5941 13.4316C19.4853 13.3123 19.4137 13.1638 19.3883 13.0043L19.0317 10.7769H17.7283L17.3717 13.0043C17.3461 13.1638 17.2746 13.3123 17.1657 13.4316C17.0569 13.5508 16.9156 13.6357 16.7592 13.6757C16.1618 13.8286 15.5894 14.066 15.0591 14.3807C14.9202 14.4631 14.7602 14.5031 14.5989 14.4957C14.4376 14.4883 14.2819 14.4339 14.1511 14.3392L12.3233 13.0157L11.4016 13.9374L12.7251 15.7653C12.8198 15.8961 12.8741 16.0517 12.8815 16.2131C12.8889 16.3744 12.8489 16.5343 12.7666 16.6732C12.452 17.2035 12.2146 17.7759 12.0617 18.3732C12.0217 18.5296 11.9369 18.671 11.8176 18.7798C11.6983 18.8886 11.5498 18.9602 11.3903 18.9857L9.16267 19.3423V20.6458L11.3902 21.0023C11.5497 21.0278 11.6982 21.0994 11.8174 21.2082C11.9367 21.317 12.0216 21.4583 12.0616 21.6148C12.2145 22.2121 12.4519 22.7845 12.7666 23.3147C12.8489 23.4536 12.8889 23.6136 12.8815 23.7749C12.8742 23.9363 12.8198 24.0919 12.7251 24.2227L11.4015 26.0507L12.3232 26.9724L14.1511 25.649C14.2819 25.5543 14.4376 25.4999 14.5989 25.4925C14.7602 25.4851 14.9202 25.5251 15.0591 25.6075C15.5894 25.9221 16.1618 26.1595 16.7591 26.3125C16.9155 26.3525 17.0568 26.4374 17.1656 26.5567C17.2745 26.676 17.346 26.8245 17.3716 26.9839L17.7282 29.2113H19.0316L19.3881 26.9837C19.4137 26.8243 19.4853 26.6758 19.5941 26.5565C19.7029 26.4372 19.8442 26.3523 20.0007 26.3123C20.598 26.1593 21.1704 25.922 21.7007 25.6074C21.8396 25.5249 21.9996 25.485 22.1609 25.4923C22.3223 25.4997 22.4779 25.5541 22.6087 25.6489L24.4366 26.9724L25.3583 26.0507L24.0349 24.2228C23.9402 24.092 23.8858 23.9364 23.8784 23.775C23.871 23.6137 23.911 23.4537 23.9934 23.3148C24.308 22.7846 24.5454 22.2122 24.6984 21.6149C24.7384 21.4584 24.8232 21.3171 24.9425 21.2083C25.0618 21.0994 25.2103 21.0279 25.3698 21.0024L27.5972 20.6459V19.3424L25.3697 18.9859C25.2103 18.9604 25.0618 18.8888 24.9425 18.78C24.8232 18.6711 24.7383 18.5298 24.6983 18.3734C24.5454 17.7761 24.3081 17.2036 23.9934 16.6734C23.9109 16.5346 23.8709 16.3746 23.8783 16.2133C23.8857 16.052 23.94 15.8963 24.0348 15.7655ZM40.9714 30.7396L39.7526 32.4229C39.8939 32.7087 40.0161 33.0035 40.1186 33.3054L42.1703 33.6338C42.3647 33.6649 42.5417 33.7643 42.6695 33.9142C42.7973 34.064 42.8675 34.2545 42.8675 34.4514V36.8336C42.8675 37.0306 42.7973 37.221 42.6695 37.3709C42.5417 37.5207 42.3647 37.6202 42.1703 37.6513L40.1187 37.9796C40.0163 38.2816 39.8941 38.5765 39.7527 38.8622L40.9715 40.5456C41.0869 40.7051 41.1418 40.9006 41.1262 41.0969C41.1106 41.2932 41.0255 41.4775 40.8863 41.6168L39.2017 43.3015C39.0624 43.4407 38.8781 43.5258 38.6818 43.5414C38.4854 43.557 38.29 43.5022 38.1305 43.3867L36.4471 42.1679C36.1613 42.3092 35.8665 42.4314 35.5646 42.5338L35.2362 44.5856C35.2051 44.7801 35.1057 44.9571 34.9558 45.0848C34.8059 45.2126 34.6154 45.2828 34.4185 45.2828H32.0363C31.8394 45.2828 31.6489 45.2126 31.499 45.0848C31.3492 44.957 31.2498 44.7801 31.2186 44.5856L30.8903 42.534C30.5883 42.4316 30.2935 42.3093 30.0077 42.168L28.3243 43.3868C28.1648 43.5023 27.9694 43.5571 27.7731 43.5415C27.5767 43.5259 27.3924 43.4408 27.2532 43.3016L25.5687 41.6171C25.4294 41.4778 25.3443 41.2935 25.3287 41.0972C25.3131 40.9009 25.368 40.7054 25.4835 40.5459L26.7022 38.8624C26.561 38.5767 26.4387 38.2819 26.3363 37.9801L24.2845 37.6516C24.0901 37.6205 23.9131 37.5211 23.7853 37.3712C23.6576 37.2213 23.5874 37.0309 23.5874 36.8339V34.4517C23.5874 34.2548 23.6576 34.0643 23.7853 33.9145C23.9131 33.7646 24.0901 33.6652 24.2845 33.6341L26.3362 33.3056C26.4386 33.0037 26.5609 32.7089 26.7021 32.4231L25.4834 30.7398C25.3679 30.5803 25.313 30.3848 25.3286 30.1885C25.3442 29.9922 25.4293 29.8078 25.5685 29.6686L27.2531 27.9841C27.3923 27.8448 27.5766 27.7597 27.7729 27.7441C27.9693 27.7285 28.1647 27.7834 28.3242 27.8989L30.0075 29.1176C30.2933 28.9763 30.5882 28.854 30.8901 28.7515L31.2184 26.7C31.2496 26.5055 31.349 26.3285 31.4988 26.2008C31.6487 26.073 31.8392 26.0028 32.0361 26.0028H34.4183C34.6152 26.0028 34.8057 26.073 34.9556 26.2008C35.1054 26.3285 35.2048 26.5055 35.236 26.7L35.5643 28.7515C35.8663 28.8539 36.1611 28.9762 36.4469 29.1176L38.1302 27.8988C38.2897 27.7833 38.4851 27.7284 38.6815 27.7441C38.8778 27.7597 39.0621 27.8447 39.2013 27.984L40.8859 29.6685C41.0252 29.8076 41.1104 29.9919 41.1261 30.1883C41.1418 30.3846 41.0869 30.5801 40.9714 30.7396ZM39.3428 34.8586C39.1833 34.833 39.0349 34.7614 38.9156 34.6526C38.7963 34.5438 38.7115 34.4026 38.6715 34.2462C38.5397 33.7315 38.3352 33.2383 38.064 32.7815C37.9816 32.6426 37.9417 32.4826 37.9491 32.3213C37.9564 32.16 38.0108 32.0043 38.1055 31.8735L39.2157 30.3402L38.5298 29.6543L36.9966 30.7644C36.8657 30.8591 36.7101 30.9135 36.5488 30.9209C36.3874 30.9283 36.2274 30.8883 36.0885 30.8059C35.6317 30.5348 35.1386 30.3302 34.624 30.1985C34.4676 30.1585 34.3262 30.0736 34.2174 29.9543C34.1086 29.835 34.037 29.6865 34.0115 29.5271L33.7124 27.6588H32.7423L32.4432 29.5271C32.4177 29.6865 32.3461 29.835 32.2373 29.9543C32.1284 30.0736 31.9871 30.1585 31.8306 30.1985C31.316 30.3302 30.8229 30.5347 30.3661 30.8058C30.2272 30.8882 30.0672 30.9282 29.9059 30.9208C29.7445 30.9134 29.5889 30.859 29.458 30.7643L27.9249 29.6542L27.239 30.3401L28.3491 31.8734C28.4438 32.0042 28.4982 32.1598 28.5055 32.3211C28.5129 32.4824 28.473 32.6424 28.3906 32.7813C28.1195 33.2381 27.915 33.7313 27.7834 34.2459C27.7434 34.4024 27.6585 34.5437 27.5392 34.6525C27.4199 34.7613 27.2714 34.8329 27.112 34.8584L25.2435 35.1576V36.1277L27.1119 36.4267C27.2713 36.4522 27.4197 36.5238 27.539 36.6326C27.6583 36.7414 27.7431 36.8827 27.7832 37.0391C27.915 37.5538 28.1195 38.047 28.3906 38.5039C28.4729 38.6428 28.5129 38.8027 28.5055 38.964C28.4981 39.1253 28.4438 39.281 28.3491 39.4118L27.2389 40.9451L27.9248 41.631L29.458 40.5209C29.5889 40.4261 29.7445 40.3718 29.9059 40.3644C30.0672 40.357 30.2272 40.397 30.3661 40.4793C30.8229 40.7505 31.316 40.955 31.8306 41.0867C31.9871 41.1267 32.1284 41.2115 32.2373 41.3308C32.3461 41.4501 32.4177 41.5986 32.4432 41.7581L32.7423 43.6264H33.7123L34.0115 41.758C34.037 41.5985 34.1086 41.4501 34.2174 41.3308C34.3263 41.2115 34.4676 41.1266 34.624 41.0866C35.1386 40.9549 35.6317 40.7504 36.0884 40.4792C36.2273 40.3968 36.3873 40.3568 36.5487 40.3642C36.71 40.3716 36.8657 40.426 36.9965 40.5208L38.5297 41.631L39.2156 40.9451L38.1055 39.4118C38.0108 39.281 37.9564 39.1253 37.9491 38.964C37.9417 38.8026 37.9816 38.6427 38.064 38.5037C38.3352 38.047 38.5397 37.5539 38.6715 37.0393C38.7115 36.8829 38.7963 36.7416 38.9156 36.6327C39.0349 36.5239 39.1834 36.4523 39.3429 36.4268L41.2111 36.1278V35.1577L39.3428 34.8586ZM37.5753 35.6426C37.5753 38.0401 35.6248 39.9905 33.2274 39.9905C30.8299 39.9905 28.8794 38.04 28.8794 35.6426C28.8794 33.2452 30.8299 31.2946 33.2274 31.2946C35.6248 31.2946 37.5753 33.2452 37.5753 35.6426ZM35.9191 35.6426C35.9191 34.1584 34.7116 32.9509 33.2274 32.9509C31.7431 32.9509 30.5356 34.1584 30.5356 35.6426C30.5356 37.1268 31.7431 38.3343 33.2274 38.3343C34.7116 38.3343 35.9191 37.1269 35.9191 35.6426Z" fill="#D80073"/>
</g>
<defs>
<clipPath id="clip0_46_3400">
<rect width="53" height="53" fill="white"/>
</clipPath>
</defs>
</svg>
