<svg width="48" height="43" viewBox="0 0 48 43" fill="none" xmlns="http://www.w3.org/2000/svg">
<path d="M29.2881 26.5625H31.2264V29.1253H29.2881V26.5625Z" fill="#D80073"/>
<path d="M29.2881 30.7773H31.2264V33.3402H29.2881V30.7773Z" fill="#D80073"/>
<path d="M29.2881 34.9922H31.2264V37.555H29.2881V34.9922Z" fill="#D80073"/>
<path d="M34.7393 24.875H36.6776V38.2023H34.7393V24.875Z" fill="#D80073"/>
<path d="M39.0107 27.9121H40.949V36.0228H39.0107V27.9121Z" fill="#D80073"/>
<path d="M7.16211 33.7715H26.185V35.7098H7.16211V33.7715Z" fill="#D80073"/>
<path d="M11.8486 37.2324H21.0383V39.1707H11.8486V37.2324Z" fill="#D80073"/>
<path d="M10.4126 30.777L11.6798 30.0394L13.0059 30.6652L12.6959 29.232L13.7008 28.1643L12.2421 28.0162L11.5371 26.7305L10.9454 28.0721L9.50488 28.3453L10.598 29.3226L10.4126 30.777Z" fill="#D80073"/>
<path d="M15.2544 30.777L16.5217 30.0394L17.8476 30.6652L17.5377 29.232L18.5426 28.1643L17.0838 28.0162L16.3789 26.7305L15.7872 28.0721L14.3467 28.3453L15.4398 29.3226L15.2544 30.777Z" fill="#D80073"/>
<path d="M20.0962 30.777L21.3634 30.0394L22.6895 30.6652L22.3795 29.232L23.3844 28.1643L21.9256 28.0162L21.2207 26.7305L20.629 28.0721L19.1885 28.3453L20.2816 29.3226L20.0962 30.777Z" fill="#D80073"/>
<path d="M26.9395 10.2871L28.7485 9.59101L29.6687 11.9825L27.8597 12.6786L26.9395 10.2871Z" fill="#D80073"/>
<path d="M28.4766 14.2031L30.2863 13.5095L31.2037 15.903L29.394 16.5966L28.4766 14.2031Z" fill="#D80073"/>
<path d="M29.9668 18.1406L31.7759 17.4445L32.6961 19.836L30.887 20.5321L29.9668 18.1406Z" fill="#D80073"/>
<path d="M47.7351 16.4549L45.5773 10.8464L44.6725 11.1947C43.8037 11.5279 42.8308 11.0944 42.4976 10.2275C42.1645 9.36057 42.5979 8.38388 43.4649 8.05074L44.3696 7.70246L42.2137 2.09593C41.9298 1.35583 41.3752 0.772845 40.6521 0.451067C39.9291 0.131181 39.1227 0.110363 38.3883 0.39428L1.89661 14.422C0.374782 15.0087 -0.388016 16.7236 0.19686 18.2474L1.94228 22.7843C1.63918 23.2485 1.45937 23.8005 1.45937 24.3952V30.403H2.42849C3.35786 30.403 4.1131 31.1583 4.1131 32.0877C4.1131 33.017 3.35786 33.7723 2.42849 33.7723H1.45937V39.782C1.45937 41.4136 2.78624 42.7405 4.41785 42.7405H43.5141C45.1457 42.7405 46.4725 41.4136 46.4725 39.782V33.7723H45.5034C44.5741 33.7723 43.8188 33.017 43.8188 32.0877C43.8188 31.1583 44.5741 30.403 45.5034 30.403H46.4725V24.3952C46.4725 22.7636 45.1457 21.4368 43.5141 21.4368H43.0269L46.0334 20.2802C46.7716 19.9963 47.3565 19.4436 47.6764 18.7206C47.9982 17.9975 48.019 17.1931 47.7351 16.4549ZM43.5141 23.375C44.0762 23.375 44.5343 23.8331 44.5343 24.3952V28.5973C43.0049 29.0213 41.8806 30.4258 41.8806 32.0877C41.8806 33.7496 43.0049 35.154 44.5343 35.578V39.782C44.5343 40.3442 44.0762 40.8022 43.5141 40.8022H31.2259V39.2085H29.2876V40.8022H4.41786C3.85569 40.8022 3.39763 40.3442 3.39763 39.782V35.578C4.92703 35.154 6.05136 33.7496 6.05136 32.0877C6.05136 30.4258 4.92703 29.0213 3.39763 28.5973V24.3952C3.39763 23.8331 3.85569 23.375 4.41786 23.375H29.2876V25.1221H31.2259V23.375H43.5141ZM45.9047 17.9332C45.7949 18.183 45.5943 18.3723 45.3388 18.4707L37.6263 21.4368H23.4342L27.338 19.9358L26.6415 18.1262L18.1938 21.3743L18.2178 21.4368H4.41786C4.11619 21.4368 3.83073 21.4955 3.55627 21.5797L2.0064 17.5527C1.80387 17.0265 2.06887 16.4341 2.59318 16.2315L25.8071 7.30794L26.4333 8.93848L28.2428 8.24193L27.6169 6.61221L39.0849 2.20382C39.3404 2.10161 39.6168 2.11297 39.8666 2.22275C40.1146 2.33442 40.3057 2.53506 40.4042 2.79059L41.9127 6.71251C40.637 7.65703 40.0919 9.37192 40.6881 10.924C41.2862 12.4761 42.8364 13.3828 44.4169 13.2295L45.9255 17.1495C46.024 17.4051 46.0164 17.6833 45.9047 17.9332Z" fill="#D80073"/>
<path d="M31.4189 6.74023L33.228 6.04413L38.0124 18.4781L36.2033 19.1742L31.4189 6.74023Z" fill="#D80073"/>
<path d="M36.4961 8.04102L38.3052 7.34492L41.2164 14.9108L39.4073 15.6069L36.4961 8.04102Z" fill="#D80073"/>
<path d="M12.9764 17.3725L11.5618 17.7577L10.4424 16.8105L10.3715 18.2751L9.125 19.047L10.4959 19.567L10.8449 20.9911L11.763 19.8479L13.2252 19.9561L12.4217 18.7296L12.9764 17.3725Z" fill="#D80073"/>
<path d="M17.4961 15.636L16.0814 16.0212L14.9621 15.0742L14.8912 16.5388L13.6445 17.3107L15.0155 17.8305L15.3645 19.2547L16.2827 18.1115L17.7449 18.2197L16.9414 16.9933L17.4961 15.636Z" fill="#D80073"/>
<path d="M22.0146 13.8978L20.5999 14.2831L19.4805 13.3359L19.4097 14.8005L18.1631 15.5724L19.5341 16.0924L19.8831 17.5165L20.8011 16.3732L22.2634 16.4815L21.4599 15.255L22.0146 13.8978Z" fill="#D80073"/>
</svg>
