<svg width="54" height="55" viewBox="0 0 54 55" fill="none" xmlns="http://www.w3.org/2000/svg">
<g id="vision 1" clip-path="url(#clip0_46_3391)">
<g id="Group">
<path id="Vector" d="M50.7962 15.6491H49.1223V11.0858C49.1253 10.4161 48.9953 9.75249 48.7401 9.13336C48.4848 8.51422 48.1092 7.95188 47.6351 7.47888C47.161 7.00589 46.5978 6.63164 45.9781 6.37781C45.3584 6.12397 44.6944 5.9956 44.0248 6.00012H7.39488C6.72547 5.99569 6.06185 6.12417 5.44246 6.37811C4.82307 6.63204 4.26024 7.00638 3.78658 7.47942C3.31292 7.95247 2.93786 8.51482 2.68312 9.13388C2.42839 9.75294 2.29905 10.4164 2.30261 11.0858V37.1401H0.879815C0.766112 37.1367 0.652871 37.156 0.546737 37.197C0.440604 37.2379 0.343717 37.2996 0.261763 37.3785C0.179809 37.4574 0.114438 37.5519 0.0694874 37.6564C0.024537 37.7609 0.000912334 37.8733 0 37.9871V41.2649C0.00213087 41.9369 0.137015 42.6019 0.396904 43.2217C0.656794 43.8415 1.03657 44.4038 1.51441 44.8764C1.99226 45.3489 2.55876 45.7224 3.18138 45.9754C3.80399 46.2284 4.47046 46.3559 5.14249 46.3506H27.5737C27.6987 47.2614 28.1491 48.0962 28.8416 48.7008C29.5342 49.3054 30.4221 49.639 31.3415 49.64H51.5565C51.9646 49.6442 52.3694 49.5666 52.747 49.4117C53.1245 49.2568 53.4673 49.0279 53.7549 48.7384C54.0303 48.4554 54.2471 48.1209 54.393 47.754C54.5389 47.3871 54.611 46.995 54.6051 46.6002V19.4114C54.6023 18.9142 54.5014 18.4224 54.3084 17.9642C54.1154 17.506 53.834 17.0904 53.4803 16.741C53.1266 16.3916 52.7074 16.1153 52.2469 15.928C51.7863 15.7406 51.2934 15.6459 50.7962 15.6491ZM4.05698 11.0858C4.05316 10.6467 4.13694 10.2113 4.30342 9.80494C4.46989 9.39861 4.71572 9.02956 5.02653 8.71937C5.33733 8.40917 5.70687 8.16407 6.11353 7.9984C6.52018 7.83272 6.95579 7.7498 7.39488 7.75448H44.0248C44.4641 7.74971 44.9 7.83253 45.307 7.9981C45.714 8.16368 46.0839 8.40869 46.3952 8.71883C46.7064 9.02897 46.9527 9.39802 47.1198 9.80442C47.2868 10.2108 47.3711 10.6464 47.3679 11.0858V15.6491H44.9557V11.3313C44.9551 11.2184 44.9318 11.1068 44.8871 11.0031C44.8424 10.8994 44.7773 10.8057 44.6957 10.7277C44.614 10.6497 44.5175 10.589 44.4118 10.5491C44.3062 10.5093 44.1936 10.4911 44.0808 10.4957H7.33874C7.2262 10.4912 7.11391 10.5095 7.00861 10.5494C6.90332 10.5894 6.80718 10.6502 6.72597 10.7283C6.64476 10.8063 6.58016 10.9 6.53604 11.0036C6.49193 11.1072 6.4692 11.2187 6.46923 11.3313V37.1401H4.05698V11.0858ZM27.5216 44.5962H5.14249C3.27584 44.5962 1.75437 43.1317 1.75437 41.2649V38.8945H19.0717L19.6762 39.5455C20.1583 40.0664 20.743 40.4821 21.3934 40.7663C22.0438 41.0505 22.746 41.1972 23.4558 41.1971H27.5216V44.5962ZM27.5216 19.414V39.4427H23.4558C22.9875 39.4403 22.5247 39.3412 22.0964 39.1517C21.6682 38.9622 21.2836 38.6863 20.9668 38.3414L20.1015 37.4128C20.0188 37.325 19.9187 37.2554 19.8075 37.2085C19.6964 37.1615 19.5767 37.1382 19.456 37.1401H8.2236V12.2501H43.2013V15.6491H31.3388C29.2484 15.6491 27.5216 17.3211 27.5216 19.414ZM52.8503 46.6125C52.8503 46.6214 52.8486 46.6168 52.8489 46.6257C52.8537 46.7906 52.8246 46.9548 52.7634 47.1081C52.7023 47.2614 52.6103 47.4005 52.4933 47.5169C52.3705 47.639 52.2241 47.7346 52.063 47.7981C51.9019 47.8615 51.7295 47.8913 51.5565 47.8856H31.344C30.2146 47.8856 29.276 47.0157 29.276 45.8901V19.4165C29.2793 19.1487 29.3353 18.8841 29.4409 18.6379C29.5465 18.3917 29.6996 18.1688 29.8914 17.9818C30.0832 17.7948 30.31 17.6475 30.5589 17.5483C30.8077 17.4491 31.0736 17.3999 31.3415 17.4035H50.7936C51.0608 17.3998 51.3262 17.4489 51.5744 17.548C51.8226 17.6472 52.0487 17.7944 52.2399 17.9812C52.431 18.168 52.5833 18.3908 52.6881 18.6367C52.7929 18.8826 52.848 19.1467 52.8503 19.414V46.6125Z" fill="#D80073"/>
<path id="Vector_2" d="M50.7673 18.3906H31.3596C31.127 18.3906 30.9038 18.483 30.7393 18.6475C30.5748 18.812 30.4824 19.0352 30.4824 19.2678V43.5C30.4824 43.7327 30.5748 43.9558 30.7393 44.1203C30.9038 44.2848 31.127 44.3772 31.3596 44.3772H50.7673C50.9999 44.3772 51.2231 44.2848 51.3876 44.1203C51.5521 43.9558 51.6445 43.7327 51.6445 43.5V19.2678C51.6445 19.0352 51.5521 18.812 51.3876 18.6475C51.2231 18.483 50.9999 18.3906 50.7673 18.3906ZM49.8901 42.6228H32.2368V20.145H49.8901V42.6228Z" fill="#D80073"/>
<path id="Vector_3" d="M41.9878 45.2539H40.1506C39.918 45.2539 39.6949 45.3463 39.5304 45.5108C39.3659 45.6753 39.2734 45.8984 39.2734 46.1311C39.2734 46.3637 39.3659 46.5868 39.5304 46.7514C39.6949 46.9159 39.918 47.0083 40.1506 47.0083H41.9878C42.2204 47.0083 42.4435 46.9159 42.608 46.7514C42.7725 46.5868 42.865 46.3637 42.865 46.1311C42.865 45.8984 42.7725 45.6753 42.608 45.5108C42.4435 45.3463 42.2204 45.2539 41.9878 45.2539Z" fill="#D80073"/>
</g>
</g>
<defs>
<clipPath id="clip0_46_3391">
<rect width="54" height="55" fill="white"/>
</clipPath>
</defs>
</svg>
