<svg width="111" height="111" viewBox="0 0 111 111" fill="none" xmlns="http://www.w3.org/2000/svg">
<g filter="url(#filter0_d_0_1)">
<circle cx="55.1759" cy="52.6115" r="49.1759" fill="white"/>
<circle cx="55.1759" cy="52.6115" r="48.8344" stroke="white" stroke-width="0.682999"/>
</g>
<path d="M73.7812 52.2315V50.8253H74.4844C75.2303 50.8253 75.9457 50.529 76.4731 50.0015C77.0006 49.4741 77.2969 48.7587 77.2969 48.0128V36.7628C77.2969 36.0169 77.0006 35.3015 76.4731 34.7741C75.9457 34.2466 75.2303 33.9503 74.4844 33.9503H65.2383C62.4726 32.2095 59.2908 31.2418 56.0241 31.1481C52.7575 31.0544 49.5254 31.8381 46.6645 33.4176C43.8035 34.997 41.4183 37.3145 39.757 40.1287C38.0958 42.943 37.2193 46.1511 37.2188 49.419V52.2315C37.2188 52.418 37.2928 52.5969 37.4247 52.7287C37.5566 52.8606 37.7354 52.9347 37.9219 52.9347V54.4675C37.627 54.5725 37.3592 54.7418 37.1378 54.9631C36.9165 55.1844 36.7472 55.4523 36.6422 55.7472H35.8125C35.2531 55.7472 34.7165 55.9694 34.3209 56.365C33.9254 56.7606 33.7031 57.2971 33.7031 57.8565V66.294C33.7031 66.8535 33.9254 67.39 34.3209 67.7856C34.7165 68.1812 35.2531 68.4034 35.8125 68.4034H36.6422C36.7873 68.8137 37.0557 69.1691 37.4107 69.4209C37.7656 69.6726 38.1898 69.8084 38.625 69.8097H42.8438C43.0302 69.8097 43.2091 69.7356 43.3409 69.6037C43.4728 69.4719 43.5469 69.293 43.5469 69.1065V68.6917L46.1555 66.0901C46.2206 66.0244 46.2722 65.9465 46.3072 65.8608C46.3422 65.7752 46.3599 65.6834 46.3594 65.5909V58.5597C46.3599 58.4671 46.3422 58.3754 46.3072 58.2897C46.2722 58.2041 46.2206 58.1261 46.1555 58.0604L43.5469 55.4589V55.044C43.5469 54.8576 43.4728 54.6787 43.3409 54.5469C43.2091 54.415 43.0302 54.3409 42.8438 54.3409H42.1406V52.9347C42.3271 52.9347 42.5059 52.8606 42.6378 52.7287C42.7697 52.5969 42.8438 52.418 42.8438 52.2315V49.419C42.8477 46.1868 44.0882 43.0786 46.3108 40.7318C48.5334 38.385 51.5696 36.9775 54.7969 36.7979V48.0128C54.7969 48.7587 55.0932 49.4741 55.6206 50.0015C56.1481 50.529 56.8635 50.8253 57.6094 50.8253H60.4219V53.6378C60.4226 53.7766 60.4643 53.9121 60.5419 54.0272C60.6195 54.1423 60.7294 54.2319 60.8578 54.2847C60.9413 54.324 61.0328 54.3433 61.125 54.3409C61.2175 54.3414 61.3093 54.3237 61.3949 54.2887C61.4806 54.2537 61.5585 54.2022 61.6242 54.137L64.9289 50.8253H68.1562V52.2315C68.1562 52.418 68.2303 52.5969 68.3622 52.7287C68.4941 52.8606 68.6729 52.9347 68.8594 52.9347V54.3409H68.1562C67.9698 54.3409 67.7909 54.415 67.6591 54.5469C67.5272 54.6787 67.4531 54.8576 67.4531 55.044V55.4589L64.8445 58.0604C64.7794 58.1261 64.7278 58.2041 64.6928 58.2897C64.6578 58.3754 64.6401 58.4671 64.6406 58.5597V65.5909C64.6401 65.6834 64.6578 65.7752 64.6928 65.8608C64.7278 65.9465 64.7794 66.0244 64.8445 66.0901L67.4531 68.6917V69.1065C67.4531 69.293 67.5272 69.4719 67.6591 69.6037C67.7909 69.7356 67.9698 69.8097 68.1562 69.8097H72.375C72.8102 69.8084 73.2344 69.6726 73.5893 69.4209C73.9443 69.1691 74.2127 68.8137 74.3578 68.4034H75.1875V69.1065C75.1875 69.666 74.9653 70.2025 74.5697 70.5981C74.1741 70.9937 73.6376 71.2159 73.0781 71.2159H59.6203C59.4648 70.6137 59.1141 70.08 58.623 69.6983C58.1319 69.3167 57.5282 69.1086 56.9062 69.1065H54.0938C53.3478 69.1065 52.6325 69.4029 52.105 69.9303C51.5776 70.4577 51.2812 71.1731 51.2812 71.919C51.2812 72.665 51.5776 73.3803 52.105 73.9078C52.6325 74.4352 53.3478 74.7315 54.0938 74.7315H56.9062C57.5282 74.7295 58.1319 74.5214 58.623 74.1397C59.1141 73.7581 59.4648 73.2244 59.6203 72.6222H73.0781C74.0105 72.6222 74.9047 72.2518 75.564 71.5925C76.2234 70.9332 76.5938 70.0389 76.5938 69.1065V67.855C76.8135 67.6584 76.9897 67.4179 77.1108 67.149C77.2319 66.8802 77.2953 66.5889 77.2969 66.294V57.8565C77.2969 57.2971 77.0746 56.7606 76.6791 56.365C76.2835 55.9694 75.7469 55.7472 75.1875 55.7472H74.3578C74.2528 55.4523 74.0835 55.1844 73.8622 54.9631C73.6408 54.7418 73.373 54.5725 73.0781 54.4675V52.9347C73.2646 52.9347 73.4434 52.8606 73.5753 52.7287C73.7072 52.5969 73.7812 52.418 73.7812 52.2315ZM56.9062 73.3253H54.0938C53.7208 73.3253 53.3631 73.1771 53.0994 72.9134C52.8357 72.6497 52.6875 72.292 52.6875 71.919C52.6875 71.5461 52.8357 71.1884 53.0994 70.9247C53.3631 70.6609 53.7208 70.5128 54.0938 70.5128H56.9062C57.2792 70.5128 57.6369 70.6609 57.9006 70.9247C58.1643 71.1884 58.3125 71.5461 58.3125 71.919C58.3125 72.292 58.1643 72.6497 57.9006 72.9134C57.6369 73.1771 57.2792 73.3253 56.9062 73.3253ZM35.1094 66.294V57.8565C35.1094 57.6701 35.1835 57.4912 35.3153 57.3594C35.4472 57.2275 35.626 57.1534 35.8125 57.1534H36.5156V66.9972H35.8125C35.626 66.9972 35.4472 66.9231 35.3153 66.7912C35.1835 66.6594 35.1094 66.4805 35.1094 66.294ZM42.1406 68.4034H38.625C38.4385 68.4034 38.2597 68.3293 38.1278 68.1975C37.996 68.0656 37.9219 67.8868 37.9219 67.7003V56.4503C37.9219 56.2638 37.996 56.085 38.1278 55.9531C38.2597 55.8212 38.4385 55.7472 38.625 55.7472H42.1406V68.4034ZM44.9531 58.8479V65.3026L43.5469 66.7089V57.4417L44.9531 58.8479ZM40.7344 54.3409H39.3281V52.9347H40.7344V54.3409ZM55.1766 35.3565C51.5033 35.441 48.009 36.9599 45.4413 39.588C42.8736 42.2161 41.4365 45.7448 41.4375 49.419V51.5284H38.625V49.419C38.6256 46.6187 39.3231 43.8625 40.6546 41.3989C41.9861 38.9353 43.9098 36.8418 46.2523 35.3072C48.5947 33.7726 51.2822 32.845 54.0726 32.6081C56.8629 32.3712 59.6683 32.8325 62.2359 33.9503H57.6094C57.1162 33.9508 56.6318 34.081 56.2048 34.3278C55.7778 34.5746 55.4232 34.9294 55.1766 35.3565ZM64.6406 49.419C64.5481 49.4185 64.4564 49.4362 64.3707 49.4712C64.285 49.5062 64.2071 49.5578 64.1414 49.6229L61.8281 51.9433V50.1222C61.8281 49.9357 61.754 49.7568 61.6222 49.625C61.4903 49.4931 61.3115 49.419 61.125 49.419H57.6094C57.2364 49.419 56.8787 49.2709 56.615 49.0072C56.3513 48.7434 56.2031 48.3857 56.2031 48.0128V36.7628C56.2031 36.3898 56.3513 36.0321 56.615 35.7684C56.8787 35.5047 57.2364 35.3565 57.6094 35.3565H74.4844C74.8573 35.3565 75.215 35.5047 75.4787 35.7684C75.7425 36.0321 75.8906 36.3898 75.8906 36.7628V48.0128C75.8906 48.3857 75.7425 48.7434 75.4787 49.0072C75.215 49.2709 74.8573 49.419 74.4844 49.419H64.6406ZM72.375 50.8253V51.5284H69.5625V50.8253H72.375ZM66.0469 65.3026V58.8479L67.4531 57.4417V66.7089L66.0469 65.3026ZM73.0781 67.7003C73.0781 67.8868 73.004 68.0656 72.8722 68.1975C72.7403 68.3293 72.5615 68.4034 72.375 68.4034H68.8594V55.7472H72.375C72.5615 55.7472 72.7403 55.8212 72.8722 55.9531C73.004 56.085 73.0781 56.2638 73.0781 56.4503V67.7003ZM75.8906 57.8565V66.294C75.8906 66.4805 75.8165 66.6594 75.6847 66.7912C75.5528 66.9231 75.374 66.9972 75.1875 66.9972H74.4844V57.1534H75.1875C75.374 57.1534 75.5528 57.2275 75.6847 57.3594C75.8165 57.4912 75.8906 57.6701 75.8906 57.8565ZM71.6719 54.3409H70.2656V52.9347H71.6719V54.3409Z" fill="#D80073"/>
<path d="M59.0156 38.1699H57.6094V45.9043C57.6094 46.0908 57.6835 46.2696 57.8153 46.4015C57.9472 46.5333 58.126 46.6074 58.3125 46.6074H61.8281V45.2012H59.0156V38.1699Z" fill="#D80073"/>
<path d="M62.5312 38.1699H63.9375V46.6074H62.5312V38.1699Z" fill="#D80073"/>
<path d="M68.1562 43.584L67.4531 44.6387L66.75 43.584V38.1699H65.3438V43.7949C65.3448 43.9328 65.3864 44.0672 65.4633 44.1816L66.8695 46.291C66.9338 46.3867 67.0207 46.4651 67.1225 46.5194C67.2243 46.5736 67.3378 46.602 67.4531 46.602C67.5684 46.602 67.682 46.5736 67.7838 46.5194C67.8855 46.4651 67.9724 46.3867 68.0367 46.291L69.443 44.1816C69.5199 44.0672 69.5614 43.9328 69.5625 43.7949V38.1699H68.1562V43.584Z" fill="#D80073"/>
<path d="M74.4844 45.2012H72.375V43.0918H74.4844V41.6855H72.375V39.5762H74.4844V38.1699H71.6719C71.4854 38.1699 71.3066 38.244 71.1747 38.3759C71.0428 38.5077 70.9688 38.6866 70.9688 38.873V45.9043C70.9688 46.0908 71.0428 46.2696 71.1747 46.4015C71.3066 46.5333 71.4854 46.6074 71.6719 46.6074H74.4844V45.2012Z" fill="#D80073"/>
<path d="M57.6094 52.9355H59.0156V54.3418H57.6094V52.9355Z" fill="#D80073"/>
<path d="M54.7969 52.9355H56.2031V54.3418H54.7969V52.9355Z" fill="#D80073"/>
<path d="M51.9844 52.9355H53.3906V54.3418H51.9844V52.9355Z" fill="#D80073"/>
<defs>
<filter id="filter0_d_0_1" x="0" y="0.435547" width="110.352" height="110.352" filterUnits="userSpaceOnUse" color-interpolation-filters="sRGB">
<feFlood flood-opacity="0" result="BackgroundImageFix"/>
<feColorMatrix in="SourceAlpha" type="matrix" values="0 0 0 0 0 0 0 0 0 0 0 0 0 0 0 0 0 0 127 0" result="hardAlpha"/>
<feOffset dy="3"/>
<feGaussianBlur stdDeviation="3"/>
<feColorMatrix type="matrix" values="0 0 0 0 0 0 0 0 0 0 0 0 0 0 0 0 0 0 0.161 0"/>
<feBlend mode="normal" in2="BackgroundImageFix" result="effect1_dropShadow_0_1"/>
<feBlend mode="normal" in="SourceGraphic" in2="effect1_dropShadow_0_1" result="shape"/>
</filter>
</defs>
</svg>
