<svg width="111" height="112" viewBox="0 0 111 112" fill="none" xmlns="http://www.w3.org/2000/svg">
<g filter="url(#filter0_d_0_1)">
<circle cx="55.1759" cy="52.9376" r="49.1759" fill="white"/>
<circle cx="55.1759" cy="52.9376" r="48.8344" stroke="white" stroke-width="0.682999"/>
</g>
<path d="M76.482 54.9901C76.4106 55.0468 76.4676 48.3371 76.4506 48.3328C76.4455 47.7923 76.2994 47.2625 76.0265 46.7959C75.7537 46.3293 75.3637 45.9421 74.8951 45.6727C74.4266 45.4032 73.8957 45.2609 73.3552 45.2598C72.8147 45.2586 72.2833 45.3988 71.8136 45.6663L61.4362 52.9467H56.8837C55.5654 52.9553 54.2978 53.4564 53.3299 54.3515C52.3619 55.2466 51.7634 56.4711 51.6518 57.7848C51.5402 59.0985 51.9236 60.4064 52.7267 61.452C53.5298 62.4975 54.6947 63.2052 55.9927 63.4361L55.9926 74.7101C56.0015 75.5234 56.3309 76.3003 56.9092 76.8723C57.4875 77.4442 58.268 77.765 59.0813 77.7649C59.8946 77.7649 60.6752 77.4441 61.2534 76.8722C61.8317 76.3002 62.161 75.5233 62.17 74.71V64.0025L71.8623 70.5135C72.3328 70.7699 72.8616 70.9002 73.3973 70.8915C73.933 70.8829 74.4573 70.7358 74.9193 70.4644C75.3812 70.193 75.7651 69.8066 76.0334 69.3429C76.3017 68.8792 76.4454 68.3539 76.4505 67.8181L76.4506 61.1666C80.5439 61.1145 80.5753 55.0953 76.482 54.9901ZM56.8838 61.7349C56.4233 61.7356 55.9672 61.6455 55.5415 61.4698C55.1159 61.2941 54.7291 61.0362 54.4032 60.7109C54.0773 60.3855 53.8188 59.9991 53.6424 59.5737C53.466 59.1484 53.3752 58.6924 53.3752 58.2319C53.3752 57.7714 53.466 57.3155 53.6424 56.8901C53.8188 56.4647 54.0774 56.0783 54.4032 55.753C54.7291 55.4276 55.1159 55.1697 55.5416 54.994C55.9672 54.8183 56.4233 54.7282 56.8838 54.729H58.2249V61.7349H56.8838ZM60.3875 74.7102C60.3866 75.056 60.2486 75.3874 60.0037 75.6317C59.7588 75.8759 59.4271 76.0131 59.0812 76.0131C58.7354 76.0131 58.4036 75.8759 58.1587 75.6317C57.9138 75.3874 57.7758 75.056 57.7749 74.7102V63.5173H60.3875V74.7102ZM74.6683 67.8183C74.6667 68.0375 74.6102 68.2529 74.5039 68.4447C74.3976 68.6365 74.245 68.7986 74.0599 68.9163C73.8749 69.0339 73.6633 69.1033 73.4445 69.1181C73.2257 69.1329 73.0067 69.0926 72.8075 69.0009L62.216 61.8863C61.8815 61.6145 60.4091 61.7753 60.0072 61.7348V54.729C60.428 54.6802 61.8993 54.8652 62.2308 54.5671L72.7884 47.16C72.9876 47.0642 73.2078 47.0203 73.4286 47.0324C73.6493 47.0445 73.8634 47.1122 74.051 47.2292C74.2386 47.3462 74.3935 47.5087 74.5014 47.7017C74.6093 47.8946 74.6667 48.1117 74.6683 48.3328V67.8183ZM77.4044 59.0048C77.2802 59.1304 77.1313 59.2289 76.9672 59.2942C76.803 59.3595 76.6271 59.3902 76.4506 59.3842V56.7725H76.4819C76.7395 56.775 76.9906 56.8532 77.2039 56.9974C77.4173 57.1416 77.5835 57.3454 77.6819 57.5834C77.7802 57.8214 77.8064 58.0831 77.757 58.3358C77.7077 58.5886 77.5851 58.8212 77.4044 59.0048Z" fill="#D80073"/>
<path d="M55.0528 41.4793C57.0051 41.4766 58.9153 42.0463 60.5472 43.118C62.1791 44.1896 63.461 45.7161 64.2344 47.5087C64.3309 47.7212 64.5068 47.8873 64.7244 47.9714C64.942 48.0555 65.1839 48.0509 65.3982 47.9586C65.6124 47.8663 65.7819 47.6936 65.8702 47.4776C65.9585 47.2617 65.9586 47.0198 65.8705 46.8038C60.6743 35.17 43.4456 38.7226 43.2716 51.4783C43.2638 53.4904 43.7741 55.4706 44.7535 57.2282C45.7328 58.9859 47.1481 60.4619 48.8631 61.514C49.0642 61.6377 49.3061 61.6766 49.5358 61.6222C49.7655 61.5677 49.9641 61.4243 50.0882 61.2234C50.2122 61.0226 50.2515 60.7808 50.1974 60.551C50.1433 60.3212 50.0002 60.1223 49.7996 59.9979C41.2935 54.7206 45.0329 41.5199 55.0528 41.4793Z" fill="#D80073"/>
<path d="M53.3153 73.2855L52.3179 73.2681V69.9966C52.3185 69.5922 52.1822 69.1995 51.9313 68.8824C51.6804 68.5653 51.3295 68.3424 50.9359 68.2499C49.2393 67.8331 47.6165 67.1589 46.124 66.2509C45.7798 66.0375 45.3737 65.9466 44.9713 65.9929C44.569 66.0392 44.1941 66.2199 43.9073 66.5059L41.5593 68.8331L37.7091 64.9498L40.0162 62.6339C40.3076 62.3487 40.4927 61.9724 40.5408 61.5675C40.5889 61.1625 40.4971 60.7534 40.2808 60.4077C39.3741 58.9206 38.7005 57.3034 38.2834 55.6124C38.1919 55.2174 37.9693 54.8649 37.6517 54.6127C37.3342 54.3604 36.9405 54.2232 36.535 54.2234L33.2462 54.2051L33.2636 48.7423H36.535C36.9394 48.7428 37.332 48.6065 37.6492 48.3556C37.9663 48.1047 38.1892 47.7539 38.2817 47.3602C38.6984 45.6639 39.3726 44.0414 40.2808 42.5493C40.4938 42.2051 40.5846 41.7991 40.5385 41.397C40.4923 40.9949 40.312 40.6201 40.0267 40.333L37.7083 37.9832L41.5819 34.1344L43.9073 36.4502C44.1943 36.7358 44.5691 36.9163 44.9713 36.9628C45.3734 37.0092 45.7795 36.9188 46.124 36.7061C47.6149 35.7988 49.2359 35.1251 50.9306 34.7083C51.3241 34.6171 51.6753 34.3955 51.9271 34.0796C52.1789 33.7638 52.3166 33.3721 52.3179 32.9681L52.3266 29.671L57.7981 29.6889V32.9681C57.7991 33.3711 57.936 33.762 58.1866 34.0775C58.4372 34.3931 58.787 34.6149 59.1793 34.707C60.8728 35.1249 62.4926 35.799 63.9825 36.7061C64.3258 36.9217 64.7323 37.0139 65.135 36.9677C65.5378 36.9214 65.9127 36.7393 66.1982 36.4515L68.5498 34.1339L72.4078 38.0063L70.0815 40.3322C69.7963 40.6183 69.6158 40.9921 69.5689 41.3933C69.522 41.7946 69.6115 42.1999 69.823 42.5441C70.2082 43.1796 70.5951 44.2949 71.5384 43.8173C72.4872 43.2674 71.7392 42.2836 71.3416 41.5924L73.6688 39.2661C74.002 38.9264 74.1885 38.4696 74.1882 37.9938C74.1878 37.518 74.0007 37.0614 73.667 36.7222L69.8092 32.8724C69.4715 32.5362 69.0144 32.3473 68.5378 32.3472C68.0613 32.347 67.6041 32.5355 67.2661 32.8715L64.9102 35.1839C63.2567 34.1787 61.4594 33.4315 59.5806 32.9681V29.6889C59.58 29.2117 59.3903 28.7541 59.0528 28.4167C58.7154 28.0792 58.258 27.8893 57.7807 27.8887H52.3266C51.8505 27.8904 51.3945 28.0809 51.0588 28.4184C50.723 28.7559 50.5348 29.2128 50.5355 29.6889L50.5094 32.9764C48.6274 33.4413 46.8263 34.1871 45.1666 35.1887L42.8421 32.8733C42.5 32.5451 42.0443 32.3618 41.5703 32.3617C41.0962 32.3616 40.6404 32.5447 40.2983 32.8728L36.4472 36.7235C36.2781 36.8919 36.1444 37.0925 36.0538 37.3133C35.9633 37.5341 35.9177 37.7707 35.9198 38.0094C35.92 38.2433 35.9667 38.4748 36.0573 38.6905C36.1478 38.9062 36.2804 39.1017 36.4472 39.2656L38.7596 41.6215C37.753 43.2786 37.003 45.0784 36.5351 46.9599H33.2637C32.7864 46.9605 32.329 47.1504 31.9916 47.4879C31.6542 47.8254 31.4644 48.2829 31.4639 48.7601V54.2051C31.4643 54.6824 31.654 55.14 31.9914 55.4776C32.3289 55.8151 32.7864 56.0051 33.2637 56.0057L36.5516 56.0318C37.0167 57.9108 37.7629 59.7088 38.7648 61.365L36.4481 63.6905C36.2807 63.8571 36.1479 64.0552 36.0572 64.2732C35.9666 64.4913 35.9199 64.7252 35.9198 64.9613C35.9197 65.1975 35.9662 65.4314 36.0567 65.6495C36.1472 65.8677 36.2799 66.0658 36.4472 66.2326L40.3061 70.1002C40.6472 70.4278 41.1023 70.6101 41.5753 70.6086C42.0482 70.6072 42.5021 70.422 42.8412 70.0923L45.1963 67.773C46.854 68.7787 48.654 69.5283 50.5356 69.9966V73.2681C50.535 73.7441 50.7232 74.2009 51.0589 74.5383C51.3947 74.8757 51.8506 75.0661 52.3266 75.0678H53.3153C53.5487 75.0634 53.7711 74.9676 53.9346 74.8009C54.0981 74.6343 54.1897 74.4101 54.1897 74.1767C54.1897 73.9432 54.0981 73.719 53.9346 73.5524C53.7711 73.3857 53.5487 73.2899 53.3153 73.2855Z" fill="#D80073"/>
<defs>
<filter id="filter0_d_0_1" x="0" y="0.761719" width="110.352" height="110.352" filterUnits="userSpaceOnUse" color-interpolation-filters="sRGB">
<feFlood flood-opacity="0" result="BackgroundImageFix"/>
<feColorMatrix in="SourceAlpha" type="matrix" values="0 0 0 0 0 0 0 0 0 0 0 0 0 0 0 0 0 0 127 0" result="hardAlpha"/>
<feOffset dy="3"/>
<feGaussianBlur stdDeviation="3"/>
<feColorMatrix type="matrix" values="0 0 0 0 0 0 0 0 0 0 0 0 0 0 0 0 0 0 0.161 0"/>
<feBlend mode="normal" in2="BackgroundImageFix" result="effect1_dropShadow_0_1"/>
<feBlend mode="normal" in="SourceGraphic" in2="effect1_dropShadow_0_1" result="shape"/>
</filter>
</defs>
</svg>
