<svg width="63" height="63" viewBox="0 0 63 63" fill="none" xmlns="http://www.w3.org/2000/svg">
<g id="mobile 1">
<path id="Vector" d="M8.81445 3.9375C8.55338 3.9375 8.303 4.04121 8.11839 4.22582C7.93379 4.41042 7.83008 4.6608 7.83008 4.92188V58.0781C7.83008 58.3392 7.93379 58.5896 8.11839 58.7742C8.303 58.9588 8.55338 59.0625 8.81445 59.0625H38.3457C38.6068 59.0625 38.8572 58.9588 39.0418 58.7742C39.2264 58.5896 39.3301 58.3392 39.3301 58.0781V48.2797L39.3793 49.264L40.3637 49.2148L41.7713 49.1459L41.8698 49.1262L42.3935 49.0475L43.366 48.8998L43.0707 46.9507L42.0981 47.1122L41.6355 47.1811L40.2633 47.25L39.3301 47.2953V45.2734C39.3458 45.2734 39.3576 45.2812 39.3754 45.2812H42.2163C42.4773 45.2812 42.7277 45.1775 42.9123 44.9929C43.0969 44.8083 43.2006 44.5579 43.2006 44.2969V42.9384C43.6298 42.8006 44.0433 42.6274 44.4469 42.4246L45.3899 43.3735C45.4814 43.4658 45.5903 43.539 45.7102 43.589C45.8302 43.639 45.9588 43.6647 46.0888 43.6647C46.2187 43.6647 46.3474 43.639 46.4674 43.589C46.5873 43.539 46.6962 43.4658 46.7877 43.3735L49.2959 40.8437C49.4792 40.6593 49.5821 40.4098 49.5821 40.1497C49.5821 39.8896 49.4792 39.6402 49.2959 39.4557L48.347 38.4989C48.5515 38.0894 48.7246 37.6649 48.8647 37.2291H50.2035C50.4646 37.2291 50.7149 37.1254 50.8995 36.9407C51.0842 36.7561 51.1879 36.5058 51.1879 36.2447V32.6655C51.1879 32.4044 51.0842 32.154 50.8995 31.9694C50.7149 31.7848 50.4646 31.6811 50.2035 31.6811H48.8647C48.7246 31.2453 48.5515 30.8208 48.347 30.4113L49.2959 29.4545C49.4792 29.27 49.5821 29.0205 49.5821 28.7605C49.5821 28.5004 49.4792 28.2509 49.2959 28.0665L46.7897 25.5367C46.6981 25.4441 46.5891 25.3706 46.469 25.3205C46.3489 25.2703 46.22 25.2445 46.0898 25.2445C45.9596 25.2445 45.8307 25.2703 45.7106 25.3205C45.5904 25.3706 45.4814 25.4441 45.3899 25.5367L44.4449 26.4895C44.0439 26.2851 43.6279 26.1113 43.2006 25.9698V24.6094C43.2006 24.3483 43.0969 24.0979 42.9123 23.9133C42.7277 23.7287 42.4773 23.625 42.2163 23.625H39.3301V21.611L40.2633 21.6523L41.6355 21.7212L42.1237 21.8L43.0983 21.9476L43.3975 19.9986L42.421 19.8529L41.8698 19.7682L41.7713 19.7485L40.3637 19.6796L39.3301 19.6343V4.92188C39.3301 4.6608 39.2264 4.41042 39.0418 4.22582C38.8572 4.04121 38.6068 3.9375 38.3457 3.9375H8.81445ZM48.8391 5.86688C48.6541 5.86688 48.7624 6.237 48.7013 6.39056L48.5576 7.81791V7.82184C49.0675 7.88878 49.5873 7.88878 50.0873 7.99903C50.4693 8.10338 50.8414 8.22741 51.176 8.44397L51.8946 8.83181L52.8377 7.10128C52.1998 6.78038 51.6072 6.35316 50.9024 6.18778C50.2448 5.93184 49.5282 5.96334 48.8391 5.86688ZM9.79883 5.90625H37.3613V11.8125H9.79883V5.90625ZM46.1223 6.69769L45.3663 7.32769C44.9174 7.6545 44.5925 8.10928 44.2579 8.54438C43.9822 9.02869 43.7243 9.52481 43.4546 10.0131L45.1812 10.9502C45.4608 10.4737 45.6872 9.95991 46.0002 9.50513C46.247 9.1716 46.5431 8.87753 46.8783 8.63297L47.3764 8.21756L46.1223 6.69769ZM19.6445 7.875V9.84375H27.5195V7.875H19.6445ZM54.5387 9.25509L52.6625 9.83981C52.8121 10.393 53.0621 10.9226 53.0739 11.5054C53.133 11.8972 53.0601 12.2968 53.005 12.6866C52.9043 13.0952 52.7438 13.4866 52.5286 13.8482C52.3593 14.051 52.3652 14.2026 52.6388 14.2734L54.1036 15.0688C54.3733 14.5668 54.6844 14.0805 54.8084 13.5155C55.025 12.9524 55.0368 12.3401 55.0821 11.7475C55.0191 11.1805 55.0072 10.5998 54.7926 10.0623L54.5387 9.25509ZM45.1989 12.2003C44.5729 12.3972 43.9448 12.5902 43.3188 12.7851V12.789C43.5294 13.4032 43.6416 14.0588 44 14.6121C44.3012 15.2696 44.8386 15.7697 45.2757 16.3347C45.3978 16.5454 45.4529 16.4351 45.7226 16.2422L46.9334 15.2421C46.579 14.7893 46.1715 14.3758 45.8526 13.8974C45.6433 13.5663 45.4878 13.2042 45.3919 12.8244L45.1989 12.2003ZM9.79883 13.7812H37.3613V47.25H9.79883V13.7812ZM51.5915 15.1653C51.2784 15.2598 50.9654 15.3602 50.6543 15.4547C50.2566 15.5886 49.859 15.7146 49.4337 15.7185C49.0025 15.7815 48.5694 15.6693 48.1383 15.6457L47.9394 17.6026C48.5379 17.6479 49.1384 17.7837 49.7389 17.6735C50.4043 17.6538 51.0225 17.3939 51.6525 17.2108C51.7962 17.1222 52.1525 17.1458 52.1565 16.9844L51.5915 15.1653ZM20.6722 17.7188C17.4238 17.7188 14.766 20.3766 14.766 23.625C14.7695 24.6499 15.0394 25.6562 15.5492 26.5453C16.059 27.4344 16.7911 28.1757 17.6738 28.6965V30.5885H16.274C14.8054 30.5885 13.7344 31.9134 13.7344 33.3605V33.5219C13.7343 33.5733 13.7382 33.6247 13.7462 33.6755C13.7962 35.3583 14.2732 37.0008 15.1325 38.4486C15.9917 39.8964 17.205 41.102 18.6582 41.9521C21.7039 43.724 25.4701 43.724 28.5157 41.9521C30.0126 41.0778 31.2545 39.8269 32.118 38.3237C32.9815 36.8206 33.4364 35.1176 33.4376 33.3841V31.5807C33.4376 30.1317 32.3686 28.8127 30.8999 28.8127H23.5801V28.7516C24.4878 28.2377 25.2434 27.4927 25.77 26.5923C26.2966 25.6919 26.5756 24.6681 26.5785 23.625C26.5785 20.3766 23.9207 17.7188 20.6722 17.7188ZM20.6722 19.6875C22.8575 19.6875 24.6097 21.4397 24.6097 23.625C24.6097 24.5858 24.1786 25.4107 23.5801 26.1096V24.4361L23.5761 24.4164C23.5742 24.2294 23.5486 24.0502 23.5092 23.8829C23.4954 23.8179 23.4718 23.7569 23.4521 23.6939C23.2961 23.2038 23.0104 22.765 22.6252 22.4241C22.2709 22.113 21.7826 22.0382 21.318 21.922L21.2786 21.9063C21.278 21.9063 21.2793 21.9063 21.2786 21.9063C21.2571 21.8876 21.2328 21.8699 21.2097 21.8531C21.2064 21.8505 21.2032 21.8479 21.1999 21.8452C21.1506 21.8075 21.0978 21.7746 21.0424 21.7468C21.0384 21.7461 21.0345 21.7455 21.0305 21.7448C21.0048 21.7332 20.9785 21.7227 20.9518 21.7133C20.9472 21.712 20.9426 21.7107 20.938 21.7094C20.8752 21.6892 20.8106 21.6753 20.7451 21.6681C20.706 21.6618 20.6665 21.6578 20.627 21.6562C19.111 21.6562 17.6738 22.7843 17.6738 24.4282V26.021C17.1226 25.3358 16.7367 24.5405 16.7347 23.625C16.7347 21.4397 18.4869 19.6875 20.6722 19.6875ZM45.5769 20.6128L44.7245 22.3906L45.6084 22.8178L46.4117 23.2057L47.2543 23.7136L48.093 24.2255L49.1167 22.5402L48.2741 22.0283L47.3921 21.4948L47.3075 21.4495L46.4668 21.044L45.5769 20.6128ZM20.6191 23.6289C20.6204 23.6289 20.6217 23.6289 20.623 23.6289C20.6243 23.6289 20.6256 23.6289 20.627 23.6289C21.0758 23.6289 21.6113 24.0975 21.6113 24.4322V29.7931C21.6113 30.0542 21.715 30.3045 21.8996 30.4892C22.0843 30.6738 22.3346 30.7775 22.5957 30.7775H30.8999C31.1519 30.7775 31.4708 31.0452 31.4708 31.5768V33.3802C31.4699 34.7698 31.105 36.135 30.4125 37.3398C29.7199 38.5446 28.7239 39.547 27.5235 40.2472C26.3283 40.9442 24.9695 41.3114 23.586 41.3114C22.2024 41.3114 20.8437 40.9442 19.6485 40.2472C18.4713 39.5586 17.4908 38.5789 16.8013 37.4022C16.1118 36.2256 15.7363 34.8914 15.711 33.5278C15.7098 33.4616 15.7018 33.3956 15.6874 33.3309L15.707 33.4018V33.3585C15.707 32.8289 16.024 32.5552 16.276 32.5552H18.6582C18.9193 32.5552 19.1697 32.4515 19.3543 32.2669C19.5389 32.0823 19.6426 31.8319 19.6426 31.5709V24.4243L19.6485 24.4086C19.6603 24.1093 20.0855 23.7333 20.495 23.6565C20.5344 23.6486 20.5817 23.6289 20.621 23.6289H20.6191ZM50.7921 24.0522L49.3353 25.3792L49.9968 26.1056L50.1995 26.332L50.2192 26.3517L50.9142 27.2888L51.0619 27.5271L51.5737 28.3697L53.257 27.3459L52.7451 26.5053L52.5837 26.2395L52.5305 26.1607L51.7371 25.0976L51.6761 25.0287L51.4536 24.7826L50.7921 24.0522ZM39.3301 25.5878C39.3458 25.5859 39.3576 25.5938 39.3754 25.5938H41.2319V26.6096C41.2317 26.8329 41.3074 27.0496 41.4465 27.2241C41.5857 27.3987 41.7801 27.5208 41.9977 27.5704C42.7655 27.7476 43.496 28.0527 44.1634 28.474C44.3523 28.5928 44.576 28.6439 44.7978 28.6189C45.0196 28.5938 45.2263 28.4942 45.384 28.3362L46.0888 27.6275L47.211 28.7615L46.5042 29.4781C46.3486 29.6351 46.2504 29.84 46.2254 30.0596C46.2004 30.2792 46.2501 30.5009 46.3664 30.6889C46.7838 31.3622 47.085 32.1044 47.2582 32.8801C47.3073 33.0975 47.4286 33.2918 47.6024 33.4313C47.7762 33.5708 47.9922 33.6471 48.215 33.6479H49.2191V35.2623H48.219C47.9967 35.2629 47.7811 35.3387 47.6074 35.4774C47.4336 35.6161 47.312 35.8095 47.2622 36.0262C47.0866 36.8016 46.7825 37.5423 46.3625 38.2174C46.2461 38.4054 46.1965 38.627 46.2215 38.8467C46.2465 39.0663 46.3447 39.2711 46.5003 39.4282L47.211 40.1487L46.0888 41.2827L45.3899 40.5779C45.2325 40.4189 45.0257 40.3182 44.8035 40.2924C44.5812 40.2666 44.3569 40.3173 44.1673 40.4362C43.4979 40.8555 42.7655 41.1626 41.9977 41.3359C41.7801 41.3854 41.5857 41.5075 41.4465 41.6821C41.3074 41.8567 41.2317 42.0734 41.2319 42.2966V43.3125H39.3754C39.3576 43.3125 39.3458 43.3204 39.3301 43.3204V38.3906C41.4918 38.3906 43.2676 36.6168 43.2676 34.4531C43.2676 32.2895 41.4918 30.5156 39.3301 30.5156V25.5878ZM54.2414 29.3816L52.3337 29.8777L52.5798 30.8306L52.8495 31.88L52.9676 32.6576L53.1172 33.6302L55.0643 33.3349L54.9147 32.3623L54.7867 31.5315L54.7671 31.4272L54.4875 30.3345L54.2414 29.3816ZM39.3301 32.4844C40.4286 32.4844 41.2988 33.3546 41.2988 34.4531C41.2988 35.5517 40.4286 36.4219 39.3301 36.4219V32.4844ZM53.1153 35.3036L52.9637 36.2801L52.8495 37.0283L52.5739 38.1052L52.3297 39.06L54.2335 39.5522L54.4796 38.5973L54.7671 37.4752L54.7867 37.3767L54.9108 36.5754L55.0604 35.6029L53.1153 35.3036ZM51.558 40.5641L51.05 41.4048L50.9181 41.6213L50.2192 42.5585L50.2035 42.5782L49.9771 42.8243L49.3156 43.5547L50.7725 44.8777L51.434 44.1492L51.6761 43.8815L51.7371 43.8126L52.5305 42.7494L52.5837 42.6707L52.7294 42.4285L53.2413 41.5859L51.558 40.5641ZM48.0694 44.6985L47.2267 45.2104L46.4117 45.7026L45.5848 46.1042L44.6989 46.5314L45.5513 48.3072L46.4373 47.88L47.3075 47.4607L47.3921 47.4114L48.2505 46.8877L49.0931 46.3759L48.0694 44.6965V44.6985ZM9.79686 49.2188H37.3594V57.0938H9.79686V49.2188ZM23.5781 51.1875C22.5032 51.1875 21.6094 52.0813 21.6094 53.1562C21.6094 54.2312 22.5032 55.125 23.5781 55.125C24.655 55.125 25.5469 54.2312 25.5469 53.1562C25.5469 52.0813 24.655 51.1875 23.5781 51.1875Z" fill="#D80073"/>
</g>
</svg>
