<svg width="111" height="112" viewBox="0 0 111 112" fill="none" xmlns="http://www.w3.org/2000/svg">
<g filter="url(#filter0_d_0_1)">
<circle cx="55.1759" cy="52.9376" r="49.1759" fill="white"/>
<circle cx="55.1759" cy="52.9376" r="48.8344" stroke="white" stroke-width="0.682999"/>
</g>
<path d="M56.2969 31.3105H49.9219C49.7105 31.3106 49.5079 31.3946 49.3585 31.544L47.9982 32.9043H43.8768L42.5165 31.544C42.3671 31.3946 42.1645 31.3106 41.9531 31.3105H35.5781C35.1554 31.3105 34.7501 31.4785 34.4512 31.7773C34.1523 32.0762 33.9844 32.4816 33.9844 32.9043V72.748C33.9844 73.1707 34.1523 73.5761 34.4512 73.875C34.7501 74.1739 35.1554 74.3418 35.5781 74.3418H56.2969C56.7196 74.3418 57.1249 74.1739 57.4238 73.875C57.7227 73.5761 57.8906 73.1707 57.8906 72.748V32.9043C57.8906 32.4816 57.7227 32.0762 57.4238 31.7773C57.1249 31.4785 56.7196 31.3105 56.2969 31.3105ZM56.2969 72.748H35.5781V32.9043H41.6232L42.9835 34.2646C43.1329 34.414 43.3355 34.498 43.5469 34.498H48.3281C48.5395 34.498 48.7421 34.414 48.8915 34.2646L50.2518 32.9043H56.2969V72.748Z" fill="#D80073"/>
<path d="M42.75 69.5605H49.125V71.1543H42.75V69.5605Z" fill="#D80073"/>
<path d="M38.7656 38.4824H41.1562V36.8887H37.9688C37.7574 36.8887 37.5547 36.9726 37.4053 37.1221C37.2558 37.2715 37.1719 37.4742 37.1719 37.6855V40.873H38.7656V38.4824Z" fill="#D80073"/>
<path d="M53.1094 40.873H54.7031V37.6855C54.7031 37.4742 54.6192 37.2715 54.4697 37.1221C54.3203 36.9726 54.1176 36.8887 53.9062 36.8887H50.7188V38.4824H53.1094V40.873Z" fill="#D80073"/>
<path d="M41.1562 52.8262V51.2324H38.7656V48.8418H37.1719V52.0293C37.1719 52.2406 37.2558 52.4433 37.4053 52.5928C37.5547 52.7422 37.7574 52.8262 37.9688 52.8262H41.1562Z" fill="#D80073"/>
<path d="M53.1094 51.2324H50.7188V52.8262H53.9062C54.1176 52.8262 54.3203 52.7422 54.4697 52.5928C54.6192 52.4433 54.7031 52.2406 54.7031 52.0293V48.8418H53.1094V51.2324Z" fill="#D80073"/>
<path d="M38.7656 44.0605H53.1094V45.6543H38.7656V44.0605Z" fill="#D80073"/>
<path d="M51.5156 55.2168H40.3594C39.7253 55.2168 39.1173 55.4687 38.6689 55.917C38.2206 56.3653 37.9688 56.9734 37.9688 57.6074C37.9688 58.2415 38.2206 58.8495 38.6689 59.2978C39.1173 59.7462 39.7253 59.998 40.3594 59.998H51.5156C52.1497 59.998 52.7577 59.7462 53.2061 59.2978C53.6544 58.8495 53.9062 58.2415 53.9062 57.6074C53.9062 56.9734 53.6544 56.3653 53.2061 55.917C52.7577 55.4687 52.1497 55.2168 51.5156 55.2168ZM51.5156 58.4043H40.3594C40.148 58.4043 39.9453 58.3203 39.7959 58.1709C39.6465 58.0215 39.5625 57.8188 39.5625 57.6074C39.5625 57.3961 39.6465 57.1934 39.7959 57.0439C39.9453 56.8945 40.148 56.8105 40.3594 56.8105H51.5156C51.727 56.8105 51.9297 56.8945 52.0791 57.0439C52.2285 57.1934 52.3125 57.3961 52.3125 57.6074C52.3125 57.8188 52.2285 58.0215 52.0791 58.1709C51.9297 58.3203 51.727 58.4043 51.5156 58.4043Z" fill="#D80073"/>
<path d="M53.1094 61.5918H38.7656C38.5543 61.5918 38.3516 61.6758 38.2021 61.8252C38.0527 61.9746 37.9688 62.1773 37.9688 62.3887V67.1699C37.9688 67.3813 38.0527 67.584 38.2021 67.7334C38.3516 67.8828 38.5543 67.9668 38.7656 67.9668H53.1094C53.3207 67.9668 53.5234 67.8828 53.6729 67.7334C53.8223 67.584 53.9062 67.3813 53.9062 67.1699V62.3887C53.9062 62.1773 53.8223 61.9746 53.6729 61.8252C53.5234 61.6758 53.3207 61.5918 53.1094 61.5918ZM52.3125 66.373H39.5625V63.1855H52.3125V66.373Z" fill="#D80073"/>
<path d="M79.4062 52.8262H61.0781V32.1074C61.0769 31.0511 60.6567 30.0384 59.9097 29.2914C59.1628 28.5445 58.1501 28.1243 57.0938 28.123H34.7812C33.7249 28.1243 32.7122 28.5445 31.9653 29.2914C31.2183 30.0384 30.7981 31.0511 30.7969 32.1074V73.5449C30.7981 74.6013 31.2183 75.614 31.9653 76.3609C32.7122 77.1078 33.7249 77.528 34.7812 77.5293H57.0938C58.1501 77.528 59.1628 77.1078 59.9097 76.3609C60.6567 75.614 61.0769 74.6013 61.0781 73.5449H79.4062C79.6176 73.5449 79.8203 73.461 79.9697 73.3115C80.1192 73.1621 80.2031 72.9594 80.2031 72.748V53.623C80.2031 53.4117 80.1192 53.209 79.9697 53.0596C79.8203 52.9101 79.6176 52.8262 79.4062 52.8262ZM59.4844 73.5449C59.4844 74.179 59.2325 74.787 58.7842 75.2353C58.3358 75.6837 57.7278 75.9355 57.0938 75.9355H34.7812C34.1472 75.9355 33.5392 75.6837 33.0908 75.2353C32.6425 74.787 32.3906 74.179 32.3906 73.5449V32.1074C32.3906 31.4734 32.6425 30.8653 33.0908 30.417C33.5392 29.9687 34.1472 29.7168 34.7812 29.7168H57.0938C57.7278 29.7168 58.3358 29.9687 58.7842 30.417C59.2325 30.8653 59.4844 31.4734 59.4844 32.1074V73.5449ZM78.6094 71.9512H61.0781V54.4199H78.6094V71.9512Z" fill="#D80073"/>
<path d="M72.2344 57.6074H75.4219V61.5918H77.0156V56.8105C77.0156 56.5992 76.9317 56.3965 76.7822 56.2471C76.6328 56.0976 76.4301 56.0137 76.2188 56.0137H71.4375C71.2262 56.0137 71.0235 56.0976 70.874 56.2471C70.7246 56.3965 70.6406 56.5992 70.6406 56.8105V61.5918H72.2344V57.6074Z" fill="#D80073"/>
<path d="M68.25 63.9824H63.4688C63.2574 63.9824 63.0547 64.0664 62.9053 64.2158C62.7558 64.3653 62.6719 64.568 62.6719 64.7793V69.5605C62.6719 69.7719 62.7558 69.9746 62.9053 70.124C63.0547 70.2735 63.2574 70.3574 63.4688 70.3574H68.25C68.4613 70.3574 68.664 70.2735 68.8135 70.124C68.9629 69.9746 69.0469 69.7719 69.0469 69.5605V64.7793C69.0469 64.568 68.9629 64.3653 68.8135 64.2158C68.664 64.0664 68.4613 63.9824 68.25 63.9824ZM67.4531 68.7637H64.2656V65.5762H67.4531V68.7637Z" fill="#D80073"/>
<path d="M70.6406 63.9824H72.2344V65.5762H70.6406V63.9824Z" fill="#D80073"/>
<path d="M75.4219 63.9824H77.0156V65.5762H75.4219V63.9824Z" fill="#D80073"/>
<path d="M75.4219 68.7637H77.0156V70.3574H75.4219V68.7637Z" fill="#D80073"/>
<path d="M70.6406 68.7637H72.2344V70.3574H70.6406V68.7637Z" fill="#D80073"/>
<path d="M73.0312 66.373H74.625V67.9668H73.0312V66.373Z" fill="#D80073"/>
<path d="M65.0625 62.3887H68.25C68.4613 62.3887 68.664 62.3047 68.8135 62.1553C68.9629 62.0058 69.0469 61.8031 69.0469 61.5918V56.0137H67.4531V60.7949H65.0625V62.3887Z" fill="#D80073"/>
<path d="M63.4688 59.998H65.8594V58.4043H62.6719C62.4605 58.4043 62.2578 58.4883 62.1084 58.6377C61.959 58.7871 61.875 58.9898 61.875 59.2012V62.3887H63.4688V59.998Z" fill="#D80073"/>
<path d="M61.875 56.0137H66.6562V57.6074H61.875V56.0137Z" fill="#D80073"/>
<path d="M65.0625 66.373H66.6562V67.9668H65.0625V66.373Z" fill="#D80073"/>
<path d="M73.0312 59.2012H74.625V65.5762H73.0312V59.2012Z" fill="#D80073"/>
<defs>
<filter id="filter0_d_0_1" x="0" y="0.761719" width="110.352" height="110.352" filterUnits="userSpaceOnUse" color-interpolation-filters="sRGB">
<feFlood flood-opacity="0" result="BackgroundImageFix"/>
<feColorMatrix in="SourceAlpha" type="matrix" values="0 0 0 0 0 0 0 0 0 0 0 0 0 0 0 0 0 0 127 0" result="hardAlpha"/>
<feOffset dy="3"/>
<feGaussianBlur stdDeviation="3"/>
<feColorMatrix type="matrix" values="0 0 0 0 0 0 0 0 0 0 0 0 0 0 0 0 0 0 0.161 0"/>
<feBlend mode="normal" in2="BackgroundImageFix" result="effect1_dropShadow_0_1"/>
<feBlend mode="normal" in="SourceGraphic" in2="effect1_dropShadow_0_1" result="shape"/>
</filter>
</defs>
</svg>
