<svg width="174" height="165" viewBox="0 0 174 165" fill="none" xmlns="http://www.w3.org/2000/svg">
<g id="Group 94938">
<g id="Clip path group">
<mask id="mask0_46_3948" style="mask-type:luminance" maskUnits="userSpaceOnUse" x="29" y="14" width="50" height="51">
<g id="a1063bed25">
<path id="Vector" d="M29.5752 14.4922H78.6569V64.4957H29.5752V14.4922Z" fill="white"/>
</g>
</mask>
<g mask="url(#mask0_46_3948)">
<g id="Group">
<path id="Vector_2" d="M74.5516 14.4922H32.5754C30.92 14.4922 29.5752 15.891 29.5752 17.6131V61.2778C29.5752 62.9999 30.92 64.3987 32.5754 64.3987H74.5516C76.2071 64.3987 77.5518 62.9999 77.5518 61.2778V17.6131C77.5518 15.891 76.2071 14.4922 74.5516 14.4922ZM71.5559 58.1616H35.5712V20.7294H71.5559V58.1616Z" fill="#D80073"/>
</g>
</g>
</g>
<path id="Vector_3" d="M44.5651 51.9213H62.5575C64.2129 51.9213 65.5532 50.5271 65.5532 48.805V30.0889C65.5532 28.3669 64.2129 26.9727 62.5575 26.9727H44.5651C42.9097 26.9727 41.5693 28.3669 41.5693 30.0889V48.805C41.5693 50.5271 42.9097 51.9213 44.5651 51.9213ZM47.5653 33.2098H59.5572V45.6841H47.5653V33.2098Z" fill="#D80073"/>
<g id="Clip path group_2">
<mask id="mask1_46_3948" style="mask-type:luminance" maskUnits="userSpaceOnUse" x="29" y="114" width="50" height="51">
<g id="3fdff58c48">
<path id="Vector_4" d="M29.5752 114.135H78.6569V164.194H29.5752V114.135Z" fill="white"/>
</g>
</mask>
<g mask="url(#mask1_46_3948)">
<g id="Group_2">
<path id="Vector_5" d="M74.5516 114.301H32.5754C30.92 114.301 29.5752 115.7 29.5752 117.422V161.091C29.5752 162.813 30.92 164.207 32.5754 164.207H74.5516C76.2071 164.207 77.5518 162.813 77.5518 161.091V117.422C77.5518 115.7 76.2071 114.301 74.5516 114.301ZM71.5559 157.97H35.5712V120.543H71.5559V157.97Z" fill="#D80073"/>
</g>
</g>
</g>
<path id="Vector_6" d="M44.5651 151.735H62.5575C64.2129 151.735 65.5532 150.336 65.5532 148.614V129.902C65.5532 128.18 64.2129 126.781 62.5575 126.781H44.5651C42.9097 126.781 41.5693 128.18 41.5693 129.902V148.614C41.5693 150.336 42.9097 151.735 44.5651 151.735ZM47.5653 133.018H59.5572V145.497H47.5653V133.018Z" fill="#D80073"/>
<g id="Clip path group_3">
<mask id="mask2_46_3948" style="mask-type:luminance" maskUnits="userSpaceOnUse" x="125" y="14" width="49" height="51">
<g id="8ae147c3db">
<path id="Vector_7" d="M125.238 14.4922H173.486V64.4957H125.238V14.4922Z" fill="white"/>
</g>
</mask>
<g mask="url(#mask2_46_3948)">
<g id="Group_3">
<path id="Vector_8" d="M170.503 14.4922H128.523C126.867 14.4922 125.522 15.891 125.522 17.6131V61.2778C125.522 62.9999 126.867 64.3987 128.523 64.3987H170.503C172.159 64.3987 173.499 62.9999 173.499 61.2778V17.6131C173.499 15.891 172.159 14.4922 170.503 14.4922ZM167.503 58.1616H131.523V20.7294H167.503V58.1616Z" fill="#D80073"/>
</g>
</g>
</g>
<path id="Vector_9" d="M140.517 51.9213H158.505C160.16 51.9213 161.505 50.5271 161.505 48.805V30.0889C161.505 28.3669 160.16 26.9727 158.505 26.9727H140.517C138.857 26.9727 137.517 28.3669 137.517 30.0889V48.805C137.517 50.5271 138.857 51.9213 140.517 51.9213ZM143.513 33.2098H155.509V45.6841H143.513V33.2098Z" fill="#D80073"/>
<g id="Clip path group_4">
<mask id="mask3_46_3948" style="mask-type:luminance" maskUnits="userSpaceOnUse" x="125" y="114" width="49" height="51">
<g id="c9f325ae4b">
<path id="Vector_10" d="M125.238 114.135H173.486V164.194H125.238V114.135Z" fill="white"/>
</g>
</mask>
<g mask="url(#mask3_46_3948)">
<g id="Group_4">
<path id="Vector_11" d="M170.503 114.301H128.523C126.867 114.301 125.522 115.7 125.522 117.422V161.091C125.522 162.813 126.867 164.207 128.523 164.207H170.503C172.159 164.207 173.499 162.813 173.499 161.091V117.422C173.499 115.7 172.159 114.301 170.503 114.301ZM167.503 157.97H131.523V120.543H167.503V157.97Z" fill="#D80073"/>
</g>
</g>
</g>
<path id="Vector_12" d="M140.517 151.735H158.505C160.16 151.735 161.505 150.336 161.505 148.614V129.902C161.505 128.18 160.16 126.781 158.505 126.781H140.517C138.857 126.781 137.517 128.18 137.517 129.902V148.614C137.517 150.336 138.857 151.735 140.517 151.735ZM143.513 133.018H155.509V145.497H143.513V133.018Z" fill="#D80073"/>
<g id="Clip path group_5">
<mask id="mask4_46_3948" style="mask-type:luminance" maskUnits="userSpaceOnUse" x="83" y="14" width="26" height="49">
<g id="48716436b1">
<path id="Vector_13" d="M83.1992 14.4922H108.195V62.1319H83.1992V14.4922Z" fill="white"/>
</g>
</mask>
<g mask="url(#mask4_46_3948)">
<g id="Group_5">
<path id="Vector_14" d="M86.5481 51.9198C88.2035 51.9198 89.5438 50.5255 89.5438 48.8035V39.4455H101.54V58.1616C101.54 59.8836 102.881 61.2778 104.536 61.2778C106.191 61.2778 107.536 59.8836 107.536 58.1616V36.3246C107.536 34.6025 106.191 33.2083 104.536 33.2083H89.5438V17.6131C89.5438 15.891 88.2035 14.4922 86.5481 14.4922C84.8926 14.4922 83.5479 15.891 83.5479 17.6131V48.8035C83.5479 50.5255 84.8926 51.9198 86.5481 51.9198Z" fill="#D80073"/>
</g>
</g>
</g>
<path id="Vector_15" d="M116.531 26.9727C114.876 26.9727 113.531 28.3669 113.531 30.0889V55.0422C113.531 56.7642 114.876 58.1631 116.531 58.1631C118.187 58.1631 119.527 56.7642 119.527 55.0422V30.0889C119.527 28.3669 118.187 26.9727 116.531 26.9727Z" fill="#D80073"/>
<g id="Clip path group_6">
<mask id="mask5_46_3948" style="mask-type:luminance" maskUnits="userSpaceOnUse" x="29" y="70" width="50" height="27">
<g id="2a9698847f">
<path id="Vector_16" d="M29.5752 70.4062H78.6569V96.4075H29.5752V70.4062Z" fill="white"/>
</g>
</mask>
<g mask="url(#mask5_46_3948)">
<g id="Group_6">
<path id="Vector_17" d="M74.5516 76.8739C76.2071 76.8739 77.5518 75.4796 77.5518 73.7576C77.5518 72.0356 76.2071 70.6367 74.5516 70.6367H32.5754C30.92 70.6367 29.5752 72.0356 29.5752 73.7576C29.5752 75.4796 30.92 76.8739 32.5754 76.8739H56.5637V92.4691C56.5637 94.1911 57.904 95.59 59.5595 95.59H74.5516C76.2071 95.59 77.5518 94.1911 77.5518 92.4691C77.5518 90.7471 76.2071 89.3528 74.5516 89.3528H62.5597V76.8739H74.5516Z" fill="#D80073"/>
</g>
</g>
</g>
<path id="Vector_18" d="M68.5527 108.065C70.2081 108.065 71.5529 106.671 71.5529 104.949C71.5529 103.227 70.2081 101.828 68.5527 101.828H41.5686C39.9131 101.828 38.5684 103.227 38.5684 104.949C38.5684 106.671 39.9131 108.065 41.5686 108.065H68.5527Z" fill="#D80073"/>
<path id="Vector_19" d="M95.5388 117.422C93.8834 117.422 92.5431 118.821 92.5431 120.543V129.901H86.5471C84.8916 129.901 83.5469 131.295 83.5469 133.017V151.733C83.5469 153.455 84.8916 154.849 86.5471 154.849C88.2025 154.849 89.5428 153.455 89.5428 151.733V136.138H95.5388C97.1987 136.138 98.539 134.739 98.539 133.017V120.543C98.539 118.821 97.1987 117.422 95.5388 117.422Z" fill="#D80073"/>
<path id="Vector_20" d="M116.531 120.543H107.534C105.879 120.543 104.534 121.937 104.534 123.659C104.534 125.381 105.879 126.78 107.534 126.78H116.531C118.186 126.78 119.526 125.381 119.526 123.659C119.526 121.937 118.186 120.543 116.531 120.543Z" fill="#D80073"/>
<path id="Vector_21" d="M116.531 136.137H107.534C105.879 136.137 104.534 137.531 104.534 139.253C104.534 140.975 105.879 142.374 107.534 142.374H116.531C118.186 142.374 119.526 140.975 119.526 139.253C119.526 137.531 118.186 136.137 116.531 136.137Z" fill="#D80073"/>
<path id="Vector_22" d="M134.518 104.948C134.518 106.67 135.862 108.064 137.518 108.064H155.51C157.166 108.064 158.506 106.67 158.506 104.948V98.7059H167.502C169.158 98.7059 170.502 97.3117 170.502 95.5896C170.502 93.8676 169.158 92.4688 167.502 92.4688H155.51C153.85 92.4688 152.51 93.8676 152.51 95.5896V101.827H137.518C135.862 101.827 134.518 103.226 134.518 104.948Z" fill="#D80073"/>
<path id="Vector_23" d="M167.502 83.111V73.7576C167.502 72.0356 166.157 70.6367 164.502 70.6367C162.846 70.6367 161.506 72.0356 161.506 73.7576V83.111C161.506 84.8377 162.846 86.2319 164.502 86.2319C166.157 86.2319 167.502 84.8377 167.502 83.111Z" fill="#D80073"/>
<path id="Vector_24" d="M152.512 83.111V73.7576C152.512 72.0356 151.167 70.6367 149.511 70.6367C147.856 70.6367 146.516 72.0356 146.516 73.7576V83.111C146.516 84.8377 147.856 86.2319 149.511 86.2319C151.167 86.2319 152.512 84.8377 152.512 83.111Z" fill="#D80073"/>
<path id="Vector_25" d="M134.517 70.6367C132.862 70.6367 131.521 72.0356 131.521 73.7576V83.111C131.521 84.8377 132.862 86.2319 134.517 86.2319C136.173 86.2319 137.517 84.8377 137.517 83.111V73.7576C137.517 72.0356 136.173 70.6367 134.517 70.6367Z" fill="#D80073"/>
<path id="Vector_26" d="M113.529 73.7578H89.5407C87.8853 73.7578 86.5449 75.1521 86.5449 76.8741C86.5449 78.5961 87.8853 79.995 89.5407 79.995H98.5369V89.353C98.5369 91.0751 99.8816 92.4693 101.537 92.4693H110.529C112.184 92.4693 113.529 91.0751 113.529 89.353C113.529 87.631 112.184 86.2321 110.529 86.2321H104.533V79.995H113.529C115.184 79.995 116.529 78.5961 116.529 76.8741C116.529 75.1521 115.184 73.7578 113.529 73.7578Z" fill="#D80073"/>
<path id="Vector_27" d="M113.529 98.7051H89.5407C87.8853 98.7051 86.5449 100.104 86.5449 101.826C86.5449 103.548 87.8853 104.947 89.5407 104.947H113.529C115.184 104.947 116.529 103.548 116.529 101.826C116.529 100.104 115.184 98.7051 113.529 98.7051Z" fill="#D80073"/>
</g>
</svg>
