<svg width="111" height="111" viewBox="0 0 111 111" fill="none" xmlns="http://www.w3.org/2000/svg">
<g id="Group 94805">
<g id="Ellipse 4900" filter="url(#filter0_d_46_3443)">
<circle cx="55.1759" cy="52.1759" r="49.1759" fill="white"/>
<circle cx="55.1759" cy="52.1759" r="48.8344" stroke="white" stroke-width="0.682999"/>
</g>
<g id="Group 94920">
<g id="Clip path group">
<mask id="mask0_46_3443" style="mask-type:luminance" maskUnits="userSpaceOnUse" x="30" y="30" width="51" height="44">
<g id="e4da18678e">
<path id="Vector" d="M30 30H80.6664V74H30V30Z" fill="white"/>
</g>
</mask>
<g mask="url(#mask0_46_3443)">
<g id="Group">
<path id="Vector_2" d="M35.8885 46.7961C35.6558 46.7961 35.4578 46.8795 35.2945 47.0428C35.1312 47.2061 35.0479 47.4041 35.0479 47.6368V54.3553C35.0479 54.5846 35.1312 54.7826 35.2945 54.9458C35.4578 55.1126 35.6558 55.1925 35.8885 55.1925H44.2849C44.5176 55.1925 44.7156 55.1126 44.8789 54.9458C45.0456 54.7826 45.1255 54.5846 45.1255 54.3553V47.6368C45.1255 47.4041 45.0456 47.2061 44.8789 47.0428C44.7156 46.8795 44.5176 46.7961 44.2849 46.7961H35.8885ZM43.4477 53.5146H36.7292V48.474H43.4477V53.5146ZM54.3626 58.5517H34.2106C33.8737 58.5517 33.5541 58.4892 33.2449 58.3606C32.9357 58.2321 32.6648 58.0515 32.4286 57.8153C32.1923 57.579 32.0117 57.3046 31.8832 56.9954C31.7546 56.6897 31.6921 56.3666 31.6886 56.0332V43.4369H71.9959V45.9555C71.9959 46.1882 72.0793 46.3862 72.2425 46.5495C72.4058 46.7128 72.6038 46.7961 72.8366 46.7961C73.0693 46.7961 73.2673 46.7128 73.4306 46.5495C73.5939 46.3862 73.6773 46.1882 73.6773 45.9555V34.1999C73.6773 33.9255 73.6495 33.651 73.5939 33.3801C73.5418 33.1126 73.4619 32.8486 73.3542 32.595C73.25 32.3379 73.1214 32.0982 72.9686 31.8689C72.8157 31.6397 72.642 31.4278 72.444 31.2332C72.2495 31.0387 72.0376 30.865 71.8083 30.7121C71.579 30.5558 71.3393 30.4273 71.0823 30.3231C70.8287 30.2154 70.5681 30.1355 70.2972 30.0834C70.0262 30.0278 69.7553 30.0035 69.4773 30H34.2106C33.9327 30.0035 33.6618 30.0278 33.3908 30.0834C33.1199 30.1355 32.8593 30.2154 32.6022 30.3231C32.3487 30.4273 32.1055 30.5558 31.8762 30.7121C31.6469 30.865 31.435 31.0387 31.2405 31.2332C31.046 31.4278 30.8723 31.6397 30.7194 31.8689C30.5666 32.0982 30.438 32.3379 30.3303 32.595C30.2261 32.8486 30.1462 33.1126 30.0906 33.3801C30.0385 33.651 30.0107 33.9255 30.0107 34.1999V56.0332C30.0107 56.3076 30.0385 56.582 30.0906 56.853C30.1462 57.1205 30.2261 57.3845 30.3303 57.6381C30.438 57.8952 30.5666 58.1348 30.7194 58.3641C30.8723 58.5934 31.046 58.8053 31.2405 58.9998C31.435 59.1944 31.6469 59.3681 31.8762 59.5209C32.1055 59.6772 32.3487 59.8058 32.6022 59.91C32.8593 60.0177 33.1199 60.0976 33.3908 60.1497C33.6618 60.2053 33.9327 60.2331 34.2106 60.2331H54.3626C54.5953 60.2331 54.7933 60.1497 54.9566 59.9864C55.1199 59.8231 55.2032 59.6251 55.2032 59.3924C55.2032 59.1596 55.1199 58.9616 54.9566 58.7984C54.7933 58.6351 54.5953 58.5517 54.3626 58.5517ZM31.6886 41.759V36.7185H71.9959V41.759H31.6886ZM34.2106 31.6814H69.4773C69.8108 31.6814 70.1339 31.7439 70.4431 31.8724C70.7488 32.0009 71.0232 32.1851 71.2594 32.4213C71.4957 32.654 71.6763 32.9285 71.8048 33.2376C71.9334 33.5433 71.9959 33.8664 71.9959 34.1999V35.0406H31.6886V34.1999C31.6921 33.8664 31.7546 33.5433 31.8832 33.2376C32.0117 32.9285 32.1923 32.654 32.4286 32.4213C32.6648 32.1851 32.9357 32.0009 33.2449 31.8724C33.5541 31.7439 33.8737 31.6814 34.2106 31.6814ZM79.555 50.1554C77.7 50.1241 75.8901 49.8393 74.115 49.2939C72.3433 48.7519 70.6828 47.9703 69.13 46.9559C68.9841 46.8517 68.8208 46.7961 68.6367 46.7961C68.456 46.7961 68.2928 46.8517 68.1469 46.9559C66.594 47.9703 64.9335 48.7519 63.1619 49.2939C61.3867 49.8393 59.5768 50.1241 57.7218 50.1554C57.489 50.1554 57.291 50.2353 57.1278 50.402C56.9645 50.5653 56.8811 50.7633 56.8811 50.9961V59.3924C56.8811 69.7793 68.265 73.5901 68.3796 73.6248C68.5533 73.6839 68.7235 73.6839 68.8972 73.6248C69.0119 73.5901 80.3957 69.7793 80.3957 59.3924V50.9961C80.3957 50.7633 80.3123 50.5653 80.1491 50.402C79.9858 50.2353 79.7878 50.1554 79.555 50.1554ZM78.7144 59.3924C78.7144 67.7227 70.2416 71.3286 68.6367 71.9365C67.0352 71.3286 58.5625 67.7227 58.5625 59.3924V51.8159C62.1926 51.6179 65.5484 50.5618 68.6367 48.6442C71.7249 50.5618 75.0842 51.6179 78.7144 51.8159V59.3924ZM66.9588 63.2414L73.9239 56.2798C74.0872 56.1165 74.2852 56.0366 74.5145 56.0366C74.7472 56.0366 74.9417 56.12 75.105 56.2833C75.2683 56.4466 75.3517 56.6446 75.3517 56.8738C75.3517 57.1031 75.2718 57.3011 75.1085 57.4679L67.5528 65.0235C67.3896 65.1868 67.1915 65.2702 66.9588 65.2702C66.726 65.2702 66.528 65.1868 66.3648 65.0235L62.1649 60.8271C62.0051 60.6603 61.9252 60.4623 61.9252 60.2331C61.9252 60.0003 62.0085 59.8058 62.1718 59.6425C62.3316 59.4792 62.5296 59.3959 62.7624 59.3959C62.9916 59.3959 63.1897 59.4758 63.3529 59.639L66.9588 63.2414Z" fill="#D80073"/>
</g>
</g>
</g>
</g>
</g>
<defs>
<filter id="filter0_d_46_3443" x="0" y="0" width="110.352" height="110.352" filterUnits="userSpaceOnUse" color-interpolation-filters="sRGB">
<feFlood flood-opacity="0" result="BackgroundImageFix"/>
<feColorMatrix in="SourceAlpha" type="matrix" values="0 0 0 0 0 0 0 0 0 0 0 0 0 0 0 0 0 0 127 0" result="hardAlpha"/>
<feOffset dy="3"/>
<feGaussianBlur stdDeviation="3"/>
<feColorMatrix type="matrix" values="0 0 0 0 0 0 0 0 0 0 0 0 0 0 0 0 0 0 0.161 0"/>
<feBlend mode="normal" in2="BackgroundImageFix" result="effect1_dropShadow_46_3443"/>
<feBlend mode="normal" in="SourceGraphic" in2="effect1_dropShadow_46_3443" result="shape"/>
</filter>
</defs>
</svg>
