<svg xmlns="http://www.w3.org/2000/svg" width="201" height="201" viewBox="0 0 201 201" fill="none">
  <path d="M188.438 169.594H12.5625V65.9531C12.5625 60.7491 16.7804 56.5312 21.9844 56.5312H179.016C184.22 56.5312 188.438 60.7491 188.438 65.9531V169.594Z" fill="#474746"/>
  <path d="M25.125 69.0938H175.875V157.031H25.125V69.0938Z" fill="#FCF9E3"/>
  <path d="M37.6875 50.25H163.312V125.625H37.6875V50.25Z" fill="#474746"/>
  <path d="M6.28125 169.594H194.719V182.156C194.719 189.094 189.094 194.719 182.156 194.719H18.8438C11.9061 194.719 6.28125 189.094 6.28125 182.156V169.594Z" fill="#474746"/>
  <path d="M37.6875 50.25V99.027C42.2477 99.9787 46.9712 100.5 51.8203 100.5C83.5626 100.5 110.113 79.0778 117.337 50.25H37.6875Z" fill="#474746"/>
  <path d="M56.5312 62.8125H69.0938V75.375H56.5312V62.8125Z" fill="#D80073"/>
  <path d="M81.6562 62.8125H94.2188V75.375H81.6562V62.8125Z" fill="#D80073"/>
  <path d="M106.781 62.8125H119.344V75.375H106.781V62.8125Z" fill="#D80073"/>
  <path d="M131.906 62.8125H144.469V75.375H131.906V62.8125Z" fill="#D80073"/>
  <path d="M56.5312 87.9375H69.0938V100.5H56.5312V87.9375Z" fill="#D80073"/>
  <path d="M81.6562 87.9375H94.2188V100.5H81.6562V87.9375Z" fill="#D80073"/>
  <path d="M106.781 87.9375H119.344V100.5H106.781V87.9375Z" fill="#D80073"/>
  <path d="M131.906 87.9375H144.469V100.5H131.906V87.9375Z" fill="#D80073"/>
  <path d="M37.6875 113.062H163.312V125.625H37.6875V113.062Z" fill="#474746"/>
  <path d="M131.906 37.6875C131.906 33.2184 132.855 28.9754 134.538 25.125H37.6875V50.25H134.576C132.88 46.4027 131.906 42.166 131.906 37.6875Z" fill="#D80073"/>
  <path d="M62.8125 37.6875C59.3421 37.6875 56.5312 34.8766 56.5312 31.4062V25.125C56.5312 21.6546 59.3421 18.8438 62.8125 18.8438C66.2829 18.8438 69.0938 21.6546 69.0938 25.125V31.4062C69.0938 34.8766 66.2829 37.6875 62.8125 37.6875Z" fill="#474746"/>
  <path d="M87.9375 37.6875C84.4671 37.6875 81.6562 34.8766 81.6562 31.4062V25.125C81.6562 21.6546 84.4671 18.8438 87.9375 18.8438C91.4079 18.8438 94.2188 21.6546 94.2188 25.125V31.4062C94.2188 34.8766 91.4079 37.6875 87.9375 37.6875Z" fill="#474746"/>
  <path d="M113.062 37.6875C109.592 37.6875 106.781 34.8766 106.781 31.4062V25.125C106.781 21.6546 109.592 18.8438 113.062 18.8438C116.533 18.8438 119.344 21.6546 119.344 25.125V31.4062C119.344 34.8766 116.533 37.6875 113.062 37.6875Z" fill="#474746"/>
  <path d="M163.312 69.0938C180.658 69.0938 194.719 55.0327 194.719 37.6875C194.719 20.3423 180.658 6.28125 163.312 6.28125C145.967 6.28125 131.906 20.3423 131.906 37.6875C131.906 55.0327 145.967 69.0938 163.312 69.0938Z" fill="#D80073"/>
  <path d="M183.076 13.2943C177.678 8.91309 170.806 6.28125 163.312 6.28125C145.967 6.28125 131.906 20.3418 131.906 37.6875C131.906 45.7432 134.965 53.0671 139.949 58.626C160.63 54.3422 177.298 36.56 183.076 13.2943Z" fill="#D80073"/>
  <path d="M75.375 169.594V175.875C75.375 179.345 78.1859 182.156 81.6562 182.156H119.344C122.814 182.156 125.625 179.345 125.625 175.875V169.594H75.375Z" fill="#474746"/>
  <path d="M157.031 50.2497C156.227 50.2497 155.423 49.9419 154.811 49.3295L145.389 39.9076L149.83 35.4668L157.031 42.6683L176.795 22.9043L181.236 27.3451L159.251 49.3295C158.639 49.9419 157.835 50.2497 157.031 50.2497Z" fill="#FCF9E3"/>
  <path d="M15.7031 179.016H21.9844V185.297H15.7031V179.016Z" fill="#FCF9E3"/>
  <path d="M28.2656 179.016H34.5469V185.297H28.2656V179.016Z" fill="#FCF9E3"/>
</svg>