<svg width="54" height="55" viewBox="0 0 54 55" fill="none" xmlns="http://www.w3.org/2000/svg">
<g id="promotion 1" clip-path="url(#clip0_46_4038)">
<path id="Vector" d="M37.0695 3.19531L35.1914 6.49686L36.7276 7.38656L38.6058 4.08501L37.0695 3.19531ZM42.6633 7.25078L40.002 9.94847L41.2582 11.2062L43.9196 8.50851L42.6616 7.24899L42.6633 7.25078ZM28.1623 7.28115C28.0234 7.28848 27.888 7.32888 27.7672 7.39907L24.5105 9.30531C24.4098 9.36423 24.3215 9.44263 24.2507 9.53604C24.1798 9.62945 24.1279 9.73604 24.0978 9.8497C24.0676 9.96336 24.06 10.0819 24.0751 10.1984C24.0903 10.315 24.1281 10.4274 24.1863 10.5291L24.6434 11.333C24.6469 11.3396 24.6504 11.3462 24.654 11.3527C25.4139 12.679 25.6213 14.255 25.2307 15.7352C24.8401 17.2154 23.8834 18.4791 22.5703 19.2493L19.0567 21.3038L14.4268 24.0122L13.6755 24.4553H13.672C13.6509 24.4652 13.6302 24.4759 13.6099 24.4874L11.9834 25.4396L7.91338 27.8229C7.0642 28.3248 6.4456 29.1442 6.19183 30.1031C5.93806 31.062 6.0696 32.0832 6.5579 32.9449L6.58802 33.0021L4.90651 33.9847C4.49051 34.2331 4.1876 34.6359 4.06272 35.1068C3.93784 35.5777 4.00095 36.0792 4.23851 36.5038L6.12202 39.8053C6.61814 40.6789 7.75214 40.988 8.61681 40.4824L10.2912 39.5052L10.316 39.548C10.7251 40.2582 11.3548 40.8128 12.1077 41.1261C12.8607 41.4393 13.695 41.4937 14.4817 41.281L18.1637 53.6689C18.1974 53.7831 18.2509 53.8844 18.3211 53.967C18.3914 54.0497 18.477 54.112 18.5731 54.1505C18.6692 54.189 18.7739 54.2029 18.8812 54.1914C18.9885 54.1799 19.0963 54.1432 19.1984 54.0834L24.9127 50.7426C25.1185 50.6211 25.2884 50.4135 25.3851 50.1652C25.4818 49.9169 25.4973 49.6484 25.4283 49.4187L21.7907 37.1773L21.897 37.1148L26.5287 34.4046L30.0423 32.35C30.6894 31.9701 31.4049 31.7233 32.1472 31.624C32.8896 31.5247 33.6441 31.5747 34.3671 31.7712C35.0901 31.9678 35.7673 32.3069 36.3596 32.769C36.9518 33.2312 37.4472 33.8071 37.8173 34.4635L38.2886 35.2907C38.4056 35.4959 38.5983 35.6456 38.8246 35.7069C39.0508 35.7682 39.292 35.7361 39.4952 35.6176L42.7519 33.7096C42.9552 33.5909 43.1037 33.3955 43.1648 33.1664C43.226 32.9372 43.1947 32.6931 43.078 32.4876L39.2436 25.7523C41.7739 23.7603 42.557 20.1336 40.911 17.2483C40.1242 15.8735 38.8695 14.8332 37.3798 14.3204C35.89 13.8075 34.2663 13.8569 32.81 14.4595L28.9756 7.72779C28.8943 7.58448 28.7752 7.46687 28.6316 7.38802C28.488 7.30918 28.3256 7.27218 28.1623 7.28115ZM27.8824 9.4L31.6618 16.0352C31.6647 16.0412 31.6676 16.0472 31.6706 16.0531L34.4915 21.0019L34.8069 21.5521L37.3123 25.956C37.3269 25.9824 37.3429 26.008 37.3601 26.0328L41.1059 32.6109L39.3783 33.6185L39.3606 33.5827C39.3582 33.5798 39.3559 33.5768 39.3535 33.5738L26.1885 10.463L26.1583 10.4094L27.8824 9.4ZM47.0292 12.6372L43.7743 14.5435L44.6638 16.0888L47.9187 14.179L47.0292 12.6372ZM26.984 15.4421L35.4979 30.3884C33.4709 29.6095 31.1657 29.6238 29.151 30.8029L25.6427 32.8574L21.0111 35.5694L20.9685 35.598L15.2666 25.5897L15.318 25.5594L19.9479 22.8474L23.4616 20.7964C25.4762 19.6173 26.6332 17.6056 26.984 15.4421ZM35.4182 15.9727C37.004 15.937 38.5242 16.6337 39.3836 18.1434C40.53 20.1568 39.8549 22.4722 38.2248 23.964L36.0277 20.105L33.8323 16.2532C34.355 16.0817 34.8884 15.9852 35.4182 15.9727ZM49.8766 18.9813L46.2443 19.9692L46.7032 21.6915L50.3355 20.7089L49.8766 18.9813ZM47.2436 25.8595V27.646H51V25.8595H47.2436ZM13.7322 26.4866L19.4323 36.4912L18.5676 36.9968L14.4941 39.3801C14.2751 39.5122 14.032 39.5984 13.7793 39.6338C13.5265 39.6691 13.2693 39.6528 13.023 39.5857C12.7766 39.5187 12.5461 39.4024 12.3453 39.2437C12.1445 39.085 11.9774 38.8871 11.854 38.6619L11.4146 37.8901C11.4123 37.8853 11.4099 37.8806 11.4075 37.8758L11.3862 37.8383L8.56543 32.8824C8.55972 32.8722 8.55381 32.862 8.54771 32.852L8.09588 32.0588C7.96535 31.8357 7.88011 31.5887 7.84511 31.3321C7.8101 31.0755 7.82604 30.8144 7.89198 30.564C7.95793 30.3137 8.07258 30.0791 8.22925 29.8738C8.38593 29.6685 8.58151 29.4967 8.80463 29.3683L12.8746 26.9886L13.7322 26.4884V26.4866ZM7.47218 34.5546L9.41061 37.9562L7.72733 38.9388C7.69012 38.9638 7.68481 38.962 7.66 38.9192L5.77473 35.6176C5.74992 35.5747 5.75701 35.5587 5.79599 35.5354L7.47041 34.5528L7.47218 34.5546ZM20.235 38.0813L23.6193 49.4616L19.4642 51.8967L16.0799 40.5146L19.4571 38.5386L20.2368 38.0813H20.235Z" fill="#D80073"/>
</g>
<defs>
<clipPath id="clip0_46_4038">
<rect width="54" height="54" fill="white" transform="translate(0 0.195312)"/>
</clipPath>
</defs>
</svg>
