<svg width="111" height="111" viewBox="0 0 111 111" fill="none" xmlns="http://www.w3.org/2000/svg">
<g id="Group 94805">
<g id="Ellipse 4900" filter="url(#filter0_d_46_3454)">
<circle cx="55.1759" cy="52.1759" r="49.1759" fill="white"/>
<circle cx="55.1759" cy="52.1759" r="48.8344" stroke="white" stroke-width="0.682999"/>
</g>
<g id="Group 94921">
<g id="Clip path group">
<mask id="mask0_46_3454" style="mask-type:luminance" maskUnits="userSpaceOnUse" x="34" y="31" width="43" height="43">
<g id="f6e1e7c5bb">
<path id="Vector" d="M34 31H77V74H34V31Z" fill="white"/>
</g>
</mask>
<g mask="url(#mask0_46_3454)">
<g id="Group">
<path id="Vector_2" d="M76.8938 62.3321L73.7664 48.6795C73.4911 47.4759 72.2907 46.7237 71.0903 46.999L68.5775 47.5752C67.3771 47.8504 66.6248 49.0508 66.9001 50.2512L67.0057 50.7186L65.8533 51.2212C65.0051 51.5893 64.1216 51.5381 63.2925 51.0739C62.5274 50.6482 61.852 50.2512 61.2566 49.9023C58.5325 48.305 57.0344 47.4247 54.816 48.2538C54.1726 48.4939 53.5292 48.9772 52.8602 49.6206H44.1821C44.1245 48.6539 43.4394 47.8024 42.4503 47.5752L39.9375 46.999C38.7371 46.7237 37.5367 47.4759 37.2614 48.6763L34.1339 62.3321C33.9995 62.9115 34.1019 63.5101 34.4188 64.0191C34.7389 64.5248 35.2319 64.8769 35.8113 65.0082L38.3273 65.5844C38.4906 65.6228 38.6602 65.642 38.8267 65.642C39.2396 65.642 39.6494 65.5236 40.0111 65.2995C40.5169 64.9794 40.869 64.4864 41.0034 63.907L41.0098 63.8718L50.3217 73.0781C50.8339 73.5903 51.5221 73.8752 52.252 73.8752C52.985 73.8752 53.6701 73.5903 54.1854 73.0781C54.5728 72.6908 54.8289 72.2042 54.9313 71.6792L56.1477 72.8924C56.6631 73.4078 57.3481 73.6927 58.0779 73.6927C58.0811 73.6927 58.0811 73.6927 58.0811 73.6927C58.811 73.6927 59.4992 73.4078 60.0114 72.8924C60.3987 72.5083 60.6548 72.0217 60.7572 71.4936L60.8469 71.5832C61.359 72.0954 62.0473 72.3803 62.7771 72.3803C63.5102 72.3803 64.1952 72.0954 64.7106 71.5832C65.2259 71.0678 65.5076 70.3828 65.5076 69.6497C65.5076 69.4705 65.4916 69.2944 65.4596 69.1248C65.482 69.1248 65.5076 69.1248 65.5332 69.1248C66.2663 69.1248 66.9513 68.8399 67.4667 68.3277C67.9789 67.8123 68.2638 67.1273 68.2638 66.3943C68.2638 66.0966 68.2157 65.8085 68.1261 65.5332L70.2996 64.576C70.4757 64.8641 70.719 65.1106 71.0167 65.2995C71.3784 65.5236 71.7881 65.642 72.2011 65.642C72.3675 65.642 72.5372 65.6228 72.7036 65.5844L75.2165 65.0082C75.7959 64.8769 76.2888 64.5248 76.6089 64.0191C76.9258 63.5101 77.0283 62.9115 76.8938 62.3321ZM39.819 63.6349C39.7582 63.8974 39.5982 64.1247 39.3645 64.2687C39.134 64.4128 38.8619 64.4608 38.5962 64.4L36.0834 63.8238C35.8209 63.763 35.5936 63.6029 35.4496 63.3724C35.3055 63.1388 35.2575 62.8667 35.3183 62.6042L38.4458 48.9484C38.5546 48.4779 38.9739 48.1577 39.4381 48.1577C39.5149 48.1577 39.5886 48.1674 39.6654 48.1834L42.1782 48.7595C42.7288 48.8844 43.0713 49.4318 42.9465 49.9792L39.819 63.6349ZM66.6056 67.4666C66.3207 67.7515 65.9398 67.9084 65.5332 67.9084C65.1267 67.9084 64.7458 67.7515 64.4609 67.4666L58.4461 61.455C58.2092 61.2149 57.8251 61.2149 57.5882 61.455C57.3513 61.6919 57.3513 62.076 57.5882 62.3129C57.5882 62.3129 63.8239 68.5486 63.8495 68.5774C64.1376 68.8623 64.2944 69.2432 64.2912 69.6497C64.2912 70.0563 64.1344 70.4372 63.8495 70.7221C63.5646 71.007 63.1837 71.1639 62.7771 71.1639C62.3706 71.1639 61.9897 71.007 61.7048 70.7221L55.2354 64.2527C54.9985 64.0159 54.6144 64.0159 54.3775 64.2527C54.1406 64.4896 54.1406 64.8737 54.3775 65.1106L59.1759 69.9122C59.448 70.1939 59.5952 70.5653 59.5952 70.9622C59.5952 71.3687 59.4384 71.7496 59.1535 72.0345C58.8686 72.3194 58.4877 72.4763 58.0811 72.4763C58.0779 72.4763 58.0779 72.4763 58.0779 72.4763C57.6714 72.4763 57.2905 72.3194 57.0056 72.0345L51.7526 66.7816C51.5157 66.5447 51.1316 66.5447 50.8947 66.7816C50.6579 67.0185 50.6579 67.4026 50.8947 67.6395L53.3436 70.0883C53.6156 70.3732 53.7693 70.7445 53.7661 71.1446C53.7661 71.5512 53.6092 71.9321 53.3243 72.217C53.0395 72.5019 52.6585 72.6588 52.252 72.6588C51.8455 72.6588 51.4645 72.5019 51.1764 72.217L41.3299 62.4793L43.9964 50.8338H51.7046C51.2789 51.314 50.8435 51.8326 50.3858 52.3704C49.1566 53.83 47.8825 55.3378 46.4965 56.4965C46.2404 56.7142 46.2052 57.0951 46.4196 57.3512C47.6841 58.8685 49.1662 59.4991 50.8307 59.2303C52.284 58.9934 53.7213 58.1035 55.0593 57.1784C56.2437 56.3589 57.7834 56.4965 58.8014 57.5177L66.6056 65.3219C66.8905 65.6068 67.0473 65.9877 67.0473 66.3943C67.0473 66.8008 66.8905 67.1817 66.6056 67.4666ZM67.4667 64.4608L59.6593 56.6566C58.2412 55.2385 56.0165 55.0368 54.3679 56.1796C51.551 58.1323 49.6111 58.8557 47.7545 57.0119C49.0413 55.8499 50.2417 54.4254 51.3141 53.1546C52.7706 51.4292 54.147 49.7999 55.2418 49.3934C56.916 48.7659 58.0075 49.4062 60.6388 50.9491C61.2438 51.3044 61.9256 51.7045 62.7003 52.1367C63.8559 52.7833 65.1459 52.8537 66.3367 52.3351L67.281 51.9254L69.9155 63.4173L67.4891 64.4864C67.4827 64.48 67.4731 64.4704 67.4667 64.4608ZM75.5782 63.3724C75.4342 63.6029 75.2069 63.763 74.9444 63.8238L72.4315 64.4C72.1691 64.4608 71.8938 64.4128 71.6633 64.2687C71.4328 64.1247 71.2696 63.8974 71.2119 63.6349L68.0845 49.9792C67.9564 49.4318 68.3022 48.8844 68.8495 48.7595L71.3624 48.1834C71.9098 48.0585 72.4572 48.401 72.582 48.9484L75.7094 62.6042C75.7703 62.8667 75.7254 63.1388 75.5782 63.3724ZM52.2744 43.4714C53.0459 44.166 53.8429 44.8863 54.64 45.6641C54.7584 45.7794 54.9121 45.8338 55.0657 45.8338C55.2162 45.8338 55.3698 45.7794 55.4883 45.6641C56.2853 44.8863 57.0824 44.166 57.8539 43.4714C60.786 40.8209 63.3213 38.5321 63.3213 35.3278C63.3213 32.9431 61.3334 31 58.8878 31C57.0088 31 55.9236 31.8387 55.0657 33.1735C54.2046 31.8387 53.1195 31 51.2404 31C48.798 31 46.8102 32.9431 46.8102 35.3278C46.8102 38.5321 49.3422 40.8209 52.2744 43.4714ZM51.2404 32.2164C52.7514 32.2164 53.5772 32.8374 54.5247 34.6748C54.6272 34.8797 54.8353 35.0045 55.0657 35.0045C55.293 35.0045 55.5011 34.8797 55.6035 34.6748C56.551 32.8374 57.3801 32.2164 58.8878 32.2164C60.6612 32.2164 62.1049 33.6121 62.1049 35.3278C62.1049 37.9943 59.8705 40.0142 57.0376 42.5687C56.3942 43.1513 55.7348 43.7499 55.0657 44.3837C54.3935 43.7499 53.7341 43.1513 53.0907 42.5687C50.2609 40.0142 48.0234 37.9943 48.0234 35.3278C48.0234 33.6121 49.4671 32.2164 51.2404 32.2164Z" fill="#D80073"/>
</g>
</g>
</g>
</g>
</g>
<defs>
<filter id="filter0_d_46_3454" x="0" y="0" width="110.352" height="110.352" filterUnits="userSpaceOnUse" color-interpolation-filters="sRGB">
<feFlood flood-opacity="0" result="BackgroundImageFix"/>
<feColorMatrix in="SourceAlpha" type="matrix" values="0 0 0 0 0 0 0 0 0 0 0 0 0 0 0 0 0 0 127 0" result="hardAlpha"/>
<feOffset dy="3"/>
<feGaussianBlur stdDeviation="3"/>
<feColorMatrix type="matrix" values="0 0 0 0 0 0 0 0 0 0 0 0 0 0 0 0 0 0 0.161 0"/>
<feBlend mode="normal" in2="BackgroundImageFix" result="effect1_dropShadow_46_3454"/>
<feBlend mode="normal" in="SourceGraphic" in2="effect1_dropShadow_46_3454" result="shape"/>
</filter>
</defs>
</svg>
