<svg width="60" height="38" viewBox="0 0 60 38" fill="none" xmlns="http://www.w3.org/2000/svg">
<path opacity="0.07" d="M55.2632 0H4.73684C2.05263 0 0 2.05263 0 4.73684V33.1579C0 35.8421 2.21053 37.8947 4.73684 37.8947H55.2632C57.9474 37.8947 60 35.8421 60 33.1579V4.73684C60 2.05263 57.7895 0 55.2632 0Z" fill="black"/>
<path d="M55.2623 1.57812C56.9992 1.57812 58.4202 2.99918 58.4202 4.73602V33.1571C58.4202 34.8939 56.9992 36.315 55.2623 36.315H4.73602C2.99918 36.315 1.57812 34.8939 1.57812 33.1571V4.73602C1.57812 2.99918 2.99918 1.57812 4.73602 1.57812H55.2623Z" fill="#006FCF"/>
<path d="M34.7559 31.4799V18.1836L58.4211 18.2041V21.8768L55.6864 24.801L58.4211 27.7489V31.4989H54.0538L51.7327 28.9378L49.4274 31.5083L34.7559 31.4768V31.4799Z" fill="white"/>
<path d="M36.3359 30.0182V19.6445H45.1338V22.0335H39.1844V23.6566H44.9917V26.0061H39.1844V27.6008H45.1338V30.0182H36.3359Z" fill="#006FCF"/>
<path d="M45.0898 30.0198L49.9577 24.8266L45.0898 19.6445H48.8572L51.8319 22.9335L54.8162 19.6461H58.4209V19.7266L53.6572 24.8266L58.4209 29.8745V30.0214H54.7783L51.7514 26.7008L48.7546 30.023H45.0898V30.0198Z" fill="#006FCF"/>
<path d="M35.8579 6.37891H41.5642L43.5679 10.9279V6.37891H50.61L51.8258 9.78785L53.0432 6.37891H58.4211V19.6752H30L35.8579 6.37891Z" fill="white"/>
<path d="M36.9401 7.82422L32.3359 18.1916H35.4938L36.3623 16.1153H41.0675L41.9359 18.1916H45.1728L40.5875 7.82422H36.9401ZM37.3349 13.7879L38.7165 10.4879L40.0949 13.7879H37.3349Z" fill="#006FCF"/>
<path d="M45.127 18.1893V7.82031L49.5654 7.8361L51.8517 14.2103L54.1506 7.82189H58.4201V18.1877L55.6727 18.2129V11.0919L53.077 18.1877H50.5664L47.9201 11.0682V18.1893H45.1285H45.127Z" fill="#006FCF"/>
</svg>
