<svg width="60" height="38" viewBox="0 0 60 38" fill="none" xmlns="http://www.w3.org/2000/svg">
<g id="Item &#226;&#134;&#146; Img">
<path id="Vector" d="M54.2962 0H5.70523C5.50282 0 5.30005 0 5.098 0.00107285C4.92742 0.00250331 4.75719 0.00429139 4.58661 0.00894039C4.21505 0.0189536 3.84027 0.0411258 3.47335 0.106927C3.10539 0.169971 2.74886 0.287486 2.41553 0.455602C1.74541 0.796438 1.20073 1.34112 0.859899 2.01123C0.691483 2.34469 0.573954 2.7015 0.511224 3.06977C0.444707 3.43704 0.422893 3.81147 0.41288 4.18267C0.408521 4.3531 0.405899 4.52358 0.405012 4.69406C0.404297 4.89576 0.404297 5.09817 0.404297 5.30094V32.5934C0.404297 32.7962 0.404297 32.9983 0.405012 33.201C0.406085 33.3713 0.408231 33.5418 0.41288 33.7124C0.422893 34.0829 0.445065 34.4577 0.511224 34.8246C0.573825 35.1929 0.691234 35.5497 0.859542 35.8831C1.02876 36.2162 1.24964 36.5204 1.51398 36.7843C1.77786 37.0488 2.08204 37.2697 2.41517 37.4388C2.75383 37.6115 3.10072 37.7213 3.47371 37.7882C3.84027 37.8536 4.21505 37.8758 4.58661 37.8858C4.75719 37.8897 4.92742 37.8919 5.098 37.8929C5.30005 37.8944 5.50282 37.8944 5.70523 37.8944H54.2962C54.4983 37.8944 54.7011 37.8944 54.9031 37.8929C55.0734 37.8922 55.2436 37.8897 55.4149 37.8858C55.7857 37.8758 56.1605 37.8536 56.5281 37.7882C56.8962 37.7251 57.2527 37.6073 57.586 37.4388C58.2557 37.0975 58.8003 36.5529 59.1416 35.8831C59.3143 35.5445 59.4237 35.1976 59.4899 34.8246C59.5564 34.4577 59.5779 34.0829 59.5879 33.7124C59.5925 33.5418 59.595 33.3713 59.5958 33.201C59.5972 32.9983 59.5972 32.7962 59.5972 32.5934V5.30129C59.5972 5.09853 59.5972 4.89611 59.5958 4.6937C59.5951 4.52334 59.5924 4.35298 59.5879 4.18267C59.5779 3.81147 59.5564 3.43704 59.4899 3.06977C59.4276 2.70143 59.3102 2.34458 59.1416 2.01123C58.8006 1.34123 58.256 0.7966 57.586 0.455602C57.2526 0.287659 56.8961 0.170267 56.5281 0.107285C56.1605 0.0411258 55.7857 0.0193112 55.4149 0.00929801C55.2443 0.00496631 55.0737 0.00234366 54.9031 0.00143046C54.7011 0 54.4983 0 54.2962 0Z" fill="black"/>
<path id="Vector_2" d="M54.2949 1.26172L54.8928 1.26279C55.0544 1.26386 55.2164 1.26565 55.3792 1.26994C55.6627 1.27781 55.9939 1.29319 56.3029 1.34862C56.5711 1.3969 56.7964 1.47021 57.0124 1.58035C57.4447 1.80013 57.7958 2.15168 58.0151 2.58418C58.1246 2.79875 58.1975 3.02262 58.2458 3.29333C58.3009 3.59874 58.3163 3.93096 58.3238 4.21598C58.3284 4.37691 58.3306 4.53784 58.3309 4.70234C58.3327 4.90153 58.3327 5.10036 58.3327 5.29991V32.5924C58.3327 32.792 58.3327 32.9908 58.3313 33.1939C58.3306 33.3549 58.3284 33.5158 58.3241 33.6767C58.3163 33.9614 58.3009 34.2936 58.2451 34.6026C58.2045 34.8484 58.1268 35.0865 58.0144 35.3089C57.7946 35.7415 57.443 36.0931 57.0102 36.3127C56.7957 36.4221 56.5711 36.4954 56.3054 36.5434C55.9903 36.5995 55.6449 36.6149 55.3849 36.622C55.2215 36.6256 55.0587 36.6281 54.8917 36.6288C54.6933 36.6303 54.4937 36.6303 54.2949 36.6303H5.69598C5.4993 36.6303 5.30261 36.6303 5.10234 36.6288C4.9414 36.6281 4.78047 36.626 4.61956 36.6224C4.3535 36.6152 4.00804 36.5995 3.69548 36.5437C3.44836 36.5025 3.20891 36.4242 2.98526 36.3113C2.77073 36.2023 2.57493 36.0598 2.40521 35.8893C2.23495 35.7193 2.09276 35.5234 1.98394 35.3089C1.87155 35.0853 1.79367 34.8459 1.75292 34.599C1.69713 34.2904 1.68139 33.9596 1.67424 33.6771C1.6702 33.5156 1.66782 33.354 1.66709 33.1925L1.66602 32.7179V5.17475L1.66673 4.70091C1.66747 4.53913 1.66985 4.37736 1.67388 4.21562C1.68175 3.93239 1.69713 3.6016 1.75327 3.29047C1.7941 3.04403 1.87199 2.80518 1.98429 2.58204C2.09301 2.36818 2.23462 2.17292 2.40628 2.00163C2.57641 1.83123 2.77242 1.6888 2.98705 1.57964C3.21015 1.46755 3.44885 1.38968 3.69513 1.34862C4.00446 1.29319 4.33597 1.27781 4.61992 1.26994C4.78156 1.26565 4.94356 1.26386 5.10413 1.26279L5.70385 1.26172H54.2949Z" fill="white"/>
<g id="Group">
<g id="Group_2">
<path id="Vector_3" d="M15.9627 12.7926C16.4648 12.165 16.8053 11.3221 16.7155 10.4609C15.981 10.4974 15.0848 10.9455 14.5655 11.5738C14.0996 12.1117 13.6872 12.9896 13.7945 13.8147C14.6192 13.8862 15.4431 13.4027 15.9627 12.7926Z" fill="black"/>
<path id="Vector_4" d="M16.707 13.9775C15.509 13.9059 14.4912 14.6569 13.9194 14.6569C13.3472 14.6569 12.4714 14.0132 11.524 14.0307C10.2913 14.0486 9.14769 14.746 8.52186 15.8546C7.23516 18.0718 8.18212 21.3619 9.43378 23.1678C10.0414 24.0619 10.7738 25.0453 11.7386 25.0099C12.6505 24.9741 13.0078 24.4198 14.1157 24.4198C15.2232 24.4198 15.5451 25.0099 16.5103 24.992C17.5109 24.9741 18.1367 24.098 18.7443 23.2039C19.4417 22.1847 19.7267 21.2013 19.7446 21.1477C19.7267 21.1298 17.8149 20.3963 17.797 18.197C17.7791 16.3552 19.2982 15.4791 19.3698 15.4251C18.5119 14.1563 17.1715 14.0132 16.7066 13.9775" fill="black"/>
</g>
<g id="Group_3">
<path id="Vector_5" d="M28.646 11.4844C31.2487 11.4844 33.0615 13.2785 33.0615 15.8906C33.0615 18.5119 31.2115 20.3153 28.5809 20.3153H25.6992V24.8985H23.6172V11.4844H28.646ZM25.6992 18.5677H28.0881C29.9012 18.5677 30.9326 17.5917 30.9326 15.8999C30.9326 14.2083 29.9009 13.2413 28.0974 13.2413H25.6992V18.5677Z" fill="black"/>
<path id="Vector_6" d="M33.5781 22.117C33.5781 20.3972 34.8888 19.412 37.3056 19.2632L39.899 19.1051V18.3613C39.899 17.2741 39.1834 16.6791 37.9099 16.6791C36.8592 16.6791 36.0968 17.218 35.9395 18.0452H34.0613C34.1174 16.3071 35.7531 15.043 37.9657 15.043C40.3453 15.043 41.8977 16.2885 41.8977 18.2222V24.8964H39.9737V23.2882H39.9272C39.3786 24.3385 38.1699 24.9983 36.8592 24.9983C34.926 24.9983 33.5781 23.846 33.5781 22.117ZM39.899 21.2526V20.4995L37.5845 20.6482C36.2828 20.7319 35.6047 21.2151 35.6047 22.0608C35.6047 22.879 36.311 23.409 37.4171 23.409C38.8297 23.409 39.899 22.5071 39.899 21.2526Z" fill="black"/>
<path id="Vector_7" d="M43.6662 28.4845V26.8767C43.7964 26.8949 44.1122 26.9135 44.2795 26.9135C45.1997 26.9135 45.7204 26.5237 46.0365 25.5192L46.2224 24.9245L42.6992 15.1641H44.8742L47.3286 23.0838H47.375L49.829 15.1641H51.9486L48.2952 25.4169C47.4584 27.7689 46.501 28.5407 44.4748 28.5407C44.3167 28.5407 43.8053 28.5221 43.6662 28.4845Z" fill="black"/>
</g>
</g>
</g>
</svg>
