<svg width="62" height="43" viewBox="0 0 62 43" fill="none" xmlns="http://www.w3.org/2000/svg">
<path d="M56.2174 1H5.78261C3.14125 1 1 3.14125 1 5.78261V37.087C1 39.7283 3.14125 41.8696 5.78261 41.8696H56.2174C58.8588 41.8696 61 39.7283 61 37.087V5.78261C61 3.14125 58.8588 1 56.2174 1Z" fill="white" stroke="#EDEDED" stroke-width="2"/>
<path d="M22.8648 19.8153C22.8648 20.2463 22.9085 20.5962 22.9916 20.8544C23.0835 21.1103 23.2016 21.3903 23.3635 21.6944C23.4152 21.7747 23.4432 21.8679 23.4445 21.9634C23.4445 22.0794 23.3745 22.1975 23.2257 22.3134L22.4907 22.8034C22.4025 22.8671 22.2975 22.9036 22.1888 22.9084C22.0707 22.9084 21.9548 22.8516 21.8388 22.7466C21.6816 22.5774 21.541 22.3935 21.4188 22.1975C21.2887 21.9731 21.1683 21.7432 21.0579 21.5084C20.1501 22.5825 19.0104 23.1206 17.6366 23.1206C16.6588 23.1206 15.8779 22.8384 15.3091 22.2784C14.7382 21.7184 14.4473 20.9703 14.4473 20.0363C14.4473 19.0431 14.7973 18.2381 15.506 17.63C16.217 17.0219 17.1598 16.72 18.3585 16.72C18.7523 16.72 19.1613 16.755 19.5923 16.8119C20.0232 16.8709 20.4673 16.965 20.931 17.07V16.2169C20.931 15.3288 20.7451 14.7097 20.3841 14.3488C20.0123 13.9856 19.3823 13.8106 18.4854 13.8106C18.0785 13.8106 17.6607 13.8588 17.2298 13.9638C16.8016 14.0656 16.3813 14.198 15.972 14.3597C15.8398 14.4195 15.7039 14.4707 15.5651 14.5128C15.5049 14.5327 15.4424 14.5445 15.3791 14.5478C15.2151 14.5478 15.1341 14.4297 15.1341 14.1847V13.6116C15.1341 13.4256 15.156 13.2834 15.2151 13.2047C15.3032 13.0974 15.4157 13.0126 15.5432 12.9575C15.9479 12.7475 16.4379 12.5725 17.0088 12.4325C17.5776 12.2794 18.1835 12.2116 18.8245 12.2116C20.2091 12.2116 21.222 12.5266 21.8738 13.1566C22.5148 13.7866 22.8407 14.7447 22.8407 16.0309V19.8153H22.8626H22.8648ZM18.1376 21.5894C18.5204 21.5894 18.9163 21.5194 19.3363 21.3794C19.7541 21.2394 20.1282 20.9813 20.441 20.6313C20.6286 20.4164 20.7641 20.1611 20.837 19.8853C20.907 19.6031 20.9551 19.2663 20.9551 18.8681V18.3781C20.6018 18.2924 20.2439 18.2267 19.8832 18.1813C19.5205 18.1343 19.1552 18.1102 18.7895 18.1091C18.0085 18.1091 17.4376 18.2622 17.0548 18.5772C16.6698 18.8922 16.486 19.3363 16.486 19.9203C16.486 20.4672 16.6238 20.8762 16.9148 21.1584C17.1948 21.4494 17.6016 21.5894 18.1376 21.5894ZM27.4848 22.8516C27.2748 22.8516 27.1348 22.8166 27.0429 22.7334C26.9488 22.6634 26.8679 22.5016 26.7979 22.2784L24.0635 13.2506C24.0096 13.0993 23.9736 12.9422 23.9563 12.7825C23.9563 12.5966 24.0504 12.4916 24.2363 12.4916H25.3782C25.597 12.4916 25.7501 12.5266 25.831 12.6075C25.9251 12.6775 25.9951 12.8416 26.0651 13.0625L28.0207 20.7953L29.8363 13.0625C29.8932 12.8306 29.9632 12.6775 30.0551 12.6075C30.1954 12.5215 30.3589 12.481 30.5232 12.4916H31.4529C31.676 12.4916 31.8248 12.5266 31.9188 12.6075C32.0129 12.6775 32.0938 12.8416 32.1398 13.0625L33.9795 20.8894L35.992 13.0625C36.0293 12.8931 36.1099 12.7364 36.226 12.6075C36.3616 12.5216 36.5209 12.481 36.681 12.4916H37.7638C37.9498 12.4916 38.0548 12.5856 38.0548 12.7825C38.0548 12.8416 38.0416 12.9006 38.0329 12.9706C38.0141 13.0699 37.9863 13.1673 37.9498 13.2616L35.1432 22.2894C35.0732 22.5234 34.9923 22.6766 34.9004 22.7466C34.7683 22.8311 34.6129 22.8716 34.4563 22.8625H33.4566C33.2357 22.8625 33.0848 22.8275 32.9907 22.7466C32.8966 22.6634 32.8157 22.5125 32.7698 22.2784L30.9651 14.7469L29.1713 22.2697C29.1145 22.5038 29.0445 22.6547 28.9526 22.7356C28.8585 22.8188 28.6945 22.8538 28.4866 22.8538H27.4848V22.8516ZM42.4429 23.1666C41.8388 23.1674 41.2367 23.0969 40.6491 22.9566C40.0673 22.8166 39.6145 22.6634 39.3104 22.4884C39.1245 22.3834 38.9976 22.2675 38.9495 22.1603C38.905 22.0574 38.8819 21.9465 38.8816 21.8344V21.2394C38.8816 20.9944 38.9735 20.8763 39.1485 20.8763C39.22 20.8764 39.2909 20.8882 39.3585 20.9113C39.4285 20.9353 39.5335 20.9812 39.6495 21.0294C40.0432 21.2044 40.4763 21.3444 40.9291 21.4384C41.3951 21.5303 41.8479 21.5784 42.3138 21.5784C43.0488 21.5784 43.6176 21.4494 44.0135 21.1934C44.2037 21.0783 44.36 20.9148 44.4664 20.7196C44.5729 20.5244 44.6257 20.3044 44.6195 20.0822C44.6234 19.9321 44.5976 19.7828 44.5435 19.6427C44.4894 19.5027 44.4082 19.3747 44.3045 19.2663C44.0966 19.0431 43.7007 18.8441 43.1298 18.6581L41.441 18.1331C40.5923 17.8641 39.9623 17.4659 39.5795 16.9409C39.2047 16.4558 39.0002 15.8608 38.9976 15.2478C38.9976 14.7578 39.1026 14.3247 39.3104 13.9506C39.5204 13.5788 39.8004 13.2506 40.1504 12.9925C40.5004 12.7256 40.8941 12.5266 41.3601 12.3866C41.826 12.2466 42.3138 12.1875 42.8257 12.1875C43.0838 12.1875 43.3507 12.1984 43.6066 12.2334C43.8735 12.2684 44.1185 12.3166 44.3635 12.3647C44.5954 12.4216 44.8185 12.4784 45.0263 12.5506C45.2363 12.6206 45.3982 12.6906 45.5163 12.7606C45.6537 12.8296 45.7734 12.9291 45.8663 13.0516C45.9412 13.1655 45.9773 13.3005 45.9691 13.4366V13.9856C45.9691 14.2306 45.8773 14.3597 45.7023 14.3597C45.5473 14.342 45.3973 14.2945 45.2604 14.2197C44.557 13.9078 43.7941 13.7526 43.0248 13.7647C42.362 13.7647 41.837 13.8697 41.476 14.0928C41.1151 14.3116 40.9291 14.6528 40.9291 15.1319C40.9291 15.4578 41.0451 15.7378 41.2791 15.9609C41.511 16.1819 41.942 16.4028 42.5588 16.6019L44.2126 17.1269C45.0504 17.3959 45.6563 17.77 46.0173 18.2491C46.3782 18.7281 46.551 19.2772 46.551 19.8853C46.551 20.3884 46.4482 20.8413 46.2491 21.2394C46.043 21.6389 45.7536 21.9895 45.4004 22.2675C45.0395 22.5584 44.6085 22.7706 44.1076 22.9216C43.5826 23.0856 43.0357 23.1666 42.4429 23.1666Z" fill="#252F3E"/>
<path fill-rule="evenodd" clip-rule="evenodd" d="M44.642 28.8412C40.8139 31.6784 35.2489 33.1856 30.4648 33.1856C23.7602 33.1856 17.7183 30.6984 13.1552 26.564C12.7942 26.2359 13.1202 25.7918 13.5489 26.05C18.4861 28.9221 24.5739 30.6634 30.8739 30.6634C35.1198 30.6634 39.788 29.7753 44.0842 27.9531C44.7252 27.6621 45.272 28.3731 44.642 28.8412Z" fill="#FF9900"/>
<path fill-rule="evenodd" clip-rule="evenodd" d="M46.2373 27.0173C45.7495 26.3895 43.002 26.7154 41.7573 26.8664C41.3854 26.9145 41.3264 26.5864 41.6632 26.3414C43.8507 24.7992 47.4492 25.2432 47.867 25.7573C48.287 26.2823 47.7511 29.8917 45.7014 31.6198C45.3886 31.8889 45.0867 31.7511 45.2245 31.4011C45.6904 30.2417 46.7273 27.6386 46.2373 27.0195V27.0173Z" fill="#FF9900"/>
</svg>
