<svg width="60" height="38" viewBox="0 0 60 38" fill="none" xmlns="http://www.w3.org/2000/svg">
<g id="Item &#226;&#134;&#146; Img">
<path id="Vector" opacity="0.07" d="M55.2632 0H4.73684C2.05263 0 0 2.05263 0 4.73684V33.1579C0 35.8421 2.21053 37.8947 4.73684 37.8947H55.2632C57.9474 37.8947 60 35.8421 60 33.1579V4.73684C60 2.05263 57.7895 0 55.2632 0Z" fill="black"/>
<path id="Vector_2" d="M55.2623 1.57812C56.9992 1.57812 58.4202 2.99918 58.4202 4.73602V33.1571C58.4202 34.8939 56.9992 36.315 55.2623 36.315H4.73602C2.99918 36.315 1.57812 34.8939 1.57812 33.1571V4.73602C1.57812 2.99918 2.99918 1.57812 4.73602 1.57812H55.2623Z" fill="white"/>
<path id="Vector_3" d="M28.5683 18.9099V23.9625H26.9609V11.4888H31.2099C31.719 11.4802 32.2248 11.5723 32.6982 11.7598C33.1715 11.9473 33.6032 12.2266 33.9683 12.5815C34.3141 12.9042 34.593 13.2919 34.7889 13.7225C34.9848 14.153 35.094 14.618 35.1101 15.0907C35.1262 15.5635 35.049 16.0348 34.8829 16.4777C34.7168 16.9206 34.465 17.3264 34.142 17.672L33.9683 17.8552C33.2262 18.5609 32.2346 18.9446 31.2099 18.9194L28.5683 18.9099ZM28.5683 13.0173V17.4194H31.2494C31.8446 17.4383 32.4194 17.2062 32.8362 16.7815C33.1344 16.4707 33.3346 16.0791 33.4119 15.6554C33.4893 15.2317 33.4404 14.7947 33.2713 14.3986C33.1022 14.0025 32.8203 13.6648 32.4608 13.4277C32.1013 13.1905 31.68 13.0642 31.2494 13.0646L28.5683 13.0173ZM38.8062 15.1457C39.8325 15.0983 40.8367 15.4425 41.6136 16.1136C42.3162 16.7925 42.6904 17.7399 42.6399 18.7173V23.9815H41.1099V22.772H41.0325C40.7581 23.2256 40.3701 23.5998 39.9069 23.8576C39.4436 24.1154 38.9211 24.2479 38.3909 24.242C37.5255 24.27 36.6816 23.9693 36.0288 23.4004C35.7196 23.1481 35.4717 22.8288 35.304 22.4667C35.1363 22.1045 35.0532 21.7089 35.0609 21.3099C35.0427 20.9066 35.121 20.5048 35.2894 20.1379C35.4577 19.771 35.7112 19.4496 36.0288 19.2004C36.8079 18.6401 37.7508 18.3541 38.7099 18.3873C39.5262 18.3557 40.3362 18.5341 41.0625 18.9099V18.5815C41.0678 18.3099 41.0113 18.0407 40.8973 17.7943C40.7832 17.5478 40.6145 17.3305 40.4041 17.1588C39.9815 16.7746 39.4278 16.5667 38.8567 16.5778C38.442 16.5739 38.0331 16.6758 37.6687 16.8739C37.3042 17.072 36.9964 17.3597 36.7741 17.7099L35.3609 16.8194C35.7447 16.2696 36.2627 15.8271 36.8658 15.5342C37.4688 15.2412 38.1368 15.1075 38.8062 15.1457ZM36.7741 21.3478C36.7703 21.5523 36.8168 21.7546 36.9096 21.9369C37.0024 22.1191 37.1386 22.2758 37.3062 22.393C37.6583 22.6709 38.0957 22.8178 38.5457 22.8083C39.223 22.8067 39.872 22.5399 40.3551 22.063C40.8367 21.6115 41.1099 20.9815 41.1099 20.3215C40.502 19.8893 39.7635 19.6807 39.0194 19.7309C38.4416 19.7082 37.8717 19.8709 37.393 20.1952C37.2035 20.322 37.0479 20.4934 36.94 20.6944C36.8321 20.8953 36.7751 21.1197 36.7741 21.3478ZM51.4362 15.4267L46.0836 27.7267H44.4288L46.4515 23.4194L42.9399 15.4267H44.6815L47.2267 21.5609L49.7041 15.4267H51.4362Z" fill="#5F6368"/>
<path id="Vector_4" d="M22.0823 17.8159C22.0823 17.3296 22.0444 16.8433 21.967 16.3633H15.1934V19.1217H19.0634C18.9846 19.5601 18.8181 19.9781 18.5739 20.3506C18.3297 20.7231 18.0129 21.0425 17.6423 21.2896V23.0801H19.9539C20.6567 22.4001 21.2093 21.5802 21.5759 20.6735C21.9425 19.7668 22.115 18.7934 22.0823 17.8159Z" fill="#4285F4"/>
<path id="Vector_5" d="M15.2045 24.8214C16.9514 24.8694 18.6508 24.25 19.9572 23.0893L17.6424 21.2893C17.0863 21.6459 16.4561 21.871 15.7998 21.9474C15.1436 22.0239 14.4785 21.9497 13.8553 21.7304C13.232 21.5112 12.667 21.1528 12.2031 20.6823C11.7392 20.2119 11.3887 19.6419 11.1782 19.0156H8.80664V20.863C9.40009 22.052 10.313 23.0522 11.4431 23.7513C12.5732 24.4505 13.8757 24.8211 15.2045 24.8214Z" fill="#34A853"/>
<path id="Vector_6" d="M11.1778 19.0282C10.8774 18.1398 10.8774 17.1772 11.1778 16.2888V14.4414H8.8062C8.30059 15.4384 8.03711 16.5406 8.03711 17.6585C8.03711 18.7764 8.30059 19.8786 8.8062 20.8756L11.1778 19.0282Z" fill="#FBBC04"/>
<path id="Vector_7" d="M15.2045 13.3251C16.2261 13.3064 17.2137 13.6923 17.9519 14.3988L20.0045 12.3572C18.6957 11.1288 16.9598 10.4587 15.1651 10.4893C13.8441 10.4959 12.5507 10.8682 11.4284 11.565C10.306 12.2617 9.3986 13.2557 8.80664 14.4366L11.1782 16.2856C11.4555 15.4331 11.9931 14.689 12.7153 14.1579C13.4376 13.6269 14.3081 13.3356 15.2045 13.3251Z" fill="#EA4335"/>
</g>
</svg>
