<svg width="60" height="38" viewBox="0 0 60 38" fill="none" xmlns="http://www.w3.org/2000/svg">
<g id="Item &#226;&#134;&#146; Img">
<path id="Vector" opacity="0.07" d="M55.2632 0H4.73684C2.05263 0 0 2.05263 0 4.73684V33.1579C0 35.8421 2.21053 37.8947 4.73684 37.8947H55.2632C57.9474 37.8947 60 35.8421 60 33.1579V4.73684C60 2.05263 57.7895 0 55.2632 0Z" fill="black"/>
<path id="Vector_2" d="M55.2623 1.57812C56.9992 1.57812 58.4202 2.99918 58.4202 4.73602V33.1571C58.4202 34.8939 56.9992 36.315 55.2623 36.315H4.73602C2.99918 36.315 1.57812 34.8939 1.57812 33.1571V4.73602C1.57812 2.99918 2.99918 1.57812 4.73602 1.57812H55.2623Z" fill="white"/>
<path id="Vector_3" d="M23.6835 29.9998C29.7877 29.9998 34.7361 25.0514 34.7361 18.9472C34.7361 12.843 29.7877 7.89453 23.6835 7.89453C17.5793 7.89453 12.6309 12.843 12.6309 18.9472C12.6309 25.0514 17.5793 29.9998 23.6835 29.9998Z" fill="#EB001B"/>
<path id="Vector_4" d="M36.3163 29.9998C42.4205 29.9998 47.3689 25.0514 47.3689 18.9472C47.3689 12.843 42.4205 7.89453 36.3163 7.89453C30.2121 7.89453 25.2637 12.843 25.2637 18.9472C25.2637 25.0514 30.2121 29.9998 36.3163 29.9998Z" fill="#F79E1B"/>
<path id="Vector_5" d="M34.7374 18.9492C34.7374 15.1597 32.8426 11.844 30.0005 9.94922C27.1584 12.0019 25.2637 15.3176 25.2637 18.9492C25.2637 22.5808 27.1584 26.0545 30.0005 27.9492C32.8426 26.0545 34.7374 22.7387 34.7374 18.9492Z" fill="#FF5F00"/>
</g>
</svg>
