<svg width="60" height="38" viewBox="0 0 60 38" fill="none" xmlns="http://www.w3.org/2000/svg">
<g id="Item &#226;&#134;&#146; Img">
<path id="Vector" opacity="0.07" d="M55.2632 0H4.73684C2.05263 0 0 2.05 0 4.73077V33.1154C0 35.7962 2.21053 37.8462 4.73684 37.8462H55.2632C57.9474 37.8462 60 35.7962 60 33.1154V4.73077C60 2.05 57.7895 0 55.2632 0Z" fill="black"/>
<path id="Vector_2" d="M55.2623 1.57812C56.9992 1.57812 58.4202 2.99736 58.4202 4.73197V33.1166C58.4202 34.8512 56.9992 36.2704 55.2623 36.2704H4.73602C2.99918 36.2704 1.57812 34.8512 1.57812 33.1166V4.73197C1.57812 2.99736 2.99918 1.57812 4.73602 1.57812H55.2623Z" fill="white"/>
<path id="Vector_3" d="M7.86851 20.477C7.86851 21.0258 7.98851 21.4453 8.14641 21.7007C8.23014 21.8456 8.35082 21.9657 8.49616 22.0488C8.6415 22.1319 8.8063 22.175 8.97377 22.1738C9.37956 22.1738 9.74904 22.0744 10.4627 21.0889C11.0343 20.3004 11.7069 19.1903 12.1617 18.4948L12.929 17.3169C13.4611 16.5 14.0785 15.5901 14.7859 14.9736C15.3638 14.4705 15.9859 14.1914 16.6143 14.1914C17.6675 14.1914 18.6701 14.8001 19.4375 15.9434C20.2775 17.1954 20.6848 18.7708 20.6848 20.3982C20.6848 21.3648 20.4954 22.076 20.1701 22.6374C19.8543 23.1814 19.2432 23.7223 18.2154 23.7223V22.1754C19.0964 22.1754 19.3159 21.3664 19.3159 20.4408C19.3159 19.1224 19.008 17.6591 18.3306 16.6136C17.849 15.8724 17.2254 15.4198 16.5401 15.4198C15.798 15.4198 15.2011 15.9781 14.5285 16.9747C14.1717 17.5045 13.8069 18.1495 13.3948 18.878L12.9417 19.6791C12.0322 21.2876 11.8017 21.6566 11.3469 22.2605C10.5511 23.3202 9.87062 23.7223 8.97535 23.7223C7.91114 23.7223 7.23851 23.2634 6.82325 22.5712C6.48377 22.0066 6.31641 21.2655 6.31641 20.4203L7.86851 20.4754V20.477Z" fill="#0081FB"/>
<path id="Vector_4" d="M7.53906 16.0522C8.24959 14.9578 9.2759 14.1914 10.4554 14.1914C11.1375 14.1914 11.8149 14.3933 12.5238 14.9704C13.2975 15.6012 14.1233 16.6419 15.1527 18.3545L15.5222 18.9695C16.4143 20.4518 16.9212 21.215 17.218 21.5746C17.6001 22.0366 17.867 22.1738 18.2143 22.1738C19.0954 22.1738 19.3149 21.3664 19.3149 20.4408L20.6838 20.3982C20.6838 21.3648 20.4943 22.076 20.1691 22.6374C19.8533 23.1814 19.2422 23.7223 18.2143 23.7223C17.5749 23.7223 17.008 23.5836 16.3827 22.9938C15.8996 22.5412 15.3359 21.7354 14.9033 21.0116L13.6149 18.8623C12.9675 17.7836 12.3754 16.9794 12.0312 16.6151C11.6617 16.2225 11.188 15.7494 10.4301 15.7494C9.81748 15.7494 9.29643 16.1799 8.86064 16.8375L7.53906 16.0522Z" fill="url(#paint0_linear_46_4141)"/>
<path id="Vector_5" d="M10.4311 15.7494C9.81851 15.7494 9.29746 16.1799 8.86167 16.8375C8.24588 17.7647 7.86851 19.1493 7.86851 20.477C7.86851 21.0258 7.98851 21.4453 8.14641 21.7007L6.82325 22.5712C6.48377 22.0066 6.31641 21.2655 6.31641 20.4203C6.31641 18.8859 6.73799 17.2869 7.54009 16.0522C8.25062 14.9562 9.27693 14.1914 10.4564 14.1914L10.4311 15.7494Z" fill="url(#paint1_linear_46_4141)"/>
<path id="Vector_6" d="M23.6992 14.4922H25.4961L28.5482 20.0083L31.6018 14.4922H33.3576V23.5548H31.8924V16.6084L29.2161 21.418H27.8424L25.1645 16.6084V23.5548H23.7008L23.6992 14.4922ZM37.9461 17.8715C36.8961 17.8715 36.2629 18.66 36.1113 19.6377H39.6766C39.604 18.6316 39.0213 17.8715 37.9461 17.8715ZM34.6603 20.1959C34.6603 18.138 35.9913 16.6415 37.9713 16.6415C39.9197 16.6415 41.0834 18.1191 41.0834 20.3047V20.7068H36.1129C36.2882 21.7697 36.9955 22.4872 38.134 22.4872C39.0434 22.4872 39.6119 22.2096 40.1503 21.7035L40.9287 22.6543C40.1945 23.3277 39.2629 23.7172 38.0819 23.7172C35.9376 23.7172 34.6603 22.156 34.6603 20.1959ZM42.8597 18.0008H41.5113V16.8024H42.8597V14.8249H44.2729V16.8055H46.3208V18.004H44.2729V21.038C44.2729 22.074 44.6045 22.4415 45.4192 22.4415C45.7919 22.4415 46.005 22.4099 46.3192 22.3579V23.5437C45.9276 23.6541 45.5534 23.7046 45.1476 23.7046C43.6224 23.7046 42.8582 22.872 42.8582 21.2067V18.0024L42.8597 18.0008ZM52.2703 19.1662C52.1317 18.7917 51.8788 18.4703 51.5473 18.2473C51.2157 18.0243 50.8224 17.9111 50.4229 17.9236C49.2134 17.9236 48.4397 18.7798 48.4397 20.1754C48.4397 21.5363 49.1519 22.4351 50.3661 22.4351C51.3182 22.4351 51.9987 21.8816 52.2703 21.1925V19.1662ZM53.6834 23.5548H52.2971V22.6086C51.9087 23.1653 51.2029 23.7172 50.0597 23.7172C48.2219 23.7172 46.995 22.1797 46.995 20.1754C46.995 18.1522 48.2519 16.6415 50.1371 16.6415C51.0703 16.6415 51.8029 17.0137 52.2971 17.6713V16.804H53.6834V23.5548Z" fill="black"/>
</g>
<defs>
<linearGradient id="paint0_linear_46_4141" x1="9.36275" y1="20.0308" x2="19.2564" y2="20.5303" gradientUnits="userSpaceOnUse">
<stop stop-color="#0064E1"/>
<stop offset="0.4" stop-color="#0064E1"/>
<stop offset="0.83" stop-color="#0073EE"/>
<stop offset="1" stop-color="#0082FB"/>
</linearGradient>
<linearGradient id="paint1_linear_46_4141" x1="8.56483" y1="21.1283" x2="8.56483" y2="17.4856" gradientUnits="userSpaceOnUse">
<stop stop-color="#0082FB"/>
<stop offset="1" stop-color="#0064E0"/>
</linearGradient>
</defs>
</svg>
