<svg width="60" height="38" viewBox="0 0 60 38" fill="none" xmlns="http://www.w3.org/2000/svg">
<g id="Item &#226;&#134;&#146; Img">
<path id="Vector" opacity="0.07" d="M55.2632 0H4.73684C2.05263 0 0 2.05263 0 4.73684V33.1579C0 35.8421 2.21053 37.8947 4.73684 37.8947H55.2632C57.9474 37.8947 60 35.8421 60 33.1579V4.73684C60 2.05263 57.7895 0 55.2632 0Z" fill="black"/>
<path id="Vector_2" d="M55.2623 1.57812C56.9992 1.57812 58.4202 2.99918 58.4202 4.73602V33.1571C58.4202 34.8939 56.9992 36.315 55.2623 36.315H4.73602C2.99918 36.315 1.57812 34.8939 1.57812 33.1571V4.73602C1.57812 2.99918 2.99918 1.57812 4.73602 1.57812H55.2623Z" fill="white"/>
<path id="Vector_3" d="M37.737 13.1051C38.0528 11.5261 37.737 10.4208 36.7897 9.47348C35.8423 8.36822 34.1055 7.89453 31.8949 7.89453H25.4213C24.9476 7.89453 24.6318 8.21032 24.4739 8.684L22.1055 24.6314C22.1055 24.9472 22.2634 25.263 22.5792 25.263H26.8423L27.4739 19.8945L30.316 16.4208L37.737 13.1051Z" fill="#003087"/>
<path id="Vector_4" d="M37.7373 13.1055L37.4215 13.4213C36.632 17.8423 33.9478 19.4213 30.1583 19.4213H28.4215C27.9478 19.4213 27.632 19.737 27.4741 20.2107L26.5267 26.3686L26.2109 27.9476C26.2109 28.2634 26.3688 28.5792 26.6846 28.5792H30.0004C30.4741 28.5792 30.7899 28.2634 30.7899 27.9476V27.7897L31.4215 24.0002V23.8423C31.4215 23.5265 31.8951 23.2107 32.2109 23.2107H32.6846C36.0004 23.2107 38.5267 21.9476 39.1583 18.1581C39.4741 16.5792 39.3162 15.316 38.5267 14.3686C38.3688 13.5792 38.053 13.2634 37.7373 13.1055Z" fill="#3086C8"/>
<path id="Vector_5" d="M36.7904 12.7901C36.6325 12.6322 36.4746 12.6322 36.3167 12.6322C36.1588 12.6322 36.0009 12.6322 35.843 12.4743C35.3693 12.3164 34.7378 12.3164 34.1062 12.3164H29.3693C29.2115 12.3164 29.0536 12.3164 29.0536 12.4743C28.7378 12.6322 28.5799 12.7901 28.5799 13.1059L27.4746 20.0532V20.2111C27.4746 19.7375 27.9483 19.4217 28.422 19.4217H30.4746C34.422 19.4217 36.9483 17.8427 37.7378 13.4217V13.1059C37.5799 12.948 37.2641 12.7901 36.9483 12.7901H36.7904Z" fill="#012169"/>
</g>
</svg>
