<svg width="60" height="42" viewBox="0 0 60 42" fill="none" xmlns="http://www.w3.org/2000/svg">
<path d="M54.3768 1H5.62319C3.06987 1 1 3.06987 1 5.62319V35.8841C1 38.4374 3.06987 40.5072 5.62319 40.5072H54.3768C56.9301 40.5072 59 38.4374 59 35.8841V5.62319C59 3.06987 56.9301 1 54.3768 1Z" fill="white" stroke="#EDEDED" stroke-width="2"/>
<path fill-rule="evenodd" clip-rule="evenodd" d="M31.7487 14.0762L28.8024 14.7086V12.3198L31.7487 11.6992V14.0762ZM37.8758 15.3995C36.7254 15.3995 35.9859 15.938 35.5751 16.3128L35.4225 15.5868H32.8401V29.24L35.7746 28.6194L35.7864 25.3056C36.209 25.61 36.8311 26.0433 37.8641 26.0433C39.9651 26.0433 41.8785 24.3571 41.8785 20.6452C41.8667 17.2495 39.9299 15.3995 37.8758 15.3995ZM37.1715 23.4672C36.4789 23.4672 36.068 23.2213 35.7863 22.9168L35.7746 18.5726C36.0798 18.2331 36.5024 17.9989 37.1715 17.9989C38.2396 17.9989 38.9791 19.1932 38.9791 20.7272C38.9791 22.2962 38.2513 23.4672 37.1715 23.4672ZM51.1282 20.7623C51.1282 17.7647 49.6727 15.3995 46.8908 15.3995C44.0971 15.3995 42.4069 17.7647 42.4069 20.7389C42.4069 24.2634 44.4023 26.0433 47.2664 26.0433C48.6632 26.0433 49.7197 25.7271 50.5178 25.2822V22.9403C49.7197 23.3384 48.8041 23.5843 47.642 23.5843C46.5034 23.5843 45.494 23.1862 45.3649 21.8045H51.1048C51.1048 21.74 51.109 21.5936 51.1138 21.4248C51.1205 21.1953 51.1282 20.9242 51.1282 20.7623ZM45.3296 19.6499C45.3296 18.3268 46.1395 17.7765 46.879 17.7765C47.595 17.7765 48.358 18.3268 48.358 19.6499H45.3296ZM28.8022 15.5985H31.7485V25.8443H28.8022V15.5985ZM25.4571 15.5985L25.6449 16.465C26.3375 15.2003 27.7108 15.458 28.0864 15.5985V18.2917C27.7226 18.1628 26.5487 17.9989 25.8562 18.9006V25.8443H22.9217V15.5985H25.4571ZM19.7757 13.0575L16.9116 13.6664L16.8999 23.0457C16.8999 24.7786 18.2028 26.055 19.94 26.055C20.9025 26.055 21.6068 25.8794 21.9942 25.6686V23.2916C21.6186 23.4438 19.7639 23.9825 19.7639 22.2494V18.0926H21.9942V15.5985H19.7639L19.7757 13.0575ZM12.8386 17.9404C12.2165 17.9404 11.8409 18.116 11.8409 18.5727C11.8409 19.0714 12.4873 19.2907 13.2893 19.5628C14.5967 20.0064 16.3175 20.5902 16.3248 22.7529C16.3248 24.849 14.6462 26.055 12.2048 26.055C11.1952 26.055 10.0918 25.8559 9.00019 25.3876V22.6007C9.98619 23.1394 11.2305 23.5375 12.2048 23.5375C12.8621 23.5375 13.3316 23.3619 13.3316 22.8232C13.3316 22.271 12.6308 22.0185 11.7848 21.7137C10.4964 21.2496 8.87109 20.664 8.87109 18.7132C8.87109 16.6407 10.4557 15.3995 12.8386 15.3995C13.8129 15.3995 14.7754 15.5517 15.7496 15.9381V18.6898C14.8575 18.2097 13.7307 17.9404 12.8386 17.9404Z" fill="#6461FC"/>
</svg>
