<svg width="60" height="38" viewBox="0 0 60 38" fill="none" xmlns="http://www.w3.org/2000/svg">
<g id="Item &#226;&#134;&#146; Img">
<path id="Vector" opacity="0.07" d="M55.2632 0H4.73684C2.05263 0 0 2.05263 0 4.73684V33.1579C0 35.8421 2.21053 37.8947 4.73684 37.8947H55.2632C57.9474 37.8947 60 35.8421 60 33.1579V4.73684C60 2.05263 57.7895 0 55.2632 0Z" fill="black"/>
<path id="Vector_2" d="M55.2623 1.57812C56.9992 1.57812 58.4202 2.99918 58.4202 4.73602V33.1571C58.4202 34.8939 56.9992 36.315 55.2623 36.315H4.73602C2.99918 36.315 1.57812 34.8939 1.57812 33.1571V4.73602C1.57812 2.99918 2.99918 1.57812 4.73602 1.57812H55.2623Z" fill="white"/>
<path id="Vector_3" d="M44.684 15.9486H44.2103C43.5787 17.5276 43.1051 18.317 42.6314 20.6854H45.6314C45.1577 18.317 45.1577 17.2118 44.684 15.9486ZM49.263 25.2644H46.5787C46.4208 25.2644 46.4208 25.2644 46.263 25.1065L45.9472 23.6854L45.7893 23.3697H41.9998C41.8419 23.3697 41.684 23.3697 41.684 23.6854L41.2103 25.1065C41.2103 25.2644 41.0524 25.2644 41.0524 25.2644H37.7366L38.0524 24.4749L42.6314 13.7381C42.6314 12.9486 43.1051 12.6328 43.8945 12.6328H46.263C46.4208 12.6328 46.5787 12.6328 46.5787 12.9486L48.7893 23.2118C48.9472 23.8433 49.1051 24.317 49.1051 24.9486C49.263 25.1065 49.263 25.1065 49.263 25.2644ZM28.1051 24.7907L28.7366 21.9486C28.8945 21.9486 29.0524 22.1065 29.0524 22.1065C30.1577 22.5802 31.263 22.896 32.3682 22.7381C32.684 22.7381 33.1577 22.5802 33.4735 22.4223C34.263 22.1065 34.263 21.317 33.6314 20.6854C33.3156 20.3697 32.8419 20.2118 32.3682 19.896C31.7366 19.5802 31.1051 19.2644 30.6314 18.7907C28.7366 17.2118 29.3682 15.0012 30.4735 13.896C31.4208 13.2644 31.8945 12.6328 33.1577 12.6328C35.0524 12.6328 37.1051 12.6328 38.0524 12.9486H38.2103C38.0524 13.896 37.8945 14.6854 37.5787 15.6328C36.7893 15.317 35.9998 15.0012 35.2103 15.0012C34.7366 15.0012 34.263 15.0012 33.7893 15.1591C33.4735 15.1591 33.3156 15.317 33.1577 15.4749C32.8419 15.7907 32.8419 16.2644 33.1577 16.5802L33.9472 17.2118C34.5787 17.5275 35.2103 17.8433 35.684 18.1591C36.4735 18.6328 37.263 19.4223 37.4208 20.3697C37.7366 21.7907 37.263 23.0539 35.9998 24.0012C35.2103 24.6328 34.8945 24.9486 33.7893 24.9486C31.5787 24.9486 29.8419 25.1065 28.4208 24.6328C28.263 24.9486 28.263 24.9486 28.1051 24.7907ZM22.5787 25.2644C22.7366 24.1591 22.7366 24.1591 22.8945 23.6854C23.684 20.2118 24.4735 16.5802 25.1051 13.1065C25.263 12.7907 25.263 12.6328 25.5787 12.6328H28.4208C28.1051 14.5275 27.7893 15.9486 27.3156 17.6854C26.8419 20.0539 26.3682 22.4223 25.7366 24.7907C25.7366 25.1065 25.5787 25.1065 25.263 25.1065M7.89453 12.9486C7.89453 12.7907 8.21032 12.6328 8.36822 12.6328H13.7366C14.5261 12.6328 15.1577 13.1065 15.3156 13.896L16.7366 20.8433C16.7366 21.0012 16.7366 21.0012 16.8945 21.1591C16.8945 21.0012 17.0524 21.0012 17.0524 21.0012L20.3682 12.9486C20.2103 12.7907 20.3682 12.6328 20.5261 12.6328H23.8419C23.8419 12.7907 23.8419 12.7907 23.684 12.9486L18.7893 24.4749C18.6314 24.7907 18.6314 24.9486 18.4735 25.1065C18.3156 25.2644 17.9998 25.1065 17.684 25.1065H15.3156C15.1577 25.1065 14.9998 25.1065 14.9998 24.7907L12.4735 15.0012C12.1577 14.6854 11.684 14.2118 11.0524 14.0539C10.1051 13.5802 8.36822 13.2644 8.05243 13.2644L7.89453 12.9486Z" fill="#142688"/>
</g>
</svg>
