<svg width="62" height="62" viewBox="0 0 62 62" fill="none" xmlns="http://www.w3.org/2000/svg">
<g id="svgexport-20 (85) 1">
<g id="Group">
<g id="Group_2">
<path id="Vector" fill-rule="evenodd" clip-rule="evenodd" d="M41.7603 51.6678C42.1028 51.6678 42.4314 51.5317 42.6736 51.2895C42.9158 51.0473 43.0519 50.7187 43.0519 50.3761C43.0519 50.0336 42.9158 49.705 42.6736 49.4628C42.4314 49.2206 42.1028 49.0845 41.7603 49.0845C41.4177 49.0845 41.0891 49.2206 40.8469 49.4628C40.6047 49.705 40.4686 50.0336 40.4686 50.3761C40.4686 50.7187 40.6047 51.0473 40.8469 51.2895C41.0891 51.5317 41.4177 51.6678 41.7603 51.6678ZM41.7603 55.5428C43.1305 55.5428 44.4447 54.9985 45.4136 54.0295C46.3826 53.0606 46.9269 51.7464 46.9269 50.3761C46.9269 49.0059 46.3826 47.6917 45.4136 46.7228C44.4447 45.7538 43.1305 45.2095 41.7603 45.2095C40.39 45.2095 39.0758 45.7538 38.1069 46.7228C37.1379 47.6917 36.5936 49.0059 36.5936 50.3761C36.5936 51.7464 37.1379 53.0606 38.1069 54.0295C39.0758 54.9985 40.39 55.5428 41.7603 55.5428ZM26.2603 51.6678C26.6028 51.6678 26.9314 51.5317 27.1736 51.2895C27.4158 51.0473 27.5519 50.7187 27.5519 50.3761C27.5519 50.0336 27.4158 49.705 27.1736 49.4628C26.9314 49.2206 26.6028 49.0845 26.2603 49.0845C25.9177 49.0845 25.5891 49.2206 25.3469 49.4628C25.1047 49.705 24.9686 50.0336 24.9686 50.3761C24.9686 50.7187 25.1047 51.0473 25.3469 51.2895C25.5891 51.5317 25.9177 51.6678 26.2603 51.6678ZM26.2603 55.5428C27.6305 55.5428 28.9447 54.9985 29.9136 54.0295C30.8826 53.0606 31.4269 51.7464 31.4269 50.3761C31.4269 49.0059 30.8826 47.6917 29.9136 46.7228C28.9447 45.7538 27.6305 45.2095 26.2603 45.2095C24.89 45.2095 23.5758 45.7538 22.6069 46.7228C21.6379 47.6917 21.0936 49.0059 21.0936 50.3761C21.0936 51.7464 21.6379 53.0606 22.6069 54.0295C23.5758 54.9985 24.89 55.5428 26.2603 55.5428ZM7.8566 7.96815C8.14163 7.54064 8.58481 7.24387 9.08865 7.1431C9.59249 7.04233 10.1157 7.14583 10.5433 7.43081L13.5606 9.44194C14.5246 10.0844 15.2052 11.0725 15.4619 12.2022L20.7771 35.5917C20.9394 36.3056 21.3394 36.9432 21.9116 37.3999C22.4837 37.8566 23.1941 38.1054 23.9262 38.1053H44.0943C44.8264 38.1054 45.5368 37.8566 46.109 37.3999C46.6811 36.9432 47.0812 36.3056 47.2434 35.5917L51.3535 17.5084C51.4609 17.0356 51.4605 16.5446 51.3523 16.072C51.244 15.5993 51.0308 15.1571 50.7282 14.7782C50.4257 14.3992 50.0418 14.0933 49.6048 13.883C49.1679 13.6728 48.6893 13.5636 48.2044 13.5636H28.1978C27.6839 13.5636 27.1911 13.3595 26.8277 12.9962C26.4644 12.6328 26.2603 12.14 26.2603 11.6261C26.2603 11.1123 26.4644 10.6195 26.8277 10.2561C27.1911 9.89278 27.6839 9.68865 28.1978 9.68865H48.2044C52.764 9.68865 56.1417 13.9214 55.1316 18.3674L51.0215 36.4507C50.6643 38.0208 49.7843 39.4231 48.5257 40.4275C47.2671 41.432 45.7046 41.979 44.0943 41.979H23.9262C22.3159 41.979 20.7534 41.432 19.4948 40.4275C18.2362 39.4231 17.3562 38.0208 16.999 36.4507L11.6825 13.0599C11.6458 12.8987 11.5488 12.7577 11.4113 12.6659L8.39393 10.6548C7.96643 10.3698 7.66965 9.92659 7.56888 9.42276C7.46812 8.91892 7.57161 8.39569 7.8566 7.96815Z" fill="#D80073"/>
<path id="Vector_2" fill-rule="evenodd" clip-rule="evenodd" d="M26.247 25.9125C26.6101 25.5495 27.1024 25.3455 27.6159 25.3452C28.1293 25.345 28.6218 25.5486 28.9853 25.9112L31.2715 28.1936L39.0345 20.4307C39.2133 20.2457 39.4271 20.0982 39.6636 19.9968C39.9 19.8954 40.1543 19.842 40.4115 19.8399C40.6688 19.8378 40.9239 19.8869 41.162 19.9845C41.4 20.082 41.6163 20.226 41.7981 20.408C41.9799 20.59 42.1237 20.8064 42.221 21.0445C42.3183 21.2827 42.3672 21.5378 42.3649 21.7951C42.3625 22.0523 42.3089 22.3066 42.2073 22.5429C42.1056 22.7792 41.9579 22.9929 41.7728 23.1716L32.6407 32.3037C32.2774 32.6665 31.785 32.8703 31.2715 32.8703C30.7581 32.8703 30.2657 32.6665 29.9024 32.3037L26.247 28.6521C25.8837 28.2888 25.6797 27.7961 25.6797 27.2823C25.6797 26.7686 25.8837 26.2758 26.247 25.9125Z" fill="#D80073"/>
</g>
</g>
</g>
</svg>
