<svg width="202" height="203" viewBox="0 0 202 203" fill="none" xmlns="http://www.w3.org/2000/svg">
<g id="svgexport-15 - 2024-10-16T183148.048 1">
<g id="Group">
<path id="Vector" d="M145.183 41.852V178.496C145.183 180.931 144.215 183.266 142.494 184.988C140.772 186.71 138.436 187.678 136.001 187.678H22.0363C19.6011 187.678 17.2657 186.71 15.5438 184.988C13.8219 183.266 12.8545 180.931 12.8545 178.496V41.852C12.8545 39.4169 13.8219 37.0814 15.5438 35.3595C17.2657 33.6376 19.6011 32.6702 22.0363 32.6702H52.3363V44.3678C52.3435 44.7224 52.4204 45.072 52.5627 45.3968C52.705 45.7215 52.91 46.0151 53.1658 46.2607C53.4216 46.5062 53.7232 46.699 54.0535 46.828C54.3839 46.9569 54.7363 47.0195 55.0909 47.0122H103.938C104.63 46.9837 105.284 46.6888 105.763 46.189C106.242 45.6893 106.51 45.0235 106.509 44.3311V32.6335H135.891C137.109 32.6188 138.318 32.8468 139.447 33.3039C140.576 33.7611 141.603 34.4384 142.468 35.2964C143.333 36.1544 144.018 37.1758 144.484 38.3013C144.95 39.4268 145.188 40.6338 145.183 41.852Z" fill="#D80073"/>
<path id="Vector_2" d="M145.183 41.8368V178.499C145.183 180.934 144.215 183.27 142.494 184.991C140.772 186.713 138.436 187.681 136.001 187.681H22.0363C19.6011 187.681 17.2657 186.713 15.5438 184.991C13.8219 183.27 12.8545 180.934 12.8545 178.499V175.983C45.0671 175.353 75.7473 162.113 98.3033 139.107C120.859 116.101 133.491 85.1655 133.485 52.9468V32.7468H135.891C137.098 32.7322 138.297 32.9559 139.417 33.4051C140.538 33.8543 141.559 34.5201 142.422 35.3644C143.285 36.2088 143.973 37.215 144.447 38.3257C144.921 39.4363 145.171 40.6294 145.183 41.8368Z" fill="#D80073"/>
<path id="Vector_3" d="M133.503 45.7631V176.016H26.9941C26.3707 176.016 25.7728 175.769 25.332 175.328C24.8912 174.887 24.6436 174.289 24.6436 173.666V45.7631C24.646 45.4568 24.7087 45.154 24.8281 44.872C24.9475 44.59 25.1213 44.3342 25.3396 44.1194C25.5579 43.9045 25.8163 43.7347 26.1002 43.6198C26.3841 43.5048 26.6878 43.4469 26.9941 43.4493H52.3726V44.3307C52.375 44.6852 52.4473 45.0358 52.5851 45.3624C52.723 45.689 52.9239 45.9852 53.1763 46.2342C53.4286 46.4832 53.7276 46.68 54.056 46.8134C54.3845 46.9468 54.736 47.0143 55.0905 47.0118H103.938C104.63 46.9834 105.284 46.6884 105.763 46.1886C106.242 45.6889 106.509 45.0231 106.509 44.3307V43.4493H131.153C131.459 43.4469 131.763 43.5048 132.047 43.6198C132.33 43.7347 132.589 43.9045 132.807 44.1194C133.025 44.3342 133.199 44.59 133.319 44.872C133.438 45.154 133.501 45.4568 133.503 45.7631Z" fill="#F4F6F8"/>
<path id="Vector_4" d="M37.1133 139.07H61.9409V163.898H37.1133V139.07Z" fill="#E9D023"/>
<path id="Vector_5" d="M61.9407 139.051V163.934H37.0947V158.424H37.7742C42.7371 158.424 47.4967 156.453 51.0059 152.944C54.5152 149.434 56.4867 144.675 56.4867 139.712V139.051H61.9407Z" fill="#E9D023"/>
<path id="Vector_6" d="M37.1133 100.398H61.9409V125.226H37.1133V100.398Z" fill="#66D4F1"/>
<path id="Vector_7" d="M61.9407 100.398V125.226H37.0947V119.864H37.7742C40.2393 119.864 42.6801 119.377 44.9564 118.431C47.2327 117.485 49.2997 116.098 51.0385 114.351C52.7773 112.603 54.1538 110.53 55.0888 108.249C56.0237 105.968 56.4988 103.525 56.4867 101.06V100.398H61.9407Z" fill="#474746"/>
<path id="Vector_8" d="M37.1133 59.5H61.9409V84.3276H37.1133V59.5Z" fill="#E9D023"/>
<path id="Vector_9" d="M61.9407 59.5V84.3276H37.0947V78.8185H37.7742C42.7275 78.8186 47.4788 76.8546 50.9865 73.3573C54.4942 69.8599 56.4721 65.1144 56.4867 60.1611V59.5H61.9407Z" fill="#E9D023"/>
<path id="Vector_10" d="M106.509 29.6232V44.3142C106.509 45.0221 106.229 45.7012 105.731 46.2035C105.232 46.7058 104.555 46.9904 103.847 46.9952H55.0912C54.3817 46.9904 53.7025 46.7064 53.2007 46.2047C52.699 45.7029 52.415 45.0237 52.4102 44.3142V29.6232C52.4102 28.9122 52.6926 28.2302 53.1954 27.7274C53.6982 27.2246 54.3802 26.9422 55.0912 26.9422H71.1594V23.6183C71.1594 21.4072 72.0378 19.2866 73.6013 17.7231C75.1648 16.1596 77.2854 15.2813 79.4965 15.2813C81.7093 15.2812 83.8318 16.159 85.3982 17.722C86.9647 19.285 87.8471 21.4055 87.852 23.6183V26.9422H103.902C104.602 26.9566 105.268 27.246 105.756 27.7478C106.244 28.2496 106.514 28.9233 106.509 29.6232Z" fill="#E9D023"/>
<path id="Vector_11" d="M106.509 29.6213V44.3122C106.509 45.0201 106.229 45.6993 105.731 46.2016C105.232 46.7039 104.555 46.9885 103.847 46.9933H55.0912C54.3802 46.9933 53.6982 46.7109 53.1954 46.2081C52.6926 45.7053 52.4102 45.0233 52.4102 44.3122V39.3173H81.4798C85.2169 39.3053 88.8517 38.0947 91.8497 35.8635C94.8478 33.6323 97.051 30.4982 98.1356 26.9219H103.902C104.603 26.9411 105.269 27.2345 105.757 27.7392C106.244 28.2439 106.514 28.9196 106.509 29.6213Z" fill="#E9D023"/>
<path id="Vector_12" d="M47.2315 157.672C46.9867 157.676 46.7437 157.631 46.5166 157.54C46.2896 157.448 46.0831 157.312 45.9093 157.14L41.7775 153.008C41.4767 152.657 41.3195 152.205 41.3373 151.743C41.3552 151.281 41.5468 150.842 41.8738 150.515C42.2008 150.188 42.6393 149.997 43.1014 149.979C43.5636 149.961 44.0155 150.118 44.3668 150.419L47.2131 153.247L54.5586 145.81C54.9044 145.464 55.3734 145.27 55.8624 145.27C56.3514 145.27 56.8204 145.464 57.1662 145.81C57.512 146.155 57.7063 146.624 57.7063 147.113C57.7063 147.602 57.512 148.071 57.1662 148.417L48.517 157.14C48.1749 157.479 47.7133 157.67 47.2315 157.672Z" fill="white"/>
<path id="Vector_13" d="M121.2 108.552H72.9584C72.4714 108.552 72.0043 108.358 71.6599 108.014C71.3155 107.669 71.1221 107.202 71.1221 106.715C71.1221 106.228 71.3155 105.761 71.6599 105.417C72.0043 105.072 72.4714 104.879 72.9584 104.879H121.2C121.687 104.879 122.154 105.072 122.498 105.417C122.843 105.761 123.036 106.228 123.036 106.715C123.036 107.202 122.843 107.669 122.498 108.014C122.154 108.358 121.687 108.552 121.2 108.552ZM121.2 120.763H72.9584C72.4714 120.763 72.0043 120.57 71.6599 120.226C71.3155 119.881 71.1221 119.414 71.1221 118.927C71.1221 118.44 71.3155 117.973 71.6599 117.629C72.0043 117.284 72.4714 117.091 72.9584 117.091H121.2C121.687 117.091 122.154 117.284 122.498 117.629C122.843 117.973 123.036 118.44 123.036 118.927C123.036 119.414 122.843 119.881 122.498 120.226C122.154 120.57 121.687 120.763 121.2 120.763Z" fill="#E9D023"/>
<path id="Vector_14" d="M47.2316 78.1201C46.9894 78.1288 46.7478 78.0895 46.5209 78.0044C46.294 77.9193 46.0862 77.7901 45.9094 77.6243L41.7776 73.4925C41.6055 73.3218 41.4688 73.1187 41.3756 72.8949C41.2824 72.6711 41.2344 72.4311 41.2344 72.1887C41.2344 71.9463 41.2824 71.7062 41.3756 71.4825C41.4688 71.2587 41.6055 71.0556 41.7776 70.8849C42.1216 70.5428 42.5871 70.3509 43.0722 70.3509C43.5573 70.3509 44.0228 70.5428 44.3668 70.8849L47.2132 73.7129L54.5587 66.3674C54.7294 66.1953 54.9325 66.0587 55.1563 65.9654C55.38 65.8722 55.6201 65.8242 55.8625 65.8242C56.1049 65.8242 56.3449 65.8722 56.5687 65.9654C56.7925 66.0587 56.9956 66.1953 57.1663 66.3674C57.5083 66.7115 57.7003 67.1769 57.7003 67.662C57.7003 68.1472 57.5083 68.6126 57.1663 68.9567L48.517 77.6243C48.1691 77.9502 47.7082 78.128 47.2316 78.1201Z" fill="white"/>
<g id="Group_2">
<path id="Vector_15" d="M121.2 67.6376H72.9584C72.4714 67.6376 72.0043 67.4441 71.6599 67.0997C71.3155 66.7553 71.1221 66.2882 71.1221 65.8012C71.1221 65.3142 71.3155 64.8471 71.6599 64.5027C72.0043 64.1583 72.4714 63.9648 72.9584 63.9648H121.2C121.687 63.9648 122.154 64.1583 122.498 64.5027C122.843 64.8471 123.036 65.3142 123.036 65.8012C123.036 66.2882 122.843 66.7553 122.498 67.0997C122.154 67.4441 121.687 67.6376 121.2 67.6376ZM121.2 79.8678H72.9584C72.4714 79.8678 72.0043 79.6743 71.6599 79.3299C71.3155 78.9855 71.1221 78.5184 71.1221 78.0314C71.1221 77.5444 71.3155 77.0773 71.6599 76.7329C72.0043 76.3885 72.4714 76.195 72.9584 76.195H121.2C121.687 76.195 122.154 76.3885 122.498 76.7329C122.843 77.0773 123.036 77.5444 123.036 78.0314C123.036 78.5184 122.843 78.9855 122.498 79.3299C122.154 79.6743 121.687 79.8678 121.2 79.8678ZM121.2 147.207H72.9584C72.4714 147.207 72.0043 147.014 71.6599 146.669C71.3155 146.325 71.1221 145.858 71.1221 145.371C71.1221 144.884 71.3155 144.417 71.6599 144.072C72.0043 143.728 72.4714 143.534 72.9584 143.534H121.2C121.687 143.534 122.154 143.728 122.498 144.072C122.843 144.417 123.036 144.884 123.036 145.371C123.036 145.858 122.843 146.325 122.498 146.669C122.154 147.014 121.687 147.207 121.2 147.207ZM121.2 159.419H72.9584C72.4714 159.419 72.0043 159.226 71.6599 158.881C71.3155 158.537 71.1221 158.07 71.1221 157.583C71.1221 157.096 71.3155 156.629 71.6599 156.284C72.0043 155.94 72.4714 155.746 72.9584 155.746H121.2C121.687 155.746 122.154 155.94 122.498 156.284C122.843 156.629 123.036 157.096 123.036 157.583C123.036 158.07 122.843 158.537 122.498 158.881C122.154 159.226 121.687 159.419 121.2 159.419Z" fill="#474746"/>
</g>
<path id="Vector_16" d="M44.8437 119.331C44.602 119.333 44.3624 119.286 44.1387 119.195C43.9149 119.104 43.7114 118.969 43.5399 118.799C43.1978 118.455 43.0059 117.989 43.0059 117.504C43.0059 117.019 43.1978 116.553 43.5399 116.209L52.9053 106.844C53.076 106.672 53.2791 106.535 53.5029 106.442C53.7267 106.349 53.9667 106.301 54.2091 106.301C54.4516 106.301 54.6916 106.349 54.9154 106.442C55.1391 106.535 55.3422 106.672 55.513 106.844C55.855 107.188 56.047 107.653 56.047 108.139C56.047 108.624 55.855 109.089 55.513 109.433L46.1475 118.799C45.9759 118.969 45.7724 119.104 45.5487 119.195C45.3249 119.286 45.0854 119.333 44.8437 119.331Z" fill="white"/>
<path id="Vector_17" d="M54.2091 119.331C53.9675 119.333 53.7279 119.286 53.5041 119.195C53.2804 119.104 53.0769 118.969 52.9053 118.799L43.5399 109.433C43.1978 109.089 43.0059 108.624 43.0059 108.139C43.0059 107.653 43.1978 107.188 43.5399 106.844C43.7106 106.672 43.9137 106.535 44.1375 106.442C44.3612 106.349 44.6013 106.301 44.8437 106.301C45.0861 106.301 45.3261 106.349 45.5499 106.442C45.7737 106.535 45.9768 106.672 46.1475 106.844L55.513 116.209C55.855 116.553 56.047 117.019 56.047 117.504C56.047 117.989 55.855 118.455 55.513 118.799C55.3414 118.969 55.1379 119.104 54.9141 119.195C54.6904 119.286 54.4508 119.333 54.2091 119.331Z" fill="white"/>
<path id="Vector_18" d="M189.145 96.8701V106.052C189.138 106.907 188.866 107.739 188.366 108.433C187.866 109.127 187.163 109.649 186.354 109.927L179.376 112.259C178.81 112.44 178.292 112.743 177.855 113.146C177.419 113.549 177.077 114.042 176.851 114.591C176.625 115.14 176.522 115.732 176.549 116.325C176.576 116.918 176.732 117.499 177.007 118.025L180.294 124.599C180.679 125.367 180.811 126.236 180.673 127.084C180.534 127.931 180.132 128.713 179.523 129.319L173.022 135.838C172.413 136.448 171.627 136.85 170.775 136.985C169.924 137.12 169.052 136.982 168.284 136.591L161.728 133.322C161.208 133.073 160.641 132.936 160.065 132.921C159.489 132.907 158.916 133.014 158.383 133.236C157.851 133.457 157.372 133.789 156.977 134.209C156.582 134.629 156.28 135.128 156.091 135.672L153.758 142.651C153.494 143.469 152.976 144.182 152.279 144.687C151.583 145.192 150.744 145.463 149.884 145.46H145.183V57.5352H149.792C150.652 57.5324 151.491 57.803 152.188 58.308C152.884 58.813 153.402 59.5263 153.667 60.3448L156.091 67.3046C156.276 67.8631 156.579 68.3751 156.98 68.8058C157.381 69.2365 157.869 69.5758 158.413 69.8006C158.957 70.0254 159.543 70.1304 160.13 70.1085C160.718 70.0866 161.295 69.9382 161.82 69.6735L168.376 66.3865C169.147 66.0029 170.019 65.871 170.869 66.0093C171.719 66.1477 172.504 66.5494 173.114 67.1577L179.614 73.6768C180.224 74.282 180.626 75.0641 180.765 75.9116C180.903 76.7591 180.771 77.6286 180.386 78.3963L177.007 84.9704C176.746 85.4962 176.601 86.072 176.582 86.6588C176.563 87.2455 176.67 87.8295 176.896 88.3711C177.123 88.9128 177.463 89.3994 177.894 89.798C178.325 90.1967 178.836 90.498 179.394 90.6815L186.354 93.0137C187.163 93.2855 187.867 93.8032 188.367 94.4946C188.868 95.1861 189.14 96.0166 189.145 96.8701Z" fill="#E9D023"/>
<path id="Vector_19" d="M180.401 97.8063L180.4 97.8161V97.8258V105.17C180.396 105.758 180.209 106.331 179.865 106.809C179.522 107.287 179.039 107.646 178.483 107.837L172.813 109.672L172.806 109.675L172.798 109.677C172.286 109.861 171.819 110.151 171.429 110.53C171.038 110.908 170.732 111.365 170.532 111.871C170.332 112.377 170.242 112.92 170.269 113.463C170.295 114.006 170.437 114.536 170.684 115.019C170.685 115.02 170.685 115.021 170.686 115.022L173.346 120.361L173.346 120.361L173.349 120.367C173.62 120.893 173.717 121.493 173.624 122.078C173.532 122.663 173.256 123.203 172.835 123.621L172.834 123.622L167.545 128.911L167.545 128.911L167.541 128.915C167.124 129.341 166.582 129.623 165.993 129.718C165.405 129.813 164.801 129.717 164.271 129.444L164.271 129.444L164.266 129.442L158.945 126.781C158.944 126.781 158.944 126.78 158.943 126.78C158.459 126.532 157.929 126.391 157.386 126.364C156.843 126.338 156.3 126.427 155.794 126.627C155.289 126.827 154.831 127.133 154.453 127.524C154.074 127.915 153.784 128.382 153.6 128.894L153.598 128.901L153.595 128.908L151.759 134.563C151.759 134.563 151.759 134.563 151.759 134.563C151.574 135.128 151.215 135.619 150.734 135.966C150.252 136.313 149.673 136.499 149.079 136.495H149.076H145.903V66.2813H149.076V66.2813L149.079 66.2813C149.673 66.2782 150.252 66.4637 150.734 66.811C151.215 67.1582 151.574 67.6492 151.759 68.2134C151.759 68.2136 151.759 68.2138 151.759 68.2139L153.595 73.8688L153.596 73.8713C153.768 74.3926 154.051 74.8707 154.425 75.2731C154.798 75.6755 155.254 75.9927 155.761 76.2032C156.268 76.4137 156.815 76.5124 157.364 76.4928C157.912 76.4732 158.45 76.3357 158.941 76.0897C158.941 76.0896 158.941 76.0896 158.941 76.0895L164.266 73.4271L164.266 73.4271L164.27 73.4252C164.8 73.1545 165.403 73.0585 165.991 73.151C166.579 73.2434 167.123 73.5194 167.545 73.9395C167.545 73.9397 167.546 73.9399 167.546 73.9401L172.833 79.2459L172.835 79.2477C173.256 79.6651 173.532 80.2056 173.624 80.7908C173.717 81.3759 173.62 81.9753 173.349 82.5019L173.349 82.5019L173.346 82.5073L170.684 87.8328L170.683 87.833C170.438 88.3252 170.301 88.8646 170.283 89.4144C170.265 89.9642 170.365 90.5115 170.578 91.0189C170.79 91.5263 171.11 91.9818 171.515 92.3544C171.919 92.727 172.4 93.0079 172.923 93.1779L172.923 93.1779L178.566 95.0101C179.123 95.2263 179.599 95.6104 179.928 96.1093C180.259 96.6116 180.424 97.2051 180.401 97.8063Z" fill="#E9D023" stroke="#F4FCFF"/>
<path id="Vector_20" d="M162.518 101.499C162.513 106.094 160.684 110.498 157.434 113.745C154.184 116.992 149.777 118.816 145.183 118.816V84.1641C149.78 84.1641 154.19 85.9905 157.441 89.2414C160.691 92.4924 162.518 96.9017 162.518 101.499Z" fill="white"/>
</g>
</g>
</svg>
