<svg width="62" height="62" viewBox="0 0 62 62" fill="none" xmlns="http://www.w3.org/2000/svg">
<g id="svgexport-15 (2) 1" clip-path="url(#clip0_4_6461)">
<g id="Group">
<path id="Vector" d="M59.7273 28.5797V28.5795V4.55328C59.7273 1.95076 57.6266 -0.15 55.0241 -0.15H7.26422C4.66169 -0.15 2.56094 1.95076 2.56094 4.55328V28.4803C2.56094 31.0828 4.66169 33.1836 7.26422 33.1836H55.0241C57.622 33.1836 59.7248 31.0849 59.7273 28.5797ZM4.79782 4.55328C4.79782 3.18284 5.89378 2.08688 7.26422 2.08688H55.0241C56.3945 2.08688 57.4905 3.18284 57.4905 4.55328V28.577C57.4905 29.8471 56.3982 30.9467 55.0241 30.9467H7.26422C5.89378 30.9467 4.79782 29.8508 4.79782 28.4803V4.55328Z" fill="#D80073" stroke="#D80073" stroke-width="0.3"/>
<path id="Vector_2" d="M19.9008 16.5659C19.9008 22.7521 25.0048 27.8561 31.1909 27.8561C37.3771 27.8561 42.4811 22.7521 42.4811 16.5659C42.4811 10.3798 37.3771 5.27578 31.1909 5.27578C25.0048 5.27578 19.9008 10.3798 19.9008 16.5659ZM21.9442 16.5659C21.9442 11.5152 26.1402 7.31922 31.1909 7.31922C36.2417 7.31922 40.4377 11.5152 40.4377 16.5659C40.4377 21.6167 36.2417 25.8127 31.1909 25.8127C26.1402 25.8127 21.9442 21.6167 21.9442 16.5659Z" fill="#D80073" stroke="#D80073" stroke-width="0.3"/>
<path id="Vector_3" d="M35.8373 14.1188L35.8304 14.1136L35.823 14.1093L30.0137 10.7214C29.6887 10.5067 29.1715 10.4086 28.7712 10.4086C27.3318 10.4086 26.1016 11.6389 26.1016 13.0783V19.8586C26.1016 21.298 27.3318 22.5283 28.7712 22.5283C29.1841 22.5283 29.6012 22.4245 30.0148 22.1167L35.8217 18.7291C35.8219 18.729 35.8222 18.7288 35.8224 18.7287C36.5455 18.3167 37.0576 17.4975 37.0606 16.5734C37.1608 15.6362 36.6409 14.7195 35.8373 14.1188ZM28.8916 20.2126L28.8915 20.2124L28.8844 20.2171C28.6914 20.3446 28.3409 20.2226 28.3409 19.8586V13.0783C28.3409 12.9255 28.3967 12.822 28.4719 12.7551C28.5489 12.6867 28.6553 12.649 28.7668 12.648C28.7695 12.6484 28.7757 12.6495 28.7843 12.6523C28.8011 12.658 28.8286 12.6707 28.8586 12.7007L28.873 12.7152L28.8908 12.7252L34.7064 16.0186L34.7063 16.0188L34.7132 16.0223C34.83 16.0807 34.9094 16.1959 34.9194 16.4193C34.898 16.4531 34.883 16.488 34.8719 16.5164C34.8623 16.5407 34.8535 16.5661 34.8454 16.5893L34.8433 16.5953C34.8358 16.6171 34.8288 16.6374 34.8212 16.6576C34.7861 16.751 34.7544 16.7973 34.7132 16.8179L34.7131 16.8176L34.7047 16.8225L28.8916 20.2126ZM7.07124 57.1144H20.245C20.5692 57.1144 20.8517 57.0056 21.0534 56.8042C21.2553 56.6028 21.3647 56.3203 21.3647 55.9947V50.9578C21.3647 48.2585 19.1672 46.0611 16.468 46.0611H10.8483C8.14904 46.0611 5.95156 48.2585 5.95156 50.9578V55.9947C5.95156 56.3203 6.06099 56.6028 6.26281 56.8042C6.46459 57.0056 6.74702 57.1144 7.07124 57.1144ZM19.1253 50.9578V54.8775H8.18844V50.9578C8.18844 49.4906 9.38112 48.298 10.8483 48.298H16.4655C17.9326 48.298 19.1253 49.4906 19.1253 50.9578ZM24.4114 57.1144H37.6819C38.0072 57.1144 38.2897 57.0057 38.4913 56.8041C38.6929 56.6025 38.8016 56.32 38.8016 55.9947V50.9578C38.8016 48.2585 36.6041 46.0611 33.9048 46.0611H28.1884C25.4892 46.0611 23.2917 48.2585 23.2917 50.9578V55.9947C23.2917 56.3203 23.4012 56.6028 23.603 56.8042C23.8048 57.0056 24.0872 57.1144 24.4114 57.1144ZM36.5622 50.9578V54.8775H25.5261V50.9578C25.5261 49.4906 26.7188 48.298 28.186 48.298H33.9024C35.3695 48.298 36.5622 49.4906 36.5622 50.9578ZM41.7516 57.1144H55.0245C55.3488 57.1144 55.6307 57.0056 55.8319 56.804C56.0331 56.6025 56.1417 56.32 56.1417 55.9947V50.9578C56.1417 48.2585 53.9442 46.0611 51.245 46.0611H45.5286C42.8294 46.0611 40.6319 48.2585 40.6319 50.9578V55.9947C40.6319 56.3203 40.7413 56.6028 40.9431 56.8042C41.1449 57.0056 41.4273 57.1144 41.7516 57.1144ZM53.9048 50.9578V54.8775H42.8688V50.9578C42.8688 49.4906 44.0614 48.298 45.5286 48.298H51.245C52.7122 48.298 53.9048 49.4906 53.9048 50.9578Z" fill="#D80073" stroke="#D80073" stroke-width="0.3"/>
<path id="Vector_4" d="M60.4078 61.0328V61.0322V55.8986C60.4078 55.573 60.2984 55.2905 60.0965 55.089C59.8948 54.8876 59.6123 54.7789 59.2881 54.7789H2.71187C2.38627 54.7789 2.10377 54.8883 1.90231 55.0901C1.7009 55.2919 1.59219 55.5744 1.59219 55.8986V61.0322C1.59219 61.3578 1.70162 61.6403 1.90344 61.8417C2.10522 62.0431 2.38765 62.1519 2.71187 62.1519H59.2856C59.611 62.1519 59.8935 62.0432 60.0953 61.8417C60.2971 61.6403 60.4064 61.358 60.4078 61.0328ZM17.7815 40.7856V40.7855C17.7815 38.4731 15.971 36.6625 13.6586 36.6625C11.3462 36.6625 9.53563 38.4756 9.53563 40.7855C9.53563 43.0979 11.3488 44.9084 13.6586 44.9084C15.9686 44.9084 17.779 43.0978 17.7815 40.7856ZM58.1659 57.0183V59.915H3.82907V57.0183H58.1659ZM50.2225 40.7851V40.7855C50.2225 41.8634 49.4191 42.6691 48.3389 42.6691C47.261 42.6691 46.4553 41.8656 46.4553 40.7855C46.4553 39.7075 47.2587 38.9019 48.3389 38.9019C49.4194 38.9019 50.2248 39.7078 50.2225 40.7851ZM11.775 40.7855C11.775 39.7075 12.5784 38.9019 13.6586 38.9019C14.7387 38.9019 15.5422 39.7075 15.5422 40.7855C15.5422 41.8634 14.7387 42.6691 13.6586 42.6691C12.5807 42.6691 11.775 41.8656 11.775 40.7855ZM26.8758 40.7855C26.8758 43.0979 28.6889 44.9084 30.9987 44.9084C33.3086 44.9084 35.1217 43.0979 35.1217 40.7855C35.1217 38.4731 33.3111 36.6625 30.9987 36.6625C28.6863 36.6625 26.8758 38.4756 26.8758 40.7855ZM29.1151 40.7855C29.1151 39.7075 29.9186 38.9019 30.9987 38.9019C32.0789 38.9019 32.8823 39.7075 32.8823 40.7855C32.8823 41.8633 32.0765 42.6691 30.9987 42.6691C29.9208 42.6691 29.1151 41.8656 29.1151 40.7855ZM44.2159 40.7855C44.2159 43.0979 46.0291 44.9084 48.3389 44.9084C50.6513 44.9084 52.4619 43.0978 52.4619 40.7855C52.4619 38.473 50.6487 36.6625 48.3389 36.6625C46.0265 36.6625 44.2159 38.4756 44.2159 40.7855Z" fill="#D80073" stroke="#D80073" stroke-width="0.3"/>
</g>
</g>
<defs>
<clipPath id="clip0_4_6461">
<rect width="62" height="62" fill="white"/>
</clipPath>
</defs>
</svg>
