<svg width="154" height="193" viewBox="0 0 154 193" fill="none" xmlns="http://www.w3.org/2000/svg">
<g id="Group">
<path id="Vector" d="M71.1016 88.2661C65.0378 88.2661 60.105 83.3333 60.105 77.2695C60.105 71.2058 65.0412 66.2695 71.1016 66.2695C77.1619 66.2695 82.1016 71.2058 82.1016 77.2695C82.1016 83.3333 77.1653 88.2661 71.1016 88.2661Z" fill="#D80073"/>
<path id="Vector_2" d="M76.795 13.0625C111.899 13.0625 140.461 38.5688 140.461 69.9188C140.461 85.9925 132.788 101.248 119.437 112.045L117.124 111.708C112.428 111.055 108.097 108.816 104.848 105.363L95.11 94.985C92.2752 91.9604 88.6097 89.8412 84.5741 88.8937C87.2828 85.7588 88.9809 81.73 88.9809 77.275C88.9809 67.4197 80.9613 59.4 71.1059 59.4C61.2506 59.4 53.2344 67.4197 53.2344 77.275C53.2344 81.8056 54.9841 85.9031 57.7719 89.0553C55.6028 89.6397 53.5266 90.5403 51.6325 91.795L42.4578 97.8278C36.8272 101.537 29.495 102.255 23.4347 99.8078C23.1219 99.6875 22.8022 99.6359 22.4894 99.5431C16.3431 90.6778 13.0706 80.4753 13.0706 69.9256C13.0706 38.5756 41.6603 13.0694 76.8019 13.0694L76.795 13.0625Z" fill="#E9D023"/>
<path id="Vector_3" d="M9.99702 104.335C3.44859 93.8644 0.000762939 82.0944 0.000762939 69.9187C0.000762939 31.3672 34.448 0 76.7945 0C119.141 0 153.52 31.3672 153.52 69.9187C153.52 88.8388 145.156 106.776 130.43 119.886C130.344 119.642 130.303 119.391 130.2 119.154C129.55 117.401 128.409 115.875 126.948 114.702C139.897 102.922 147.332 86.8347 147.332 69.9222C147.332 34.7806 115.69 6.19094 76.7911 6.19094C37.8923 6.19094 6.18483 34.7806 6.18483 69.9222C6.18483 80.5819 9.11703 90.9253 14.6686 100.141C12.7505 101.042 11.1176 102.479 9.99359 104.338L9.99702 104.335Z" fill="#E9D023"/>
<path id="Vector_4" d="M57.854 111.45C57.8538 110.833 57.6871 110.227 57.3716 109.696C57.056 109.165 56.6033 108.729 56.0609 108.433C55.5185 108.138 54.9065 107.994 54.2893 108.017C53.6721 108.039 53.0724 108.228 52.5534 108.563L43.6674 114.304C41.2475 115.887 38.5196 116.941 35.6633 117.395C32.807 117.848 29.8869 117.692 27.0952 116.937C26.6962 116.845 26.3025 116.732 25.9162 116.596L18.0512 114.018C17.485 113.824 16.9672 113.51 16.5328 113.098C16.0984 112.686 15.7576 112.186 15.5333 111.631C15.3091 111.076 15.2067 110.479 15.2331 109.881C15.2594 109.283 15.414 108.697 15.6862 108.164L15.7205 108.095C16.6487 106.301 18.9174 105.445 20.9284 106.205C28.8999 109.419 38.7552 108.498 46.2352 103.565L55.4134 97.5286C57.7541 95.9803 60.4994 95.1565 63.3059 95.1602H79.634C81.592 95.157 83.5299 95.5559 85.3274 96.3323C87.125 97.1087 88.7439 98.2459 90.084 99.6736L99.8327 110.062C104.151 114.655 109.908 117.636 116.151 118.511L120.509 119.147C121.242 119.233 121.939 119.517 122.523 119.968C123.107 120.419 123.558 121.02 123.826 121.708C124.101 122.365 124.201 122.839 124.201 123.355C124.201 125.95 122.101 127.937 119.227 127.593L108.365 126.036C104.688 125.483 101.226 123.958 98.3374 121.619L86.4643 112.086C85.96 111.678 85.3498 111.422 84.7051 111.347C84.0604 111.273 83.408 111.384 82.824 111.667C82.2399 111.948 81.747 112.388 81.4021 112.936C81.0573 113.485 80.8745 114.12 80.8749 114.768V155.203C80.8705 161.623 83.2213 167.822 87.4818 172.624L99.7193 186.556C100.317 187.218 100.641 188.082 100.626 188.973C100.611 189.864 100.259 190.717 99.6402 191.359C98.7259 192.362 97.6121 192.503 97.0277 192.503C96.0824 192.503 95.1955 192.135 94.5287 191.472L80.9059 178.018C77.2194 174.354 75.1385 169.376 75.1205 164.178C75.1298 163.095 74.9227 162.022 74.5114 161.02C74.1001 160.018 73.4929 159.109 72.7255 158.345C71.958 157.581 71.0457 156.978 70.042 156.571C69.0384 156.164 67.9637 155.962 66.8809 155.976C64.4987 155.976 62.2402 157.021 60.6899 158.843L57.9984 162.05C55.3171 165.192 54.9184 169.713 57.0359 173.284L63.5396 184.298C63.8146 184.763 63.9942 185.278 64.068 185.814C64.1418 186.349 64.1082 186.894 63.9693 187.416C63.684 188.488 62.9999 189.392 62.0374 189.956C60.2465 190.994 57.7302 190.413 56.5855 188.732L48.3355 176.691C46.7725 174.398 45.9592 171.676 46.0079 168.901C46.0565 166.126 46.9646 163.435 48.6071 161.198L53.9352 153.869C56.4943 150.404 57.8728 146.208 57.8677 141.9V111.457L57.854 111.45Z" fill="#D80073"/>
</g>
</svg>
