<svg width="62" height="62" viewBox="0 0 62 62" fill="none" xmlns="http://www.w3.org/2000/svg">
<g id="svgexport-15 (3) 1" clip-path="url(#clip0_4_6474)">
<g id="Group">
<path id="Vector" d="M30.5156 31.2C31.1611 31.2 31.6844 30.6767 31.6844 30.0312C31.6844 29.3858 31.1611 28.8625 30.5156 28.8625C29.8701 28.8625 29.3469 29.3858 29.3469 30.0312C29.3469 30.6767 29.8701 31.2 30.5156 31.2Z" fill="#D80073" stroke="#D80073" stroke-width="0.4"/>
<path id="Vector_2" d="M30.5156 34.1063C31.1611 34.1063 31.6844 33.583 31.6844 32.9375C31.6844 32.292 31.1611 31.7687 30.5156 31.7687C29.8701 31.7687 29.3469 32.292 29.3469 32.9375C29.3469 33.583 29.8701 34.1063 30.5156 34.1063Z" fill="#D80073" stroke="#D80073" stroke-width="0.4"/>
<path id="Vector_3" d="M29.4291 5.30452C29.3246 5.19118 29.1986 5.09965 29.0585 5.0352C28.918 4.97056 28.766 4.93445 28.6114 4.92897C28.4569 4.92349 28.3027 4.94875 28.158 5.00328C28.0132 5.05782 27.8808 5.14054 27.7682 5.24666C27.6557 5.35277 27.5653 5.48017 27.5024 5.62147C27.4395 5.76277 27.4052 5.91515 27.4016 6.06979C27.398 6.22442 27.4251 6.37824 27.4814 6.52231C27.5375 6.6657 27.6213 6.79661 27.728 6.90751C28.0328 7.23612 28.4022 7.49832 28.8129 7.67772C29.2243 7.85738 29.6683 7.95013 30.1172 7.95013C30.5661 7.95013 31.0102 7.85738 31.4215 7.67772C31.8329 7.49805 32.2027 7.23533 32.5078 6.90604L32.5085 6.90533C33.0944 6.26676 33.4687 5.46276 33.5802 4.60331C33.6737 3.88308 33.5787 3.15339 33.308 2.48452C35.9714 3.15298 38.3104 4.7596 39.8905 7.01649C41.5483 9.3844 42.2477 12.2924 41.8479 15.1551C41.4481 18.0179 39.9787 20.623 37.7356 22.4461C35.4925 24.2692 32.6421 25.1751 29.758 24.9813C26.874 24.7875 24.1704 23.5085 22.1913 21.4017C20.2122 19.2948 19.1046 16.5166 19.0914 13.6261C19.0782 10.7355 20.1603 7.94729 22.12 5.82245C24.0738 3.70399 26.7558 2.40175 29.6282 2.17575C30.0791 2.26228 30.4912 2.48974 30.8048 2.82565C31.1156 3.16372 31.288 3.60616 31.288 4.06537C31.288 4.52435 31.1157 4.96659 30.8053 5.3046C30.7169 5.39797 30.6104 5.47237 30.4923 5.52328C30.3739 5.57435 30.2462 5.60069 30.1172 5.60069C29.9882 5.60069 29.8606 5.57435 29.7421 5.52328C29.624 5.47236 29.5175 5.39793 29.4291 5.30452ZM29.4291 5.30452C29.4294 5.30487 29.4297 5.30521 29.4301 5.30556L29.2829 5.44099M29.4291 5.30452C29.4288 5.30424 29.4286 5.30396 29.4283 5.30368L29.2829 5.44099M29.2829 5.44099C29.1961 5.34665 29.0914 5.27048 28.9749 5.2169C28.8584 5.16331 28.7325 5.13339 28.6044 5.12884C28.4762 5.1243 28.3485 5.14524 28.2285 5.19044C28.1085 5.23564 27.9987 5.30421 27.9054 5.39217C27.8122 5.48013 27.7373 5.58572 27.6851 5.70284C27.6329 5.81996 27.6045 5.94627 27.6016 6.07444C27.5986 6.20262 27.6211 6.33011 27.6677 6.44953C27.7144 6.56894 27.7843 6.67791 27.8734 6.77012L29.2829 5.44099ZM30.5154 27.326H30.5156C33.2377 27.3261 35.8987 26.519 38.1621 25.0067C40.4255 23.4944 42.1896 21.345 43.2314 18.8301C44.2731 16.3152 44.5457 13.5479 44.0147 10.8781C43.4836 8.20828 42.1728 5.75591 40.248 3.83109C38.3232 1.90627 35.8708 0.595466 33.201 0.064434C30.5312 -0.466598 27.7639 -0.194004 25.249 0.847745C22.7341 1.88949 20.5847 3.65361 19.0724 5.91699C17.5601 8.18038 16.753 10.8414 16.7531 13.5635L16.7531 13.5637C16.7573 17.2124 18.2086 20.7105 20.7886 23.2905C23.3686 25.8705 26.8667 27.3218 30.5154 27.326Z" fill="#D80073" stroke="#D80073" stroke-width="0.4"/>
<g id="Vector_4">
<mask id="path-4-outside-1_4_6474" maskUnits="userSpaceOnUse" x="8.6875" y="11.1094" width="46" height="52" fill="black">
<rect fill="white" x="8.6875" y="11.1094" width="46" height="52"/>
<path d="M24.2188 14.0469H25.1875C25.4444 14.0469 25.6908 13.9448 25.8725 13.7631C26.0542 13.5815 26.1562 13.3351 26.1562 13.0781C26.1562 12.8212 26.0542 12.5748 25.8725 12.3931C25.6908 12.2114 25.4444 12.1094 25.1875 12.1094H24.2188C23.9618 12.1094 23.7154 12.2114 23.5337 12.3931C23.3521 12.5748 23.25 12.8212 23.25 13.0781C23.25 13.3351 23.3521 13.5815 23.5337 13.7631C23.7154 13.9448 23.9618 14.0469 24.2188 14.0469ZM35.8438 14.0469H36.8125C37.0694 14.0469 37.3158 13.9448 37.4975 13.7631C37.6792 13.5815 37.7812 13.3351 37.7812 13.0781C37.7812 12.8212 37.6792 12.5748 37.4975 12.3931C37.3158 12.2114 37.0694 12.1094 36.8125 12.1094H35.8438C35.5868 12.1094 35.3404 12.2114 35.1587 12.3931C34.9771 12.5748 34.875 12.8212 34.875 13.0781C34.875 13.3351 34.9771 13.5815 35.1587 13.7631C35.3404 13.9448 35.5868 14.0469 35.8438 14.0469ZM28.0569 20.677C28.8089 21.0951 29.6551 21.3144 30.5155 21.3142C31.3759 21.314 32.222 21.0944 32.9738 20.676C33.1891 20.5373 33.3408 20.319 33.3955 20.0688C33.4503 19.8186 33.4038 19.5569 33.2661 19.3409C33.1284 19.125 32.9108 18.9723 32.6609 18.9163C32.411 18.8603 32.1491 18.9056 31.9324 19.0422C31.4919 19.2594 31.0074 19.3724 30.5163 19.3728C30.0252 19.3731 29.5406 19.2607 29.0998 19.0442C28.8834 18.9125 28.6241 18.8709 28.3774 18.9281C28.1307 18.9853 27.9162 19.1368 27.7799 19.3502C27.6436 19.5636 27.5962 19.822 27.648 20.0699C27.6998 20.3178 27.8466 20.536 28.0569 20.677ZM41.3438 24.6387C44.0345 26.2081 51.5031 31.5178 50.2273 41.5347C50.2248 41.5526 50.2273 41.5695 50.2258 41.588C50.7302 41.8443 51.2066 42.1522 51.6475 42.5068C51.783 42.4344 51.8993 42.3306 51.9866 42.2042C52.0738 42.0777 52.1296 41.9322 52.1493 41.7798C53.5123 31.0775 45.9396 25.1948 42.6604 23.1773C42.2526 23.6916 41.8129 24.1797 41.3438 24.6387ZM22.2812 39.7178C22.2812 39.5438 22.2343 39.3731 22.1455 39.2235C22.0567 39.0739 21.9292 38.951 21.7765 38.8677L16.4484 35.9615C16.3061 35.8839 16.1467 35.8433 15.9846 35.8433C15.8226 35.8433 15.6631 35.8839 15.5208 35.9615L10.1927 38.8677C10.0399 38.951 9.91236 39.0738 9.82347 39.2234C9.73457 39.373 9.6876 39.5438 9.6875 39.7178V46.0147C9.6875 46.2007 9.74108 46.3828 9.84184 46.5393C9.94259 46.6957 10.0863 46.8198 10.2557 46.8967L15.5838 49.3186C15.7209 49.3791 15.87 49.4077 16.0197 49.4023C16.1695 49.3968 16.3161 49.3574 16.4484 49.2871L21.7765 46.3808C21.9292 46.2975 22.0567 46.1746 22.1455 46.025C22.2343 45.8755 22.2812 45.7047 22.2812 45.5308V39.7178ZM15.9844 37.9159L19.0786 39.6035L15.935 41.5206L12.4867 39.8239L15.9844 37.9159ZM11.625 41.5584L15.0156 43.2271V46.9325L11.625 45.3908V41.5584ZM16.9531 46.8047V43.168L20.3438 41.1002V44.9553L16.9531 46.8047ZM31.9688 41.8277V38.1019C36.0869 37.1763 39.2344 32.3906 39.2344 26.6406C39.2344 26.3837 39.1323 26.1373 38.9506 25.9556C38.769 25.7739 38.5226 25.6719 38.2656 25.6719C38.0087 25.6719 37.7623 25.7739 37.5806 25.9556C37.3989 26.1373 37.2969 26.3837 37.2969 26.6406C37.2969 31.9828 34.255 36.3286 30.5156 36.3286C26.7763 36.3286 23.7344 31.9828 23.7344 26.6411C23.7344 26.3842 23.6323 26.1378 23.4506 25.9561C23.269 25.7744 23.0226 25.6724 22.7656 25.6724C22.5087 25.6724 22.2623 25.7744 22.0806 25.9561C21.8989 26.1378 21.7969 26.3842 21.7969 26.6411C21.7969 32.8343 25.4481 37.9111 30.0312 38.2472V41.8277C30.658 41.6056 31.342 41.6056 31.9688 41.8277ZM54.2393 49.7579C54.1881 48.8905 53.9583 48.0431 53.5644 47.2686C53.1705 46.4942 52.621 45.8094 51.9502 45.2571L50.4816 44.051C49.8072 43.4973 49.0247 43.0904 48.1842 42.8563C47.3436 42.6221 46.4635 42.5659 45.6 42.6912C44.7365 42.8164 43.9086 43.1204 43.1692 43.5838C42.4299 44.0471 41.7953 44.6596 41.306 45.3821L40.5863 46.5417C40.8837 46.7847 41.1298 47.0844 41.3103 47.4235C41.4909 47.7625 41.6022 48.134 41.6378 48.5165L42.9263 46.4428C43.2667 45.9481 43.7062 45.5294 44.2169 45.2133C44.7275 44.8972 45.2983 44.6906 45.893 44.6066C46.4876 44.5226 47.0933 44.563 47.6715 44.7252C48.2498 44.8875 48.788 45.1681 49.2522 45.5492L50.7208 46.7548C51.1831 47.1348 51.5622 47.606 51.8346 48.1388C52.107 48.6717 52.2667 49.2549 52.304 49.8522C52.3413 50.4495 52.2552 51.0481 52.0512 51.6107C51.8471 52.1732 51.5295 52.6878 51.118 53.1224L44.9379 59.0482C43.0638 60.7145 41.0014 59.9409 40.0409 59.4163L38.1363 60.4539C38.1891 60.4999 38.237 60.5478 38.2913 60.5929L38.315 60.6113C39.4913 61.4863 40.913 61.9693 42.3789 61.9918C43.8154 61.9909 45.1986 61.4479 46.252 60.4713L52.4859 54.4941C53.0884 53.8678 53.555 53.1239 53.8568 52.309C54.1585 51.494 54.2887 50.6255 54.2393 49.7579Z"/>
</mask>
<path d="M24.2188 14.0469H25.1875C25.4444 14.0469 25.6908 13.9448 25.8725 13.7631C26.0542 13.5815 26.1562 13.3351 26.1562 13.0781C26.1562 12.8212 26.0542 12.5748 25.8725 12.3931C25.6908 12.2114 25.4444 12.1094 25.1875 12.1094H24.2188C23.9618 12.1094 23.7154 12.2114 23.5337 12.3931C23.3521 12.5748 23.25 12.8212 23.25 13.0781C23.25 13.3351 23.3521 13.5815 23.5337 13.7631C23.7154 13.9448 23.9618 14.0469 24.2188 14.0469ZM35.8438 14.0469H36.8125C37.0694 14.0469 37.3158 13.9448 37.4975 13.7631C37.6792 13.5815 37.7812 13.3351 37.7812 13.0781C37.7812 12.8212 37.6792 12.5748 37.4975 12.3931C37.3158 12.2114 37.0694 12.1094 36.8125 12.1094H35.8438C35.5868 12.1094 35.3404 12.2114 35.1587 12.3931C34.9771 12.5748 34.875 12.8212 34.875 13.0781C34.875 13.3351 34.9771 13.5815 35.1587 13.7631C35.3404 13.9448 35.5868 14.0469 35.8438 14.0469ZM28.0569 20.677C28.8089 21.0951 29.6551 21.3144 30.5155 21.3142C31.3759 21.314 32.222 21.0944 32.9738 20.676C33.1891 20.5373 33.3408 20.319 33.3955 20.0688C33.4503 19.8186 33.4038 19.5569 33.2661 19.3409C33.1284 19.125 32.9108 18.9723 32.6609 18.9163C32.411 18.8603 32.1491 18.9056 31.9324 19.0422C31.4919 19.2594 31.0074 19.3724 30.5163 19.3728C30.0252 19.3731 29.5406 19.2607 29.0998 19.0442C28.8834 18.9125 28.6241 18.8709 28.3774 18.9281C28.1307 18.9853 27.9162 19.1368 27.7799 19.3502C27.6436 19.5636 27.5962 19.822 27.648 20.0699C27.6998 20.3178 27.8466 20.536 28.0569 20.677ZM41.3438 24.6387C44.0345 26.2081 51.5031 31.5178 50.2273 41.5347C50.2248 41.5526 50.2273 41.5695 50.2258 41.588C50.7302 41.8443 51.2066 42.1522 51.6475 42.5068C51.783 42.4344 51.8993 42.3306 51.9866 42.2042C52.0738 42.0777 52.1296 41.9322 52.1493 41.7798C53.5123 31.0775 45.9396 25.1948 42.6604 23.1773C42.2526 23.6916 41.8129 24.1797 41.3438 24.6387ZM22.2812 39.7178C22.2812 39.5438 22.2343 39.3731 22.1455 39.2235C22.0567 39.0739 21.9292 38.951 21.7765 38.8677L16.4484 35.9615C16.3061 35.8839 16.1467 35.8433 15.9846 35.8433C15.8226 35.8433 15.6631 35.8839 15.5208 35.9615L10.1927 38.8677C10.0399 38.951 9.91236 39.0738 9.82347 39.2234C9.73457 39.373 9.6876 39.5438 9.6875 39.7178V46.0147C9.6875 46.2007 9.74108 46.3828 9.84184 46.5393C9.94259 46.6957 10.0863 46.8198 10.2557 46.8967L15.5838 49.3186C15.7209 49.3791 15.87 49.4077 16.0197 49.4023C16.1695 49.3968 16.3161 49.3574 16.4484 49.2871L21.7765 46.3808C21.9292 46.2975 22.0567 46.1746 22.1455 46.025C22.2343 45.8755 22.2812 45.7047 22.2812 45.5308V39.7178ZM15.9844 37.9159L19.0786 39.6035L15.935 41.5206L12.4867 39.8239L15.9844 37.9159ZM11.625 41.5584L15.0156 43.2271V46.9325L11.625 45.3908V41.5584ZM16.9531 46.8047V43.168L20.3438 41.1002V44.9553L16.9531 46.8047ZM31.9688 41.8277V38.1019C36.0869 37.1763 39.2344 32.3906 39.2344 26.6406C39.2344 26.3837 39.1323 26.1373 38.9506 25.9556C38.769 25.7739 38.5226 25.6719 38.2656 25.6719C38.0087 25.6719 37.7623 25.7739 37.5806 25.9556C37.3989 26.1373 37.2969 26.3837 37.2969 26.6406C37.2969 31.9828 34.255 36.3286 30.5156 36.3286C26.7763 36.3286 23.7344 31.9828 23.7344 26.6411C23.7344 26.3842 23.6323 26.1378 23.4506 25.9561C23.269 25.7744 23.0226 25.6724 22.7656 25.6724C22.5087 25.6724 22.2623 25.7744 22.0806 25.9561C21.8989 26.1378 21.7969 26.3842 21.7969 26.6411C21.7969 32.8343 25.4481 37.9111 30.0312 38.2472V41.8277C30.658 41.6056 31.342 41.6056 31.9688 41.8277ZM54.2393 49.7579C54.1881 48.8905 53.9583 48.0431 53.5644 47.2686C53.1705 46.4942 52.621 45.8094 51.9502 45.2571L50.4816 44.051C49.8072 43.4973 49.0247 43.0904 48.1842 42.8563C47.3436 42.6221 46.4635 42.5659 45.6 42.6912C44.7365 42.8164 43.9086 43.1204 43.1692 43.5838C42.4299 44.0471 41.7953 44.6596 41.306 45.3821L40.5863 46.5417C40.8837 46.7847 41.1298 47.0844 41.3103 47.4235C41.4909 47.7625 41.6022 48.134 41.6378 48.5165L42.9263 46.4428C43.2667 45.9481 43.7062 45.5294 44.2169 45.2133C44.7275 44.8972 45.2983 44.6906 45.893 44.6066C46.4876 44.5226 47.0933 44.563 47.6715 44.7252C48.2498 44.8875 48.788 45.1681 49.2522 45.5492L50.7208 46.7548C51.1831 47.1348 51.5622 47.606 51.8346 48.1388C52.107 48.6717 52.2667 49.2549 52.304 49.8522C52.3413 50.4495 52.2552 51.0481 52.0512 51.6107C51.8471 52.1732 51.5295 52.6878 51.118 53.1224L44.9379 59.0482C43.0638 60.7145 41.0014 59.9409 40.0409 59.4163L38.1363 60.4539C38.1891 60.4999 38.237 60.5478 38.2913 60.5929L38.315 60.6113C39.4913 61.4863 40.913 61.9693 42.3789 61.9918C43.8154 61.9909 45.1986 61.4479 46.252 60.4713L52.4859 54.4941C53.0884 53.8678 53.555 53.1239 53.8568 52.309C54.1585 51.494 54.2887 50.6255 54.2393 49.7579Z" fill="#D80073"/>
<path d="M24.2188 14.0469H25.1875C25.4444 14.0469 25.6908 13.9448 25.8725 13.7631C26.0542 13.5815 26.1562 13.3351 26.1562 13.0781C26.1562 12.8212 26.0542 12.5748 25.8725 12.3931C25.6908 12.2114 25.4444 12.1094 25.1875 12.1094H24.2188C23.9618 12.1094 23.7154 12.2114 23.5337 12.3931C23.3521 12.5748 23.25 12.8212 23.25 13.0781C23.25 13.3351 23.3521 13.5815 23.5337 13.7631C23.7154 13.9448 23.9618 14.0469 24.2188 14.0469ZM35.8438 14.0469H36.8125C37.0694 14.0469 37.3158 13.9448 37.4975 13.7631C37.6792 13.5815 37.7812 13.3351 37.7812 13.0781C37.7812 12.8212 37.6792 12.5748 37.4975 12.3931C37.3158 12.2114 37.0694 12.1094 36.8125 12.1094H35.8438C35.5868 12.1094 35.3404 12.2114 35.1587 12.3931C34.9771 12.5748 34.875 12.8212 34.875 13.0781C34.875 13.3351 34.9771 13.5815 35.1587 13.7631C35.3404 13.9448 35.5868 14.0469 35.8438 14.0469ZM28.0569 20.677C28.8089 21.0951 29.6551 21.3144 30.5155 21.3142C31.3759 21.314 32.222 21.0944 32.9738 20.676C33.1891 20.5373 33.3408 20.319 33.3955 20.0688C33.4503 19.8186 33.4038 19.5569 33.2661 19.3409C33.1284 19.125 32.9108 18.9723 32.6609 18.9163C32.411 18.8603 32.1491 18.9056 31.9324 19.0422C31.4919 19.2594 31.0074 19.3724 30.5163 19.3728C30.0252 19.3731 29.5406 19.2607 29.0998 19.0442C28.8834 18.9125 28.6241 18.8709 28.3774 18.9281C28.1307 18.9853 27.9162 19.1368 27.7799 19.3502C27.6436 19.5636 27.5962 19.822 27.648 20.0699C27.6998 20.3178 27.8466 20.536 28.0569 20.677ZM41.3438 24.6387C44.0345 26.2081 51.5031 31.5178 50.2273 41.5347C50.2248 41.5526 50.2273 41.5695 50.2258 41.588C50.7302 41.8443 51.2066 42.1522 51.6475 42.5068C51.783 42.4344 51.8993 42.3306 51.9866 42.2042C52.0738 42.0777 52.1296 41.9322 52.1493 41.7798C53.5123 31.0775 45.9396 25.1948 42.6604 23.1773C42.2526 23.6916 41.8129 24.1797 41.3438 24.6387ZM22.2812 39.7178C22.2812 39.5438 22.2343 39.3731 22.1455 39.2235C22.0567 39.0739 21.9292 38.951 21.7765 38.8677L16.4484 35.9615C16.3061 35.8839 16.1467 35.8433 15.9846 35.8433C15.8226 35.8433 15.6631 35.8839 15.5208 35.9615L10.1927 38.8677C10.0399 38.951 9.91236 39.0738 9.82347 39.2234C9.73457 39.373 9.6876 39.5438 9.6875 39.7178V46.0147C9.6875 46.2007 9.74108 46.3828 9.84184 46.5393C9.94259 46.6957 10.0863 46.8198 10.2557 46.8967L15.5838 49.3186C15.7209 49.3791 15.87 49.4077 16.0197 49.4023C16.1695 49.3968 16.3161 49.3574 16.4484 49.2871L21.7765 46.3808C21.9292 46.2975 22.0567 46.1746 22.1455 46.025C22.2343 45.8755 22.2812 45.7047 22.2812 45.5308V39.7178ZM15.9844 37.9159L19.0786 39.6035L15.935 41.5206L12.4867 39.8239L15.9844 37.9159ZM11.625 41.5584L15.0156 43.2271V46.9325L11.625 45.3908V41.5584ZM16.9531 46.8047V43.168L20.3438 41.1002V44.9553L16.9531 46.8047ZM31.9688 41.8277V38.1019C36.0869 37.1763 39.2344 32.3906 39.2344 26.6406C39.2344 26.3837 39.1323 26.1373 38.9506 25.9556C38.769 25.7739 38.5226 25.6719 38.2656 25.6719C38.0087 25.6719 37.7623 25.7739 37.5806 25.9556C37.3989 26.1373 37.2969 26.3837 37.2969 26.6406C37.2969 31.9828 34.255 36.3286 30.5156 36.3286C26.7763 36.3286 23.7344 31.9828 23.7344 26.6411C23.7344 26.3842 23.6323 26.1378 23.4506 25.9561C23.269 25.7744 23.0226 25.6724 22.7656 25.6724C22.5087 25.6724 22.2623 25.7744 22.0806 25.9561C21.8989 26.1378 21.7969 26.3842 21.7969 26.6411C21.7969 32.8343 25.4481 37.9111 30.0312 38.2472V41.8277C30.658 41.6056 31.342 41.6056 31.9688 41.8277ZM54.2393 49.7579C54.1881 48.8905 53.9583 48.0431 53.5644 47.2686C53.1705 46.4942 52.621 45.8094 51.9502 45.2571L50.4816 44.051C49.8072 43.4973 49.0247 43.0904 48.1842 42.8563C47.3436 42.6221 46.4635 42.5659 45.6 42.6912C44.7365 42.8164 43.9086 43.1204 43.1692 43.5838C42.4299 44.0471 41.7953 44.6596 41.306 45.3821L40.5863 46.5417C40.8837 46.7847 41.1298 47.0844 41.3103 47.4235C41.4909 47.7625 41.6022 48.134 41.6378 48.5165L42.9263 46.4428C43.2667 45.9481 43.7062 45.5294 44.2169 45.2133C44.7275 44.8972 45.2983 44.6906 45.893 44.6066C46.4876 44.5226 47.0933 44.563 47.6715 44.7252C48.2498 44.8875 48.788 45.1681 49.2522 45.5492L50.7208 46.7548C51.1831 47.1348 51.5622 47.606 51.8346 48.1388C52.107 48.6717 52.2667 49.2549 52.304 49.8522C52.3413 50.4495 52.2552 51.0481 52.0512 51.6107C51.8471 52.1732 51.5295 52.6878 51.118 53.1224L44.9379 59.0482C43.0638 60.7145 41.0014 59.9409 40.0409 59.4163L38.1363 60.4539C38.1891 60.4999 38.237 60.5478 38.2913 60.5929L38.315 60.6113C39.4913 61.4863 40.913 61.9693 42.3789 61.9918C43.8154 61.9909 45.1986 61.4479 46.252 60.4713L52.4859 54.4941C53.0884 53.8678 53.555 53.1239 53.8568 52.309C54.1585 51.494 54.2887 50.6255 54.2393 49.7579Z" stroke="#D80073" stroke-width="0.8" mask="url(#path-4-outside-1_4_6474)"/>
</g>
<path id="Vector_5" d="M22.6908 47.7624L22.7865 47.938L22.6908 47.7624C22.5062 47.863 22.3523 48.0114 22.245 48.1921C22.1377 48.3727 22.0812 48.579 22.0813 48.7891C22.0813 48.7891 22.0813 48.7891 22.0813 48.7892V56.8123C22.0813 57.0223 22.1379 57.2285 22.2451 57.409C22.3524 57.5896 22.5063 57.7379 22.6908 57.8384L30.4407 62.0617L30.443 62.0629C30.6146 62.1537 30.8058 62.2011 31 62.2011C31.1942 62.2011 31.3854 62.1537 31.5571 62.0629L31.5592 62.0617L39.3092 57.8384C39.4937 57.7379 39.6476 57.5896 39.7549 57.409C39.8621 57.2285 39.9187 57.0223 39.9188 56.8123V48.7892C39.9188 48.7891 39.9188 48.7891 39.9188 48.7891C39.9188 48.579 39.8623 48.3727 39.755 48.1921C39.6477 48.0114 39.4938 47.863 39.3092 47.7624L39.2135 47.938L39.3092 47.7624L31.5592 43.5396C31.3877 43.4461 31.1954 43.3971 31 43.3971C30.8046 43.3971 30.6123 43.4461 30.4408 43.5396L22.6908 47.7624ZM20.6363 57.5078L20.5715 57.264L20.3489 57.3827L17.1529 59.0874L17.1523 58.4816L17.1505 56.4144C17.1497 55.6622 17.1489 54.9092 17.1482 54.3428L17.1472 53.6565L17.1469 53.5121L20.4363 51.7961L20.5437 51.74V51.6188V49.4333V49.1034L20.2512 49.256L15.9631 51.4931L15.7501 51.391L14.9499 51.0074C14.2873 50.6896 13.4028 50.265 12.5152 49.8379C11.6276 49.4108 10.7371 48.9813 10.0625 48.6536C9.72514 48.4898 9.44214 48.3515 9.24058 48.2519C9.1397 48.202 9.05984 48.1621 9.00398 48.1335C8.97592 48.1192 8.95486 48.1082 8.94056 48.1005L8.93243 48.096L8.83995 48.0205L8.72243 48.0832L8.16885 48.3786C7.98199 48.4783 7.8257 48.6268 7.71671 48.8084C7.60771 48.9899 7.55008 49.1977 7.55 49.4095V49.4096V57.16C7.54998 57.3719 7.60755 57.5798 7.71655 57.7615L7.71656 57.7615C7.82556 57.9431 7.98189 58.0918 8.16884 58.1914C8.16884 58.1914 8.16885 58.1914 8.16885 58.1914L15.4345 62.0664L15.4364 62.0674C15.6057 62.1554 15.7938 62.2014 15.9846 62.2014C16.1755 62.2014 16.3635 62.1554 16.5329 62.0675L16.5348 62.0664L21.642 59.3423L21.9247 59.1916L21.6651 59.0038C21.1601 58.6385 20.7964 58.11 20.6363 57.5078ZM14.8158 59.0874L9.8875 56.4588V51.1634L14.8203 53.5371C14.8195 53.9439 14.8186 55.1902 14.8177 56.4221L14.8162 58.4839L14.8158 59.0874ZM11.0257 36.4358L11.109 36.3904L11.1265 36.2972C12.3707 29.6728 17.5973 26.0519 19.7788 24.807L20.0087 24.6758L19.8197 24.4905C19.3598 24.0396 18.9286 23.5603 18.5286 23.0555L18.4184 22.9163L18.2671 23.0093C15.4399 24.7476 9.41508 29.363 8.61369 37.4621L8.56519 37.9523L8.94168 37.6347C9.07206 37.5247 9.21261 37.4274 9.36141 37.344C9.36173 37.3438 9.36204 37.3436 9.36236 37.3434L11.0257 36.4358ZM25.3927 48.9524L31 45.897L35.9796 48.6103L30.9398 51.6796L25.3927 48.9524ZM24.4188 56.1185V51.0788L29.8312 53.7399V59.067L24.4188 56.1185ZM37.5812 56.1185L32.1688 59.067V53.6682L37.5812 50.3715V56.1185Z" fill="#D80073" stroke="#D80073" stroke-width="0.4"/>
</g>
</g>
<defs>
<clipPath id="clip0_4_6474">
<rect width="62" height="62" fill="white"/>
</clipPath>
</defs>
</svg>
