<svg width="196" height="196" viewBox="0 0 196 196" fill="none" xmlns="http://www.w3.org/2000/svg">
<g id="svgexport-15 - 2024-10-16T174755.003 1">
<g id="Group">
<path id="Vector" d="M41.4601 52.7064V64.8584H15.3064C14.9048 64.8592 14.507 64.7807 14.1358 64.6274C13.7646 64.4741 13.4274 64.249 13.1434 63.965C12.8594 63.681 12.6343 63.3438 12.481 62.9726C12.3277 62.6014 12.2492 62.2036 12.25 61.802V52.7064C12.25 48.8402 13.7858 45.1324 16.5197 42.3986C19.2535 39.6647 22.9613 38.1289 26.8275 38.1289H26.8826C30.7488 38.1289 34.4567 39.6647 37.1905 42.3986C39.9243 45.1324 41.4601 48.8402 41.4601 52.7064ZM182.727 160.029V169.118C182.727 172.999 181.185 176.721 178.441 179.465C175.697 182.209 171.975 183.751 168.095 183.751H56.0376C59.9109 183.743 63.6224 182.197 66.356 179.453C69.0896 176.709 70.6216 172.991 70.6151 169.118V160.029C70.6151 159.216 70.9378 158.437 71.5121 157.863C72.0864 157.289 72.8654 156.966 73.6776 156.966H179.659C180.061 156.965 180.46 157.044 180.832 157.198C181.205 157.351 181.543 157.577 181.828 157.861C182.113 158.145 182.339 158.483 182.493 158.855C182.648 159.227 182.727 159.626 182.727 160.029Z" fill="#F4FCFF"/>
<path id="Vector_2" d="M159.372 156.984H73.6837C72.0299 156.984 70.6212 158.331 70.6212 160.046V168.352C70.6212 175.941 65.1883 182.88 57.6423 183.671C55.6013 183.887 53.5375 183.672 51.5852 183.039C49.6328 182.406 47.8354 181.369 46.3099 179.996C44.7843 178.623 43.5647 176.944 42.7302 175.069C41.8957 173.194 41.465 171.164 41.4662 169.111V52.6752C41.4662 44.6514 34.9124 38.0977 26.8887 38.0977H144.795C148.661 38.0977 152.369 39.6335 155.103 42.3673C157.837 45.1011 159.372 48.809 159.372 52.6752V156.984Z" fill="white"/>
<path id="Vector_3" d="M150.106 79.5393C168.687 79.5393 183.75 64.476 183.75 45.8946C183.75 27.3132 168.687 12.25 150.106 12.25C131.524 12.25 116.461 27.3132 116.461 45.8946C116.461 64.476 131.524 79.5393 150.106 79.5393Z" fill="#F4FCFF"/>
<g id="Group_2">
<path id="Vector_4" d="M117.483 85.6297C117.483 84.1677 116.902 82.7656 115.869 81.7318C114.835 80.698 113.433 80.1172 111.971 80.1172H72.6482C71.1862 80.1172 69.7841 80.698 68.7503 81.7318C67.7165 82.7656 67.1357 84.1677 67.1357 85.6297C67.1357 87.0917 67.7165 88.4938 68.7503 89.5276C69.7841 90.5614 71.1862 91.1422 72.6482 91.1422H111.971C113.433 91.1422 114.835 90.5614 115.869 89.5276C116.902 88.4938 117.483 87.0917 117.483 85.6297ZM72.6482 103.374C71.1862 103.374 69.7841 103.955 68.7503 104.988C67.7165 106.022 67.1357 107.424 67.1357 108.886C67.1357 110.348 67.7165 111.75 68.7503 112.784C69.7841 113.818 71.1862 114.399 72.6482 114.399H99.5676C101.03 114.399 102.432 113.818 103.466 112.784C104.499 111.75 105.08 110.348 105.08 108.886C105.08 107.424 104.499 106.022 103.466 104.988C102.432 103.955 101.03 103.374 99.5676 103.374H72.6482Z" fill="#E9D023"/>
<path id="Vector_5" d="M179.664 151.454H164.885V100.206C164.885 98.7439 164.304 97.3418 163.27 96.308C162.236 95.2742 160.834 94.6934 159.372 94.6934C157.91 94.6934 156.508 95.2742 155.474 96.308C154.441 97.3418 153.86 98.7439 153.86 100.206V151.454H73.6835C68.9551 151.454 65.1024 155.306 65.1024 160.029V168.451C65.0779 172.193 63.1302 175.494 60.2759 177.136C59.0754 177.779 57.7647 178.147 56.4049 178.202C55.2295 178.257 54.0547 178.079 52.9487 177.678C51.8426 177.276 50.8273 176.659 49.9614 175.862C49.0185 175.008 48.266 173.965 47.7531 172.801C47.2402 171.637 46.9784 170.378 46.9847 169.106V52.7066C46.9349 49.552 46.1926 46.4469 44.8103 43.6109H95.5498C97.0118 43.6109 98.4139 43.0302 99.4477 41.9964C100.482 40.9626 101.062 39.5604 101.062 38.0984C101.062 36.6364 100.482 35.2343 99.4477 34.2005C98.4139 33.1667 97.0118 32.5859 95.5498 32.5859H26.8886C26.8028 32.5859 26.7354 32.6288 26.6497 32.6349C21.3565 32.6849 16.2967 34.8207 12.5686 38.5786C8.84052 42.3365 6.74513 47.4132 6.7373 52.7066V61.8022C6.7373 66.5246 10.5838 70.3711 15.3062 70.3711H35.9474V169.106C35.9501 171.91 36.5364 174.684 37.6689 177.249C38.8014 179.815 40.4554 182.117 42.5257 184.008C46.2129 187.371 51.0394 189.227 55.9823 189.257L56.0374 189.27H168.094C173.435 189.263 178.555 187.139 182.332 183.362C186.108 179.585 188.233 174.465 188.239 169.124V160.035C188.239 155.3 184.387 151.454 179.664 151.454ZM17.7623 59.3461V52.7066C17.7623 47.7086 21.8232 43.6416 26.8763 43.6416C31.8743 43.6416 35.9413 47.7086 35.9413 52.7066V59.3461H17.7623ZM177.214 169.118C177.214 174.147 173.129 178.232 168.1 178.232H73.9469C76.4398 173.332 76.1336 167.808 76.1336 162.497H159.372C159.403 162.497 159.427 162.479 159.464 162.479H177.221L177.214 169.118Z" fill="#E9D023"/>
</g>
<path id="Vector_6" d="M150.106 85.0525C171.696 85.0525 189.269 67.486 189.269 45.8954C189.269 24.3048 171.702 6.73828 150.106 6.73828C128.509 6.73828 110.942 24.3048 110.942 45.8954C110.942 67.486 128.509 85.0525 150.106 85.0525ZM150.106 17.7633C157.564 17.773 164.714 20.74 169.987 26.0137C175.261 31.2874 178.228 38.4373 178.238 45.8954C178.238 61.41 165.614 74.0275 150.106 74.0275C134.597 74.0275 121.974 61.4039 121.974 45.8954C121.982 38.4368 124.948 31.286 130.222 26.0119C135.496 20.7379 142.647 17.7714 150.106 17.7633Z" fill="#D80073"/>
<path id="Vector_7" d="M140.782 56.7968C141.232 57.3721 141.791 57.8523 142.427 58.2093C143.064 58.5663 143.765 58.7931 144.491 58.8763C145.216 58.9595 145.95 58.8976 146.651 58.6941C147.352 58.4906 148.006 58.1496 148.573 57.6911L165.001 44.4549C165.587 44.0088 166.078 43.4496 166.445 42.8104C166.812 42.1712 167.047 41.4649 167.136 40.7334C167.225 40.0018 167.166 39.2599 166.964 38.5513C166.761 37.8428 166.418 37.1821 165.956 36.6083C165.494 36.0344 164.921 35.5592 164.272 35.2105C163.622 34.8619 162.91 34.647 162.176 34.5785C161.442 34.5101 160.702 34.5894 160 34.8119C159.297 35.0344 158.646 35.3955 158.086 35.8738L146.007 45.6003L143 41.7661C142.557 41.1853 142.003 40.6983 141.37 40.3333C140.738 39.9684 140.039 39.7328 139.314 39.6403C138.59 39.5478 137.854 39.6001 137.15 39.7943C136.446 39.9885 135.788 40.3206 135.213 40.7714C134.639 41.2223 134.159 41.7828 133.803 42.4204C133.447 43.0581 133.221 43.7601 133.139 44.4858C133.056 45.2115 133.119 45.9463 133.323 46.6476C133.527 47.3489 133.868 48.0027 134.327 48.5709L140.782 56.7968Z" fill="#D80073"/>
</g>
</g>
</svg>
