<svg width="62" height="62" viewBox="0 0 62 62" fill="none" xmlns="http://www.w3.org/2000/svg">
<g id="svgexport-15 1" clip-path="url(#clip0_4_6423)">
<g id="Group">
<path id="Vector" d="M56.2134 62L21.2479 61.5996C20.9054 61.5996 20.5768 61.4635 20.3346 61.2213C20.0924 60.979 19.9563 60.6505 19.9563 60.3079C19.9563 59.9653 20.0924 59.6368 20.3346 59.3946C20.5768 59.1523 20.9054 59.0162 21.2479 59.0162L54.9604 59.4038L55.2834 31.1033C55.2834 30.7608 55.4194 30.4322 55.6617 30.19C55.9039 29.9478 56.2325 29.8117 56.575 29.8117C56.9176 29.8117 57.2461 29.9478 57.4884 30.19C57.7306 30.4322 57.8667 30.7608 57.8667 31.1033L57.4921 60.7083C57.4914 60.8792 57.4568 61.0483 57.3903 61.2057C57.3237 61.3631 57.2267 61.5058 57.1046 61.6254C56.8672 61.8609 56.5477 61.9952 56.2134 62ZM16.0554 61.5479C15.7147 61.5431 15.3898 61.4038 15.1513 61.1604C15.03 61.0382 14.9344 60.893 14.8701 60.7332C14.8057 60.5735 14.774 60.4026 14.7767 60.2304C14.7966 59.9853 14.8861 59.7509 15.0346 59.5548C15.1832 59.3588 15.3846 59.2092 15.6153 59.1238C15.8459 59.0383 16.0962 59.0204 16.3366 59.0723C16.577 59.1242 16.7977 59.2437 16.9725 59.4167C17.2096 59.6625 17.3396 59.9923 17.3342 60.3337C17.3146 60.6605 17.1716 60.9676 16.9342 61.193C16.6969 61.4184 16.3828 61.5452 16.0554 61.5479ZM10.8888 61.5479L5.16669 61.4187C4.99579 61.418 4.82673 61.3834 4.66931 61.3169C4.51189 61.2504 4.36923 61.1533 4.2496 61.0312C4.12989 60.9106 4.03518 60.7674 3.9709 60.61C3.90662 60.4527 3.87404 60.2842 3.87502 60.1142L4.71461 1.29167C4.71461 0.949095 4.85069 0.620555 5.09293 0.37832C5.33516 0.136086 5.6637 0 6.00627 0C6.23372 0.00236212 6.4565 0.0647427 6.65211 0.180833C6.85429 0.0692957 7.08006 0.00732063 7.31085 0L50.0263 0.50375C50.1895 0.501907 50.3514 0.532985 50.5023 0.595126C50.6532 0.657267 50.79 0.749195 50.9046 0.865417L57.7117 7.44C57.8369 7.56266 57.9358 7.70951 58.0024 7.87161C58.069 8.03372 58.1019 8.20768 58.0992 8.38292L57.9571 20.8088C57.9571 21.1513 57.821 21.4799 57.5788 21.7221C57.3366 21.9643 57.008 22.1004 56.6654 22.1004C56.3229 22.1004 55.9943 21.9643 55.7521 21.7221C55.5099 21.4799 55.3738 21.1513 55.3738 20.8088L55.5417 8.9125L49.4838 3.07417L7.29794 2.58333L6.45835 58.8483H10.9017C11.0726 58.849 11.2416 58.8837 11.3991 58.9502C11.5565 59.0167 11.6991 59.1138 11.8188 59.2358C12.0509 59.49 12.1799 59.8216 12.1804 60.1658C12.1839 60.3387 12.1526 60.5105 12.0885 60.6711C12.0243 60.8317 11.9285 60.9777 11.8069 61.1006C11.6852 61.2234 11.5401 61.3206 11.3802 61.3864C11.2203 61.4521 11.0488 61.4851 10.8759 61.4833L10.8888 61.5479ZM56.6138 27.3058C56.2712 27.3058 55.9427 27.1697 55.7004 26.9275C55.4582 26.6853 55.3221 26.3567 55.3221 26.0142C55.3221 25.6716 55.4582 25.3431 55.7004 25.1008C55.9427 24.8586 56.2712 24.7225 56.6138 24.7225C56.9563 24.7225 57.2849 24.8586 57.5271 25.1008C57.7694 25.3431 57.9054 25.6716 57.9054 26.0142C57.9054 26.3567 57.7694 26.6853 57.5271 26.9275C57.2849 27.1697 56.9563 27.3058 56.6138 27.3058Z" fill="#D80073"/>
<path id="Vector_2" d="M56.5485 10.332L49.651 10.2028C49.3103 10.198 48.9853 10.0587 48.7468 9.81531C48.6271 9.69462 48.5324 9.55148 48.4681 9.39411C48.4038 9.23674 48.3713 9.06822 48.3722 8.89823L48.4497 1.76823C48.4497 1.42566 48.5858 1.09712 48.8281 0.854883C49.0703 0.612648 49.3988 0.476563 49.7414 0.476562C50.084 0.476563 50.4125 0.612648 50.6548 0.854883C50.897 1.09712 51.0331 1.42566 51.0331 1.76823V7.60656H56.626C56.9686 7.60656 57.2971 7.74265 57.5393 7.98488C57.7816 8.22712 57.9177 8.55566 57.9177 8.89823C57.9177 9.2408 57.7816 9.56934 57.5393 9.81158C57.2971 10.0538 56.9686 10.1899 56.626 10.1899L56.5485 10.332ZM27.2018 26.8266H11.7018C11.5013 26.8266 11.3035 26.7799 11.1242 26.6902C10.9448 26.6005 10.7888 26.4703 10.6685 26.3099C10.5482 26.1495 10.4669 25.9632 10.431 25.766C10.3951 25.5687 10.4057 25.3657 10.4618 25.1732L11.4952 21.5695C11.4917 21.5222 11.4917 21.4747 11.4952 21.4274C12.5672 18.8441 15.2152 18.3791 16.4939 18.1466H22.3839C23.6756 18.3791 26.4527 18.857 27.3827 21.492L28.416 25.1732C28.4721 25.3657 28.4827 25.5687 28.4468 25.766C28.411 25.9632 28.3296 26.1495 28.2093 26.3099C28.0917 26.4669 27.9398 26.595 27.7652 26.6845C27.5906 26.774 27.398 26.8226 27.2018 26.8266ZM13.4327 24.2432H25.4839L24.9285 22.2799C24.5668 21.2466 23.3139 20.9882 21.9447 20.7041H17.0106C15.7189 20.9366 14.4272 21.2466 13.9622 22.3703L13.4327 24.2432Z" fill="#D80073"/>
<path id="Vector_3" d="M19.4906 20.6653H19.3743C18.0069 20.6567 16.6986 20.1064 15.7361 19.1349C14.7737 18.1634 14.2357 16.85 14.24 15.4826C14.2442 14.1151 14.7905 12.8051 15.7589 11.8396C16.7274 10.8742 18.0391 10.332 19.4066 10.332C20.7741 10.332 22.0858 10.8742 23.0543 11.8396C24.0228 12.8051 24.569 14.1151 24.5733 15.4826C24.5775 16.85 24.0395 18.1634 23.0771 19.1349C22.1147 20.1064 20.8064 20.6567 19.4389 20.6653H19.4906ZM19.4906 12.9928C19.121 12.9199 18.74 12.9287 18.3742 13.0185C18.0085 13.1084 17.6668 13.2772 17.3731 13.513C17.0794 13.7488 16.8408 14.0461 16.6741 14.3838C16.5074 14.7216 16.4165 15.0917 16.4079 15.4683C16.3993 15.8448 16.4732 16.2187 16.6243 16.5637C16.7754 16.9087 17.0002 17.2165 17.2828 17.4655C17.5654 17.7145 17.899 17.8987 18.2603 18.0052C18.6216 18.1117 19.0018 18.1379 19.3743 18.0819H19.4389C20.0376 17.977 20.5802 17.6644 20.9712 17.199C21.3621 16.7336 21.5765 16.1452 21.5765 15.5373C21.5765 14.9295 21.3621 14.3411 20.9712 13.8757C20.5802 13.4103 20.0376 13.0977 19.4389 12.9928H19.4906ZM27.2018 48.5653H11.7018C11.5024 48.5668 11.3053 48.5221 11.126 48.4347C10.9467 48.3473 10.7901 48.2196 10.6685 48.0615C10.5482 47.9011 10.4669 47.7149 10.431 47.5176C10.3951 47.3203 10.4057 47.1174 10.4618 46.9249L11.4952 43.3211C11.4898 43.2739 11.4898 43.2262 11.4952 43.179C12.5672 40.5957 15.2152 40.1178 16.481 39.8982H21.9577C22.0346 39.8854 22.1132 39.8854 22.1902 39.8982H22.3839C23.6756 40.1307 26.4527 40.6215 27.3827 43.2436L28.416 46.9249C28.4721 47.1174 28.4827 47.3203 28.4468 47.5176C28.411 47.7149 28.3296 47.9011 28.2093 48.0615C28.0903 48.2161 27.9379 48.3418 27.7634 48.429C27.5889 48.5162 27.3969 48.5628 27.2018 48.5653ZM13.4327 45.9819H25.4839L24.9285 44.0315C24.5668 42.9982 23.3139 42.7398 21.9447 42.4428H16.9977C15.706 42.6753 14.4789 42.9724 13.9622 44.109L13.4327 45.9819Z" fill="#D80073"/>
<path id="Vector_4" d="M19.4928 42.4316H19.3766C18.0091 42.4231 16.7008 41.8728 15.7384 40.9013C14.776 39.9298 14.2379 38.6164 14.2422 37.2489C14.2465 35.8814 14.7927 34.5714 15.7612 33.606C16.7297 32.6405 18.0414 32.0984 19.4089 32.0984C20.7763 32.0984 22.0881 32.6405 23.0565 33.606C24.025 34.5714 24.5712 35.8814 24.5755 37.2489C24.5798 38.6164 24.0417 39.9298 23.0793 40.9013C22.1169 41.8728 20.8086 42.4231 19.4411 42.4316H19.4928ZM19.4928 34.7591C19.1233 34.6862 18.7423 34.695 18.3765 34.7849C18.0107 34.8747 17.669 35.0435 17.3753 35.2794C17.0816 35.5152 16.8431 35.8124 16.6763 36.1502C16.5096 36.4879 16.4188 36.8581 16.4102 37.2346C16.4016 37.6112 16.4754 37.9851 16.6266 38.3301C16.7777 38.6751 17.0024 38.9829 17.285 39.2319C17.5676 39.4809 17.9013 39.6651 18.2626 39.7716C18.6239 39.878 19.0041 39.9042 19.3766 39.8483H19.4411C20.0399 39.7434 20.5824 39.4307 20.9734 38.9653C21.3644 38.4999 21.5787 37.9115 21.5787 37.3037C21.5787 36.6959 21.3644 36.1075 20.9734 35.6421C20.5824 35.1766 20.0399 34.864 19.4411 34.7591H19.4928ZM49.2399 17.3216H33.7399C33.3973 17.3216 33.0688 17.1855 32.8266 16.9433C32.5843 16.7011 32.4482 16.3725 32.4482 16.0299C32.4482 15.6874 32.5843 15.3588 32.8266 15.1166C33.0688 14.8744 33.3973 14.7383 33.7399 14.7383H49.2399C49.5825 14.7383 49.911 14.8744 50.1532 15.1166C50.3955 15.3588 50.5316 15.6874 50.5316 16.0299C50.5316 16.3725 50.3955 16.7011 50.1532 16.9433C49.911 17.1855 49.5825 17.3216 49.2399 17.3216ZM41.5028 22.6304H33.7528C33.4102 22.6304 33.0817 22.4943 32.8395 22.252C32.5972 22.0098 32.4611 21.6813 32.4611 21.3387C32.4611 20.9961 32.5972 20.6676 32.8395 20.4254C33.0817 20.1831 33.4102 20.047 33.7528 20.047H41.5028C41.8454 20.047 42.1739 20.1831 42.4162 20.4254C42.6584 20.6676 42.7945 20.9961 42.7945 21.3387C42.7945 21.6813 42.6584 22.0098 42.4162 22.252C42.1739 22.4943 41.8454 22.6304 41.5028 22.6304ZM49.2399 40.352H33.7399C33.3973 40.352 33.0688 40.2159 32.8266 39.9737C32.5843 39.7315 32.4482 39.4029 32.4482 39.0604C32.4482 38.7178 32.5843 38.3893 32.8266 38.147C33.0688 37.9048 33.3973 37.7687 33.7399 37.7687H49.2399C49.5825 37.7687 49.911 37.9048 50.1532 38.147C50.3955 38.3893 50.5316 38.7178 50.5316 39.0604C50.5316 39.4029 50.3955 39.7315 50.1532 39.9737C49.911 40.2159 49.5825 40.352 49.2399 40.352ZM41.5028 45.6608H33.7528C33.4102 45.6608 33.0817 45.5247 32.8395 45.2825C32.5972 45.0402 32.4611 44.7117 32.4611 44.3691C32.4611 44.0265 32.5972 43.698 32.8395 43.4558C33.0817 43.2135 33.4102 43.0774 33.7528 43.0774H41.5028C41.8454 43.0774 42.1739 43.2135 42.4162 43.4558C42.6584 43.698 42.7945 44.0265 42.7945 44.3691C42.7945 44.7117 42.6584 45.0402 42.4162 45.2825C42.1739 45.5247 41.8454 45.6608 41.5028 45.6608Z" fill="#D80073"/>
</g>
</g>
<defs>
<clipPath id="clip0_4_6423">
<rect width="62" height="62" fill="white"/>
</clipPath>
</defs>
</svg>
