<svg width="62" height="62" viewBox="0 0 62 62" fill="none" xmlns="http://www.w3.org/2000/svg">
<g id="svgexport-15 (1) 1">
<g id="Group">
<path id="Vector" d="M60.0625 38.75C58.993 38.75 58.125 39.618 58.125 40.6875V54.25H3.875V31H25.1875C26.257 31 27.125 30.132 27.125 29.0625C27.125 27.993 26.257 27.125 25.1875 27.125H3.875V19.375H25.1875C26.257 19.375 27.125 18.507 27.125 17.4375C27.125 16.368 26.257 15.5 25.1875 15.5H3.875C1.736 15.5 0 17.236 0 19.375V54.25C0 56.389 1.736 58.125 3.875 58.125H58.125C60.264 58.125 62 56.389 62 54.25V40.6875C62 39.618 61.132 38.75 60.0625 38.75Z" fill="#D80073"/>
<path id="Vector_2" d="M17.4375 38.749H9.6875C8.618 38.749 7.75 39.617 7.75 40.6865C7.75 41.756 8.618 42.624 9.6875 42.624H17.4375C18.507 42.624 19.375 41.756 19.375 40.6865C19.375 39.617 18.507 38.749 17.4375 38.749ZM60.8259 9.84153L47.2634 4.02903C47.021 3.92736 46.7609 3.875 46.4981 3.875C46.2353 3.875 45.9751 3.92736 45.7327 4.02903L32.1702 9.84153C31.8226 9.99212 31.5266 10.2411 31.3186 10.5578C31.1107 10.8745 30.9999 11.2452 31 11.624V19.374C31 30.0342 34.9409 36.2652 45.5351 42.3683C45.8335 42.5388 46.1668 42.624 46.5 42.624C46.8332 42.624 47.1665 42.5388 47.4649 42.3683C58.0591 36.2807 62 30.0497 62 19.374V11.624C62 10.849 61.5389 10.1477 60.8259 9.84153ZM58.125 19.374C58.125 28.3214 55.1645 33.2465 46.5 38.439C37.8355 33.2349 34.875 28.3098 34.875 19.374V12.9028L46.5 7.91953L58.125 12.9028V19.374Z" fill="#D80073"/>
<path id="Vector_3" d="M53.524 15.9199C52.6909 15.2612 51.4741 15.389 50.7999 16.2222L44.7084 23.8404L42.2982 20.2367C41.6975 19.3454 40.4924 19.1091 39.6128 19.6981C38.7254 20.2909 38.4813 21.496 39.0741 22.3834L42.9491 28.1959C43.294 28.7113 43.8598 29.029 44.4798 29.0601H44.5612C45.1463 29.0601 45.7043 28.7965 46.0763 28.3315L53.8263 18.644C54.4928 17.807 54.361 16.5903 53.524 15.9199Z" fill="#D80073"/>
</g>
</g>
</svg>
