<svg width="89" height="128" viewBox="0 0 89 128" fill="none" xmlns="http://www.w3.org/2000/svg">
<g id="Group">
<path id="Vector" d="M42.7061 26.725C37.6129 20.5602 34.1268 9.795 32.3968 0C30.6641 9.797 27.1818 20.5645 22.0867 26.7292C16.9936 32.8897 8.09368 37.1077 0 39.2052C8.09698 41.2985 16.9952 45.514 22.0884 51.679C27.1816 57.8415 30.6676 68.609 32.4003 78.404C34.1304 68.607 37.6154 57.8395 42.7077 51.6747C47.8009 45.5122 56.7008 41.2962 64.7945 39.1987C56.6993 37.1055 47.8011 32.8877 42.7061 26.725Z" fill="#D80073"/>
<path id="Vector_2" d="M75.7904 76.0846C72.7503 72.4044 70.6642 65.9697 69.6307 60.1187C68.5954 65.9697 66.5163 72.4041 63.4729 76.0866C60.4294 79.7651 55.1122 82.2869 50.2773 83.5396C55.1139 84.7921 60.4294 87.3099 63.4729 90.9924C66.5163 94.6729 68.5991 101.107 69.6342 106.958C70.6675 101.105 72.7503 94.6729 75.7919 90.9904C78.8337 87.3099 84.1517 84.7899 88.9858 83.5354C84.1519 82.2849 78.8339 79.7651 75.7904 76.0846Z" fill="#786A0C"/>
<path id="Vector_3" d="M21.8367 88.6755C20.9675 93.5875 19.2219 98.9913 16.6673 102.082C14.1131 105.171 9.64887 107.287 5.58984 108.339C9.64887 109.393 14.1131 111.503 16.6673 114.596C19.2219 117.686 20.971 123.086 21.8402 128C22.7086 123.086 24.455 117.686 27.0104 114.594C29.563 111.503 34.028 109.389 38.0862 108.335C34.0283 107.285 29.563 105.171 27.0088 102.08C24.455 98.9915 22.7051 93.5878 21.8367 88.6755Z" fill="#E9D023"/>
</g>
</svg>
